<svg width="339" height="28" viewBox="0 0 339 28" fill="none" xmlns="http://www.w3.org/2000/svg">
<path d="M5.17969 22.1562C1.98438 22.1562 0.679688 19.6562 0.679688 16.7344C0.679688 13.8125 1.96094 11.2344 5.17969 11.2344C8.44531 11.2344 9.67969 13.9219 9.67969 16.7344C9.67969 19.6562 8.38281 22.1562 5.17969 22.1562ZM2.76562 16.6953C2.76562 18.5703 3.45312 20.2656 5.17969 20.2656C6.92188 20.2656 7.59375 18.5078 7.59375 16.6953C7.59375 14.8125 6.91406 13.125 5.17969 13.125C3.44531 13.125 2.76562 14.875 2.76562 16.6953ZM20.3381 18.5547C20.3381 21.1641 18.385 22.1641 16.0334 22.1641C14.8147 22.1641 13.5959 21.8984 12.6584 21.4688L12.9319 19.6562C13.7444 20.0703 14.8069 20.3203 15.8069 20.3203C17.1506 20.3203 18.1038 19.8594 18.1038 18.6562C18.1038 17.3828 17.0569 16.9141 15.6194 16.9141C14.8381 16.9141 14.0569 17.0156 13.4397 17.2031L13.0803 16.8516L13.7366 11.3906H19.8459V13.2422H15.385L15.1663 15.3047C15.4475 15.2422 15.8225 15.2188 16.1819 15.2188C18.4241 15.2188 20.3381 16.2969 20.3381 18.5547ZM23.3325 21.0078C23.3325 20.3672 23.8325 19.8594 24.4888 19.8594C25.145 19.8594 25.6528 20.3672 25.6528 21.0078C25.6528 21.6562 25.145 22.1562 24.4888 22.1562C23.8325 22.1562 23.3325 21.6562 23.3325 21.0078Z" fill="black"/>
<path d="M37.8828 19.4922L38.1797 21.3594C37.2812 21.7891 36.1719 22.1562 34.5469 22.1562C31.1484 22.1562 28.5859 19.9844 28.5859 16.6953C28.5859 13.2656 31.3047 11.2344 34.6875 11.2344C35.9688 11.2344 37.1875 11.5469 38.0156 11.9297L37.8516 13.8203C37.1719 13.4922 36.0859 13.1875 34.875 13.1875C32.6094 13.1875 30.7812 14.4062 30.7812 16.6797C30.7812 18.8359 32.4688 20.25 34.8359 20.25C36.0312 20.25 37.1172 19.9531 37.8828 19.4922ZM40.7209 16.7188C40.7209 13.5078 43.0647 11.2344 46.3303 11.2344C49.6116 11.2344 51.9475 13.5156 51.9475 16.7188C51.9475 19.9219 49.6116 22.1562 46.3303 22.1562C43.0647 22.1562 40.7209 19.9219 40.7209 16.7188ZM42.8928 16.7109C42.8928 18.7891 44.2913 20.1953 46.3381 20.1953C48.4006 20.1953 49.7834 18.7891 49.7834 16.7109C49.7834 14.6484 48.4006 13.2031 46.3381 13.2031C44.2913 13.2031 42.8928 14.6484 42.8928 16.7109ZM55.3481 18.2344V11.3906H57.4497V18.0938C57.4497 19.6094 58.5434 20.2656 59.9731 20.2656C61.4966 20.2656 62.5122 19.5469 62.5122 18.0938V11.3906H64.6138V18.2344C64.6138 21 62.4028 22.1562 59.9731 22.1562C57.3481 22.1562 55.3481 20.9062 55.3481 18.2344ZM73.4675 18.875H70.6628V22H68.5534V11.3906H73.4675C75.6081 11.3906 77.3347 12.7422 77.3347 15.1484C77.3347 17.4219 75.6081 18.875 73.4675 18.875ZM73.2253 13.2188H70.6628V17.0547H73.2253C74.3425 17.0547 75.1628 16.2812 75.1628 15.1484C75.1628 13.9141 74.3269 13.2188 73.2253 13.2188ZM88.4619 20.1797V22H80.6416V11.3906H82.7509V20.1797H88.4619ZM93.6828 11.3906V22H91.5734V11.3906H93.6828ZM99.8178 14.7969V22H97.7084V11.3906H99.6225L105.724 18.6719V11.3906H107.833V22H105.888L99.8178 14.7969ZM119.437 19.9219V17.8047H116.586V16.0234H121.531V21.2031C120.453 21.7969 118.89 22.1562 117.554 22.1562C113.711 22.1562 111.312 19.8828 111.312 16.6953C111.312 13.2422 114.07 11.2422 117.648 11.2422C118.851 11.2422 120.039 11.4844 121.078 11.9609L120.914 13.8438C120.445 13.6328 119.218 13.1641 117.765 13.1641C115.304 13.1641 113.5 14.3906 113.5 16.6953C113.5 18.8438 115.093 20.2344 117.468 20.2344C118.109 20.2344 118.961 20.1406 119.437 19.9219ZM128.689 11.2344C130.174 11.2344 131.244 11.5234 132.088 11.8984L131.908 13.7734C131.353 13.4453 129.978 13.0938 128.838 13.0938C127.689 13.0938 126.869 13.4453 126.869 14.3203C126.869 15.2031 127.619 15.3594 128.346 15.5781L129.877 16.0312C131.627 16.5469 132.627 17.2969 132.627 18.9219C132.627 20.8047 131.025 22.1562 128.603 22.1562C127.103 22.1562 125.408 21.7812 124.674 21.375L124.846 19.4922C125.369 19.8203 127.096 20.2812 128.416 20.2812C129.533 20.2812 130.424 19.8906 130.424 19.0234C130.424 18.3516 130.025 18.0547 129.127 17.8125L127.447 17.3594C126.096 16.9922 124.674 16.2578 124.674 14.4922C124.674 12.5312 126.213 11.2344 128.689 11.2344Z" fill="black"/>
<line x1="139" y1="16.5" x2="304" y2="16.5" stroke="#0F3B68" stroke-dasharray="2 2"/>
<path d="M317.001 20.2344H323.939V23H312.782V20.5977L317.88 15.875C319.439 14.4219 320.083 13.3086 320.083 12.0195C320.083 10.2031 318.782 9.64062 317.224 9.64062C315.888 9.64062 314.259 10.1445 313.345 10.707L312.923 8.03516C314.306 7.29688 315.946 6.85156 317.622 6.85156C320.669 6.85156 323.4 8.24609 323.4 11.8555C323.4 13.9531 322.263 15.6172 319.72 17.8438C318.853 18.6055 317.962 19.4141 317.001 20.2344ZM333.835 7.08594L328.948 16.6719H333.307V13.1445H336.343V16.6719H338.546V19.3672H336.343V23.0117H333.307V19.3672H325.55V16.918L330.472 7.08594H333.835Z" fill="#122C4C"/>
</svg>
