<svg width="310" height="18" viewBox="0 0 310 18" fill="none" xmlns="http://www.w3.org/2000/svg">
<line x1="128" y1="9.5" x2="279" y2="9.49998" stroke="#0F3B68" stroke-dasharray="2 2"/>
<path d="M298.571 4.04297L296.128 8.83594H298.307V7.07227H299.825V8.83594H300.926V10.1836H299.825V12.0059H298.307V10.1836H294.428V8.95898L296.889 4.04297H298.571ZM303.496 12H301.738L304.878 5.47852H301.24V4.04297H306.63V5.26172L303.496 12Z" fill="#122C4C"/>
<path d="M2.885 13.13C2.45833 13.13 2.075 13.055 1.735 12.905C1.395 12.7517 1.125 12.53 0.925 12.24C0.725 11.9467 0.621667 11.59 0.615 11.17L1.575 11.17C1.575 11.53 1.7 11.8017 1.95 11.985C2.20333 12.165 2.515 12.255 2.885 12.255C3.29833 12.255 3.62833 12.1267 3.875 11.87C4.12167 11.61 4.245 11.2917 4.245 10.915C4.245 10.1683 3.75667 9.795 2.78 9.795L0.97 9.795L1.255 6.63L4.91 6.63L4.91 7.5L2.02 7.5L2.21 7.2L2.01 9.275L1.91 9.18C2.07 9.14333 2.255 9.11667 2.465 9.1C2.675 9.08333 2.86 9.075 3.02 9.075C3.69333 9.075 4.22833 9.23167 4.625 9.545C5.025 9.855 5.225 10.3117 5.225 10.915C5.225 11.3317 5.12833 11.7083 4.935 12.045C4.745 12.3783 4.475 12.6433 4.125 12.84C3.775 13.0333 3.36167 13.13 2.885 13.13ZM5.69766 12.44C5.69766 12.2533 5.76099 12.095 5.88766 11.965C6.01766 11.835 6.18099 11.77 6.37766 11.77C6.57432 11.77 6.74099 11.835 6.87766 11.965C7.01432 12.095 7.08266 12.2533 7.08266 12.44C7.08266 12.6233 7.01432 12.7783 6.87766 12.905C6.74099 13.0283 6.57432 13.09 6.37766 13.09C6.18099 13.09 6.01766 13.0267 5.88766 12.9C5.76099 12.7733 5.69766 12.62 5.69766 12.44ZM12.4424 13.13C11.8791 13.13 11.3924 12.9933 10.9824 12.72C10.5758 12.4433 10.2608 12.055 10.0374 11.555C9.81409 11.0517 9.70242 10.4617 9.70242 9.785C9.70242 9.07167 9.82076 8.47333 10.0574 7.99C10.2941 7.50333 10.6191 7.13667 11.0324 6.89C11.4491 6.64 11.9191 6.515 12.4424 6.515C13.1458 6.515 13.7058 6.69 14.1224 7.04C14.5391 7.38667 14.8158 7.83833 14.9524 8.395L13.9374 8.59C13.8174 8.22 13.6274 7.925 13.3674 7.705C13.1074 7.48167 12.7991 7.37 12.4424 7.37C12.1291 7.37 11.8424 7.46 11.5824 7.64C11.3224 7.82 11.1141 8.09 10.9574 8.45C10.8008 8.80667 10.7224 9.25167 10.7224 9.785C10.7224 10.2783 10.7874 10.7117 10.9174 11.085C11.0474 11.455 11.2391 11.7433 11.4924 11.95C11.7458 12.1567 12.0624 12.26 12.4424 12.26C12.9058 12.26 13.2708 12.1367 13.5374 11.89C13.8041 11.64 13.9374 11.315 13.9374 10.915L14.9624 10.915C14.9624 11.3817 14.8574 11.78 14.6474 12.11C14.4408 12.4367 14.1491 12.6883 13.7724 12.865C13.3958 13.0417 12.9524 13.13 12.4424 13.13ZM15.9734 6.63L16.9234 6.63L16.9234 10.655C16.9234 11.2217 17.065 11.63 17.3484 11.88C17.635 12.13 18.0067 12.255 18.4634 12.255C18.92 12.255 19.29 12.13 19.5734 11.88C19.8567 11.63 19.9984 11.2217 19.9984 10.655L19.9984 6.63L20.9484 6.63L20.9484 10.655C20.9484 11.1883 20.8484 11.64 20.6484 12.01C20.4484 12.3767 20.1617 12.655 19.7884 12.845C19.4184 13.035 18.9767 13.13 18.4634 13.13C17.9534 13.13 17.5117 13.035 17.1384 12.845C16.765 12.655 16.4767 12.3767 16.2734 12.01C16.0734 11.64 15.9734 11.1883 15.9734 10.655L15.9734 6.63ZM22.4828 13L22.4828 6.63L24.7628 6.63C25.5061 6.63 26.0711 6.80667 26.4578 7.16C26.8478 7.51 27.0428 7.97167 27.0428 8.545C27.0428 9.11167 26.8478 9.57 26.4578 9.92C26.0711 10.27 25.5061 10.445 24.7628 10.445L23.4328 10.445L23.4328 13L22.4828 13ZM25.9978 13L24.2328 10.07L25.2578 10.07L27.2328 13L25.9978 13ZM23.4328 9.795L24.6778 9.795C25.1311 9.795 25.4761 9.68667 25.7128 9.47C25.9495 9.25 26.0678 8.96667 26.0678 8.62C26.0678 8.26333 25.9561 7.98 25.7328 7.77C25.5128 7.55667 25.1895 7.45 24.7628 7.45L23.4328 7.45L23.4328 9.795ZM30.3076 11.975L32.0826 6.63L33.0876 6.63L30.8526 13L29.8576 13L27.6476 6.63L28.6576 6.63L30.4176 11.975L30.3076 11.975ZM33.9236 13L33.9236 6.63L37.9236 6.63L37.9236 7.45L34.8736 7.45L34.8736 9.39L37.7436 9.39L37.7436 10.21L34.8736 10.21L34.8736 12.17L37.9236 12.17L37.9236 13L33.9236 13ZM39.3562 6.63L41.3062 6.63C41.9529 6.63 42.5146 6.76167 42.9912 7.025C43.4712 7.285 43.8446 7.65333 44.1112 8.13C44.3779 8.60667 44.5112 9.16833 44.5112 9.815C44.5112 10.4583 44.3779 11.0183 44.1112 11.495C43.8446 11.9717 43.4712 12.3417 42.9912 12.605C42.5146 12.8683 41.9529 13 41.3062 13L39.3562 13L39.3562 6.63ZM40.3062 7.485L40.3062 12.16L41.3062 12.16C41.7596 12.16 42.1479 12.0583 42.4712 11.855C42.7979 11.6517 43.0496 11.3733 43.2262 11.02C43.4029 10.6667 43.4912 10.265 43.4912 9.815C43.4912 9.365 43.4029 8.965 43.2262 8.615C43.0496 8.26167 42.7979 7.985 42.4712 7.785C42.1479 7.585 41.7596 7.485 41.3062 7.485L40.3062 7.485ZM47.0564 12.705L47.0564 11.74C47.3064 11.8933 47.5531 12.0083 47.7964 12.085C48.0397 12.1617 48.2731 12.2 48.4964 12.2C48.8164 12.2 49.0464 12.1067 49.1864 11.92C49.3297 11.73 49.4014 11.455 49.4014 11.095L49.4014 6.63L50.3514 6.63L50.3514 11.095C50.3514 11.5783 50.2764 11.97 50.1264 12.27C49.9797 12.5667 49.7714 12.785 49.5014 12.925C49.2347 13.0617 48.9231 13.13 48.5664 13.13C48.2864 13.13 48.0214 13.09 47.7714 13.01C47.5214 12.93 47.2831 12.8283 47.0564 12.705ZM51.0954 13L53.2754 6.63L54.4504 6.63L56.5654 13L55.5654 13L55.0704 11.48L52.6104 11.48L52.0954 13L51.0954 13ZM52.8504 10.75L54.8354 10.75L53.8454 7.775L52.8504 10.75ZM56.3297 6.63L57.3947 6.63L58.9997 12.16L58.7397 12.16L60.3597 7.19L61.0047 7.19L62.6347 12.105L62.3947 12.105L64.1697 6.63L65.2397 6.63L63.0147 13L62.0147 13L60.6397 8.92L60.7747 8.92L59.3697 13L58.3747 13L56.3297 6.63ZM70.4413 13.13C69.8779 13.13 69.3913 12.9933 68.9813 12.72C68.5746 12.4433 68.2596 12.055 68.0363 11.555C67.8129 11.0517 67.7013 10.4617 67.7013 9.785C67.7013 9.07167 67.8196 8.47333 68.0563 7.99C68.2929 7.50333 68.6179 7.13667 69.0313 6.89C69.4479 6.64 69.9179 6.515 70.4413 6.515C71.1446 6.515 71.7046 6.69 72.1213 7.04C72.5379 7.38667 72.8146 7.83833 72.9513 8.395L71.9363 8.59C71.8163 8.22 71.6263 7.925 71.3663 7.705C71.1063 7.48167 70.7979 7.37 70.4413 7.37C70.1279 7.37 69.8413 7.46 69.5813 7.64C69.3213 7.82 69.1129 8.09 68.9563 8.45C68.7996 8.80667 68.7213 9.25167 68.7213 9.785C68.7213 10.2783 68.7863 10.7117 68.9163 11.085C69.0463 11.455 69.2379 11.7433 69.4913 11.95C69.7446 12.1567 70.0613 12.26 70.4413 12.26C70.9046 12.26 71.2696 12.1367 71.5363 11.89C71.8029 11.64 71.9363 11.315 71.9363 10.915L72.9613 10.915C72.9613 11.3817 72.8563 11.78 72.6463 12.11C72.4396 12.4367 72.1479 12.6883 71.7713 12.865C71.3946 13.0417 70.9513 13.13 70.4413 13.13ZM76.4222 13.13C75.8789 13.13 75.3955 13.0067 74.9722 12.76C74.5489 12.5133 74.2155 12.145 73.9722 11.655C73.7322 11.165 73.6122 10.5533 73.6122 9.82C73.6122 9.07333 73.7322 8.45667 73.9722 7.97C74.2155 7.48 74.5489 7.115 74.9722 6.875C75.3955 6.635 75.8789 6.515 76.4222 6.515C76.9689 6.515 77.4539 6.63667 77.8772 6.88C78.3039 7.12333 78.6372 7.49167 78.8772 7.985C79.1205 8.475 79.2422 9.08667 79.2422 9.82C79.2422 10.56 79.1205 11.1767 78.8772 11.67C78.6372 12.16 78.3039 12.5267 77.8772 12.77C77.4539 13.01 76.9689 13.13 76.4222 13.13ZM76.4222 12.26C76.9889 12.26 77.4355 12.0517 77.7622 11.635C78.0922 11.2183 78.2572 10.61 78.2572 9.81C78.2572 9.03 78.0922 8.42833 77.7622 8.005C77.4355 7.57833 76.9889 7.365 76.4222 7.365C75.8655 7.365 75.4222 7.57833 75.0922 8.005C74.7622 8.43167 74.5972 9.03667 74.5972 9.82C74.5972 10.6133 74.7622 11.2183 75.0922 11.635C75.4222 12.0517 75.8655 12.26 76.4222 12.26ZM80.2835 6.63L81.2335 6.63L81.2335 10.655C81.2335 11.2217 81.3752 11.63 81.6585 11.88C81.9452 12.13 82.3168 12.255 82.7735 12.255C83.2302 12.255 83.6002 12.13 83.8835 11.88C84.1668 11.63 84.3085 11.2217 84.3085 10.655L84.3085 6.63L85.2585 6.63L85.2585 10.655C85.2585 11.1883 85.1585 11.64 84.9585 12.01C84.7585 12.3767 84.4718 12.655 84.0985 12.845C83.7285 13.035 83.2868 13.13 82.7735 13.13C82.2635 13.13 81.8218 13.035 81.4485 12.845C81.0752 12.655 80.7868 12.3767 80.5835 12.01C80.3835 11.64 80.2835 11.1883 80.2835 10.655L80.2835 6.63ZM86.768 13L86.768 6.63L88.903 6.63C89.613 6.63 90.1596 6.80667 90.543 7.16C90.9263 7.51333 91.118 8.00167 91.118 8.625C91.118 9.24167 90.9263 9.72667 90.543 10.08C90.1596 10.43 89.613 10.605 88.903 10.605L87.728 10.605L87.728 13L86.768 13ZM87.728 9.775L88.903 9.775C89.3096 9.775 89.618 9.67 89.828 9.46C90.038 9.25 90.143 8.97167 90.143 8.625C90.143 8.275 90.038 7.99167 89.828 7.775C89.618 7.55833 89.3096 7.45 88.903 7.45L87.728 7.45L87.728 9.775ZM93.0973 6.63L93.0973 12.17L95.8423 12.17L95.8423 13L92.1473 13L92.1473 6.63L93.0973 6.63ZM96.6324 13L96.6324 6.63L97.5824 6.63L97.5824 13L96.6324 13ZM99.2178 6.63L100.303 6.63L103.388 11.57L103.313 11.57L103.313 6.63L104.263 6.63L104.263 13L103.253 13L100.018 7.84L100.168 7.84L100.168 13L99.2178 13L99.2178 6.63ZM108.195 13.13C107.682 13.13 107.217 12.9967 106.8 12.73C106.384 12.46 106.052 12.0817 105.805 11.595C105.559 11.105 105.435 10.53 105.435 9.87C105.435 9.33333 105.512 8.85667 105.665 8.44C105.822 8.02333 106.037 7.67167 106.31 7.385C106.587 7.09833 106.907 6.88167 107.27 6.735C107.634 6.58833 108.022 6.515 108.435 6.515C108.975 6.515 109.439 6.62833 109.825 6.855C110.212 7.08167 110.53 7.44167 110.78 7.935L109.84 8.205C109.64 7.92833 109.42 7.72167 109.18 7.585C108.94 7.445 108.677 7.375 108.39 7.375C108.04 7.375 107.717 7.47667 107.42 7.68C107.127 7.88 106.892 8.16667 106.715 8.54C106.539 8.91 106.45 9.35333 106.45 9.87C106.45 10.34 106.524 10.755 106.67 11.115C106.82 11.4717 107.03 11.7517 107.3 11.955C107.574 12.155 107.895 12.255 108.265 12.255C108.559 12.255 108.822 12.1883 109.055 12.055C109.289 11.9217 109.472 11.725 109.605 11.465C109.742 11.2017 109.81 10.8767 109.81 10.49L110.06 10.49C110.06 11.0267 109.995 11.4933 109.865 11.89C109.739 12.2833 109.539 12.5883 109.265 12.805C108.992 13.0217 108.635 13.13 108.195 13.13ZM109.96 13L109.81 11.54L109.81 10.46L108.28 10.42L108.28 9.795L110.73 9.795L110.73 13L109.96 13Z" fill="black"/>
</svg>
