<svg width="345" height="26" viewBox="0 0 345 26" fill="none" xmlns="http://www.w3.org/2000/svg">
<path d="M5.17969 20.1562C1.98438 20.1562 0.679688 17.6562 0.679688 14.7344C0.679688 11.8125 1.96094 9.23438 5.17969 9.23438C8.44531 9.23438 9.67969 11.9219 9.67969 14.7344C9.67969 17.6562 8.38281 20.1562 5.17969 20.1562ZM2.76562 14.6953C2.76562 16.5703 3.45312 18.2656 5.17969 18.2656C6.92188 18.2656 7.59375 16.5078 7.59375 14.6953C7.59375 12.8125 6.91406 11.125 5.17969 11.125C3.44531 11.125 2.76562 12.875 2.76562 14.6953ZM20.5334 9.73438L20.3694 11.5703C19.6116 11.2031 18.7913 11.0469 17.9944 11.0469C16.3928 11.0547 15.0178 11.8672 14.9397 14.0469C15.5022 13.3516 16.4006 13.0078 17.4319 13.0078C19.3459 13.0078 21.1819 13.9688 21.1819 16.4453C21.1819 18.7969 19.4788 20.1562 17.0178 20.1562C13.9866 20.1562 12.7991 17.8906 12.7991 15.1484C12.7991 11.5469 14.4475 9.23438 17.8303 9.23438C18.9475 9.23438 19.7756 9.40625 20.5334 9.73438ZM17.0725 18.3594C18.2366 18.3594 19.0647 17.625 19.0647 16.5156C19.0647 15.375 18.26 14.6953 17.0725 14.6953C15.8928 14.6953 15.135 15.5312 15.135 16.5C15.135 17.5 15.9006 18.3594 17.0725 18.3594ZM24.145 19.0078C24.145 18.3672 24.645 17.8594 25.3013 17.8594C25.9575 17.8594 26.4653 18.3672 26.4653 19.0078C26.4653 19.6562 25.9575 20.1562 25.3013 20.1562C24.645 20.1562 24.145 19.6562 24.145 19.0078Z" fill="black"/>
<path d="M29.1328 9.39062H33.7031C37.125 9.39062 39.0625 11.4219 39.0625 14.6875C39.0625 17.9766 37.0859 20 33.7031 20H29.1328V9.39062ZM33.4766 18.1797C35.875 18.1797 36.8984 16.8906 36.8984 14.6875C36.8984 12.4688 35.8516 11.2109 33.4766 11.2109H31.2422V18.1797H33.4766ZM44.6897 9.39062V20H42.5803V9.39062H44.6897ZM53.0356 17.8359L56.0825 9.39062H58.3403L54.3638 20H51.7075L47.7153 9.39062H49.9731L53.0356 17.8359ZM69.3425 18.1797V20H61.3659V9.39062H69.2253V11.2188H63.4753V13.6641H68.5066V15.4922H63.4753V18.1797H69.3425ZM79.8056 19.9922L77.3759 16.875H74.9228V20H72.8134V9.39062H77.7353C79.8759 9.39062 81.6103 10.75 81.6103 13.1406C81.6103 14.6797 80.7509 15.8906 79.54 16.4766L82.3525 19.9922H79.8056ZM77.4931 11.2188H74.9228V15.0547H77.4931C78.6181 15.0547 79.4384 14.2812 79.4384 13.1484C79.4384 11.9141 78.6025 11.2188 77.4931 11.2188ZM87.6594 20V11.2656H84.3391V9.39062H93.0734V11.2656H89.7609V20H87.6594ZM104.138 18.1797V20H96.1616V9.39062H104.021V11.2188H98.2709V13.6641H103.302V15.4922H98.2709V18.1797H104.138ZM114.601 19.9922L112.172 16.875H109.718V20H107.609V9.39062H112.531C114.672 9.39062 116.406 10.75 116.406 13.1406C116.406 14.6797 115.547 15.8906 114.336 16.4766L117.148 19.9922H114.601ZM112.289 11.2188H109.718V15.0547H112.289C113.414 15.0547 114.234 14.2812 114.234 13.1484C114.234 11.9141 113.398 11.2188 112.289 11.2188ZM127.613 20L124.707 9.39062H126.824L129.176 17.8984L131.559 9.55469H133.457L135.84 17.8984L138.192 9.39062H140.309L137.402 20H134.449L132.504 13.1641L130.567 20H127.613ZM152.819 9.39062V20H150.717V15.5H145.545V20H143.436V9.39062H145.545V13.6797H150.717V9.39062H152.819ZM164.829 18.1797V20H156.852V9.39062H164.712V11.2188H158.962V13.6641H163.993V15.4922H158.962V18.1797H164.829ZM176.276 18.1797V20H168.3V9.39062H176.159V11.2188H170.409V13.6641H175.44V15.4922H170.409V18.1797H176.276ZM187.568 18.1797V20H179.747V9.39062H181.857V18.1797H187.568ZM194.187 9.23438C195.671 9.23438 196.742 9.52344 197.585 9.89844L197.406 11.7734C196.851 11.4453 195.476 11.0938 194.335 11.0938C193.187 11.0938 192.367 11.4453 192.367 12.3203C192.367 13.2031 193.117 13.3594 193.843 13.5781L195.374 14.0312C197.124 14.5469 198.124 15.2969 198.124 16.9219C198.124 18.8047 196.523 20.1562 194.101 20.1562C192.601 20.1562 190.906 19.7812 190.171 19.375L190.343 17.4922C190.867 17.8203 192.593 18.2812 193.913 18.2812C195.031 18.2812 195.921 17.8906 195.921 17.0234C195.921 16.3516 195.523 16.0547 194.624 15.8125L192.945 15.3594C191.593 14.9922 190.171 14.2578 190.171 12.4922C190.171 10.5312 191.71 9.23438 194.187 9.23438Z" fill="black"/>
<line x1="210" y1="15.5" x2="309" y2="15.5" stroke="#0F3B68" stroke-dasharray="2 2"/>
<path d="M330.523 17.832C330.523 21.7461 327.594 23.2461 324.066 23.2461C322.238 23.2461 320.41 22.8477 319.004 22.2031L319.414 19.4844C320.633 20.0938 322.227 20.457 323.727 20.457C325.742 20.457 327.172 19.7773 327.172 17.9844C327.172 16.0742 325.602 15.3711 323.445 15.3711C322.273 15.3711 321.102 15.5234 320.176 15.8047L319.637 15.2773L320.621 7.08594H329.785V9.86328H323.094L322.766 12.957C323.188 12.8633 323.75 12.8281 324.289 12.8281C327.652 12.8281 330.523 14.4453 330.523 17.832ZM344.012 7.60156L343.766 10.3555C342.629 9.80469 341.398 9.57031 340.203 9.57031C337.801 9.58203 335.738 10.8008 335.621 14.0703C336.465 13.0273 337.812 12.5117 339.359 12.5117C342.23 12.5117 344.984 13.9531 344.984 17.668C344.984 21.1953 342.43 23.2344 338.738 23.2344C334.191 23.2344 332.41 19.8359 332.41 15.7227C332.41 10.3203 334.883 6.85156 339.957 6.85156C341.633 6.85156 342.875 7.10938 344.012 7.60156ZM338.82 20.5391C340.566 20.5391 341.809 19.4375 341.809 17.7734C341.809 16.0625 340.602 15.043 338.82 15.043C337.051 15.043 335.914 16.2969 335.914 17.75C335.914 19.25 337.062 20.5391 338.82 20.5391Z" fill="#122C4C"/>
</svg>
