<svg width="310" height="18" viewBox="0 0 310 18" fill="none" xmlns="http://www.w3.org/2000/svg">
<line x1="128" y1="10.5" x2="279" y2="10.5" stroke="#0F3B68" stroke-dasharray="2 2"/>
<path d="M295.635 7.50586L297.727 5.43164H294.581V4.04297H299.713V5.27344L297.563 7.32422C299.128 7.37695 300.153 8.33203 300.153 9.61523C300.153 11.4141 298.653 12.1289 296.848 12.1289C295.876 12.1289 294.938 11.9355 294.211 11.5547L294.387 10.1777C295.143 10.5645 295.981 10.7461 296.708 10.7461C297.897 10.7461 298.518 10.3359 298.518 9.62109C298.518 8.8125 297.686 8.44336 296.678 8.44336C296.292 8.44336 295.928 8.48438 295.635 8.56055V7.50586ZM303.255 10.6172H306.724V12H301.146V10.7988L303.695 8.4375C304.474 7.71094 304.796 7.1543 304.796 6.50977C304.796 5.60156 304.146 5.32031 303.367 5.32031C302.699 5.32031 301.884 5.57227 301.427 5.85352L301.216 4.51758C301.908 4.14844 302.728 3.92578 303.566 3.92578C305.089 3.92578 306.455 4.62305 306.455 6.42773C306.455 7.47656 305.886 8.30859 304.615 9.42188C304.181 9.80273 303.736 10.207 303.255 10.6172Z" fill="#122C4C"/>
<path d="M0.625 13L0.625 11.995C0.625 11.6317 0.681667 11.3267 0.795 11.08C0.908333 10.83 1.07333 10.6217 1.29 10.455C1.50667 10.2883 1.77 10.145 2.08 10.025L3.36 9.525C3.66667 9.40167 3.895 9.245 4.045 9.055C4.195 8.865 4.27 8.63 4.27 8.35C4.27 8.06 4.16833 7.82 3.965 7.63C3.76167 7.44 3.47333 7.345 3.1 7.345C2.73667 7.345 2.435 7.42833 2.195 7.595C1.95833 7.75833 1.82333 8.00333 1.79 8.33L0.735 8.33C0.751667 7.93333 0.861667 7.6 1.065 7.33C1.26833 7.06 1.54333 6.85667 1.89 6.72C2.23667 6.58333 2.635 6.515 3.085 6.515C3.505 6.515 3.88167 6.595 4.215 6.755C4.54833 6.915 4.81167 7.13667 5.005 7.42C5.20167 7.70333 5.3 8.03 5.3 8.4C5.3 8.73 5.24 9.01833 5.12 9.265C5 9.50833 4.82333 9.72 4.59 9.9C4.35667 10.08 4.07333 10.2367 3.74 10.37L2.44 10.885C2.14667 10.9983 1.92833 11.1317 1.785 11.285C1.645 11.435 1.575 11.6317 1.575 11.875L1.575 12.125L5.25 12.125L5.25 13L0.625 13ZM5.8832 12.44C5.8832 12.2533 5.94654 12.095 6.0732 11.965C6.2032 11.835 6.36654 11.77 6.5632 11.77C6.75987 11.77 6.92654 11.835 7.0632 11.965C7.19987 12.095 7.2682 12.2533 7.2682 12.44C7.2682 12.6233 7.19987 12.7783 7.0632 12.905C6.92654 13.0283 6.75987 13.09 6.5632 13.09C6.36654 13.09 6.2032 13.0267 6.0732 12.9C5.94654 12.7733 5.8832 12.62 5.8832 12.44ZM12.648 13.13C12.1346 13.13 11.6696 12.9967 11.253 12.73C10.8363 12.46 10.5046 12.0817 10.258 11.595C10.0113 11.105 9.88797 10.53 9.88797 9.87C9.88797 9.33333 9.96464 8.85667 10.118 8.44C10.2746 8.02333 10.4896 7.67167 10.763 7.385C11.0396 7.09833 11.3596 6.88167 11.723 6.735C12.0863 6.58833 12.4746 6.515 12.888 6.515C13.428 6.515 13.8913 6.62833 14.278 6.855C14.6646 7.08167 14.983 7.44167 15.233 7.935L14.293 8.205C14.093 7.92833 13.873 7.72167 13.633 7.585C13.393 7.445 13.1296 7.375 12.843 7.375C12.493 7.375 12.1696 7.47667 11.873 7.68C11.5796 7.88 11.3446 8.16667 11.168 8.54C10.9913 8.91 10.903 9.35333 10.903 9.87C10.903 10.34 10.9763 10.755 11.123 11.115C11.273 11.4717 11.483 11.7517 11.753 11.955C12.0263 12.155 12.348 12.255 12.718 12.255C13.0113 12.255 13.2746 12.1883 13.508 12.055C13.7413 11.9217 13.9246 11.725 14.058 11.465C14.1946 11.2017 14.263 10.8767 14.263 10.49L14.513 10.49C14.513 11.0267 14.448 11.4933 14.318 11.89C14.1913 12.2833 13.9913 12.5883 13.718 12.805C13.4446 13.0217 13.088 13.13 12.648 13.13ZM14.413 13L14.263 11.54L14.263 10.46L12.733 10.42L12.733 9.795L15.183 9.795L15.183 13L14.413 13ZM16.64 13L16.64 6.63L20.64 6.63L20.64 7.45L17.59 7.45L17.59 9.39L20.46 9.39L20.46 10.21L17.59 10.21L17.59 12.17L20.64 12.17L20.64 13L16.64 13ZM21.3427 13L23.5227 6.63L24.6977 6.63L26.8127 13L25.8127 13L25.3177 11.48L22.8577 11.48L22.3427 13L21.3427 13ZM23.0977 10.75L25.0827 10.75L24.0927 7.775L23.0977 10.75ZM27.7297 13L27.7297 6.63L30.0097 6.63C30.753 6.63 31.318 6.80667 31.7047 7.16C32.0947 7.51 32.2897 7.97167 32.2897 8.545C32.2897 9.11167 32.0947 9.57 31.7047 9.92C31.318 10.27 30.753 10.445 30.0097 10.445L28.6797 10.445L28.6797 13L27.7297 13ZM31.2447 13L29.4797 10.07L30.5047 10.07L32.4797 13L31.2447 13ZM28.6797 9.795L29.9247 9.795C30.378 9.795 30.723 9.68667 30.9597 9.47C31.1964 9.25 31.3147 8.96667 31.3147 8.62C31.3147 8.26333 31.203 7.98 30.9797 7.77C30.7597 7.55667 30.4364 7.45 30.0097 7.45L28.6797 7.45L28.6797 9.795ZM38.0909 13.13C37.5275 13.13 37.0409 12.9933 36.6309 12.72C36.2242 12.4433 35.9092 12.055 35.6859 11.555C35.4625 11.0517 35.3509 10.4617 35.3509 9.785C35.3509 9.07167 35.4692 8.47333 35.7059 7.99C35.9425 7.50333 36.2675 7.13667 36.6809 6.89C37.0975 6.64 37.5675 6.515 38.0909 6.515C38.7942 6.515 39.3542 6.69 39.7709 7.04C40.1875 7.38667 40.4642 7.83833 40.6009 8.395L39.5859 8.59C39.4659 8.22 39.2759 7.925 39.0159 7.705C38.7559 7.48167 38.4475 7.37 38.0909 7.37C37.7775 7.37 37.4909 7.46 37.2309 7.64C36.9709 7.82 36.7625 8.09 36.6059 8.45C36.4492 8.80667 36.3709 9.25167 36.3709 9.785C36.3709 10.2783 36.4359 10.7117 36.5659 11.085C36.6959 11.455 36.8875 11.7433 37.1409 11.95C37.3942 12.1567 37.7109 12.26 38.0909 12.26C38.5542 12.26 38.9192 12.1367 39.1859 11.89C39.4525 11.64 39.5859 11.315 39.5859 10.915L40.6109 10.915C40.6109 11.3817 40.5059 11.78 40.2959 12.11C40.0892 12.4367 39.7975 12.6883 39.4209 12.865C39.0442 13.0417 38.6009 13.13 38.0909 13.13ZM44.0718 13.13C43.5285 13.13 43.0451 13.0067 42.6218 12.76C42.1985 12.5133 41.8651 12.145 41.6218 11.655C41.3818 11.165 41.2618 10.5533 41.2618 9.82C41.2618 9.07333 41.3818 8.45667 41.6218 7.97C41.8651 7.48 42.1985 7.115 42.6218 6.875C43.0451 6.635 43.5285 6.515 44.0718 6.515C44.6185 6.515 45.1035 6.63667 45.5268 6.88C45.9535 7.12333 46.2868 7.49167 46.5268 7.985C46.7701 8.475 46.8918 9.08667 46.8918 9.82C46.8918 10.56 46.7701 11.1767 46.5268 11.67C46.2868 12.16 45.9535 12.5267 45.5268 12.77C45.1035 13.01 44.6185 13.13 44.0718 13.13ZM44.0718 12.26C44.6385 12.26 45.0851 12.0517 45.4118 11.635C45.7418 11.2183 45.9068 10.61 45.9068 9.81C45.9068 9.03 45.7418 8.42833 45.4118 8.005C45.0851 7.57833 44.6385 7.365 44.0718 7.365C43.5151 7.365 43.0718 7.57833 42.7418 8.005C42.4118 8.43167 42.2468 9.03667 42.2468 9.82C42.2468 10.6133 42.4118 11.2183 42.7418 11.635C43.0718 12.0517 43.5151 12.26 44.0718 12.26ZM47.9331 6.63L48.8831 6.63L48.8831 10.655C48.8831 11.2217 49.0248 11.63 49.3081 11.88C49.5948 12.13 49.9665 12.255 50.4231 12.255C50.8798 12.255 51.2498 12.13 51.5331 11.88C51.8165 11.63 51.9581 11.2217 51.9581 10.655L51.9581 6.63L52.9081 6.63L52.9081 10.655C52.9081 11.1883 52.8081 11.64 52.6081 12.01C52.4081 12.3767 52.1215 12.655 51.7481 12.845C51.3781 13.035 50.9365 13.13 50.4231 13.13C49.9131 13.13 49.4715 13.035 49.0981 12.845C48.7248 12.655 48.4365 12.3767 48.2331 12.01C48.0331 11.64 47.9331 11.1883 47.9331 10.655L47.9331 6.63ZM54.4176 13L54.4176 6.63L56.5526 6.63C57.2626 6.63 57.8092 6.80667 58.1926 7.16C58.5759 7.51333 58.7676 8.00167 58.7676 8.625C58.7676 9.24167 58.5759 9.72667 58.1926 10.08C57.8092 10.43 57.2626 10.605 56.5526 10.605L55.3776 10.605L55.3776 13L54.4176 13ZM55.3776 9.775L56.5526 9.775C56.9592 9.775 57.2676 9.67 57.4776 9.46C57.6876 9.25 57.7926 8.97167 57.7926 8.625C57.7926 8.275 57.6876 7.99167 57.4776 7.775C57.2676 7.55833 56.9592 7.45 56.5526 7.45L55.3776 7.45L55.3776 9.775ZM60.7469 6.63L60.7469 12.17L63.4919 12.17L63.4919 13L59.7969 13L59.7969 6.63L60.7469 6.63ZM64.282 13L64.282 6.63L65.232 6.63L65.232 13L64.282 13ZM66.8674 6.63L67.9524 6.63L71.0374 11.57L70.9624 11.57L70.9624 6.63L71.9124 6.63L71.9124 13L70.9024 13L67.6674 7.84L67.8174 7.84L67.8174 13L66.8674 13L66.8674 6.63ZM75.8448 13.13C75.3315 13.13 74.8665 12.9967 74.4498 12.73C74.0332 12.46 73.7015 12.0817 73.4548 11.595C73.2082 11.105 73.0848 10.53 73.0848 9.87C73.0848 9.33333 73.1615 8.85667 73.3148 8.44C73.4715 8.02333 73.6865 7.67167 73.9598 7.385C74.2365 7.09833 74.5565 6.88167 74.9198 6.735C75.2832 6.58833 75.6715 6.515 76.0848 6.515C76.6248 6.515 77.0882 6.62833 77.4748 6.855C77.8615 7.08167 78.1798 7.44167 78.4298 7.935L77.4898 8.205C77.2898 7.92833 77.0698 7.72167 76.8298 7.585C76.5898 7.445 76.3265 7.375 76.0398 7.375C75.6898 7.375 75.3665 7.47667 75.0698 7.68C74.7765 7.88 74.5415 8.16667 74.3648 8.54C74.1882 8.91 74.0998 9.35333 74.0998 9.87C74.0998 10.34 74.1732 10.755 74.3198 11.115C74.4698 11.4717 74.6798 11.7517 74.9498 11.955C75.2232 12.155 75.5448 12.255 75.9148 12.255C76.2082 12.255 76.4715 12.1883 76.7048 12.055C76.9382 11.9217 77.1215 11.725 77.2548 11.465C77.3915 11.2017 77.4598 10.8767 77.4598 10.49L77.7098 10.49C77.7098 11.0267 77.6448 11.4933 77.5148 11.89C77.3882 12.2833 77.1882 12.5883 76.9148 12.805C76.6415 13.0217 76.2848 13.13 75.8448 13.13ZM77.6098 13L77.4598 11.54L77.4598 10.46L75.9298 10.42L75.9298 9.795L78.3798 9.795L78.3798 13L77.6098 13Z" fill="black"/>
</svg>
