<svg width="310" height="18" viewBox="0 0 310 18" fill="none" xmlns="http://www.w3.org/2000/svg">
<line x1="128" y1="10.5" x2="279" y2="10.5" stroke="#0F3B68" stroke-dasharray="2 2"/>
<path d="M295.911 7.50586L298.003 5.43164H294.856V4.04297H299.989V5.27344L297.838 7.32422C299.403 7.37695 300.428 8.33203 300.428 9.61523C300.428 11.4141 298.928 12.1289 297.124 12.1289C296.151 12.1289 295.213 11.9355 294.487 11.5547L294.663 10.1777C295.419 10.5645 296.256 10.7461 296.983 10.7461C298.172 10.7461 298.794 10.3359 298.794 9.62109C298.794 8.8125 297.961 8.44336 296.954 8.44336C296.567 8.44336 296.204 8.48438 295.911 8.56055V7.50586ZM303.519 12H301.761L304.902 5.47852H301.263V4.04297H306.654V5.26172L303.519 12Z" fill="#122C4C"/>
<path d="M3.04 13.13C2.71333 13.13 2.39833 13.085 2.095 12.995C1.79167 12.9017 1.51833 12.7683 1.275 12.595C1.035 12.4183 0.845 12.2 0.705 11.94C0.565 11.6767 0.495 11.3733 0.495 11.03L1.485 11.03C1.495 11.29 1.56833 11.5117 1.705 11.695C1.84167 11.8783 2.025 12.0183 2.255 12.115C2.485 12.2083 2.74667 12.255 3.04 12.255C3.48 12.255 3.82167 12.15 4.065 11.94C4.31167 11.73 4.435 11.4667 4.435 11.15C4.435 10.9467 4.38333 10.7683 4.28 10.615C4.18 10.4617 4.02167 10.3433 3.805 10.26C3.59167 10.1733 3.31333 10.13 2.97 10.13L2.195 10.13L2.195 9.38L2.785 9.38C3.225 9.38 3.57167 9.29 3.825 9.11C4.07833 8.92667 4.205 8.67833 4.205 8.365C4.205 8.085 4.1 7.85 3.89 7.66C3.68 7.47 3.375 7.375 2.975 7.375C2.65833 7.375 2.37667 7.44 2.13 7.57C1.88333 7.69667 1.72 7.925 1.64 8.255L0.655 8.255C0.705 7.84167 0.835 7.50667 1.045 7.25C1.255 6.99333 1.52333 6.80667 1.85 6.69C2.17667 6.57333 2.54167 6.515 2.945 6.515C3.38167 6.515 3.77167 6.59 4.115 6.74C4.46167 6.88667 4.73333 7.09167 4.93 7.355C5.12667 7.61833 5.225 7.92167 5.225 8.265C5.225 8.595 5.13167 8.88 4.945 9.12C4.76167 9.35667 4.49333 9.53833 4.14 9.665C4.53333 9.785 4.85333 9.97667 5.1 10.24C5.34667 10.5 5.47 10.83 5.47 11.23C5.47 11.6 5.37 11.9283 5.17 12.215C4.97 12.5017 4.68833 12.7267 4.325 12.89C3.96167 13.05 3.53333 13.13 3.04 13.13ZM6.01016 12.44C6.01016 12.2533 6.07349 12.095 6.20016 11.965C6.33016 11.835 6.49349 11.77 6.69016 11.77C6.88682 11.77 7.05349 11.835 7.19016 11.965C7.32682 12.095 7.39516 12.2533 7.39516 12.44C7.39516 12.6233 7.32682 12.7783 7.19016 12.905C7.05349 13.0283 6.88682 13.09 6.69016 13.09C6.49349 13.09 6.33016 13.0267 6.20016 12.9C6.07349 12.7733 6.01016 12.62 6.01016 12.44ZM10.4699 13L10.4699 6.63L12.6049 6.63C13.3149 6.63 13.8616 6.80667 14.2449 7.16C14.6283 7.51333 14.8199 8.00167 14.8199 8.625C14.8199 9.24167 14.6283 9.72667 14.2449 10.08C13.8616 10.43 13.3149 10.605 12.6049 10.605L11.4299 10.605L11.4299 13L10.4699 13ZM11.4299 9.775L12.6049 9.775C13.0116 9.775 13.3199 9.67 13.5299 9.46C13.7399 9.25 13.8449 8.97167 13.8449 8.625C13.8449 8.275 13.7399 7.99167 13.5299 7.775C13.3199 7.55833 13.0116 7.45 12.6049 7.45L11.4299 7.45L11.4299 9.775ZM15.8492 13L15.8492 6.63L16.7992 6.63L16.7992 13L15.8492 13ZM18.4346 6.63L19.5196 6.63L22.6046 11.57L22.5296 11.57L22.5296 6.63L23.4796 6.63L23.4796 13L22.4696 13L19.2346 7.84L19.3846 7.84L19.3846 13L18.4346 13L18.4346 6.63ZM27.2734 13L27.2734 6.63L29.7384 6.63C30.2151 6.63 30.6101 6.70667 30.9234 6.86C31.2401 7.01333 31.4768 7.21667 31.6334 7.47C31.7901 7.72333 31.8684 8.00167 31.8684 8.305C31.8684 8.66833 31.7668 8.98167 31.5634 9.245C31.3634 9.50833 31.0701 9.69 30.6834 9.79C30.9368 9.83333 31.1601 9.925 31.3534 10.065C31.5468 10.2017 31.6984 10.3717 31.8084 10.575C31.9218 10.7783 31.9784 11.0033 31.9784 11.25C31.9784 11.46 31.9418 11.6683 31.8684 11.875C31.7951 12.0817 31.6734 12.27 31.5034 12.44C31.3334 12.61 31.1051 12.7467 30.8184 12.85C30.5318 12.95 30.1734 13 29.7434 13L27.2734 13ZM28.2234 12.17L29.7234 12.17C30.1568 12.17 30.4701 12.08 30.6634 11.9C30.8601 11.72 30.9584 11.4867 30.9584 11.2C30.9584 10.91 30.8551 10.6767 30.6484 10.5C30.4418 10.3233 30.1334 10.235 29.7234 10.235L28.2234 10.235L28.2234 12.17ZM28.2234 7.45L28.2234 9.41L29.7034 9.41C30.0734 9.41 30.3634 9.32167 30.5734 9.145C30.7868 8.96833 30.8934 8.72333 30.8934 8.41C30.8934 8.11333 30.7901 7.88 30.5834 7.71C30.3801 7.53667 30.0901 7.45 29.7134 7.45L28.2234 7.45ZM33.1816 6.63L34.1316 6.63L34.1316 10.655C34.1316 11.2217 34.2732 11.63 34.5566 11.88C34.8432 12.13 35.2149 12.255 35.6716 12.255C36.1282 12.255 36.4982 12.13 36.7816 11.88C37.0649 11.63 37.2066 11.2217 37.2066 10.655L37.2066 6.63L38.1566 6.63L38.1566 10.655C38.1566 11.1883 38.0566 11.64 37.8566 12.01C37.6566 12.3767 37.3699 12.655 36.9966 12.845C36.6266 13.035 36.1849 13.13 35.6716 13.13C35.1616 13.13 34.7199 13.035 34.3466 12.845C33.9732 12.655 33.6849 12.3767 33.4816 12.01C33.2816 11.64 33.1816 11.1883 33.1816 10.655L33.1816 6.63ZM41.811 13.13C41.3777 13.13 40.9793 13.0533 40.616 12.9C40.2527 12.7433 39.9593 12.5117 39.736 12.205C39.516 11.8983 39.401 11.515 39.391 11.055L40.321 11.055C40.321 11.3317 40.3877 11.5583 40.521 11.735C40.6577 11.9117 40.8377 12.0433 41.061 12.13C41.2843 12.2133 41.531 12.255 41.801 12.255C42.0743 12.255 42.316 12.2133 42.526 12.13C42.736 12.0467 42.8977 11.935 43.011 11.795C43.1277 11.655 43.186 11.495 43.186 11.315C43.186 11.0717 43.111 10.8767 42.961 10.73C42.811 10.58 42.5827 10.4533 42.276 10.35L41.091 9.91C40.581 9.72 40.1927 9.50167 39.926 9.255C39.6593 9.005 39.526 8.65833 39.526 8.215C39.526 7.71167 39.7227 7.30333 40.116 6.99C40.5093 6.67333 41.0627 6.515 41.776 6.515C42.4527 6.515 42.9777 6.67167 43.351 6.985C43.7277 7.29833 43.9427 7.725 43.996 8.265L43.061 8.265C43.0143 7.99167 42.886 7.775 42.676 7.615C42.4693 7.455 42.1693 7.375 41.776 7.375C41.396 7.375 41.0993 7.45833 40.886 7.625C40.6727 7.78833 40.566 7.995 40.566 8.245C40.566 8.45167 40.6327 8.61667 40.766 8.74C40.9027 8.86333 41.1143 8.975 41.401 9.075L42.751 9.57C43.2143 9.73333 43.576 9.95333 43.836 10.23C44.096 10.5067 44.226 10.8583 44.226 11.285C44.226 11.645 44.1327 11.9633 43.946 12.24C43.7593 12.5167 43.486 12.735 43.126 12.895C42.766 13.0517 42.3277 13.13 41.811 13.13ZM45.5727 6.63L46.5227 6.63L46.5227 9.375L49.5127 9.375L49.5127 6.63L50.4577 6.63L50.4577 13L49.5127 13L49.5127 10.2L46.5227 10.2L46.5227 13L45.5727 13L45.5727 6.63ZM56.5198 13.13C55.9564 13.13 55.4698 12.9933 55.0598 12.72C54.6531 12.4433 54.3381 12.055 54.1148 11.555C53.8914 11.0517 53.7798 10.4617 53.7798 9.785C53.7798 9.07167 53.8981 8.47333 54.1348 7.99C54.3714 7.50333 54.6964 7.13667 55.1098 6.89C55.5264 6.64 55.9964 6.515 56.5198 6.515C57.2231 6.515 57.7831 6.69 58.1998 7.04C58.6164 7.38667 58.8931 7.83833 59.0298 8.395L58.0148 8.59C57.8948 8.22 57.7048 7.925 57.4448 7.705C57.1848 7.48167 56.8764 7.37 56.5198 7.37C56.2064 7.37 55.9198 7.46 55.6598 7.64C55.3998 7.82 55.1914 8.09 55.0348 8.45C54.8781 8.80667 54.7998 9.25167 54.7998 9.785C54.7998 10.2783 54.8648 10.7117 54.9948 11.085C55.1248 11.455 55.3164 11.7433 55.5698 11.95C55.8231 12.1567 56.1398 12.26 56.5198 12.26C56.9831 12.26 57.3481 12.1367 57.6148 11.89C57.8814 11.64 58.0148 11.315 58.0148 10.915L59.0398 10.915C59.0398 11.3817 58.9348 11.78 58.7248 12.11C58.5181 12.4367 58.2264 12.6883 57.8498 12.865C57.4731 13.0417 57.0298 13.13 56.5198 13.13ZM62.5007 13.13C61.9574 13.13 61.474 13.0067 61.0507 12.76C60.6274 12.5133 60.294 12.145 60.0507 11.655C59.8107 11.165 59.6907 10.5533 59.6907 9.82C59.6907 9.07333 59.8107 8.45667 60.0507 7.97C60.294 7.48 60.6274 7.115 61.0507 6.875C61.474 6.635 61.9574 6.515 62.5007 6.515C63.0474 6.515 63.5324 6.63667 63.9557 6.88C64.3824 7.12333 64.7157 7.49167 64.9557 7.985C65.199 8.475 65.3207 9.08667 65.3207 9.82C65.3207 10.56 65.199 11.1767 64.9557 11.67C64.7157 12.16 64.3824 12.5267 63.9557 12.77C63.5324 13.01 63.0474 13.13 62.5007 13.13ZM62.5007 12.26C63.0674 12.26 63.514 12.0517 63.8407 11.635C64.1707 11.2183 64.3357 10.61 64.3357 9.81C64.3357 9.03 64.1707 8.42833 63.8407 8.005C63.514 7.57833 63.0674 7.365 62.5007 7.365C61.944 7.365 61.5007 7.57833 61.1707 8.005C60.8407 8.43167 60.6757 9.03667 60.6757 9.82C60.6757 10.6133 60.8407 11.2183 61.1707 11.635C61.5007 12.0517 61.944 12.26 62.5007 12.26ZM66.362 6.63L67.312 6.63L67.312 10.655C67.312 11.2217 67.4537 11.63 67.737 11.88C68.0237 12.13 68.3954 12.255 68.852 12.255C69.3087 12.255 69.6787 12.13 69.962 11.88C70.2454 11.63 70.387 11.2217 70.387 10.655L70.387 6.63L71.337 6.63L71.337 10.655C71.337 11.1883 71.237 11.64 71.037 12.01C70.837 12.3767 70.5504 12.655 70.177 12.845C69.807 13.035 69.3654 13.13 68.852 13.13C68.342 13.13 67.9004 13.035 67.527 12.845C67.1537 12.655 66.8654 12.3767 66.662 12.01C66.462 11.64 66.362 11.1883 66.362 10.655L66.362 6.63ZM72.8465 13L72.8465 6.63L74.9815 6.63C75.6915 6.63 76.2382 6.80667 76.6215 7.16C77.0048 7.51333 77.1965 8.00167 77.1965 8.625C77.1965 9.24167 77.0048 9.72667 76.6215 10.08C76.2382 10.43 75.6915 10.605 74.9815 10.605L73.8065 10.605L73.8065 13L72.8465 13ZM73.8065 9.775L74.9815 9.775C75.3882 9.775 75.6965 9.67 75.9065 9.46C76.1165 9.25 76.2215 8.97167 76.2215 8.625C76.2215 8.275 76.1165 7.99167 75.9065 7.775C75.6965 7.55833 75.3882 7.45 74.9815 7.45L73.8065 7.45L73.8065 9.775ZM79.1758 6.63L79.1758 12.17L81.9208 12.17L81.9208 13L78.2258 13L78.2258 6.63L79.1758 6.63ZM82.7109 13L82.7109 6.63L83.6609 6.63L83.6609 13L82.7109 13ZM85.2963 6.63L86.3813 6.63L89.4663 11.57L89.3913 11.57L89.3913 6.63L90.3413 6.63L90.3413 13L89.3313 13L86.0963 7.84L86.2463 7.84L86.2463 13L85.2963 13L85.2963 6.63ZM94.2738 13.13C93.7604 13.13 93.2954 12.9967 92.8788 12.73C92.4621 12.46 92.1304 12.0817 91.8838 11.595C91.6371 11.105 91.5138 10.53 91.5138 9.87C91.5138 9.33333 91.5904 8.85667 91.7438 8.44C91.9004 8.02333 92.1154 7.67167 92.3888 7.385C92.6654 7.09833 92.9854 6.88167 93.3488 6.735C93.7121 6.58833 94.1004 6.515 94.5138 6.515C95.0538 6.515 95.5171 6.62833 95.9038 6.855C96.2904 7.08167 96.6088 7.44167 96.8588 7.935L95.9188 8.205C95.7188 7.92833 95.4988 7.72167 95.2588 7.585C95.0188 7.445 94.7554 7.375 94.4688 7.375C94.1188 7.375 93.7954 7.47667 93.4988 7.68C93.2054 7.88 92.9704 8.16667 92.7938 8.54C92.6171 8.91 92.5288 9.35333 92.5288 9.87C92.5288 10.34 92.6021 10.755 92.7488 11.115C92.8988 11.4717 93.1088 11.7517 93.3788 11.955C93.6521 12.155 93.9738 12.255 94.3438 12.255C94.6371 12.255 94.9004 12.1883 95.1338 12.055C95.3671 11.9217 95.5504 11.725 95.6838 11.465C95.8204 11.2017 95.8888 10.8767 95.8888 10.49L96.1388 10.49C96.1388 11.0267 96.0738 11.4933 95.9438 11.89C95.8171 12.2833 95.6171 12.5883 95.3438 12.805C95.0704 13.0217 94.7138 13.13 94.2738 13.13ZM96.0388 13L95.8888 11.54L95.8888 10.46L94.3588 10.42L94.3588 9.795L96.8088 9.795L96.8088 13L96.0388 13Z" fill="black"/>
</svg>
