<svg width="335" height="29" viewBox="0 0 335 29" fill="none" xmlns="http://www.w3.org/2000/svg">
<path d="M5.17969 23.1562C1.98438 23.1562 0.679688 20.6562 0.679688 17.7344C0.679688 14.8125 1.96094 12.2344 5.17969 12.2344C8.44531 12.2344 9.67969 14.9219 9.67969 17.7344C9.67969 20.6562 8.38281 23.1562 5.17969 23.1562ZM2.76562 17.6953C2.76562 19.5703 3.45312 21.2656 5.17969 21.2656C6.92188 21.2656 7.59375 19.5078 7.59375 17.6953C7.59375 15.8125 6.91406 14.125 5.17969 14.125C3.44531 14.125 2.76562 15.875 2.76562 17.6953ZM14.4866 17.0078L17.2756 14.2422H13.0803V12.3906H19.9241V14.0312L17.0569 16.7656C19.1428 16.8359 20.51 18.1094 20.51 19.8203C20.51 22.2188 18.51 23.1719 16.1038 23.1719C14.8069 23.1719 13.5569 22.9062 12.5881 22.3828L12.8225 20.5703C13.8303 21.0859 14.9475 21.3281 15.9163 21.3281C17.5022 21.3281 18.3303 20.7812 18.3303 19.8281C18.3303 18.75 17.2209 18.2578 15.8772 18.2578C15.3616 18.2578 14.9006 18.3125 14.4866 18.4219V17.0078ZM23.5356 22.0078C23.5356 21.3672 24.0356 20.8594 24.6919 20.8594C25.3481 20.8594 25.8559 21.3672 25.8559 22.0078C25.8559 22.6562 25.3481 23.1562 24.6919 23.1562C24.0356 23.1562 23.5356 22.6562 23.5356 22.0078Z" fill="black"/>
<path d="M34.0469 19.875H31.2422V23H29.1328V12.3906H34.0469C36.1875 12.3906 37.9141 13.7422 37.9141 16.1484C37.9141 18.4219 36.1875 19.875 34.0469 19.875ZM33.8047 14.2188H31.2422V18.0547H33.8047C34.9219 18.0547 35.7422 17.2812 35.7422 16.1484C35.7422 14.9141 34.9062 14.2188 33.8047 14.2188ZM40.6741 17.7188C40.6741 14.5078 43.0178 12.2344 46.2834 12.2344C49.5647 12.2344 51.9006 14.5156 51.9006 17.7188C51.9006 20.9219 49.5647 23.1562 46.2834 23.1562C43.0178 23.1562 40.6741 20.9219 40.6741 17.7188ZM42.8459 17.7109C42.8459 19.7891 44.2444 21.1953 46.2913 21.1953C48.3538 21.1953 49.7366 19.7891 49.7366 17.7109C49.7366 15.6484 48.3538 14.2031 46.2913 14.2031C44.2444 14.2031 42.8459 15.6484 42.8459 17.7109ZM63.2075 21.1797V23H55.3872V12.3906H57.4966V21.1797H63.2075ZM68.9675 16.8516L71.8972 12.3906H74.3347L70.0066 18.9922V23H67.905V18.9922L63.5534 12.3906H66.0691L68.9675 16.8516ZM86.2844 20.8359L89.3312 12.3906H91.5891L87.6125 23H84.9562L80.9641 12.3906H83.2219L86.2844 20.8359ZM104.742 19.875H101.937V23H99.8278V12.3906H104.742C106.882 12.3906 108.609 13.7422 108.609 16.1484C108.609 18.4219 106.882 19.875 104.742 19.875ZM104.5 14.2188H101.937V18.0547H104.5C105.617 18.0547 106.437 17.2812 106.437 16.1484C106.437 14.9141 105.601 14.2188 104.5 14.2188ZM111.83 19.2344V12.3906H113.932V19.0938C113.932 20.6094 115.025 21.2656 116.455 21.2656C117.978 21.2656 118.994 20.5469 118.994 19.0938V12.3906H121.096V19.2344C121.096 22 118.885 23.1562 116.455 23.1562C113.83 23.1562 111.83 21.9062 111.83 19.2344ZM132.856 21.1797V23H125.035V12.3906H127.145V21.1797H132.856ZM143.787 21.1797V23H135.967V12.3906H138.077V21.1797H143.787ZM154.876 21.1797V23H146.899V12.3906H154.758V14.2188H149.008V16.6641H154.04V18.4922H149.008V21.1797H154.876ZM162.729 16.8516L165.659 12.3906H168.097L163.768 18.9922V23H161.667V18.9922L157.315 12.3906H159.831L162.729 16.8516Z" fill="black"/>
<line x1="173" y1="17.5" x2="303" y2="17.5" stroke="#0F3B68" stroke-dasharray="2 2"/>
<path d="M317.416 23V9.86328H314.029V7.08594H320.58V23H317.416ZM325.385 14.0117L329.569 9.86328H323.276V7.08594H333.541V9.54688L329.24 13.6484C332.369 13.7539 334.42 15.6641 334.42 18.2305C334.42 21.8281 331.42 23.2578 327.811 23.2578C325.865 23.2578 323.99 22.8711 322.537 22.1094L322.889 19.3555C324.401 20.1289 326.076 20.4922 327.53 20.4922C329.908 20.4922 331.151 19.6719 331.151 18.2422C331.151 16.625 329.487 15.8867 327.471 15.8867C326.698 15.8867 325.971 15.9688 325.385 16.1211V14.0117Z" fill="#122C4C"/>
</svg>
