<svg width="310" height="18" viewBox="0 0 310 18" fill="none" xmlns="http://www.w3.org/2000/svg">
<line x1="128" y1="9.5" x2="279" y2="9.49998" stroke="#0F3B68" stroke-dasharray="2 2"/>
<path d="M299.35 4.04297L296.907 8.83594H299.086V7.07227H300.604V8.83594H301.706V10.1836H300.604V12.0059H299.086V10.1836H295.208V8.95898L297.669 4.04297H299.35ZM303.613 12V5.43164H301.919V4.04297H305.195V12H303.613Z" fill="#122C4C"/>
<path d="M3.545 6.55L4.45 6.55L4.45 10.7L5.555 10.7L5.555 11.51L4.45 11.51L4.45 13L3.51 13L3.51 11.51L0.245 11.51L0.245 10.785L3.545 6.55ZM3.55 8L1.37 10.785L3.55 10.785L3.55 8ZM5.71719 12.44C5.71719 12.2533 5.78052 12.095 5.90719 11.965C6.03719 11.835 6.20052 11.77 6.39719 11.77C6.59385 11.77 6.76052 11.835 6.89719 11.965C7.03385 12.095 7.10219 12.2533 7.10219 12.44C7.10219 12.6233 7.03385 12.7783 6.89719 12.905C6.76052 13.0283 6.59385 13.09 6.39719 13.09C6.20052 13.09 6.03719 13.0267 5.90719 12.9C5.78052 12.7733 5.71719 12.62 5.71719 12.44ZM10.202 13L10.202 6.63L12.482 6.63C13.2253 6.63 13.7903 6.80667 14.177 7.16C14.567 7.51 14.762 7.97167 14.762 8.545C14.762 9.11167 14.567 9.57 14.177 9.92C13.7903 10.27 13.2253 10.445 12.482 10.445L11.152 10.445L11.152 13L10.202 13ZM13.717 13L11.952 10.07L12.977 10.07L14.952 13L13.717 13ZM11.152 9.795L12.397 9.795C12.8503 9.795 13.1953 9.68667 13.432 9.47C13.6686 9.25 13.787 8.96667 13.787 8.62C13.787 8.26333 13.6753 7.98 13.452 7.77C13.232 7.55667 12.9086 7.45 12.482 7.45L11.152 7.45L11.152 9.795ZM18.4917 13.13C17.9484 13.13 17.4651 13.0067 17.0417 12.76C16.6184 12.5133 16.2851 12.145 16.0417 11.655C15.8017 11.165 15.6817 10.5533 15.6817 9.82C15.6817 9.07333 15.8017 8.45667 16.0417 7.97C16.2851 7.48 16.6184 7.115 17.0417 6.875C17.4651 6.635 17.9484 6.515 18.4917 6.515C19.0384 6.515 19.5234 6.63667 19.9467 6.88C20.3734 7.12333 20.7067 7.49167 20.9467 7.985C21.1901 8.475 21.3117 9.08667 21.3117 9.82C21.3117 10.56 21.1901 11.1767 20.9467 11.67C20.7067 12.16 20.3734 12.5267 19.9467 12.77C19.5234 13.01 19.0384 13.13 18.4917 13.13ZM18.4917 12.26C19.0584 12.26 19.5051 12.0517 19.8317 11.635C20.1617 11.2183 20.3267 10.61 20.3267 9.81C20.3267 9.03 20.1617 8.42833 19.8317 8.005C19.5051 7.57833 19.0584 7.365 18.4917 7.365C17.9351 7.365 17.4917 7.57833 17.1617 8.005C16.8317 8.43167 16.6667 9.03667 16.6667 9.82C16.6667 10.6133 16.8317 11.2183 17.1617 11.635C17.4917 12.0517 17.9351 12.26 18.4917 12.26ZM23.423 6.63L23.423 12.17L26.168 12.17L26.168 13L22.473 13L22.473 6.63L23.423 6.63ZM27.9082 6.63L27.9082 12.17L30.6532 12.17L30.6532 13L26.9582 13L26.9582 6.63L27.9082 6.63ZM31.4334 13L31.4334 6.63L35.4334 6.63L35.4334 7.45L32.3834 7.45L32.3834 9.39L35.2534 9.39L35.2534 10.21L32.3834 10.21L32.3834 12.17L35.4334 12.17L35.4334 13L31.4334 13ZM36.866 13L36.866 6.63L39.146 6.63C39.8893 6.63 40.4543 6.80667 40.841 7.16C41.231 7.51 41.426 7.97167 41.426 8.545C41.426 9.11167 41.231 9.57 40.841 9.92C40.4543 10.27 39.8893 10.445 39.146 10.445L37.816 10.445L37.816 13L36.866 13ZM40.381 13L38.616 10.07L39.641 10.07L41.616 13L40.381 13ZM37.816 9.795L39.061 9.795C39.5143 9.795 39.8593 9.68667 40.096 9.47C40.3327 9.25 40.451 8.96667 40.451 8.62C40.451 8.26333 40.3393 7.98 40.116 7.77C39.896 7.55667 39.5727 7.45 39.146 7.45L37.816 7.45L37.816 9.795ZM47.2272 13.13C46.6639 13.13 46.1772 12.9933 45.7672 12.72C45.3605 12.4433 45.0455 12.055 44.8222 11.555C44.5989 11.0517 44.4872 10.4617 44.4872 9.785C44.4872 9.07167 44.6055 8.47333 44.8422 7.99C45.0789 7.50333 45.4039 7.13667 45.8172 6.89C46.2339 6.64 46.7039 6.515 47.2272 6.515C47.9305 6.515 48.4905 6.69 48.9072 7.04C49.3239 7.38667 49.6005 7.83833 49.7372 8.395L48.7222 8.59C48.6022 8.22 48.4122 7.925 48.1522 7.705C47.8922 7.48167 47.5839 7.37 47.2272 7.37C46.9139 7.37 46.6272 7.46 46.3672 7.64C46.1072 7.82 45.8989 8.09 45.7422 8.45C45.5855 8.80667 45.5072 9.25167 45.5072 9.785C45.5072 10.2783 45.5722 10.7117 45.7022 11.085C45.8322 11.455 46.0239 11.7433 46.2772 11.95C46.5305 12.1567 46.8472 12.26 47.2272 12.26C47.6905 12.26 48.0555 12.1367 48.3222 11.89C48.5889 11.64 48.7222 11.315 48.7222 10.915L49.7472 10.915C49.7472 11.3817 49.6422 11.78 49.4322 12.11C49.2255 12.4367 48.9339 12.6883 48.5572 12.865C48.1805 13.0417 47.7372 13.13 47.2272 13.13ZM50.8781 6.63L51.8281 6.63L51.8281 9.375L54.8181 9.375L54.8181 6.63L55.7631 6.63L55.7631 13L54.8181 13L54.8181 10.2L51.8281 10.2L51.8281 13L50.8781 13L50.8781 6.63ZM56.6938 13L58.8738 6.63L60.0488 6.63L62.1638 13L61.1638 13L60.6688 11.48L58.2088 11.48L57.6938 13L56.6938 13ZM58.4488 10.75L60.4338 10.75L59.4438 7.775L58.4488 10.75ZM63.0809 13L63.0809 6.63L64.0309 6.63L64.0309 13L63.0809 13ZM65.6663 6.63L66.7513 6.63L69.8363 11.57L69.7613 11.57L69.7613 6.63L70.7113 6.63L70.7113 13L69.7013 13L66.4663 7.84L66.6163 7.84L66.6163 13L65.6663 13L65.6663 6.63ZM76.7651 13.13C76.2017 13.13 75.7151 12.9933 75.3051 12.72C74.8984 12.4433 74.5834 12.055 74.3601 11.555C74.1367 11.0517 74.0251 10.4617 74.0251 9.785C74.0251 9.07167 74.1434 8.47333 74.3801 7.99C74.6167 7.50333 74.9417 7.13667 75.3551 6.89C75.7717 6.64 76.2417 6.515 76.7651 6.515C77.4684 6.515 78.0284 6.69 78.4451 7.04C78.8617 7.38667 79.1384 7.83833 79.2751 8.395L78.2601 8.59C78.1401 8.22 77.9501 7.925 77.6901 7.705C77.4301 7.48167 77.1217 7.37 76.7651 7.37C76.4517 7.37 76.1651 7.46 75.9051 7.64C75.6451 7.82 75.4367 8.09 75.2801 8.45C75.1234 8.80667 75.0451 9.25167 75.0451 9.785C75.0451 10.2783 75.1101 10.7117 75.2401 11.085C75.3701 11.455 75.5617 11.7433 75.8151 11.95C76.0684 12.1567 76.3851 12.26 76.7651 12.26C77.2284 12.26 77.5934 12.1367 77.8601 11.89C78.1267 11.64 78.2601 11.315 78.2601 10.915L79.2851 10.915C79.2851 11.3817 79.1801 11.78 78.9701 12.11C78.7634 12.4367 78.4717 12.6883 78.0951 12.865C77.7184 13.0417 77.2751 13.13 76.7651 13.13ZM82.746 13.13C82.2027 13.13 81.7194 13.0067 81.296 12.76C80.8727 12.5133 80.5394 12.145 80.296 11.655C80.056 11.165 79.936 10.5533 79.936 9.82C79.936 9.07333 80.056 8.45667 80.296 7.97C80.5394 7.48 80.8727 7.115 81.296 6.875C81.7194 6.635 82.2027 6.515 82.746 6.515C83.2927 6.515 83.7777 6.63667 84.201 6.88C84.6277 7.12333 84.961 7.49167 85.201 7.985C85.4444 8.475 85.566 9.08667 85.566 9.82C85.566 10.56 85.4444 11.1767 85.201 11.67C84.961 12.16 84.6277 12.5267 84.201 12.77C83.7777 13.01 83.2927 13.13 82.746 13.13ZM82.746 12.26C83.3127 12.26 83.7594 12.0517 84.086 11.635C84.416 11.2183 84.581 10.61 84.581 9.81C84.581 9.03 84.416 8.42833 84.086 8.005C83.7594 7.57833 83.3127 7.365 82.746 7.365C82.1894 7.365 81.746 7.57833 81.416 8.005C81.086 8.43167 80.921 9.03667 80.921 9.82C80.921 10.6133 81.086 11.2183 81.416 11.635C81.746 12.0517 82.1894 12.26 82.746 12.26ZM86.6073 6.63L87.5573 6.63L87.5573 10.655C87.5573 11.2217 87.699 11.63 87.9823 11.88C88.269 12.13 88.6407 12.255 89.0973 12.255C89.554 12.255 89.924 12.13 90.2073 11.88C90.4907 11.63 90.6323 11.2217 90.6323 10.655L90.6323 6.63L91.5823 6.63L91.5823 10.655C91.5823 11.1883 91.4823 11.64 91.2823 12.01C91.0823 12.3767 90.7957 12.655 90.4223 12.845C90.0523 13.035 89.6107 13.13 89.0973 13.13C88.5873 13.13 88.1457 13.035 87.7723 12.845C87.399 12.655 87.1107 12.3767 86.9073 12.01C86.7073 11.64 86.6073 11.1883 86.6073 10.655L86.6073 6.63ZM93.0918 13L93.0918 6.63L95.2268 6.63C95.9368 6.63 96.4835 6.80667 96.8668 7.16C97.2501 7.51333 97.4418 8.00167 97.4418 8.625C97.4418 9.24167 97.2501 9.72667 96.8668 10.08C96.4835 10.43 95.9368 10.605 95.2268 10.605L94.0518 10.605L94.0518 13L93.0918 13ZM94.0518 9.775L95.2268 9.775C95.6335 9.775 95.9418 9.67 96.1518 9.46C96.3618 9.25 96.4668 8.97167 96.4668 8.625C96.4668 8.275 96.3618 7.99167 96.1518 7.775C95.9418 7.55833 95.6335 7.45 95.2268 7.45L94.0518 7.45L94.0518 9.775ZM99.4211 6.63L99.4211 12.17L102.166 12.17L102.166 13L98.4711 13L98.4711 6.63L99.4211 6.63ZM102.956 13L102.956 6.63L103.906 6.63L103.906 13L102.956 13ZM105.542 6.63L106.627 6.63L109.712 11.57L109.637 11.57L109.637 6.63L110.587 6.63L110.587 13L109.577 13L106.342 7.84L106.492 7.84L106.492 13L105.542 13L105.542 6.63ZM114.519 13.13C114.006 13.13 113.541 12.9967 113.124 12.73C112.707 12.46 112.376 12.0817 112.129 11.595C111.882 11.105 111.759 10.53 111.759 9.87C111.759 9.33333 111.836 8.85667 111.989 8.44C112.146 8.02333 112.361 7.67167 112.634 7.385C112.911 7.09833 113.231 6.88167 113.594 6.735C113.957 6.58833 114.346 6.515 114.759 6.515C115.299 6.515 115.762 6.62833 116.149 6.855C116.536 7.08167 116.854 7.44167 117.104 7.935L116.164 8.205C115.964 7.92833 115.744 7.72167 115.504 7.585C115.264 7.445 115.001 7.375 114.714 7.375C114.364 7.375 114.041 7.47667 113.744 7.68C113.451 7.88 113.216 8.16667 113.039 8.54C112.862 8.91 112.774 9.35333 112.774 9.87C112.774 10.34 112.847 10.755 112.994 11.115C113.144 11.4717 113.354 11.7517 113.624 11.955C113.897 12.155 114.219 12.255 114.589 12.255C114.882 12.255 115.146 12.1883 115.379 12.055C115.612 11.9217 115.796 11.725 115.929 11.465C116.066 11.2017 116.134 10.8767 116.134 10.49L116.384 10.49C116.384 11.0267 116.319 11.4933 116.189 11.89C116.062 12.2833 115.862 12.5883 115.589 12.805C115.316 13.0217 114.959 13.13 114.519 13.13ZM116.284 13L116.134 11.54L116.134 10.46L114.604 10.42L114.604 9.795L117.054 9.795L117.054 13L116.284 13Z" fill="black"/>
</svg>
