<svg width="336" height="29" viewBox="0 0 336 29" fill="none" xmlns="http://www.w3.org/2000/svg">
<path d="M5.17969 23.1562C1.98438 23.1562 0.679688 20.6562 0.679688 17.7344C0.679688 14.8125 1.96094 12.2344 5.17969 12.2344C8.44531 12.2344 9.67969 14.9219 9.67969 17.7344C9.67969 20.6562 8.38281 23.1562 5.17969 23.1562ZM2.76562 17.6953C2.76562 19.5703 3.45312 21.2656 5.17969 21.2656C6.92188 21.2656 7.59375 19.5078 7.59375 17.6953C7.59375 15.8125 6.91406 14.125 5.17969 14.125C3.44531 14.125 2.76562 15.875 2.76562 17.6953ZM18.0022 12.3906L14.7444 18.7812H17.6506V16.4297H19.6741V18.7812H21.1428V20.5781H19.6741V23.0078H17.6506V20.5781H12.4788V18.9453L15.76 12.3906H18.0022ZM23.895 22.0078C23.895 21.3672 24.395 20.8594 25.0513 20.8594C25.7075 20.8594 26.2153 21.3672 26.2153 22.0078C26.2153 22.6562 25.7075 23.1562 25.0513 23.1562C24.395 23.1562 23.895 22.6562 23.895 22.0078Z" fill="black"/>
<path d="M32.6406 12.2344C34.125 12.2344 35.1953 12.5234 36.0391 12.8984L35.8594 14.7734C35.3047 14.4453 33.9297 14.0938 32.7891 14.0938C31.6406 14.0938 30.8203 14.4453 30.8203 15.3203C30.8203 16.2031 31.5703 16.3594 32.2969 16.5781L33.8281 17.0312C35.5781 17.5469 36.5781 18.2969 36.5781 19.9219C36.5781 21.8047 34.9766 23.1562 32.5547 23.1562C31.0547 23.1562 29.3594 22.7812 28.625 22.375L28.7969 20.4922C29.3203 20.8203 31.0469 21.2812 32.3672 21.2812C33.4844 21.2812 34.375 20.8906 34.375 20.0234C34.375 19.3516 33.9766 19.0547 33.0781 18.8125L31.3984 18.3594C30.0469 17.9922 28.625 17.2578 28.625 15.4922C28.625 13.5312 30.1641 12.2344 32.6406 12.2344ZM44.885 19.875H42.0803V23H39.9709V12.3906H44.885C47.0256 12.3906 48.7522 13.7422 48.7522 16.1484C48.7522 18.4219 47.0256 19.875 44.885 19.875ZM44.6428 14.2188H42.0803V18.0547H44.6428C45.76 18.0547 46.5803 17.2812 46.5803 16.1484C46.5803 14.9141 45.7444 14.2188 44.6428 14.2188ZM59.0513 22.9922L56.6216 19.875H54.1684V23H52.0591V12.3906H56.9809C59.1216 12.3906 60.8559 13.75 60.8559 16.1406C60.8559 17.6797 59.9966 18.8906 58.7856 19.4766L61.5981 22.9922H59.0513ZM56.7388 14.2188H54.1684V18.0547H56.7388C57.8638 18.0547 58.6841 17.2812 58.6841 16.1484C58.6841 14.9141 57.8481 14.2188 56.7388 14.2188ZM64.1628 17.7188C64.1628 14.5078 66.5066 12.2344 69.7722 12.2344C73.0534 12.2344 75.3894 14.5156 75.3894 17.7188C75.3894 20.9219 73.0534 23.1562 69.7722 23.1562C66.5066 23.1562 64.1628 20.9219 64.1628 17.7188ZM66.3347 17.7109C66.3347 19.7891 67.7331 21.1953 69.78 21.1953C71.8425 21.1953 73.2253 19.7891 73.2253 17.7109C73.2253 15.6484 71.8425 14.2031 69.78 14.2031C67.7331 14.2031 66.3347 15.6484 66.3347 17.7109ZM87.6259 20.4922L87.9228 22.3594C87.0244 22.7891 85.915 23.1562 84.29 23.1562C80.8916 23.1562 78.3291 20.9844 78.3291 17.6953C78.3291 14.2656 81.0478 12.2344 84.4306 12.2344C85.7119 12.2344 86.9306 12.5469 87.7588 12.9297L87.5947 14.8203C86.915 14.4922 85.8291 14.1875 84.6181 14.1875C82.3525 14.1875 80.5244 15.4062 80.5244 17.6797C80.5244 19.8359 82.2119 21.25 84.5791 21.25C85.7744 21.25 86.8603 20.9531 87.6259 20.4922ZM93.3391 16.9062H95.3156L97.8781 12.3984H100.237L97.0109 17.875L100.925 23H98.3078L95.1594 18.7266H93.3391V23H91.2297V12.3906H93.3391V16.9062ZM111.732 21.1797V23H103.755V12.3906H111.615V14.2188H105.865V16.6641H110.896V18.4922H105.865V21.1797H111.732ZM117.586 23V14.2656H114.265V12.3906H123V14.2656H119.687V23H117.586Z" fill="black"/>
<line x1="132" y1="17.5" x2="304" y2="17.5" stroke="#0F3B68" stroke-dasharray="2 2"/>
<path d="M318.586 23V9.86328H315.2V7.08594H321.75V23H318.586ZM329.472 23H325.957L332.238 9.95703H324.96V7.08594H335.742V9.52344L329.472 23Z" fill="#122C4C"/>
</svg>
