<svg width="310" height="18" viewBox="0 0 310 18" fill="none" xmlns="http://www.w3.org/2000/svg">
<line x1="128" y1="9.5" x2="279" y2="9.50002" stroke="#0F3B68" stroke-dasharray="2 2"/>
<path d="M300.1 9.41602C300.1 11.373 298.635 12.123 296.872 12.123C295.958 12.123 295.044 11.9238 294.34 11.6016L294.545 10.2422C295.155 10.5469 295.952 10.7285 296.702 10.7285C297.71 10.7285 298.424 10.3887 298.424 9.49219C298.424 8.53711 297.639 8.18555 296.561 8.18555C295.975 8.18555 295.389 8.26172 294.926 8.40234L294.657 8.13867L295.149 4.04297H299.731V5.43164H296.385L296.221 6.97852C296.432 6.93164 296.713 6.91406 296.983 6.91406C298.665 6.91406 300.1 7.72266 300.1 9.41602ZM303.179 10.6172H306.648V12H301.07V10.7988L303.619 8.4375C304.398 7.71094 304.72 7.1543 304.72 6.50977C304.72 5.60156 304.07 5.32031 303.29 5.32031C302.622 5.32031 301.808 5.57227 301.351 5.85352L301.14 4.51758C301.831 4.14844 302.652 3.92578 303.49 3.92578C305.013 3.92578 306.378 4.62305 306.378 6.42773C306.378 7.47656 305.81 8.30859 304.539 9.42188C304.105 9.80273 303.66 10.207 303.179 10.6172Z" fill="#122C4C"/>
<path d="M3.1 13.13C2.58 13.13 2.12333 12.99 1.73 12.71C1.34 12.43 1.03667 12.05 0.82 11.57C0.603333 11.0867 0.495 10.5383 0.495 9.925C0.495 9.205 0.605 8.59167 0.825 8.085C1.045 7.575 1.35667 7.18667 1.76 6.92C2.16333 6.65 2.64 6.515 3.19 6.515C3.58667 6.515 3.93667 6.59 4.24 6.74C4.54333 6.88667 4.785 7.09333 4.965 7.36C5.145 7.62667 5.24833 7.93833 5.275 8.295L4.25 8.295C4.20667 8.01167 4.10167 7.78833 3.935 7.625C3.76833 7.45833 3.52833 7.375 3.215 7.375C2.66833 7.375 2.23667 7.61333 1.92 8.09C1.60667 8.56667 1.45 9.21667 1.45 10.04C1.45 10.1533 1.45167 10.2817 1.455 10.425C1.46167 10.5683 1.475 10.7017 1.495 10.825C1.535 10.395 1.64333 10.0583 1.82 9.815C1.99667 9.56833 2.215 9.39333 2.475 9.29C2.73833 9.18667 3.015 9.135 3.305 9.135C3.695 9.135 4.04167 9.22 4.345 9.39C4.65167 9.56 4.89167 9.79667 5.065 10.1C5.24167 10.4 5.33 10.745 5.33 11.135C5.33 11.5317 5.23667 11.88 5.05 12.18C4.86333 12.48 4.60167 12.7133 4.265 12.88C3.92833 13.0467 3.54 13.13 3.1 13.13ZM3.1 12.255C3.45333 12.255 3.74833 12.1517 3.985 11.945C4.22167 11.735 4.34 11.455 4.34 11.105C4.34 10.7417 4.22167 10.4583 3.985 10.255C3.74833 10.0483 3.45333 9.945 3.1 9.945C2.86667 9.945 2.65667 9.995 2.47 10.095C2.28667 10.1917 2.14 10.3283 2.03 10.505C1.92333 10.6783 1.87 10.8783 1.87 11.105C1.87 11.455 1.98833 11.735 2.225 11.945C2.46167 12.1517 2.75333 12.255 3.1 12.255ZM5.84414 12.44C5.84414 12.2533 5.90747 12.095 6.03414 11.965C6.16414 11.835 6.32747 11.77 6.52414 11.77C6.72081 11.77 6.88747 11.835 7.02414 11.965C7.16081 12.095 7.22914 12.2533 7.22914 12.44C7.22914 12.6233 7.16081 12.7783 7.02414 12.905C6.88747 13.0283 6.72081 13.09 6.52414 13.09C6.32747 13.09 6.16414 13.0267 6.03414 12.9C5.90747 12.7733 5.84414 12.62 5.84414 12.44ZM12.4489 13.13C12.0156 13.13 11.6172 13.0533 11.2539 12.9C10.8906 12.7433 10.5972 12.5117 10.3739 12.205C10.1539 11.8983 10.0389 11.515 10.0289 11.055L10.9589 11.055C10.9589 11.3317 11.0256 11.5583 11.1589 11.735C11.2956 11.9117 11.4756 12.0433 11.6989 12.13C11.9222 12.2133 12.1689 12.255 12.4389 12.255C12.7122 12.255 12.9539 12.2133 13.1639 12.13C13.3739 12.0467 13.5356 11.935 13.6489 11.795C13.7656 11.655 13.8239 11.495 13.8239 11.315C13.8239 11.0717 13.7489 10.8767 13.5989 10.73C13.4489 10.58 13.2206 10.4533 12.9139 10.35L11.7289 9.91C11.2189 9.72 10.8306 9.50167 10.5639 9.255C10.2972 9.005 10.1639 8.65833 10.1639 8.215C10.1639 7.71167 10.3606 7.30333 10.7539 6.99C11.1472 6.67333 11.7006 6.515 12.4139 6.515C13.0906 6.515 13.6156 6.67167 13.9889 6.985C14.3656 7.29833 14.5806 7.725 14.6339 8.265L13.6989 8.265C13.6522 7.99167 13.5239 7.775 13.3139 7.615C13.1072 7.455 12.8072 7.375 12.4139 7.375C12.0339 7.375 11.7372 7.45833 11.5239 7.625C11.3106 7.78833 11.2039 7.995 11.2039 8.245C11.2039 8.45167 11.2706 8.61667 11.4039 8.74C11.5406 8.86333 11.7522 8.975 12.0389 9.075L13.3889 9.57C13.8522 9.73333 14.2139 9.95333 14.4739 10.23C14.7339 10.5067 14.8639 10.8583 14.8639 11.285C14.8639 11.645 14.7706 11.9633 14.5839 12.24C14.3972 12.5167 14.1239 12.735 13.7639 12.895C13.4039 13.0517 12.9656 13.13 12.4489 13.13ZM15.2955 7.45L15.2955 6.63L20.3155 6.63L20.3155 7.45L18.0655 7.45L18.2805 7.23L18.2805 13L17.3305 13L17.3305 7.23L17.5405 7.45L15.2955 7.45ZM21.0473 13L21.0473 6.63L23.3273 6.63C24.0706 6.63 24.6356 6.80667 25.0223 7.16C25.4123 7.51 25.6073 7.97167 25.6073 8.545C25.6073 9.11167 25.4123 9.57 25.0223 9.92C24.6356 10.27 24.0706 10.445 23.3273 10.445L21.9973 10.445L21.9973 13L21.0473 13ZM24.5623 13L22.7973 10.07L23.8223 10.07L25.7973 13L24.5623 13ZM21.9973 9.795L23.2423 9.795C23.6956 9.795 24.0406 9.68667 24.2773 9.47C24.5139 9.25 24.6323 8.96667 24.6323 8.62C24.6323 8.26333 24.5206 7.98 24.2973 7.77C24.0773 7.55667 23.7539 7.45 23.3273 7.45L21.9973 7.45L21.9973 9.795ZM26.277 13L28.457 6.63L29.632 6.63L31.747 13L30.747 13L30.252 11.48L27.792 11.48L27.277 13L26.277 13ZM28.032 10.75L30.017 10.75L29.027 7.775L28.032 10.75ZM32.6641 13L32.6641 6.63L33.6141 6.63L33.6141 13L32.6641 13ZM37.5445 13.13C37.0311 13.13 36.5661 12.9967 36.1495 12.73C35.7328 12.46 35.4011 12.0817 35.1545 11.595C34.9078 11.105 34.7845 10.53 34.7845 9.87C34.7845 9.33333 34.8611 8.85667 35.0145 8.44C35.1711 8.02333 35.3861 7.67167 35.6595 7.385C35.9361 7.09833 36.2561 6.88167 36.6195 6.735C36.9828 6.58833 37.3711 6.515 37.7845 6.515C38.3245 6.515 38.7878 6.62833 39.1745 6.855C39.5611 7.08167 39.8795 7.44167 40.1295 7.935L39.1895 8.205C38.9895 7.92833 38.7695 7.72167 38.5295 7.585C38.2895 7.445 38.0261 7.375 37.7395 7.375C37.3895 7.375 37.0661 7.47667 36.7695 7.68C36.4761 7.88 36.2411 8.16667 36.0645 8.54C35.8878 8.91 35.7995 9.35333 35.7995 9.87C35.7995 10.34 35.8728 10.755 36.0195 11.115C36.1695 11.4717 36.3795 11.7517 36.6495 11.955C36.9228 12.155 37.2445 12.255 37.6145 12.255C37.9078 12.255 38.1711 12.1883 38.4045 12.055C38.6378 11.9217 38.8211 11.725 38.9545 11.465C39.0911 11.2017 39.1595 10.8767 39.1595 10.49L39.4095 10.49C39.4095 11.0267 39.3445 11.4933 39.2145 11.89C39.0878 12.2833 38.8878 12.5883 38.6145 12.805C38.3411 13.0217 37.9845 13.13 37.5445 13.13ZM39.3095 13L39.1595 11.54L39.1595 10.46L37.6295 10.42L37.6295 9.795L40.0795 9.795L40.0795 13L39.3095 13ZM41.5465 6.63L42.4965 6.63L42.4965 9.375L45.4865 9.375L45.4865 6.63L46.4315 6.63L46.4315 13L45.4865 13L45.4865 10.2L42.4965 10.2L42.4965 13L41.5465 13L41.5465 6.63ZM47.1772 7.45L47.1772 6.63L52.1972 6.63L52.1972 7.45L49.9472 7.45L50.1622 7.23L50.1622 13L49.2122 13L49.2122 7.23L49.4222 7.45L47.1772 7.45ZM54.2103 12.705L54.2103 11.74C54.4603 11.8933 54.707 12.0083 54.9503 12.085C55.1936 12.1617 55.427 12.2 55.6503 12.2C55.9703 12.2 56.2003 12.1067 56.3403 11.92C56.4836 11.73 56.5553 11.455 56.5553 11.095L56.5553 6.63L57.5053 6.63L57.5053 11.095C57.5053 11.5783 57.4303 11.97 57.2803 12.27C57.1336 12.5667 56.9253 12.785 56.6553 12.925C56.3886 13.0617 56.077 13.13 55.7203 13.13C55.4403 13.13 55.1753 13.09 54.9253 13.01C54.6753 12.93 54.437 12.8283 54.2103 12.705ZM58.2493 13L60.4293 6.63L61.6043 6.63L63.7193 13L62.7193 13L62.2243 11.48L59.7643 11.48L59.2493 13L58.2493 13ZM60.0043 10.75L61.9893 10.75L60.9993 7.775L60.0043 10.75ZM63.4836 6.63L64.5486 6.63L66.1536 12.16L65.8936 12.16L67.5136 7.19L68.1586 7.19L69.7886 12.105L69.5486 12.105L71.3236 6.63L72.3936 6.63L70.1686 13L69.1686 13L67.7936 8.92L67.9286 8.92L66.5236 13L65.5286 13L63.4836 6.63ZM77.5952 13.13C77.0318 13.13 76.5452 12.9933 76.1352 12.72C75.7285 12.4433 75.4135 12.055 75.1902 11.555C74.9668 11.0517 74.8552 10.4617 74.8552 9.785C74.8552 9.07167 74.9735 8.47333 75.2102 7.99C75.4468 7.50333 75.7718 7.13667 76.1852 6.89C76.6018 6.64 77.0718 6.515 77.5952 6.515C78.2985 6.515 78.8585 6.69 79.2752 7.04C79.6918 7.38667 79.9685 7.83833 80.1052 8.395L79.0902 8.59C78.9702 8.22 78.7802 7.925 78.5202 7.705C78.2602 7.48167 77.9518 7.37 77.5952 7.37C77.2818 7.37 76.9952 7.46 76.7352 7.64C76.4752 7.82 76.2668 8.09 76.1102 8.45C75.9535 8.80667 75.8752 9.25167 75.8752 9.785C75.8752 10.2783 75.9402 10.7117 76.0702 11.085C76.2002 11.455 76.3918 11.7433 76.6452 11.95C76.8985 12.1567 77.2152 12.26 77.5952 12.26C78.0585 12.26 78.4235 12.1367 78.6902 11.89C78.9568 11.64 79.0902 11.315 79.0902 10.915L80.1152 10.915C80.1152 11.3817 80.0102 11.78 79.8002 12.11C79.5935 12.4367 79.3018 12.6883 78.9252 12.865C78.5485 13.0417 78.1052 13.13 77.5952 13.13ZM83.5761 13.13C83.0328 13.13 82.5494 13.0067 82.1261 12.76C81.7028 12.5133 81.3694 12.145 81.1261 11.655C80.8861 11.165 80.7661 10.5533 80.7661 9.82C80.7661 9.07333 80.8861 8.45667 81.1261 7.97C81.3694 7.48 81.7028 7.115 82.1261 6.875C82.5494 6.635 83.0328 6.515 83.5761 6.515C84.1228 6.515 84.6078 6.63667 85.0311 6.88C85.4578 7.12333 85.7911 7.49167 86.0311 7.985C86.2744 8.475 86.3961 9.08667 86.3961 9.82C86.3961 10.56 86.2744 11.1767 86.0311 11.67C85.7911 12.16 85.4578 12.5267 85.0311 12.77C84.6078 13.01 84.1228 13.13 83.5761 13.13ZM83.5761 12.26C84.1428 12.26 84.5894 12.0517 84.9161 11.635C85.2461 11.2183 85.4111 10.61 85.4111 9.81C85.4111 9.03 85.2461 8.42833 84.9161 8.005C84.5894 7.57833 84.1428 7.365 83.5761 7.365C83.0194 7.365 82.5761 7.57833 82.2461 8.005C81.9161 8.43167 81.7511 9.03667 81.7511 9.82C81.7511 10.6133 81.9161 11.2183 82.2461 11.635C82.5761 12.0517 83.0194 12.26 83.5761 12.26ZM87.4374 6.63L88.3874 6.63L88.3874 10.655C88.3874 11.2217 88.5291 11.63 88.8124 11.88C89.0991 12.13 89.4708 12.255 89.9274 12.255C90.3841 12.255 90.7541 12.13 91.0374 11.88C91.3208 11.63 91.4624 11.2217 91.4624 10.655L91.4624 6.63L92.4124 6.63L92.4124 10.655C92.4124 11.1883 92.3124 11.64 92.1124 12.01C91.9124 12.3767 91.6258 12.655 91.2524 12.845C90.8824 13.035 90.4408 13.13 89.9274 13.13C89.4174 13.13 88.9758 13.035 88.6024 12.845C88.2291 12.655 87.9408 12.3767 87.7374 12.01C87.5374 11.64 87.4374 11.1883 87.4374 10.655L87.4374 6.63ZM93.9219 13L93.9219 6.63L96.0569 6.63C96.7669 6.63 97.3135 6.80667 97.6969 7.16C98.0802 7.51333 98.2719 8.00167 98.2719 8.625C98.2719 9.24167 98.0802 9.72667 97.6969 10.08C97.3135 10.43 96.7669 10.605 96.0569 10.605L94.8819 10.605L94.8819 13L93.9219 13ZM94.8819 9.775L96.0569 9.775C96.4635 9.775 96.7719 9.67 96.9819 9.46C97.1919 9.25 97.2969 8.97167 97.2969 8.625C97.2969 8.275 97.1919 7.99167 96.9819 7.775C96.7719 7.55833 96.4635 7.45 96.0569 7.45L94.8819 7.45L94.8819 9.775ZM100.251 6.63L100.251 12.17L102.996 12.17L102.996 13L99.3012 13L99.3012 6.63L100.251 6.63ZM103.786 13L103.786 6.63L104.736 6.63L104.736 13L103.786 13ZM106.372 6.63L107.457 6.63L110.542 11.57L110.467 11.57L110.467 6.63L111.417 6.63L111.417 13L110.407 13L107.172 7.84L107.322 7.84L107.322 13L106.372 13L106.372 6.63ZM115.349 13.13C114.836 13.13 114.371 12.9967 113.954 12.73C113.537 12.46 113.206 12.0817 112.959 11.595C112.712 11.105 112.589 10.53 112.589 9.87C112.589 9.33333 112.666 8.85667 112.819 8.44C112.976 8.02333 113.191 7.67167 113.464 7.385C113.741 7.09833 114.061 6.88167 114.424 6.735C114.787 6.58833 115.176 6.515 115.589 6.515C116.129 6.515 116.592 6.62833 116.979 6.855C117.366 7.08167 117.684 7.44167 117.934 7.935L116.994 8.205C116.794 7.92833 116.574 7.72167 116.334 7.585C116.094 7.445 115.831 7.375 115.544 7.375C115.194 7.375 114.871 7.47667 114.574 7.68C114.281 7.88 114.046 8.16667 113.869 8.54C113.692 8.91 113.604 9.35333 113.604 9.87C113.604 10.34 113.677 10.755 113.824 11.115C113.974 11.4717 114.184 11.7517 114.454 11.955C114.727 12.155 115.049 12.255 115.419 12.255C115.712 12.255 115.976 12.1883 116.209 12.055C116.442 11.9217 116.626 11.725 116.759 11.465C116.896 11.2017 116.964 10.8767 116.964 10.49L117.214 10.49C117.214 11.0267 117.149 11.4933 117.019 11.89C116.892 12.2833 116.692 12.5883 116.419 12.805C116.146 13.0217 115.789 13.13 115.349 13.13ZM117.114 13L116.964 11.54L116.964 10.46L115.434 10.42L115.434 9.795L117.884 9.795L117.884 13L117.114 13Z" fill="black"/>
</svg>
