<svg width="337" height="25" viewBox="0 0 337 25" fill="none" xmlns="http://www.w3.org/2000/svg">
<path d="M5.17969 19.1562C1.98438 19.1562 0.679688 16.6562 0.679688 13.7344C0.679688 10.8125 1.96094 8.23438 5.17969 8.23438C8.44531 8.23438 9.67969 10.9219 9.67969 13.7344C9.67969 16.6562 8.38281 19.1562 5.17969 19.1562ZM2.76562 13.6953C2.76562 15.5703 3.45312 17.2656 5.17969 17.2656C6.92188 17.2656 7.59375 15.5078 7.59375 13.6953C7.59375 11.8125 6.91406 10.125 5.17969 10.125C3.44531 10.125 2.76562 11.875 2.76562 13.6953ZM14.4944 19V10.2422H12.2366V8.39062H16.6038V19H14.4944ZM20.1763 18.0078C20.1763 17.3672 20.6763 16.8594 21.3325 16.8594C21.9888 16.8594 22.4966 17.3672 22.4966 18.0078C22.4966 18.6562 21.9888 19.1562 21.3325 19.1562C20.6763 19.1562 20.1763 18.6562 20.1763 18.0078Z" fill="black"/>
<path d="M34.5156 19V10.2656H31.1953V8.39062H39.9297V10.2656H36.6172V19H34.5156ZM49.5725 19L48.7913 16.9219H43.8694L43.0803 19H40.8303L45.1116 8.39062H47.5334L51.8225 19H49.5725ZM46.3303 10.5938L44.4631 15.2422H48.1819L46.3303 10.5938ZM59.7231 15.875H56.9184V19H54.8091V8.39062H59.7231C61.8638 8.39062 63.5903 9.74219 63.5903 12.1484C63.5903 14.4219 61.8638 15.875 59.7231 15.875ZM59.4809 10.2188H56.9184V14.0547H59.4809C60.5981 14.0547 61.4184 13.2812 61.4184 12.1484C61.4184 10.9141 60.5825 10.2188 59.4809 10.2188ZM74.8737 17.1797V19H66.8972V8.39062H74.7566V10.2188H69.0066V12.6641H74.0378V14.4922H69.0066V17.1797H74.8737ZM85.3369 18.9922L82.9072 15.875H80.4541V19H78.3447V8.39062H83.2666C85.4072 8.39062 87.1416 9.75 87.1416 12.1406C87.1416 13.6797 86.2822 14.8906 85.0713 15.4766L87.8838 18.9922H85.3369ZM83.0244 10.2188H80.4541V14.0547H83.0244C84.1494 14.0547 84.9697 13.2812 84.9697 12.1484C84.9697 10.9141 84.1338 10.2188 83.0244 10.2188ZM96.7084 19V8.39062H101.654C103.56 8.39062 104.935 9.57031 104.935 11.2891C104.935 12.2344 104.544 12.9766 103.662 13.5312C104.888 13.9766 105.49 14.9375 105.49 16.0547C105.49 17.7891 104.154 19 102.193 19H96.7084ZM98.8178 12.8438H101.372C102.24 12.8438 102.755 12.3047 102.755 11.5234C102.755 10.6875 102.13 10.2031 101.294 10.2031H98.8178V12.8438ZM98.8178 17.1953H101.849C102.693 17.1953 103.247 16.6562 103.247 15.8906C103.247 15.0625 102.701 14.5078 101.849 14.5078H98.8178V17.1953ZM108.882 15.2344V8.39062H110.984V15.0938C110.984 16.6094 112.078 17.2656 113.507 17.2656C115.031 17.2656 116.047 16.5469 116.047 15.0938V8.39062H118.148V15.2344C118.148 18 115.937 19.1562 113.507 19.1562C110.882 19.1562 108.882 17.9062 108.882 15.2344ZM125.596 8.23438C127.08 8.23438 128.15 8.52344 128.994 8.89844L128.814 10.7734C128.26 10.4453 126.885 10.0938 125.744 10.0938C124.596 10.0938 123.775 10.4453 123.775 11.3203C123.775 12.2031 124.525 12.3594 125.252 12.5781L126.783 13.0312C128.533 13.5469 129.533 14.2969 129.533 15.9219C129.533 17.8047 127.932 19.1562 125.51 19.1562C124.01 19.1562 122.314 18.7812 121.58 18.375L121.752 16.4922C122.275 16.8203 124.002 17.2812 125.322 17.2812C126.439 17.2812 127.33 16.8906 127.33 16.0234C127.33 15.3516 126.932 15.0547 126.033 14.8125L124.353 14.3594C123.002 13.9922 121.58 13.2578 121.58 11.4922C121.58 9.53125 123.119 8.23438 125.596 8.23438ZM142.309 8.39062V19H140.207V14.5H135.035V19H132.926V8.39062H135.035V12.6797H140.207V8.39062H142.309ZM156.86 15.875H154.055V19H151.946V8.39062H156.86C159.001 8.39062 160.727 9.74219 160.727 12.1484C160.727 14.4219 159.001 15.875 156.86 15.875ZM156.618 10.2188H154.055V14.0547H156.618C157.735 14.0547 158.555 13.2812 158.555 12.1484C158.555 10.9141 157.719 10.2188 156.618 10.2188ZM163.948 15.2344V8.39062H166.05V15.0938C166.05 16.6094 167.143 17.2656 168.573 17.2656C170.097 17.2656 171.112 16.5469 171.112 15.0938V8.39062H173.214V15.2344C173.214 18 171.003 19.1562 168.573 19.1562C165.948 19.1562 163.948 17.9062 163.948 15.2344ZM184.974 17.1797V19H177.153V8.39062H179.263V17.1797H184.974ZM195.906 17.1797V19H188.085V8.39062H190.195V17.1797H195.906ZM206.994 17.1797V19H199.017V8.39062H206.877V10.2188H201.127V12.6641H206.158V14.4922H201.127V17.1797H206.994ZM214.848 12.8516L217.777 8.39062H220.215L215.887 14.9922V19H213.785V14.9922L209.433 8.39062H211.949L214.848 12.8516Z" fill="black"/>
<line x1="242" y1="16.5" x2="301" y2="16.5" stroke="#0F3B68" stroke-dasharray="2 2"/>
<path d="M314.12 24.2344C309.328 24.2344 307.37 20.4844 307.37 16.1016C307.37 11.7188 309.292 7.85156 314.12 7.85156C319.019 7.85156 320.87 11.8828 320.87 16.1016C320.87 20.4844 318.925 24.2344 314.12 24.2344ZM310.499 16.043C310.499 18.8555 311.531 21.3984 314.12 21.3984C316.734 21.3984 317.742 18.7617 317.742 16.043C317.742 13.2188 316.722 10.6875 314.12 10.6875C311.519 10.6875 310.499 13.3125 310.499 16.043ZM331.434 8.08594L326.548 17.6719H330.907V14.1445H333.942V17.6719H336.145V20.3672H333.942V24.0117H330.907V20.3672H323.149V17.918L328.071 8.08594H331.434Z" fill="#122C4C"/>
</svg>
