<svg width="310" height="18" viewBox="0 0 310 18" fill="none" xmlns="http://www.w3.org/2000/svg">
<line x1="128" y1="10.5" x2="279" y2="10.5" stroke="#0F3B68" stroke-dasharray="2 2"/>
<path d="M296.461 10.6172H299.93V12H294.352V10.7988L296.901 8.4375C297.68 7.71094 298.003 7.1543 298.003 6.50977C298.003 5.60156 297.352 5.32031 296.573 5.32031C295.905 5.32031 295.09 5.57227 294.633 5.85352L294.422 4.51758C295.114 4.14844 295.934 3.92578 296.772 3.92578C298.295 3.92578 299.661 4.62305 299.661 6.42773C299.661 7.47656 299.092 8.30859 297.821 9.42188C297.387 9.80273 296.942 10.207 296.461 10.6172ZM306.63 9.41602C306.63 11.373 305.165 12.123 303.402 12.123C302.488 12.123 301.574 11.9238 300.871 11.6016L301.076 10.2422C301.685 10.5469 302.482 10.7285 303.232 10.7285C304.24 10.7285 304.955 10.3887 304.955 9.49219C304.955 8.53711 304.169 8.18555 303.091 8.18555C302.505 8.18555 301.919 8.26172 301.456 8.40234L301.187 8.13867L301.679 4.04297H306.261V5.43164H302.915L302.751 6.97852C302.962 6.93164 303.244 6.91406 303.513 6.91406C305.195 6.91406 306.63 7.72266 306.63 9.41602Z" fill="#122C4C"/>
<path d="M1.695 6.605L2.435 6.605L2.435 13L1.485 13L1.485 7.73C1.31833 7.82667 1.14833 7.90167 0.975 7.955C0.801667 8.005 0.628333 8.03333 0.455 8.04L0.455 7.12C0.671667 7.09333 0.881667 7.04 1.085 6.96C1.29167 6.87667 1.495 6.75833 1.695 6.605ZM3.39297 12.44C3.39297 12.2533 3.4563 12.095 3.58297 11.965C3.71297 11.835 3.8763 11.77 4.07297 11.77C4.26964 11.77 4.4363 11.835 4.57297 11.965C4.70964 12.095 4.77797 12.2533 4.77797 12.44C4.77797 12.6233 4.70964 12.7783 4.57297 12.905C4.4363 13.0283 4.26964 13.09 4.07297 13.09C3.8763 13.09 3.71297 13.0267 3.58297 12.9C3.4563 12.7733 3.39297 12.62 3.39297 12.44ZM6.96273 7.45L6.96273 6.63L11.9827 6.63L11.9827 7.45L9.73273 7.45L9.94773 7.23L9.94773 13L8.99773 13L8.99773 7.23L9.20773 7.45L6.96273 7.45ZM11.8195 6.63L12.9545 6.63L14.6495 9.57L14.4395 9.57L16.1745 6.63L17.2995 6.63L15.0145 10.375L15.0145 13L14.0595 13L14.0595 10.375L11.8195 6.63ZM18.059 13L18.059 6.63L20.339 6.63C21.0823 6.63 21.6473 6.80667 22.034 7.16C22.424 7.51 22.619 7.97167 22.619 8.545C22.619 9.11167 22.424 9.57 22.034 9.92C21.6473 10.27 21.0823 10.445 20.339 10.445L19.009 10.445L19.009 13L18.059 13ZM21.574 13L19.809 10.07L20.834 10.07L22.809 13L21.574 13ZM19.009 9.795L20.254 9.795C20.7073 9.795 21.0523 9.68667 21.289 9.47C21.5257 9.25 21.644 8.96667 21.644 8.62C21.644 8.26333 21.5323 7.98 21.309 7.77C21.089 7.55667 20.7657 7.45 20.339 7.45L19.009 7.45L19.009 9.795ZM24.0088 13L24.0088 6.63L28.0088 6.63L28.0088 7.45L24.9588 7.45L24.9588 9.39L27.8288 9.39L27.8288 10.21L24.9588 10.21L24.9588 12.17L28.0088 12.17L28.0088 13L24.0088 13ZM33.8428 13.13C33.2795 13.13 32.7928 12.9933 32.3828 12.72C31.9761 12.4433 31.6611 12.055 31.4378 11.555C31.2145 11.0517 31.1028 10.4617 31.1028 9.785C31.1028 9.07167 31.2211 8.47333 31.4578 7.99C31.6945 7.50333 32.0195 7.13667 32.4328 6.89C32.8495 6.64 33.3195 6.515 33.8428 6.515C34.5461 6.515 35.1061 6.69 35.5228 7.04C35.9395 7.38667 36.2161 7.83833 36.3528 8.395L35.3378 8.59C35.2178 8.22 35.0278 7.925 34.7678 7.705C34.5078 7.48167 34.1995 7.37 33.8428 7.37C33.5295 7.37 33.2428 7.46 32.9828 7.64C32.7228 7.82 32.5145 8.09 32.3578 8.45C32.2011 8.80667 32.1228 9.25167 32.1228 9.785C32.1228 10.2783 32.1878 10.7117 32.3178 11.085C32.4478 11.455 32.6395 11.7433 32.8928 11.95C33.1461 12.1567 33.4628 12.26 33.8428 12.26C34.3061 12.26 34.6711 12.1367 34.9378 11.89C35.2045 11.64 35.3378 11.315 35.3378 10.915L36.3628 10.915C36.3628 11.3817 36.2578 11.78 36.0478 12.11C35.8411 12.4367 35.5495 12.6883 35.1728 12.865C34.7961 13.0417 34.3528 13.13 33.8428 13.13ZM39.8237 13.13C39.2804 13.13 38.7971 13.0067 38.3737 12.76C37.9504 12.5133 37.6171 12.145 37.3737 11.655C37.1337 11.165 37.0137 10.5533 37.0137 9.82C37.0137 9.07333 37.1337 8.45667 37.3737 7.97C37.6171 7.48 37.9504 7.115 38.3737 6.875C38.7971 6.635 39.2804 6.515 39.8237 6.515C40.3704 6.515 40.8554 6.63667 41.2787 6.88C41.7054 7.12333 42.0387 7.49167 42.2787 7.985C42.5221 8.475 42.6437 9.08667 42.6437 9.82C42.6437 10.56 42.5221 11.1767 42.2787 11.67C42.0387 12.16 41.7054 12.5267 41.2787 12.77C40.8554 13.01 40.3704 13.13 39.8237 13.13ZM39.8237 12.26C40.3904 12.26 40.8371 12.0517 41.1637 11.635C41.4937 11.2183 41.6587 10.61 41.6587 9.81C41.6587 9.03 41.4937 8.42833 41.1637 8.005C40.8371 7.57833 40.3904 7.365 39.8237 7.365C39.2671 7.365 38.8237 7.57833 38.4937 8.005C38.1637 8.43167 37.9987 9.03667 37.9987 9.82C37.9987 10.6133 38.1637 11.2183 38.4937 11.635C38.8237 12.0517 39.2671 12.26 39.8237 12.26ZM43.6851 6.63L44.6351 6.63L44.6351 10.655C44.6351 11.2217 44.7767 11.63 45.0601 11.88C45.3467 12.13 45.7184 12.255 46.1751 12.255C46.6317 12.255 47.0017 12.13 47.2851 11.88C47.5684 11.63 47.7101 11.2217 47.7101 10.655L47.7101 6.63L48.6601 6.63L48.6601 10.655C48.6601 11.1883 48.5601 11.64 48.3601 12.01C48.1601 12.3767 47.8734 12.655 47.5001 12.845C47.1301 13.035 46.6884 13.13 46.1751 13.13C45.6651 13.13 45.2234 13.035 44.8501 12.845C44.4767 12.655 44.1884 12.3767 43.9851 12.01C43.7851 11.64 43.6851 11.1883 43.6851 10.655L43.6851 6.63ZM50.1695 13L50.1695 6.63L52.3045 6.63C53.0145 6.63 53.5612 6.80667 53.9445 7.16C54.3279 7.51333 54.5195 8.00167 54.5195 8.625C54.5195 9.24167 54.3279 9.72667 53.9445 10.08C53.5612 10.43 53.0145 10.605 52.3045 10.605L51.1295 10.605L51.1295 13L50.1695 13ZM51.1295 9.775L52.3045 9.775C52.7112 9.775 53.0195 9.67 53.2295 9.46C53.4395 9.25 53.5445 8.97167 53.5445 8.625C53.5445 8.275 53.4395 7.99167 53.2295 7.775C53.0195 7.55833 52.7112 7.45 52.3045 7.45L51.1295 7.45L51.1295 9.775ZM56.4988 6.63L56.4988 12.17L59.2438 12.17L59.2438 13L55.5488 13L55.5488 6.63L56.4988 6.63ZM60.034 13L60.034 6.63L60.984 6.63L60.984 13L60.034 13ZM62.6194 6.63L63.7044 6.63L66.7894 11.57L66.7144 11.57L66.7144 6.63L67.6644 6.63L67.6644 13L66.6544 13L63.4194 7.84L63.5694 7.84L63.5694 13L62.6194 13L62.6194 6.63ZM71.5968 13.13C71.0835 13.13 70.6185 12.9967 70.2018 12.73C69.7851 12.46 69.4535 12.0817 69.2068 11.595C68.9601 11.105 68.8368 10.53 68.8368 9.87C68.8368 9.33333 68.9135 8.85667 69.0668 8.44C69.2235 8.02333 69.4385 7.67167 69.7118 7.385C69.9885 7.09833 70.3085 6.88167 70.6718 6.735C71.0351 6.58833 71.4235 6.515 71.8368 6.515C72.3768 6.515 72.8401 6.62833 73.2268 6.855C73.6135 7.08167 73.9318 7.44167 74.1818 7.935L73.2418 8.205C73.0418 7.92833 72.8218 7.72167 72.5818 7.585C72.3418 7.445 72.0785 7.375 71.7918 7.375C71.4418 7.375 71.1185 7.47667 70.8218 7.68C70.5285 7.88 70.2935 8.16667 70.1168 8.54C69.9401 8.91 69.8518 9.35333 69.8518 9.87C69.8518 10.34 69.9251 10.755 70.0718 11.115C70.2218 11.4717 70.4318 11.7517 70.7018 11.955C70.9751 12.155 71.2968 12.255 71.6668 12.255C71.9601 12.255 72.2235 12.1883 72.4568 12.055C72.6901 11.9217 72.8735 11.725 73.0068 11.465C73.1435 11.2017 73.2118 10.8767 73.2118 10.49L73.4618 10.49C73.4618 11.0267 73.3968 11.4933 73.2668 11.89C73.1401 12.2833 72.9401 12.5883 72.6668 12.805C72.3935 13.0217 72.0368 13.13 71.5968 13.13ZM73.3618 13L73.2118 11.54L73.2118 10.46L71.6818 10.42L71.6818 9.795L74.1318 9.795L74.1318 13L73.3618 13Z" fill="black"/>
</svg>
