<svg width="24" height="24" viewBox="0 0 24 24" fill="none" xmlns="http://www.w3.org/2000/svg">
<rect width="24" height="24" fill="white"/>
<path d="M7.99883 2.39844C4.91163 2.39844 2.40039 4.912 2.40039 8V16C2.40039 19.0872 4.91395 21.5984 8.00195 21.5984H16.002C19.0892 21.5984 21.6004 19.0849 21.6004 15.9969V7.99688C21.6004 4.90968 19.0868 2.39844 15.9988 2.39844H7.99883ZM17.6004 5.59844C18.042 5.59844 18.4004 5.95684 18.4004 6.39844C18.4004 6.84004 18.042 7.19844 17.6004 7.19844C17.1588 7.19844 16.8004 6.84004 16.8004 6.39844C16.8004 5.95684 17.1588 5.59844 17.6004 5.59844ZM12.0004 7.19844C14.6476 7.19844 16.8004 9.35124 16.8004 11.9984C16.8004 14.6456 14.6476 16.7984 12.0004 16.7984C9.35319 16.7984 7.20039 14.6456 7.20039 11.9984C7.20039 9.35124 9.35319 7.19844 12.0004 7.19844ZM12.0004 8.79844C11.1517 8.79844 10.3378 9.13558 9.73765 9.7357C9.13753 10.3358 8.80039 11.1497 8.80039 11.9984C8.80039 12.8471 9.13753 13.6611 9.73765 14.2612C10.3378 14.8613 11.1517 15.1984 12.0004 15.1984C12.8491 15.1984 13.663 14.8613 14.2631 14.2612C14.8632 13.6611 15.2004 12.8471 15.2004 11.9984C15.2004 11.1497 14.8632 10.3358 14.2631 9.7357C13.663 9.13558 12.8491 8.79844 12.0004 8.79844Z" fill="#054B9B"/>
</svg>
