<svg width="24" height="24" viewBox="0 0 24 24" fill="none" xmlns="http://www.w3.org/2000/svg">
<rect width="24" height="24" fill="white"/>
<path d="M19.6799 1.92188H4.31992C2.99512 1.92188 1.91992 2.99707 1.91992 4.32187V19.6819C1.91992 21.0067 2.99512 22.0819 4.31992 22.0819H19.6799C21.0047 22.0819 22.0799 21.0067 22.0799 19.6819V4.32187C22.0799 2.99707 21.0047 1.92188 19.6799 1.92188ZM8.15992 9.60187V18.7219H5.27992V9.60187H8.15992ZM5.27992 6.94747C5.27992 6.27548 5.85592 5.76187 6.71992 5.76187C7.58392 5.76187 8.12632 6.27548 8.15992 6.94747C8.15992 7.61947 7.62232 8.16187 6.71992 8.16187C5.85592 8.16187 5.27992 7.61947 5.27992 6.94747ZM18.7199 18.7219H15.8399C15.8399 18.7219 15.8399 14.2771 15.8399 13.9219C15.8399 12.9619 15.3599 12.0019 14.1599 11.9827H14.1215C12.9599 11.9827 12.4799 12.9715 12.4799 13.9219C12.4799 14.3587 12.4799 18.7219 12.4799 18.7219H9.59992V9.60187H12.4799V10.8307C12.4799 10.8307 13.4063 9.60187 15.2687 9.60187C17.1743 9.60187 18.7199 10.9123 18.7199 13.5667V18.7219Z" fill="#054B9B"/>
</svg>
