<svg width="29" height="29" viewBox="0 0 29 29" fill="none" xmlns="http://www.w3.org/2000/svg">
<rect x="0.117777" width="28" height="28" rx="14" transform="rotate(0.241006 0.117777 0)" fill="#B3C8E0"/>
<path d="M14.083 8.22604C15.6301 8.23255 17.1113 8.85339 18.2007 9.95198C19.2901 11.0506 19.8984 12.5369 19.8919 14.084M12.9358 3.6247C13.3231 3.57913 13.7127 3.55739 14.1026 3.5596C16.8874 3.57132 19.5534 4.68879 21.5142 6.66619C23.4751 8.64358 24.5701 11.3189 24.5583 14.1037C24.5567 14.4938 24.5317 14.8825 24.4834 15.2699" stroke="#054B9B" stroke-linecap="round" stroke-linejoin="round"/>
<path d="M17.5128 24.5774C15.7061 24.1386 13.9938 23.3763 12.4587 22.3274L14.595 19.2922C14.9461 18.8172 15.4643 18.4931 16.0449 18.3852C16.6256 18.2773 17.2256 18.3936 17.7239 18.7106C18.1082 18.9569 18.5037 19.1804 18.8881 19.4037C19.1773 19.5467 19.4337 19.748 19.6411 19.995C19.8486 20.2421 20.0026 20.5294 20.0934 20.839C20.1842 21.1485 20.2098 21.4735 20.1686 21.7935C20.1275 22.1134 20.0204 22.4213 19.8542 22.6978L19.1261 23.8036C18.9953 24.1051 18.7601 24.3494 18.4638 24.4916C18.1675 24.6339 17.8299 24.664 17.5128 24.5774ZM4.36008 8.97077L5.5296 8.2516C5.8009 8.07715 6.10543 7.96083 6.42396 7.91C6.74249 7.85917 7.06809 7.87493 7.38022 7.95628C7.69235 8.03763 7.98422 8.18281 8.23742 8.38265C8.49061 8.58249 8.69962 8.83265 8.85126 9.11734C9.07125 9.53827 9.29078 9.93624 9.53459 10.2873C9.84736 10.7883 9.9585 11.3893 9.84558 11.9691C9.73267 12.5488 9.40411 13.0642 8.92616 13.4112L5.81415 15.5564C4.7697 14.0257 4.01008 12.3191 3.5718 10.5187C3.50333 10.2093 3.54452 9.88571 3.68832 9.60334C3.83212 9.32097 4.06958 9.09735 4.36008 8.97077Z" stroke="#054B9B" stroke-linecap="round" stroke-linejoin="round"/>
<path d="M5.81504 15.5547C6.66709 16.9026 7.67188 18.1476 8.80946 19.265C9.91745 20.412 11.1542 21.4272 12.495 22.2905" stroke="#054B9B" stroke-linecap="round" stroke-linejoin="round"/>
</svg>
