<svg width="87" height="8" viewBox="0 0 87 8" fill="none" xmlns="http://www.w3.org/2000/svg">
<path d="M2.48488 1.59987L3.40888 1.59987L3.40888 4.14388L5.89288 4.14388L5.89288 4.94787L3.40888 4.94787L3.40888 7.49187L2.48488 7.49187L2.48488 4.94787L0.000875013 4.94787L0.000875013 4.14388L2.48488 4.14388L2.48488 1.59987ZM9.50956 7.81587C9.01356 7.81587 8.57156 7.71387 8.18356 7.50987C7.79956 7.30587 7.49556 7.02587 7.27156 6.66987C7.05156 6.30987 6.94156 5.89987 6.94156 5.43987L7.91356 5.43987C7.92556 5.89987 8.06956 6.26787 8.34556 6.54387C8.62556 6.81587 9.00556 6.95187 9.48556 6.95187C9.95756 6.95187 10.3396 6.81587 10.6316 6.54387C10.9276 6.27187 11.1436 5.88787 11.2796 5.39187C11.4196 4.89187 11.4896 4.30387 11.4896 3.62787C11.4896 3.47187 11.4856 3.32787 11.4776 3.19587C11.4696 3.05987 11.4536 2.90787 11.4296 2.73987C11.3776 3.17187 11.2536 3.53187 11.0576 3.81987C10.8616 4.10387 10.6096 4.31787 10.3016 4.46187C9.99756 4.60187 9.65356 4.67187 9.26956 4.67187C8.82156 4.67187 8.41756 4.57187 8.05756 4.37187C7.70156 4.16787 7.41756 3.88987 7.20556 3.53787C6.99756 3.18187 6.89356 2.77587 6.89356 2.31987C6.89356 1.85187 6.99956 1.44387 7.21156 1.09587C7.42756 0.747874 7.72756 0.479875 8.11156 0.291875C8.49556 0.0998745 8.94156 0.0038743 9.44956 0.0038743C9.88156 0.0038743 10.2796 0.0918744 10.6436 0.267874C11.0116 0.443875 11.3296 0.697875 11.5976 1.02988C11.8656 1.35787 12.0736 1.75187 12.2216 2.21187C12.3736 2.67187 12.4496 3.18787 12.4496 3.75987C12.4496 4.58787 12.3436 5.30587 12.1316 5.91387C11.9236 6.52187 11.6016 6.99187 11.1656 7.32387C10.7336 7.65187 10.1816 7.81587 9.50956 7.81587ZM9.44956 3.84387C9.74556 3.84387 10.0136 3.77787 10.2536 3.64587C10.4936 3.51387 10.6836 3.33587 10.8236 3.11187C10.9636 2.88787 11.0336 2.63587 11.0336 2.35587C11.0336 1.89187 10.8796 1.52587 10.5716 1.25787C10.2676 0.989875 9.89356 0.855875 9.44956 0.855875C8.99356 0.855875 8.61556 0.989875 8.31556 1.25787C8.01556 1.52587 7.86556 1.89187 7.86556 2.35587C7.86556 2.81587 8.01556 3.17987 8.31556 3.44787C8.61556 3.71187 8.99356 3.84387 9.44956 3.84387ZM15.0545 0.111874L15.8105 0.111874L15.8105 7.67187L14.8745 7.67187L14.8745 1.21587C14.6825 1.34787 14.4805 1.44987 14.2685 1.52187C14.0605 1.58987 13.8505 1.62787 13.6385 1.63587L13.6385 0.723874C13.8905 0.687875 14.1345 0.621875 14.3705 0.525874C14.6105 0.429875 14.8385 0.291875 15.0545 0.111874ZM23.2791 7.81587C22.7831 7.81587 22.3411 7.71387 21.9531 7.50987C21.5691 7.30587 21.2651 7.02587 21.0411 6.66987C20.8211 6.30987 20.7111 5.89987 20.7111 5.43987L21.6831 5.43987C21.6951 5.89987 21.8391 6.26787 22.1151 6.54387C22.3951 6.81587 22.7751 6.95187 23.2551 6.95187C23.7271 6.95187 24.1091 6.81587 24.4011 6.54387C24.6971 6.27187 24.9131 5.88787 25.0491 5.39187C25.1891 4.89187 25.2591 4.30387 25.2591 3.62787C25.2591 3.47187 25.2551 3.32787 25.2471 3.19587C25.2391 3.05987 25.2231 2.90787 25.1991 2.73987C25.1471 3.17187 25.0231 3.53187 24.8271 3.81987C24.6311 4.10387 24.3791 4.31787 24.0711 4.46187C23.7671 4.60187 23.4231 4.67187 23.0391 4.67187C22.5911 4.67187 22.1871 4.57187 21.8271 4.37187C21.4711 4.16787 21.1871 3.88987 20.9751 3.53787C20.7671 3.18187 20.6631 2.77587 20.6631 2.31987C20.6631 1.85187 20.7691 1.44387 20.9811 1.09587C21.1971 0.747874 21.4971 0.479875 21.8811 0.291875C22.2651 0.0998745 22.7111 0.0038743 23.2191 0.0038743C23.6511 0.0038743 24.0491 0.0918744 24.4131 0.267874C24.7811 0.443875 25.0991 0.697875 25.3671 1.02988C25.6351 1.35787 25.8431 1.75187 25.9911 2.21187C26.1431 2.67187 26.2191 3.18787 26.2191 3.75987C26.2191 4.58787 26.1131 5.30587 25.9011 5.91387C25.6931 6.52187 25.3711 6.99187 24.9351 7.32387C24.5031 7.65187 23.9511 7.81587 23.2791 7.81587ZM23.2191 3.84387C23.5151 3.84387 23.7831 3.77787 24.0231 3.64587C24.2631 3.51387 24.4531 3.33587 24.5931 3.11187C24.7331 2.88787 24.8031 2.63587 24.8031 2.35587C24.8031 1.89187 24.6491 1.52587 24.3411 1.25787C24.0371 0.989875 23.6631 0.855875 23.2191 0.855875C22.7631 0.855875 22.3851 0.989875 22.0851 1.25787C21.7851 1.52587 21.6351 1.89187 21.6351 2.35587C21.6351 2.81587 21.7851 3.17987 22.0851 3.44787C22.3851 3.71187 22.7631 3.84387 23.2191 3.84387ZM30.516 7.81587C29.924 7.81587 29.4 7.72187 28.944 7.53387C28.492 7.34587 28.136 7.08787 27.876 6.75987C27.62 6.43187 27.492 6.05987 27.492 5.64387C27.492 5.26387 27.59 4.93787 27.786 4.66587C27.986 4.39387 28.258 4.18587 28.602 4.04187C28.95 3.89387 29.344 3.81987 29.784 3.81987C29.9 3.81987 30.012 3.82587 30.12 3.83787C30.228 3.84987 30.344 3.87187 30.468 3.90387L30.468 4.17987C30.068 4.17987 29.718 4.24587 29.418 4.37787C29.118 4.50587 28.884 4.67587 28.716 4.88787C28.548 5.09987 28.464 5.32787 28.464 5.57187C28.464 5.86787 28.554 6.11987 28.734 6.32787C28.914 6.53187 29.158 6.68787 29.466 6.79587C29.778 6.89987 30.128 6.95187 30.516 6.95187C31.164 6.95187 31.668 6.84787 32.028 6.63987C32.388 6.43187 32.568 6.15987 32.568 5.82387C32.568 5.55187 32.472 5.32787 32.28 5.15187C32.092 4.97587 31.832 4.82787 31.5 4.70787L29.424 3.91587C29.172 3.81987 28.916 3.68787 28.656 3.51987C28.4 3.35187 28.184 3.14187 28.008 2.88987C27.832 2.63787 27.744 2.33987 27.744 1.99587C27.744 1.60787 27.854 1.26387 28.074 0.963875C28.294 0.663875 28.61 0.429875 29.022 0.261875C29.438 0.0898745 29.936 0.00387429 30.516 0.00387429C31.048 0.00387429 31.52 0.0958743 31.932 0.279874C32.348 0.459875 32.674 0.707875 32.91 1.02387C33.146 1.33587 33.264 1.69187 33.264 2.09187C33.264 2.40387 33.184 2.69387 33.024 2.96187C32.868 3.22587 32.636 3.43987 32.328 3.60387C32.024 3.76387 31.648 3.84387 31.2 3.84387C31.092 3.84387 30.988 3.83787 30.888 3.82587C30.792 3.80987 30.684 3.78387 30.564 3.74787L30.564 3.44787C30.888 3.44787 31.18 3.39387 31.44 3.28587C31.7 3.17387 31.906 3.01987 32.058 2.82387C32.214 2.62787 32.292 2.39987 32.292 2.13987C32.292 1.89187 32.216 1.67187 32.064 1.47987C31.916 1.28387 31.708 1.13187 31.44 1.02387C31.176 0.911875 30.868 0.855875 30.516 0.855875C30.176 0.855875 29.87 0.909875 29.598 1.01787C29.33 1.12187 29.118 1.26387 28.962 1.44387C28.806 1.61987 28.728 1.81587 28.728 2.03187C28.728 2.29987 28.818 2.51587 28.998 2.67987C29.182 2.83987 29.436 2.97987 29.76 3.09987L31.836 3.89187C32.388 4.09987 32.812 4.34587 33.108 4.62987C33.404 4.91387 33.552 5.29987 33.552 5.78787C33.552 6.18387 33.432 6.53587 33.192 6.84387C32.952 7.14787 32.606 7.38587 32.154 7.55787C31.702 7.72987 31.156 7.81587 30.516 7.81587ZM38.4631 0.0278747L39.3391 0.0278747L39.3391 5.04387L40.6471 5.04387L40.6471 5.83587L39.3391 5.83587L39.3391 7.67187L38.4151 7.67187L38.4151 5.83587L34.5151 5.83587L34.5151 5.11587L38.4631 0.0278747ZM38.4511 1.50388L35.6311 5.11587L38.4511 5.11587L38.4511 1.50388ZM41.6743 7.67187L41.6743 6.55587C41.6743 6.11987 41.7443 5.75587 41.8843 5.46387C42.0283 5.17187 42.2283 4.92987 42.4843 4.73787C42.7443 4.54587 43.0503 4.37987 43.4023 4.23987L44.8903 3.65187C45.2743 3.49587 45.5623 3.29587 45.7543 3.05187C45.9463 2.80787 46.0423 2.50387 46.0423 2.13987C46.0423 1.75587 45.9083 1.44187 45.6403 1.19788C45.3763 0.953875 45.0063 0.831874 44.5303 0.831874C44.0583 0.831874 43.6703 0.933874 43.3663 1.13787C43.0663 1.33787 42.8943 1.63987 42.8503 2.04387L41.8063 2.04387C41.8343 1.60787 41.9623 1.23787 42.1903 0.933875C42.4223 0.629875 42.7363 0.399875 43.1323 0.243875C43.5283 0.0838745 43.9903 0.00387429 44.5183 0.00387429C45.0023 0.00387429 45.4363 0.0978744 45.8203 0.285875C46.2043 0.473875 46.5063 0.733875 46.7263 1.06587C46.9503 1.39387 47.0623 1.77187 47.0623 2.19987C47.0623 2.58787 46.9903 2.92587 46.8463 3.21387C46.7023 3.50187 46.4963 3.74987 46.2283 3.95787C45.9643 4.16587 45.6503 4.34387 45.2863 4.49187L43.7623 5.10387C43.3783 5.25187 43.0903 5.42987 42.8983 5.63787C42.7063 5.84587 42.6103 6.11587 42.6103 6.44787L42.6103 6.80787L46.9903 6.80787L46.9903 7.67187L41.6743 7.67187ZM48.6235 7.67187L48.6235 6.55587C48.6235 6.11987 48.6935 5.75587 48.8335 5.46387C48.9775 5.17187 49.1775 4.92987 49.4335 4.73787C49.6935 4.54587 49.9995 4.37987 50.3515 4.23987L51.8395 3.65187C52.2235 3.49587 52.5115 3.29587 52.7035 3.05187C52.8955 2.80787 52.9915 2.50387 52.9915 2.13987C52.9915 1.75587 52.8575 1.44187 52.5895 1.19788C52.3255 0.953875 51.9555 0.831874 51.4795 0.831874C51.0075 0.831874 50.6195 0.933874 50.3155 1.13787C50.0155 1.33787 49.8435 1.63987 49.7995 2.04387L48.7555 2.04387C48.7835 1.60787 48.9115 1.23787 49.1395 0.933875C49.3715 0.629875 49.6855 0.399875 50.0815 0.243875C50.4775 0.0838745 50.9395 0.00387429 51.4675 0.00387429C51.9515 0.00387429 52.3855 0.0978744 52.7695 0.285875C53.1535 0.473875 53.4555 0.733875 53.6755 1.06587C53.8995 1.39387 54.0115 1.77187 54.0115 2.19987C54.0115 2.58787 53.9395 2.92587 53.7955 3.21387C53.6515 3.50187 53.4455 3.74987 53.1775 3.95787C52.9135 4.16587 52.5995 4.34387 52.2355 4.49187L50.7115 5.10387C50.3275 5.25187 50.0395 5.42987 49.8475 5.63787C49.6555 5.84587 49.5595 6.11587 49.5595 6.44787L49.5595 6.80787L53.9395 6.80787L53.9395 7.67187L48.6235 7.67187ZM61.2643 7.81587C60.6603 7.81587 60.1323 7.64987 59.6803 7.31787C59.2323 6.98587 58.8843 6.53587 58.6363 5.96787C58.3883 5.39587 58.2643 4.75187 58.2643 4.03587C58.2643 3.19187 58.3903 2.46987 58.6423 1.86987C58.8943 1.26587 59.2543 0.803875 59.7223 0.483875C60.1903 0.163874 60.7483 0.00387429 61.3963 0.00387429C61.8443 0.00387429 62.2383 0.0898745 62.5783 0.261875C62.9223 0.429875 63.1963 0.665874 63.4003 0.969874C63.6083 1.27387 63.7323 1.62787 63.7723 2.03187L62.7523 2.03187C62.6923 1.67187 62.5563 1.38587 62.3443 1.17387C62.1323 0.961875 61.8243 0.855875 61.4203 0.855875C60.7323 0.855875 60.1923 1.15387 59.8003 1.74987C59.4083 2.34187 59.2123 3.15187 59.2123 4.17987C59.2123 4.32787 59.2163 4.49987 59.2243 4.69587C59.2323 4.88787 59.2483 5.06787 59.2723 5.23587C59.3083 4.70387 59.4303 4.28587 59.6383 3.98187C59.8503 3.67387 60.1143 3.45587 60.4303 3.32787C60.7463 3.19987 61.0803 3.13587 61.4323 3.13587C61.8883 3.13587 62.2963 3.23587 62.6563 3.43587C63.0203 3.63587 63.3063 3.91387 63.5143 4.26987C63.7263 4.62187 63.8323 5.02787 63.8323 5.48787C63.8323 5.95187 63.7243 6.35987 63.5083 6.71187C63.2923 7.05987 62.9903 7.33187 62.6023 7.52787C62.2183 7.71987 61.7723 7.81587 61.2643 7.81587ZM61.2643 6.95187C61.7203 6.95187 62.0983 6.81787 62.3983 6.54987C62.6983 6.28187 62.8483 5.91987 62.8483 5.46387C62.8483 4.99587 62.6983 4.62987 62.3983 4.36587C62.0983 4.09787 61.7203 3.96387 61.2643 3.96387C60.9643 3.96387 60.6963 4.02987 60.4603 4.16187C60.2243 4.28987 60.0363 4.46787 59.8963 4.69587C59.7603 4.91987 59.6923 5.17587 59.6923 5.46387C59.6923 5.91987 59.8423 6.28187 60.1423 6.54987C60.4423 6.81787 60.8163 6.95187 61.2643 6.95187ZM68.7795 0.0278747L69.6555 0.0278747L69.6555 5.04387L70.9635 5.04387L70.9635 5.83587L69.6555 5.83587L69.6555 7.67187L68.7315 7.67187L68.7315 5.83587L64.8315 5.83587L64.8315 5.11587L68.7795 0.0278747ZM68.7675 1.50387L65.9475 5.11587L68.7675 5.11587L68.7675 1.50387ZM71.9307 7.67187L75.5427 1.02387L71.5107 1.02387L71.5107 0.135875L76.6467 0.135875L76.6467 0.999874L73.1787 7.67187L71.9307 7.67187ZM81.1194 0.0278747L81.9954 0.0278747L81.9954 5.04387L83.3034 5.04387L83.3034 5.83587L81.9954 5.83587L81.9954 7.67187L81.0714 7.67187L81.0714 5.83587L77.1714 5.83587L77.1714 5.11587L81.1194 0.0278747ZM81.1074 1.50387L78.2874 5.11587L81.1074 5.11587L81.1074 1.50387ZM85.5545 0.111874L86.3105 0.111874L86.3105 7.67187L85.3745 7.67187L85.3745 1.21587C85.1825 1.34787 84.9805 1.44987 84.7685 1.52187C84.5605 1.58987 84.3505 1.62787 84.1385 1.63587L84.1385 0.723874C84.3905 0.687875 84.6345 0.621875 84.8705 0.525874C85.1105 0.429875 85.3385 0.291875 85.5545 0.111874Z" fill="black"/>
</svg>
