<svg width="90" height="8" viewBox="0 0 90 8" fill="none" xmlns="http://www.w3.org/2000/svg">
<path d="M2.48488 1.59987L3.40888 1.59987L3.40888 4.14388L5.89288 4.14388L5.89288 4.94787L3.40888 4.94787L3.40888 7.49187L2.48488 7.49187L2.48488 4.94787L0.000875013 4.94787L0.000875013 4.14388L2.48488 4.14388L2.48488 1.59987ZM9.50956 7.81587C9.01356 7.81587 8.57156 7.71387 8.18356 7.50987C7.79956 7.30587 7.49556 7.02587 7.27156 6.66987C7.05156 6.30987 6.94156 5.89987 6.94156 5.43987L7.91356 5.43987C7.92556 5.89987 8.06956 6.26787 8.34556 6.54387C8.62556 6.81587 9.00556 6.95187 9.48556 6.95187C9.95756 6.95187 10.3396 6.81587 10.6316 6.54387C10.9276 6.27187 11.1436 5.88787 11.2796 5.39187C11.4196 4.89187 11.4896 4.30387 11.4896 3.62787C11.4896 3.47187 11.4856 3.32787 11.4776 3.19587C11.4696 3.05987 11.4536 2.90787 11.4296 2.73987C11.3776 3.17187 11.2536 3.53187 11.0576 3.81987C10.8616 4.10387 10.6096 4.31787 10.3016 4.46187C9.99756 4.60187 9.65356 4.67187 9.26956 4.67187C8.82156 4.67187 8.41756 4.57187 8.05756 4.37187C7.70156 4.16787 7.41756 3.88987 7.20556 3.53787C6.99756 3.18187 6.89356 2.77587 6.89356 2.31987C6.89356 1.85187 6.99956 1.44387 7.21156 1.09587C7.42756 0.747874 7.72756 0.479875 8.11156 0.291875C8.49556 0.0998745 8.94156 0.0038743 9.44956 0.0038743C9.88156 0.0038743 10.2796 0.0918744 10.6436 0.267874C11.0116 0.443875 11.3296 0.697875 11.5976 1.02988C11.8656 1.35787 12.0736 1.75187 12.2216 2.21187C12.3736 2.67187 12.4496 3.18787 12.4496 3.75987C12.4496 4.58787 12.3436 5.30587 12.1316 5.91387C11.9236 6.52187 11.6016 6.99187 11.1656 7.32387C10.7336 7.65187 10.1816 7.81587 9.50956 7.81587ZM9.44956 3.84387C9.74556 3.84387 10.0136 3.77787 10.2536 3.64587C10.4936 3.51387 10.6836 3.33587 10.8236 3.11187C10.9636 2.88787 11.0336 2.63587 11.0336 2.35587C11.0336 1.89187 10.8796 1.52587 10.5716 1.25787C10.2676 0.989875 9.89356 0.855875 9.44956 0.855875C8.99356 0.855875 8.61556 0.989875 8.31556 1.25787C8.01556 1.52587 7.86556 1.89187 7.86556 2.35587C7.86556 2.81587 8.01556 3.17987 8.31556 3.44787C8.61556 3.71187 8.99356 3.84387 9.44956 3.84387ZM15.0545 0.111874L15.8105 0.111874L15.8105 7.67187L14.8745 7.67187L14.8745 1.21587C14.6825 1.34787 14.4805 1.44987 14.2685 1.52187C14.0605 1.58987 13.8505 1.62787 13.6385 1.63587L13.6385 0.723874C13.8905 0.687875 14.1345 0.621875 14.3705 0.525874C14.6105 0.429875 14.8385 0.291875 15.0545 0.111874ZM23.2791 7.81587C22.7831 7.81587 22.3411 7.71387 21.9531 7.50987C21.5691 7.30587 21.2651 7.02587 21.0411 6.66987C20.8211 6.30987 20.7111 5.89987 20.7111 5.43987L21.6831 5.43987C21.6951 5.89987 21.8391 6.26787 22.1151 6.54387C22.3951 6.81587 22.7751 6.95187 23.2551 6.95187C23.7271 6.95187 24.1091 6.81587 24.4011 6.54387C24.6971 6.27187 24.9131 5.88787 25.0491 5.39187C25.1891 4.89187 25.2591 4.30387 25.2591 3.62787C25.2591 3.47187 25.2551 3.32787 25.2471 3.19587C25.2391 3.05987 25.2231 2.90787 25.1991 2.73987C25.1471 3.17187 25.0231 3.53187 24.8271 3.81987C24.6311 4.10387 24.3791 4.31787 24.0711 4.46187C23.7671 4.60187 23.4231 4.67187 23.0391 4.67187C22.5911 4.67187 22.1871 4.57187 21.8271 4.37187C21.4711 4.16787 21.1871 3.88987 20.9751 3.53787C20.7671 3.18187 20.6631 2.77587 20.6631 2.31987C20.6631 1.85187 20.7691 1.44387 20.9811 1.09587C21.1971 0.747874 21.4971 0.479875 21.8811 0.291875C22.2651 0.0998745 22.7111 0.0038743 23.2191 0.0038743C23.6511 0.0038743 24.0491 0.0918744 24.4131 0.267874C24.7811 0.443875 25.0991 0.697875 25.3671 1.02988C25.6351 1.35787 25.8431 1.75187 25.9911 2.21187C26.1431 2.67187 26.2191 3.18787 26.2191 3.75987C26.2191 4.58787 26.1131 5.30587 25.9011 5.91387C25.6931 6.52187 25.3711 6.99187 24.9351 7.32387C24.5031 7.65187 23.9511 7.81587 23.2791 7.81587ZM23.2191 3.84387C23.5151 3.84387 23.7831 3.77787 24.0231 3.64587C24.2631 3.51387 24.4531 3.33587 24.5931 3.11187C24.7331 2.88787 24.8031 2.63587 24.8031 2.35587C24.8031 1.89187 24.6491 1.52587 24.3411 1.25787C24.0371 0.989875 23.6631 0.855875 23.2191 0.855875C22.7631 0.855875 22.3851 0.989875 22.0851 1.25787C21.7851 1.52587 21.6351 1.89187 21.6351 2.35587C21.6351 2.81587 21.7851 3.17987 22.0851 3.44787C22.3851 3.71187 22.7631 3.84387 23.2191 3.84387ZM30.24 7.81587C29.744 7.81587 29.302 7.71387 28.914 7.50987C28.53 7.30587 28.226 7.02587 28.002 6.66987C27.782 6.30987 27.672 5.89987 27.672 5.43987L28.644 5.43987C28.656 5.89987 28.8 6.26787 29.076 6.54387C29.356 6.81587 29.736 6.95187 30.216 6.95187C30.688 6.95187 31.07 6.81587 31.362 6.54387C31.658 6.27187 31.874 5.88787 32.01 5.39187C32.15 4.89187 32.22 4.30387 32.22 3.62787C32.22 3.47187 32.216 3.32787 32.208 3.19587C32.2 3.05987 32.184 2.90787 32.16 2.73987C32.108 3.17187 31.984 3.53187 31.788 3.81987C31.592 4.10387 31.34 4.31787 31.032 4.46187C30.728 4.60187 30.384 4.67187 30 4.67187C29.552 4.67187 29.148 4.57187 28.788 4.37187C28.432 4.16787 28.148 3.88987 27.936 3.53787C27.728 3.18187 27.624 2.77587 27.624 2.31987C27.624 1.85187 27.73 1.44387 27.942 1.09587C28.158 0.747874 28.458 0.479875 28.842 0.291875C29.226 0.0998745 29.672 0.00387429 30.18 0.00387429C30.612 0.00387429 31.01 0.0918744 31.374 0.267874C31.742 0.443875 32.06 0.697875 32.328 1.02988C32.596 1.35787 32.804 1.75187 32.952 2.21187C33.104 2.67187 33.18 3.18787 33.18 3.75987C33.18 4.58787 33.074 5.30587 32.862 5.91387C32.654 6.52187 32.332 6.99187 31.896 7.32387C31.464 7.65187 30.912 7.81587 30.24 7.81587ZM30.18 3.84387C30.476 3.84387 30.744 3.77787 30.984 3.64587C31.224 3.51387 31.414 3.33587 31.554 3.11187C31.694 2.88787 31.764 2.63587 31.764 2.35587C31.764 1.89187 31.61 1.52587 31.302 1.25787C30.998 0.989875 30.624 0.855875 30.18 0.855875C29.724 0.855875 29.346 0.989875 29.046 1.25787C28.746 1.52587 28.596 1.89187 28.596 2.35587C28.596 2.81587 28.746 3.17987 29.046 3.44787C29.346 3.71187 29.724 3.84387 30.18 3.84387ZM38.053 0.0278747L38.929 0.0278747L38.929 5.04387L40.237 5.04387L40.237 5.83587L38.929 5.83587L38.929 7.67187L38.005 7.67187L38.005 5.83587L34.105 5.83587L34.105 5.11587L38.053 0.0278747ZM38.041 1.50388L35.221 5.11587L38.041 5.11587L38.041 1.50388ZM44.7561 0.0278747L45.6321 0.0278747L45.6321 5.04387L46.9401 5.04387L46.9401 5.83587L45.6321 5.83587L45.6321 7.67187L44.7081 7.67187L44.7081 5.83587L40.8081 5.83587L40.8081 5.11587L44.7561 0.0278747ZM44.7441 1.50388L41.9241 5.11587L44.7441 5.11587L44.7441 1.50388ZM50.6072 7.81587C50.1112 7.81587 49.6692 7.71387 49.2812 7.50987C48.8972 7.30587 48.5932 7.02587 48.3692 6.66987C48.1492 6.30987 48.0392 5.89987 48.0392 5.43987L49.0112 5.43987C49.0232 5.89987 49.1672 6.26787 49.4432 6.54387C49.7232 6.81587 50.1032 6.95187 50.5832 6.95187C51.0552 6.95187 51.4372 6.81587 51.7292 6.54387C52.0252 6.27187 52.2412 5.88787 52.3772 5.39187C52.5172 4.89187 52.5872 4.30387 52.5872 3.62787C52.5872 3.47187 52.5832 3.32787 52.5752 3.19587C52.5672 3.05987 52.5512 2.90787 52.5272 2.73987C52.4752 3.17187 52.3512 3.53187 52.1552 3.81987C51.9592 4.10387 51.7072 4.31787 51.3992 4.46187C51.0952 4.60187 50.7512 4.67187 50.3672 4.67187C49.9192 4.67187 49.5152 4.57187 49.1552 4.37187C48.7992 4.16787 48.5152 3.88987 48.3032 3.53787C48.0952 3.18187 47.9912 2.77587 47.9912 2.31987C47.9912 1.85187 48.0972 1.44387 48.3092 1.09587C48.5252 0.747874 48.8252 0.479875 49.2092 0.291875C49.5932 0.0998745 50.0392 0.00387429 50.5472 0.00387429C50.9792 0.00387429 51.3772 0.0918743 51.7412 0.267874C52.1092 0.443875 52.4272 0.697875 52.6952 1.02988C52.9632 1.35787 53.1712 1.75187 53.3192 2.21187C53.4712 2.67187 53.5472 3.18787 53.5472 3.75987C53.5472 4.58787 53.4412 5.30587 53.2292 5.91387C53.0212 6.52187 52.6992 6.99187 52.2632 7.32387C51.8312 7.65187 51.2792 7.81587 50.6072 7.81587ZM50.5472 3.84387C50.8432 3.84387 51.1112 3.77787 51.3512 3.64587C51.5912 3.51387 51.7812 3.33587 51.9212 3.11187C52.0612 2.88787 52.1312 2.63587 52.1312 2.35587C52.1312 1.89187 51.9772 1.52587 51.6692 1.25787C51.3652 0.989875 50.9912 0.855875 50.5472 0.855875C50.0912 0.855875 49.7132 0.989875 49.4132 1.25787C49.1132 1.52587 48.9632 1.89187 48.9632 2.35587C48.9632 2.81587 49.1132 3.17987 49.4132 3.44787C49.7132 3.71187 50.0912 3.84387 50.5472 3.84387ZM60.6198 7.81587C60.0158 7.81587 59.4878 7.64987 59.0358 7.31787C58.5878 6.98587 58.2398 6.53587 57.9918 5.96787C57.7438 5.39587 57.6198 4.75187 57.6198 4.03587C57.6198 3.19187 57.7458 2.46987 57.9978 1.86987C58.2498 1.26587 58.6098 0.803875 59.0778 0.483875C59.5458 0.163874 60.1038 0.00387429 60.7518 0.00387429C61.1998 0.00387429 61.5938 0.0898745 61.9338 0.261875C62.2778 0.429875 62.5518 0.665874 62.7558 0.969874C62.9638 1.27387 63.0878 1.62787 63.1278 2.03187L62.1078 2.03187C62.0478 1.67187 61.9118 1.38587 61.6998 1.17387C61.4878 0.961875 61.1798 0.855875 60.7758 0.855875C60.0878 0.855875 59.5478 1.15387 59.1558 1.74987C58.7638 2.34187 58.5678 3.15187 58.5678 4.17987C58.5678 4.32787 58.5718 4.49987 58.5798 4.69587C58.5878 4.88787 58.6038 5.06787 58.6278 5.23587C58.6638 4.70387 58.7858 4.28587 58.9938 3.98187C59.2058 3.67387 59.4698 3.45587 59.7858 3.32787C60.1018 3.19987 60.4358 3.13587 60.7878 3.13587C61.2438 3.13587 61.6518 3.23587 62.0118 3.43587C62.3758 3.63587 62.6618 3.91387 62.8698 4.26987C63.0818 4.62187 63.1878 5.02787 63.1878 5.48787C63.1878 5.95187 63.0798 6.35987 62.8638 6.71187C62.6478 7.05987 62.3458 7.33187 61.9578 7.52787C61.5738 7.71987 61.1278 7.81587 60.6198 7.81587ZM60.6198 6.95187C61.0758 6.95187 61.4538 6.81787 61.7538 6.54987C62.0538 6.28187 62.2038 5.91987 62.2038 5.46387C62.2038 4.99587 62.0538 4.62987 61.7538 4.36587C61.4538 4.09787 61.0758 3.96387 60.6198 3.96387C60.3198 3.96387 60.0518 4.02987 59.8158 4.16187C59.5798 4.28987 59.3918 4.46787 59.2518 4.69587C59.1158 4.91987 59.0478 5.17587 59.0478 5.46387C59.0478 5.91987 59.1978 6.28187 59.4978 6.54987C59.7978 6.81787 60.1718 6.95187 60.6198 6.95187ZM68.135 0.0278747L69.011 0.0278747L69.011 5.04387L70.319 5.04387L70.319 5.83587L69.011 5.83587L69.011 7.67187L68.087 7.67187L68.087 5.83587L64.187 5.83587L64.187 5.11587L68.135 0.0278747ZM68.123 1.50388L65.303 5.11587L68.123 5.11587L68.123 1.50388ZM71.2861 7.67187L74.8981 1.02387L70.8661 1.02387L70.8661 0.135875L76.0021 0.135875L76.0021 0.999874L72.5341 7.67187L71.2861 7.67187ZM80.4748 0.0278747L81.3508 0.0278747L81.3508 5.04387L82.6588 5.04387L82.6588 5.83587L81.3508 5.83587L81.3508 7.67187L80.4268 7.67187L80.4268 5.83587L76.5268 5.83587L76.5268 5.11587L80.4748 0.0278747ZM80.4628 1.50387L77.6428 5.11587L80.4628 5.11587L80.4628 1.50387ZM86.482 7.81587C86.106 7.81587 85.742 7.76387 85.39 7.65987C85.042 7.55187 84.728 7.39587 84.448 7.19187C84.172 6.98387 83.954 6.72787 83.794 6.42387C83.634 6.11987 83.554 5.76787 83.554 5.36787L84.514 5.36787C84.522 5.71187 84.614 6.00187 84.79 6.23787C84.966 6.47387 85.2 6.65187 85.492 6.77187C85.788 6.89187 86.118 6.95187 86.482 6.95187C87.042 6.95187 87.476 6.81587 87.784 6.54387C88.092 6.27187 88.246 5.93187 88.246 5.52387C88.246 5.26387 88.182 5.03387 88.054 4.83387C87.926 4.63387 87.722 4.47787 87.442 4.36587C87.166 4.24987 86.802 4.19187 86.35 4.19187L85.498 4.19187L85.498 3.44787L86.074 3.44787C86.658 3.44787 87.118 3.33187 87.454 3.09987C87.79 2.86787 87.958 2.54787 87.958 2.13987C87.958 1.77987 87.822 1.47587 87.55 1.22787C87.278 0.979875 86.89 0.855875 86.386 0.855875C85.998 0.855875 85.652 0.935875 85.348 1.09587C85.044 1.25187 84.838 1.53987 84.73 1.95987L83.77 1.95987C83.834 1.49187 83.986 1.11387 84.226 0.825875C84.466 0.537875 84.77 0.329875 85.138 0.201875C85.506 0.0698745 85.914 0.00387428 86.362 0.00387428C86.862 0.00387428 87.308 0.0918743 87.7 0.267874C88.092 0.443875 88.4 0.685875 88.624 0.993875C88.852 1.30187 88.966 1.65587 88.966 2.05587C88.966 2.45187 88.852 2.79187 88.624 3.07587C88.4 3.35587 88.074 3.57187 87.646 3.72387C88.122 3.85987 88.51 4.08387 88.81 4.39587C89.114 4.70787 89.266 5.10787 89.266 5.59587C89.266 6.02787 89.152 6.41187 88.924 6.74787C88.7 7.07987 88.38 7.34187 87.964 7.53387C87.548 7.72187 87.054 7.81587 86.482 7.81587Z" fill="black"/>
</svg>
