<svg width="87" height="8" viewBox="0 0 87 8" fill="none" xmlns="http://www.w3.org/2000/svg">
<path d="M2.48488 1.59987L3.40888 1.59987L3.40888 4.14388L5.89288 4.14388L5.89288 4.94787L3.40888 4.94787L3.40888 7.49187L2.48488 7.49187L2.48488 4.94787L0.000875013 4.94787L0.000875013 4.14388L2.48488 4.14388L2.48488 1.59987ZM9.50956 7.81587C9.01356 7.81587 8.57156 7.71387 8.18356 7.50987C7.79956 7.30587 7.49556 7.02587 7.27156 6.66987C7.05156 6.30987 6.94156 5.89987 6.94156 5.43987L7.91356 5.43987C7.92556 5.89987 8.06956 6.26787 8.34556 6.54387C8.62556 6.81587 9.00556 6.95187 9.48556 6.95187C9.95756 6.95187 10.3396 6.81587 10.6316 6.54387C10.9276 6.27187 11.1436 5.88787 11.2796 5.39187C11.4196 4.89187 11.4896 4.30387 11.4896 3.62787C11.4896 3.47187 11.4856 3.32787 11.4776 3.19587C11.4696 3.05987 11.4536 2.90787 11.4296 2.73987C11.3776 3.17187 11.2536 3.53187 11.0576 3.81987C10.8616 4.10387 10.6096 4.31787 10.3016 4.46187C9.99756 4.60187 9.65356 4.67187 9.26956 4.67187C8.82156 4.67187 8.41756 4.57187 8.05756 4.37187C7.70156 4.16787 7.41756 3.88987 7.20556 3.53787C6.99756 3.18187 6.89356 2.77587 6.89356 2.31987C6.89356 1.85187 6.99956 1.44387 7.21156 1.09587C7.42756 0.747874 7.72756 0.479875 8.11156 0.291875C8.49556 0.0998745 8.94156 0.0038743 9.44956 0.0038743C9.88156 0.0038743 10.2796 0.0918744 10.6436 0.267874C11.0116 0.443875 11.3296 0.697875 11.5976 1.02988C11.8656 1.35787 12.0736 1.75187 12.2216 2.21187C12.3736 2.67187 12.4496 3.18787 12.4496 3.75987C12.4496 4.58787 12.3436 5.30587 12.1316 5.91387C11.9236 6.52187 11.6016 6.99187 11.1656 7.32387C10.7336 7.65187 10.1816 7.81587 9.50956 7.81587ZM9.44956 3.84387C9.74556 3.84387 10.0136 3.77787 10.2536 3.64587C10.4936 3.51387 10.6836 3.33587 10.8236 3.11187C10.9636 2.88787 11.0336 2.63587 11.0336 2.35587C11.0336 1.89187 10.8796 1.52587 10.5716 1.25787C10.2676 0.989875 9.89356 0.855875 9.44956 0.855875C8.99356 0.855875 8.61556 0.989875 8.31556 1.25787C8.01556 1.52587 7.86556 1.89187 7.86556 2.35587C7.86556 2.81587 8.01556 3.17987 8.31556 3.44787C8.61556 3.71187 8.99356 3.84387 9.44956 3.84387ZM15.0545 0.111874L15.8105 0.111874L15.8105 7.67187L14.8745 7.67187L14.8745 1.21587C14.6825 1.34787 14.4805 1.44987 14.2685 1.52187C14.0605 1.58987 13.8505 1.62787 13.6385 1.63587L13.6385 0.723874C13.8905 0.687875 14.1345 0.621875 14.3705 0.525874C14.6105 0.429875 14.8385 0.291875 15.0545 0.111874ZM23.2791 7.81587C22.7831 7.81587 22.3411 7.71387 21.9531 7.50987C21.5691 7.30587 21.2651 7.02587 21.0411 6.66987C20.8211 6.30987 20.7111 5.89987 20.7111 5.43987L21.6831 5.43987C21.6951 5.89987 21.8391 6.26787 22.1151 6.54387C22.3951 6.81587 22.7751 6.95187 23.2551 6.95187C23.7271 6.95187 24.1091 6.81587 24.4011 6.54387C24.6971 6.27187 24.9131 5.88787 25.0491 5.39187C25.1891 4.89187 25.2591 4.30387 25.2591 3.62787C25.2591 3.47187 25.2551 3.32787 25.2471 3.19587C25.2391 3.05987 25.2231 2.90787 25.1991 2.73987C25.1471 3.17187 25.0231 3.53187 24.8271 3.81987C24.6311 4.10387 24.3791 4.31787 24.0711 4.46187C23.7671 4.60187 23.4231 4.67187 23.0391 4.67187C22.5911 4.67187 22.1871 4.57187 21.8271 4.37187C21.4711 4.16787 21.1871 3.88987 20.9751 3.53787C20.7671 3.18187 20.6631 2.77587 20.6631 2.31987C20.6631 1.85187 20.7691 1.44387 20.9811 1.09587C21.1971 0.747874 21.4971 0.479875 21.8811 0.291875C22.2651 0.0998745 22.7111 0.0038743 23.2191 0.0038743C23.6511 0.0038743 24.0491 0.0918744 24.4131 0.267874C24.7811 0.443875 25.0991 0.697875 25.3671 1.02988C25.6351 1.35787 25.8431 1.75187 25.9911 2.21187C26.1431 2.67187 26.2191 3.18787 26.2191 3.75987C26.2191 4.58787 26.1131 5.30587 25.9011 5.91387C25.6931 6.52187 25.3711 6.99187 24.9351 7.32387C24.5031 7.65187 23.9511 7.81587 23.2791 7.81587ZM23.2191 3.84387C23.5151 3.84387 23.7831 3.77787 24.0231 3.64587C24.2631 3.51387 24.4531 3.33587 24.5931 3.11187C24.7331 2.88787 24.8031 2.63587 24.8031 2.35587C24.8031 1.89187 24.6491 1.52587 24.3411 1.25787C24.0371 0.989875 23.6631 0.855875 23.2191 0.855875C22.7631 0.855875 22.3851 0.989875 22.0851 1.25787C21.7851 1.52587 21.6351 1.89187 21.6351 2.35587C21.6351 2.81587 21.7851 3.17987 22.0851 3.44787C22.3851 3.71187 22.7631 3.84387 23.2191 3.84387ZM30.516 7.81587C29.924 7.81587 29.4 7.72187 28.944 7.53387C28.492 7.34587 28.136 7.08787 27.876 6.75987C27.62 6.43187 27.492 6.05987 27.492 5.64387C27.492 5.26387 27.59 4.93787 27.786 4.66587C27.986 4.39387 28.258 4.18587 28.602 4.04187C28.95 3.89387 29.344 3.81987 29.784 3.81987C29.9 3.81987 30.012 3.82587 30.12 3.83787C30.228 3.84987 30.344 3.87187 30.468 3.90387L30.468 4.17987C30.068 4.17987 29.718 4.24587 29.418 4.37787C29.118 4.50587 28.884 4.67587 28.716 4.88787C28.548 5.09987 28.464 5.32787 28.464 5.57187C28.464 5.86787 28.554 6.11987 28.734 6.32787C28.914 6.53187 29.158 6.68787 29.466 6.79587C29.778 6.89987 30.128 6.95187 30.516 6.95187C31.164 6.95187 31.668 6.84787 32.028 6.63987C32.388 6.43187 32.568 6.15987 32.568 5.82387C32.568 5.55187 32.472 5.32787 32.28 5.15187C32.092 4.97587 31.832 4.82787 31.5 4.70787L29.424 3.91587C29.172 3.81987 28.916 3.68787 28.656 3.51987C28.4 3.35187 28.184 3.14187 28.008 2.88987C27.832 2.63787 27.744 2.33987 27.744 1.99587C27.744 1.60787 27.854 1.26387 28.074 0.963875C28.294 0.663875 28.61 0.429875 29.022 0.261875C29.438 0.0898745 29.936 0.00387429 30.516 0.00387429C31.048 0.00387429 31.52 0.0958743 31.932 0.279874C32.348 0.459875 32.674 0.707875 32.91 1.02387C33.146 1.33587 33.264 1.69187 33.264 2.09187C33.264 2.40387 33.184 2.69387 33.024 2.96187C32.868 3.22587 32.636 3.43987 32.328 3.60387C32.024 3.76387 31.648 3.84387 31.2 3.84387C31.092 3.84387 30.988 3.83787 30.888 3.82587C30.792 3.80987 30.684 3.78387 30.564 3.74787L30.564 3.44787C30.888 3.44787 31.18 3.39387 31.44 3.28587C31.7 3.17387 31.906 3.01987 32.058 2.82387C32.214 2.62787 32.292 2.39987 32.292 2.13987C32.292 1.89187 32.216 1.67187 32.064 1.47987C31.916 1.28387 31.708 1.13187 31.44 1.02387C31.176 0.911875 30.868 0.855875 30.516 0.855875C30.176 0.855875 29.87 0.909875 29.598 1.01787C29.33 1.12187 29.118 1.26387 28.962 1.44387C28.806 1.61987 28.728 1.81587 28.728 2.03187C28.728 2.29987 28.818 2.51587 28.998 2.67987C29.182 2.83987 29.436 2.97987 29.76 3.09987L31.836 3.89187C32.388 4.09987 32.812 4.34587 33.108 4.62987C33.404 4.91387 33.552 5.29987 33.552 5.78787C33.552 6.18387 33.432 6.53587 33.192 6.84387C32.952 7.14787 32.606 7.38587 32.154 7.55787C31.702 7.72987 31.156 7.81587 30.516 7.81587ZM38.4631 0.0278747L39.3391 0.0278747L39.3391 5.04387L40.6471 5.04387L40.6471 5.83587L39.3391 5.83587L39.3391 7.67187L38.4151 7.67187L38.4151 5.83587L34.5151 5.83587L34.5151 5.11587L38.4631 0.0278747ZM38.4511 1.50388L35.6311 5.11587L38.4511 5.11587L38.4511 1.50388ZM44.4703 7.81587C44.0943 7.81587 43.7303 7.76387 43.3783 7.65987C43.0303 7.55187 42.7163 7.39587 42.4363 7.19187C42.1603 6.98387 41.9423 6.72787 41.7823 6.42387C41.6223 6.11987 41.5423 5.76787 41.5423 5.36787L42.5023 5.36787C42.5103 5.71187 42.6023 6.00187 42.7783 6.23787C42.9543 6.47387 43.1883 6.65187 43.4803 6.77187C43.7763 6.89187 44.1063 6.95187 44.4703 6.95187C45.0303 6.95187 45.4643 6.81587 45.7723 6.54387C46.0803 6.27187 46.2343 5.93187 46.2343 5.52387C46.2343 5.26387 46.1703 5.03387 46.0423 4.83387C45.9143 4.63387 45.7103 4.47787 45.4303 4.36587C45.1543 4.24987 44.7903 4.19187 44.3383 4.19187L43.4863 4.19187L43.4863 3.44787L44.0623 3.44787C44.6463 3.44787 45.1063 3.33187 45.4423 3.09987C45.7783 2.86787 45.9463 2.54787 45.9463 2.13987C45.9463 1.77987 45.8103 1.47587 45.5383 1.22787C45.2663 0.979875 44.8783 0.855875 44.3743 0.855875C43.9863 0.855875 43.6403 0.935875 43.3363 1.09587C43.0323 1.25187 42.8263 1.53987 42.7183 1.95987L41.7583 1.95987C41.8223 1.49187 41.9743 1.11387 42.2143 0.825875C42.4543 0.537875 42.7583 0.329875 43.1263 0.201875C43.4943 0.0698745 43.9023 0.00387429 44.3503 0.00387429C44.8503 0.00387429 45.2963 0.0918743 45.6883 0.267874C46.0803 0.443875 46.3883 0.685875 46.6123 0.993875C46.8403 1.30187 46.9543 1.65587 46.9543 2.05587C46.9543 2.45187 46.8403 2.79187 46.6123 3.07587C46.3883 3.35587 46.0623 3.57187 45.6343 3.72387C46.1103 3.85987 46.4983 4.08387 46.7983 4.39587C47.1023 4.70787 47.2543 5.10787 47.2543 5.59587C47.2543 6.02787 47.1403 6.41187 46.9123 6.74787C46.6883 7.07987 46.3683 7.34187 45.9523 7.53387C45.5363 7.72187 45.0423 7.81587 44.4703 7.81587ZM48.7641 7.67187L48.7641 6.55587C48.7641 6.11987 48.8341 5.75587 48.9741 5.46387C49.1181 5.17187 49.3181 4.92987 49.5741 4.73787C49.8341 4.54587 50.1401 4.37987 50.4921 4.23987L51.9801 3.65187C52.3641 3.49587 52.6521 3.29587 52.8441 3.05187C53.0361 2.80787 53.1321 2.50387 53.1321 2.13987C53.1321 1.75587 52.9981 1.44187 52.7301 1.19788C52.4661 0.953875 52.0961 0.831874 51.6201 0.831874C51.1481 0.831874 50.7601 0.933874 50.4561 1.13787C50.1561 1.33787 49.9841 1.63987 49.9401 2.04387L48.8961 2.04387C48.9241 1.60787 49.0521 1.23787 49.2801 0.933875C49.5121 0.629875 49.8261 0.399875 50.2221 0.243875C50.6181 0.0838745 51.0801 0.00387429 51.6081 0.00387429C52.0921 0.00387429 52.5261 0.0978744 52.9101 0.285875C53.2941 0.473875 53.5961 0.733875 53.8161 1.06587C54.0401 1.39387 54.1521 1.77187 54.1521 2.19987C54.1521 2.58787 54.0801 2.92587 53.9361 3.21387C53.7921 3.50187 53.5861 3.74987 53.3181 3.95787C53.0541 4.16587 52.7401 4.34387 52.3761 4.49187L50.8521 5.10387C50.4681 5.25187 50.1801 5.42987 49.9881 5.63787C49.7961 5.84587 49.7001 6.11587 49.7001 6.44787L49.7001 6.80787L54.0801 6.80787L54.0801 7.67187L48.7641 7.67187ZM61.405 7.81587C60.801 7.81587 60.273 7.64987 59.821 7.31787C59.373 6.98587 59.025 6.53587 58.777 5.96787C58.529 5.39587 58.405 4.75187 58.405 4.03587C58.405 3.19187 58.531 2.46987 58.783 1.86987C59.035 1.26587 59.395 0.803875 59.863 0.483875C60.331 0.163874 60.889 0.00387429 61.537 0.00387429C61.985 0.00387429 62.379 0.0898745 62.719 0.261875C63.063 0.429875 63.337 0.665874 63.541 0.969874C63.749 1.27387 63.873 1.62787 63.913 2.03187L62.893 2.03187C62.833 1.67187 62.697 1.38587 62.485 1.17387C62.273 0.961875 61.965 0.855875 61.561 0.855875C60.873 0.855875 60.333 1.15387 59.941 1.74987C59.549 2.34187 59.353 3.15187 59.353 4.17987C59.353 4.32787 59.357 4.49987 59.365 4.69587C59.373 4.88787 59.389 5.06787 59.413 5.23587C59.449 4.70387 59.571 4.28587 59.779 3.98187C59.991 3.67387 60.255 3.45587 60.571 3.32787C60.887 3.19987 61.221 3.13587 61.573 3.13587C62.029 3.13587 62.437 3.23587 62.797 3.43587C63.161 3.63587 63.447 3.91387 63.655 4.26987C63.867 4.62187 63.973 5.02787 63.973 5.48787C63.973 5.95187 63.865 6.35987 63.649 6.71187C63.433 7.05987 63.131 7.33187 62.743 7.52787C62.359 7.71987 61.913 7.81587 61.405 7.81587ZM61.405 6.95187C61.861 6.95187 62.239 6.81787 62.539 6.54987C62.839 6.28187 62.989 5.91987 62.989 5.46387C62.989 4.99587 62.839 4.62987 62.539 4.36587C62.239 4.09787 61.861 3.96387 61.405 3.96387C61.105 3.96387 60.837 4.02987 60.601 4.16187C60.365 4.28987 60.177 4.46787 60.037 4.69587C59.901 4.91987 59.833 5.17587 59.833 5.46387C59.833 5.91987 59.983 6.28187 60.283 6.54987C60.583 6.81787 60.957 6.95187 61.405 6.95187ZM68.9202 0.0278747L69.7962 0.0278747L69.7962 5.04387L71.1042 5.04387L71.1042 5.83587L69.7962 5.83587L69.7962 7.67187L68.8722 7.67187L68.8722 5.83587L64.9722 5.83587L64.9722 5.11587L68.9202 0.0278747ZM68.9082 1.50387L66.0882 5.11587L68.9082 5.11587L68.9082 1.50387ZM72.0713 7.67187L75.6833 1.02387L71.6513 1.02387L71.6513 0.135875L76.7873 0.135875L76.7873 0.999874L73.3193 7.67187L72.0713 7.67187ZM81.26 0.0278747L82.136 0.0278747L82.136 5.04387L83.444 5.04387L83.444 5.83587L82.136 5.83587L82.136 7.67187L81.212 7.67187L81.212 5.83587L77.312 5.83587L77.312 5.11587L81.26 0.0278747ZM81.248 1.50387L78.428 5.11587L81.248 5.11587L81.248 1.50387ZM85.6951 0.111874L86.4511 0.111874L86.4511 7.67187L85.5151 7.67187L85.5151 1.21587C85.3231 1.34787 85.1211 1.44987 84.9091 1.52187C84.7011 1.58987 84.4911 1.62787 84.2791 1.63587L84.2791 0.723874C84.5311 0.687875 84.7751 0.621875 85.0111 0.525874C85.2511 0.429875 85.4791 0.291875 85.6951 0.111874Z" fill="black"/>
</svg>
