<svg width="24" height="24" viewBox="0 0 24 24" fill="none" xmlns="http://www.w3.org/2000/svg">
<path d="M21.5507 6.96031C21.3595 5.90469 20.4482 5.13594 19.3907 4.89594C17.8082 4.56031 14.8795 4.32031 11.7107 4.32031C8.54383 4.32031 5.5682 4.56031 3.98383 4.89594C2.9282 5.13594 2.01508 5.85594 1.82383 6.96031C1.6307 8.16031 1.43945 9.84031 1.43945 12.0003C1.43945 14.1603 1.6307 15.8403 1.8707 17.0403C2.06383 18.0959 2.97508 18.8647 4.0307 19.1047C5.7107 19.4403 8.5907 19.6803 11.7595 19.6803C14.9282 19.6803 17.8082 19.4403 19.4882 19.1047C20.5438 18.8647 21.4551 18.1447 21.6482 17.0403C21.8395 15.8403 22.0795 14.1116 22.1282 12.0003C22.0307 9.84031 21.7907 8.16031 21.5507 6.96031ZM9.11945 15.3603V8.64031L14.9751 12.0003L9.11945 15.3603Z" fill="#054B9B"/>
</svg>
