<svg width="69" height="11" viewBox="0 0 69 11" fill="none" xmlns="http://www.w3.org/2000/svg">
<path d="M6.55469 8.25781L5.96875 6.69922H2.27734L1.68555 8.25781H-0.00195312L3.20898 0.300781H5.02539L8.24219 8.25781H6.55469ZM4.12305 1.95312L2.72266 5.43945H5.51172L4.12305 1.95312ZM11.5994 8.375C10.0056 8.375 8.87477 7.13867 8.87477 5.43945C8.87477 3.72852 10.0056 2.51562 11.5994 2.51562C12.5017 2.51562 13.0818 2.84375 13.4568 3.3125V0.00195312H14.9334V8.25781H13.4568L13.4275 7.66016C13.0525 8.09375 12.4255 8.375 11.5994 8.375ZM13.4392 5.43359C13.4392 4.53711 12.7947 3.86328 11.9099 3.86328C11.0134 3.86328 10.3865 4.52539 10.3865 5.43359C10.3865 6.32422 11.0134 7.02734 11.9099 7.02734C12.7947 7.02734 13.4392 6.32422 13.4392 5.43359ZM19.105 6.78711L20.564 2.63281H22.1577L20.0191 8.25781H18.1909L16.0464 2.63281H17.6402L19.105 6.78711ZM25.4973 8.375C23.9505 8.375 22.7845 7.13867 22.7845 5.43359C22.7845 3.72852 23.9505 2.51562 25.4973 2.51562C26.3704 2.51562 26.9622 2.84961 27.3313 3.3125L27.3606 2.63281H28.8313V8.25781H27.3606L27.3313 7.57812C26.9622 8.04688 26.3704 8.375 25.4973 8.375ZM27.3255 5.43359C27.3255 4.53711 26.6868 3.85742 25.7903 3.85742C24.888 3.85742 24.2786 4.53711 24.2786 5.43359C24.2786 6.33594 24.888 7.03906 25.7903 7.03906C26.6868 7.03906 27.3255 6.33594 27.3255 5.43359ZM33.6827 2.51562C34.9834 2.51562 35.9034 3.37109 35.9034 4.72461V8.25781H34.3975V5.11133C34.3975 4.33203 33.8936 3.91016 33.2373 3.91016C32.5752 3.91016 31.9893 4.33203 31.9893 5.11133V8.25781H30.4893V2.63281H31.919L31.9483 3.2832C32.2412 2.89062 32.8448 2.51562 33.6827 2.51562ZM40.9832 3.88086H39.3895V6.19531C39.3895 6.78125 39.7176 7.03906 40.2215 7.03906C40.5027 7.03906 40.8602 6.99219 41.1766 6.9043L41.3172 8.15234C40.9715 8.28711 40.4148 8.375 39.9578 8.375C38.7215 8.375 37.8895 7.73633 37.8895 6.41211V3.88086H36.9402V2.63281H37.8953V0.828125H39.3543V2.63281H40.9832V3.88086ZM44.7564 8.375C43.2095 8.375 42.0435 7.13867 42.0435 5.43359C42.0435 3.72852 43.2095 2.51562 44.7564 2.51562C45.6295 2.51562 46.2212 2.84961 46.5904 3.3125L46.6197 2.63281H48.0904V8.25781H46.6197L46.5904 7.57812C46.2212 8.04688 45.6295 8.375 44.7564 8.375ZM46.5845 5.43359C46.5845 4.53711 45.9459 3.85742 45.0494 3.85742C44.147 3.85742 43.5377 4.53711 43.5377 5.43359C43.5377 6.33594 44.147 7.03906 45.0494 7.03906C45.9459 7.03906 46.5845 6.33594 46.5845 5.43359ZM52.1683 8.375C50.5745 8.375 49.4437 7.13867 49.4437 5.43945C49.4437 3.72852 50.5745 2.51562 52.1683 2.51562C53.0706 2.51562 53.6507 2.84375 54.0257 3.3125L54.055 2.63281H55.4964V8.05859C55.4964 9.83984 53.9788 10.7188 52.2269 10.7188C51.307 10.7188 50.4749 10.502 49.9827 10.25L50.1585 8.96094C50.5863 9.18945 51.4066 9.38281 52.1273 9.38281C53.0706 9.38281 53.9964 8.96094 53.9964 8.02344V7.625C53.6566 8.07617 52.9945 8.375 52.1683 8.375ZM54.0081 5.43359C54.0081 4.53711 53.3636 3.86328 52.4788 3.86328C51.5823 3.86328 50.9554 4.52539 50.9554 5.43359C50.9554 6.32422 51.5823 7.02734 52.4788 7.02734C53.3636 7.02734 54.0081 6.32422 54.0081 5.43359ZM62.0294 6.62891L62.2403 7.84766C61.6954 8.1582 60.9395 8.375 60.1192 8.375C58.127 8.375 56.8497 7.19727 56.8497 5.44531C56.8497 3.72266 58.0684 2.51562 59.7384 2.51562C61.4669 2.51562 62.7794 3.81641 62.4102 5.89648H58.3438C58.4962 6.68164 59.1993 7.05664 60.1251 7.05664C60.8223 7.05664 61.4727 6.89258 62.0294 6.62891ZM58.3673 4.88867H61.0626C61.0216 4.26172 60.547 3.78125 59.7735 3.78125C58.9708 3.78125 58.4317 4.25 58.3673 4.88867ZM65.8846 4.82422L66.4823 4.93555C67.5955 5.14062 68.1522 5.64453 68.1522 6.61719C68.1522 7.74805 67.2147 8.375 65.7733 8.375C64.9295 8.375 64.1151 8.22266 63.6053 7.9707L63.7635 6.74023C64.3202 6.97461 65.0819 7.13281 65.6561 7.13281C66.3885 7.13281 66.6991 6.98047 66.6991 6.64648C66.6991 6.34766 66.4588 6.20117 65.8026 6.08398L65.1287 5.95508C64.0448 5.76758 63.5174 5.2168 63.5174 4.28516C63.5174 3.23633 64.4901 2.51562 65.9842 2.51562C66.6873 2.51562 67.3846 2.64453 67.8885 2.86719L67.7596 4.0918C67.3495 3.91602 66.5995 3.77539 66.0604 3.77539C65.3221 3.77539 64.9647 3.95117 64.9647 4.28516C64.9647 4.56055 65.2108 4.70117 65.8846 4.82422Z" fill="#0B3759"/>
</svg>
