<svg width="29" height="29" viewBox="0 0 29 29" fill="none" xmlns="http://www.w3.org/2000/svg">
<rect width="20.3252" height="20.3252" rx="7" transform="matrix(-0.681998 -0.731354 -0.731354 0.681998 28.7266 14.8672)" fill="#333333"/>
<path d="M11.564 18.144C10.972 18.144 10.454 18 10.01 17.712C9.57 17.424 9.226 16.99 8.978 16.41C8.734 15.83 8.612 15.104 8.612 14.232C8.612 13.36 8.734 12.636 8.978 12.06C9.226 11.48 9.57 11.048 10.01 10.764C10.454 10.476 10.972 10.332 11.564 10.332C12.152 10.332 12.668 10.476 13.112 10.764C13.556 11.048 13.9 11.48 14.144 12.06C14.392 12.636 14.516 13.36 14.516 14.232C14.516 15.104 14.392 15.83 14.144 16.41C13.9 16.99 13.556 17.424 13.112 17.712C12.668 18 12.152 18.144 11.564 18.144ZM11.564 17.28C12.212 17.28 12.704 17.016 13.04 16.488C13.376 15.956 13.544 15.204 13.544 14.232C13.544 13.26 13.376 12.51 13.04 11.982C12.704 11.45 12.212 11.184 11.564 11.184C10.924 11.184 10.434 11.45 10.094 11.982C9.754 12.51 9.584 13.26 9.584 14.232C9.584 15.204 9.754 15.956 10.094 16.488C10.434 17.016 10.924 17.28 11.564 17.28ZM17.357 10.44H18.113V18H17.177V11.544C16.985 11.676 16.783 11.778 16.571 11.85C16.363 11.918 16.153 11.956 15.941 11.964V11.052C16.193 11.016 16.437 10.95 16.673 10.854C16.913 10.758 17.141 10.62 17.357 10.44Z" fill="white"/>
</svg>
