<svg width="29" height="29" viewBox="0 0 29 29" fill="none" xmlns="http://www.w3.org/2000/svg">
<rect width="20.3252" height="20.3252" rx="7" transform="matrix(-0.681998 -0.731354 -0.731354 0.681998 28.7266 14.8672)" fill="#333333"/>
<path d="M10.564 18.144C9.972 18.144 9.454 18 9.01 17.712C8.57 17.424 8.226 16.99 7.978 16.41C7.734 15.83 7.612 15.104 7.612 14.232C7.612 13.36 7.734 12.636 7.978 12.06C8.226 11.48 8.57 11.048 9.01 10.764C9.454 10.476 9.972 10.332 10.564 10.332C11.152 10.332 11.668 10.476 12.112 10.764C12.556 11.048 12.9 11.48 13.144 12.06C13.392 12.636 13.516 13.36 13.516 14.232C13.516 15.104 13.392 15.83 13.144 16.41C12.9 16.99 12.556 17.424 12.112 17.712C11.668 18 11.152 18.144 10.564 18.144ZM10.564 17.28C11.212 17.28 11.704 17.016 12.04 16.488C12.376 15.956 12.544 15.204 12.544 14.232C12.544 13.26 12.376 12.51 12.04 11.982C11.704 11.45 11.212 11.184 10.564 11.184C9.924 11.184 9.434 11.45 9.094 11.982C8.754 12.51 8.584 13.26 8.584 14.232C8.584 15.204 8.754 15.956 9.094 16.488C9.434 17.016 9.924 17.28 10.564 17.28ZM15.133 18V16.884C15.133 16.448 15.203 16.084 15.343 15.792C15.487 15.5 15.687 15.258 15.943 15.066C16.203 14.874 16.509 14.708 16.861 14.568L18.349 13.98C18.733 13.824 19.021 13.624 19.213 13.38C19.405 13.136 19.501 12.832 19.501 12.468C19.501 12.084 19.367 11.77 19.099 11.526C18.835 11.282 18.465 11.16 17.989 11.16C17.517 11.16 17.129 11.262 16.825 11.466C16.525 11.666 16.353 11.968 16.309 12.372H15.265C15.293 11.936 15.421 11.566 15.649 11.262C15.881 10.958 16.195 10.728 16.591 10.572C16.987 10.412 17.449 10.332 17.977 10.332C18.461 10.332 18.895 10.426 19.279 10.614C19.663 10.802 19.965 11.062 20.185 11.394C20.409 11.722 20.521 12.1 20.521 12.528C20.521 12.916 20.449 13.254 20.305 13.542C20.161 13.83 19.955 14.078 19.687 14.286C19.423 14.494 19.109 14.672 18.745 14.82L17.221 15.432C16.837 15.58 16.549 15.758 16.357 15.966C16.165 16.174 16.069 16.444 16.069 16.776V17.136H20.449V18H15.133Z" fill="white"/>
</svg>
