<svg width="29" height="29" viewBox="0 0 29 29" fill="none" xmlns="http://www.w3.org/2000/svg">
<rect width="20.3252" height="20.3252" rx="7" transform="matrix(-0.681998 -0.731354 -0.731354 0.681998 28.7266 14.8672)" fill="#333333"/>
<path d="M10.564 18.144C9.972 18.144 9.454 18 9.01 17.712C8.57 17.424 8.226 16.99 7.978 16.41C7.734 15.83 7.612 15.104 7.612 14.232C7.612 13.36 7.734 12.636 7.978 12.06C8.226 11.48 8.57 11.048 9.01 10.764C9.454 10.476 9.972 10.332 10.564 10.332C11.152 10.332 11.668 10.476 12.112 10.764C12.556 11.048 12.9 11.48 13.144 12.06C13.392 12.636 13.516 13.36 13.516 14.232C13.516 15.104 13.392 15.83 13.144 16.41C12.9 16.99 12.556 17.424 12.112 17.712C11.668 18 11.152 18.144 10.564 18.144ZM10.564 17.28C11.212 17.28 11.704 17.016 12.04 16.488C12.376 15.956 12.544 15.204 12.544 14.232C12.544 13.26 12.376 12.51 12.04 11.982C11.704 11.45 11.212 11.184 10.564 11.184C9.924 11.184 9.434 11.45 9.094 11.982C8.754 12.51 8.584 13.26 8.584 14.232C8.584 15.204 8.754 15.956 9.094 16.488C9.434 17.016 9.924 17.28 10.564 17.28ZM17.929 18.144C17.553 18.144 17.189 18.092 16.837 17.988C16.489 17.88 16.175 17.724 15.895 17.52C15.619 17.312 15.401 17.056 15.241 16.752C15.081 16.448 15.001 16.096 15.001 15.696H15.961C15.969 16.04 16.061 16.33 16.237 16.566C16.413 16.802 16.647 16.98 16.939 17.1C17.235 17.22 17.565 17.28 17.929 17.28C18.489 17.28 18.923 17.144 19.231 16.872C19.539 16.6 19.693 16.26 19.693 15.852C19.693 15.592 19.629 15.362 19.501 15.162C19.373 14.962 19.169 14.806 18.889 14.694C18.613 14.578 18.249 14.52 17.797 14.52H16.945V13.776H17.521C18.105 13.776 18.565 13.66 18.901 13.428C19.237 13.196 19.405 12.876 19.405 12.468C19.405 12.108 19.269 11.804 18.997 11.556C18.725 11.308 18.337 11.184 17.833 11.184C17.445 11.184 17.099 11.264 16.795 11.424C16.491 11.58 16.285 11.868 16.177 12.288H15.217C15.281 11.82 15.433 11.442 15.673 11.154C15.913 10.866 16.217 10.658 16.585 10.53C16.953 10.398 17.361 10.332 17.809 10.332C18.309 10.332 18.755 10.42 19.147 10.596C19.539 10.772 19.847 11.014 20.071 11.322C20.299 11.63 20.413 11.984 20.413 12.384C20.413 12.78 20.299 13.12 20.071 13.404C19.847 13.684 19.521 13.9 19.093 14.052C19.569 14.188 19.957 14.412 20.257 14.724C20.561 15.036 20.713 15.436 20.713 15.924C20.713 16.356 20.599 16.74 20.371 17.076C20.147 17.408 19.827 17.67 19.411 17.862C18.995 18.05 18.501 18.144 17.929 18.144Z" fill="white"/>
</svg>
