<svg width="29" height="29" viewBox="0 0 29 29" fill="none" xmlns="http://www.w3.org/2000/svg">
<rect width="20.3252" height="20.3252" rx="7" transform="matrix(-0.681998 -0.731354 -0.731354 0.681998 28.7266 14.8672)" fill="#333333"/>
<path d="M10.564 18.144C9.972 18.144 9.454 18 9.01 17.712C8.57 17.424 8.226 16.99 7.978 16.41C7.734 15.83 7.612 15.104 7.612 14.232C7.612 13.36 7.734 12.636 7.978 12.06C8.226 11.48 8.57 11.048 9.01 10.764C9.454 10.476 9.972 10.332 10.564 10.332C11.152 10.332 11.668 10.476 12.112 10.764C12.556 11.048 12.9 11.48 13.144 12.06C13.392 12.636 13.516 13.36 13.516 14.232C13.516 15.104 13.392 15.83 13.144 16.41C12.9 16.99 12.556 17.424 12.112 17.712C11.668 18 11.152 18.144 10.564 18.144ZM10.564 17.28C11.212 17.28 11.704 17.016 12.04 16.488C12.376 15.956 12.544 15.204 12.544 14.232C12.544 13.26 12.376 12.51 12.04 11.982C11.704 11.45 11.212 11.184 10.564 11.184C9.924 11.184 9.434 11.45 9.094 11.982C8.754 12.51 8.584 13.26 8.584 14.232C8.584 15.204 8.754 15.956 9.094 16.488C9.434 17.016 9.924 17.28 10.564 17.28ZM18.625 10.356H19.501V15.372H20.809V16.164H19.501V18H18.577V16.164H14.677V15.444L18.625 10.356ZM18.613 11.832L15.793 15.444H18.613V11.832Z" fill="white"/>
</svg>
