<svg width="29" height="29" viewBox="0 0 29 29" fill="none" xmlns="http://www.w3.org/2000/svg">
<rect width="20.3252" height="20.3252" rx="7" transform="matrix(-0.681998 -0.731354 -0.731354 0.681998 28.7266 14.8633)" fill="#333333"/>
<path d="M10.564 18.144C9.972 18.144 9.454 18 9.01 17.712C8.57 17.424 8.226 16.99 7.978 16.41C7.734 15.83 7.612 15.104 7.612 14.232C7.612 13.36 7.734 12.636 7.978 12.06C8.226 11.48 8.57 11.048 9.01 10.764C9.454 10.476 9.972 10.332 10.564 10.332C11.152 10.332 11.668 10.476 12.112 10.764C12.556 11.048 12.9 11.48 13.144 12.06C13.392 12.636 13.516 13.36 13.516 14.232C13.516 15.104 13.392 15.83 13.144 16.41C12.9 16.99 12.556 17.424 12.112 17.712C11.668 18 11.152 18.144 10.564 18.144ZM10.564 17.28C11.212 17.28 11.704 17.016 12.04 16.488C12.376 15.956 12.544 15.204 12.544 14.232C12.544 13.26 12.376 12.51 12.04 11.982C11.704 11.45 11.212 11.184 10.564 11.184C9.924 11.184 9.434 11.45 9.094 11.982C8.754 12.51 8.584 13.26 8.584 14.232C8.584 15.204 8.754 15.956 9.094 16.488C9.434 17.016 9.924 17.28 10.564 17.28ZM17.749 18.144C17.273 18.144 16.839 18.058 16.447 17.886C16.055 17.714 15.741 17.462 15.505 17.13C15.269 16.794 15.149 16.384 15.145 15.9H16.081C16.081 16.356 16.241 16.7 16.561 16.932C16.885 17.164 17.281 17.28 17.749 17.28C18.289 17.28 18.713 17.116 19.021 16.788C19.333 16.456 19.489 16.048 19.489 15.564C19.489 14.596 18.865 14.112 17.617 14.112H15.601L15.925 10.464H20.101V11.316H16.681L16.873 10.992L16.621 13.62L16.501 13.512C16.693 13.468 16.911 13.438 17.155 13.422C17.399 13.402 17.617 13.392 17.809 13.392C18.625 13.392 19.271 13.574 19.747 13.938C20.223 14.302 20.461 14.844 20.461 15.564C20.461 16.052 20.351 16.492 20.131 16.884C19.911 17.272 19.597 17.58 19.189 17.808C18.785 18.032 18.305 18.144 17.749 18.144Z" fill="white"/>
</svg>
