<svg width="29" height="29" viewBox="0 0 29 29" fill="none" xmlns="http://www.w3.org/2000/svg">
<rect width="20.3252" height="20.3252" rx="7" transform="matrix(-0.681998 -0.731354 -0.731354 0.681998 28.7266 14.8633)" fill="#333333"/>
<path d="M10.564 18.144C9.972 18.144 9.454 18 9.01 17.712C8.57 17.424 8.226 16.99 7.978 16.41C7.734 15.83 7.612 15.104 7.612 14.232C7.612 13.36 7.734 12.636 7.978 12.06C8.226 11.48 8.57 11.048 9.01 10.764C9.454 10.476 9.972 10.332 10.564 10.332C11.152 10.332 11.668 10.476 12.112 10.764C12.556 11.048 12.9 11.48 13.144 12.06C13.392 12.636 13.516 13.36 13.516 14.232C13.516 15.104 13.392 15.83 13.144 16.41C12.9 16.99 12.556 17.424 12.112 17.712C11.668 18 11.152 18.144 10.564 18.144ZM10.564 17.28C11.212 17.28 11.704 17.016 12.04 16.488C12.376 15.956 12.544 15.204 12.544 14.232C12.544 13.26 12.376 12.51 12.04 11.982C11.704 11.45 11.212 11.184 10.564 11.184C9.924 11.184 9.434 11.45 9.094 11.982C8.754 12.51 8.584 13.26 8.584 14.232C8.584 15.204 8.754 15.956 9.094 16.488C9.434 17.016 9.924 17.28 10.564 17.28ZM17.977 18.144C17.373 18.144 16.845 17.978 16.393 17.646C15.945 17.314 15.597 16.864 15.349 16.296C15.101 15.724 14.977 15.08 14.977 14.364C14.977 13.52 15.103 12.798 15.355 12.198C15.607 11.594 15.967 11.132 16.435 10.812C16.903 10.492 17.461 10.332 18.109 10.332C18.557 10.332 18.951 10.418 19.291 10.59C19.635 10.758 19.909 10.994 20.113 11.298C20.321 11.602 20.445 11.956 20.485 12.36H19.465C19.405 12 19.269 11.714 19.057 11.502C18.845 11.29 18.537 11.184 18.133 11.184C17.445 11.184 16.905 11.482 16.513 12.078C16.121 12.67 15.925 13.48 15.925 14.508C15.925 14.656 15.929 14.828 15.937 15.024C15.945 15.216 15.961 15.396 15.985 15.564C16.021 15.032 16.143 14.614 16.351 14.31C16.563 14.002 16.827 13.784 17.143 13.656C17.459 13.528 17.793 13.464 18.145 13.464C18.601 13.464 19.009 13.564 19.369 13.764C19.733 13.964 20.019 14.242 20.227 14.598C20.439 14.95 20.545 15.356 20.545 15.816C20.545 16.28 20.437 16.688 20.221 17.04C20.005 17.388 19.703 17.66 19.315 17.856C18.931 18.048 18.485 18.144 17.977 18.144ZM17.977 17.28C18.433 17.28 18.811 17.146 19.111 16.878C19.411 16.61 19.561 16.248 19.561 15.792C19.561 15.324 19.411 14.958 19.111 14.694C18.811 14.426 18.433 14.292 17.977 14.292C17.677 14.292 17.409 14.358 17.173 14.49C16.937 14.618 16.749 14.796 16.609 15.024C16.473 15.248 16.405 15.504 16.405 15.792C16.405 16.248 16.555 16.61 16.855 16.878C17.155 17.146 17.529 17.28 17.977 17.28Z" fill="white"/>
</svg>
