<svg width="29" height="29" viewBox="0 0 29 29" fill="none" xmlns="http://www.w3.org/2000/svg">
<rect width="20.3252" height="20.3252" rx="7" transform="matrix(-0.681998 -0.731354 -0.731354 0.681998 28.7266 14.8633)" fill="#333333"/>
<path d="M10.564 18.144C9.972 18.144 9.454 18 9.01 17.712C8.57 17.424 8.226 16.99 7.978 16.41C7.734 15.83 7.612 15.104 7.612 14.232C7.612 13.36 7.734 12.636 7.978 12.06C8.226 11.48 8.57 11.048 9.01 10.764C9.454 10.476 9.972 10.332 10.564 10.332C11.152 10.332 11.668 10.476 12.112 10.764C12.556 11.048 12.9 11.48 13.144 12.06C13.392 12.636 13.516 13.36 13.516 14.232C13.516 15.104 13.392 15.83 13.144 16.41C12.9 16.99 12.556 17.424 12.112 17.712C11.668 18 11.152 18.144 10.564 18.144ZM10.564 17.28C11.212 17.28 11.704 17.016 12.04 16.488C12.376 15.956 12.544 15.204 12.544 14.232C12.544 13.26 12.376 12.51 12.04 11.982C11.704 11.45 11.212 11.184 10.564 11.184C9.924 11.184 9.434 11.45 9.094 11.982C8.754 12.51 8.584 13.26 8.584 14.232C8.584 15.204 8.754 15.956 9.094 16.488C9.434 17.016 9.924 17.28 10.564 17.28ZM18.049 18.144C17.457 18.144 16.933 18.05 16.477 17.862C16.025 17.674 15.669 17.416 15.409 17.088C15.153 16.76 15.025 16.388 15.025 15.972C15.025 15.592 15.123 15.266 15.319 14.994C15.519 14.722 15.791 14.514 16.135 14.37C16.483 14.222 16.877 14.148 17.317 14.148C17.433 14.148 17.545 14.154 17.653 14.166C17.761 14.178 17.877 14.2 18.001 14.232V14.508C17.601 14.508 17.251 14.574 16.951 14.706C16.651 14.834 16.417 15.004 16.249 15.216C16.081 15.428 15.997 15.656 15.997 15.9C15.997 16.196 16.087 16.448 16.267 16.656C16.447 16.86 16.691 17.016 16.999 17.124C17.311 17.228 17.661 17.28 18.049 17.28C18.697 17.28 19.201 17.176 19.561 16.968C19.921 16.76 20.101 16.488 20.101 16.152C20.101 15.88 20.005 15.656 19.813 15.48C19.625 15.304 19.365 15.156 19.033 15.036L16.957 14.244C16.705 14.148 16.449 14.016 16.189 13.848C15.933 13.68 15.717 13.47 15.541 13.218C15.365 12.966 15.277 12.668 15.277 12.324C15.277 11.936 15.387 11.592 15.607 11.292C15.827 10.992 16.143 10.758 16.555 10.59C16.971 10.418 17.469 10.332 18.049 10.332C18.581 10.332 19.053 10.424 19.465 10.608C19.881 10.788 20.207 11.036 20.443 11.352C20.679 11.664 20.797 12.02 20.797 12.42C20.797 12.732 20.717 13.022 20.557 13.29C20.401 13.554 20.169 13.768 19.861 13.932C19.557 14.092 19.181 14.172 18.733 14.172C18.625 14.172 18.521 14.166 18.421 14.154C18.325 14.138 18.217 14.112 18.097 14.076V13.776C18.421 13.776 18.713 13.722 18.973 13.614C19.233 13.502 19.439 13.348 19.591 13.152C19.747 12.956 19.825 12.728 19.825 12.468C19.825 12.22 19.749 12 19.597 11.808C19.449 11.612 19.241 11.46 18.973 11.352C18.709 11.24 18.401 11.184 18.049 11.184C17.709 11.184 17.403 11.238 17.131 11.346C16.863 11.45 16.651 11.592 16.495 11.772C16.339 11.948 16.261 12.144 16.261 12.36C16.261 12.628 16.351 12.844 16.531 13.008C16.715 13.168 16.969 13.308 17.293 13.428L19.369 14.22C19.921 14.428 20.345 14.674 20.641 14.958C20.937 15.242 21.085 15.628 21.085 16.116C21.085 16.512 20.965 16.864 20.725 17.172C20.485 17.476 20.139 17.714 19.687 17.886C19.235 18.058 18.689 18.144 18.049 18.144Z" fill="white"/>
</svg>
