<svg width="29" height="29" viewBox="0 0 29 29" fill="none" xmlns="http://www.w3.org/2000/svg">
<rect width="20.3252" height="20.3252" rx="7" transform="matrix(-0.681998 -0.731354 -0.731354 0.681998 28.7266 14.8633)" fill="#333333"/>
<path d="M10.564 18.144C9.972 18.144 9.454 18 9.01 17.712C8.57 17.424 8.226 16.99 7.978 16.41C7.734 15.83 7.612 15.104 7.612 14.232C7.612 13.36 7.734 12.636 7.978 12.06C8.226 11.48 8.57 11.048 9.01 10.764C9.454 10.476 9.972 10.332 10.564 10.332C11.152 10.332 11.668 10.476 12.112 10.764C12.556 11.048 12.9 11.48 13.144 12.06C13.392 12.636 13.516 13.36 13.516 14.232C13.516 15.104 13.392 15.83 13.144 16.41C12.9 16.99 12.556 17.424 12.112 17.712C11.668 18 11.152 18.144 10.564 18.144ZM10.564 17.28C11.212 17.28 11.704 17.016 12.04 16.488C12.376 15.956 12.544 15.204 12.544 14.232C12.544 13.26 12.376 12.51 12.04 11.982C11.704 11.45 11.212 11.184 10.564 11.184C9.924 11.184 9.434 11.45 9.094 11.982C8.754 12.51 8.584 13.26 8.584 14.232C8.584 15.204 8.754 15.956 9.094 16.488C9.434 17.016 9.924 17.28 10.564 17.28ZM17.773 18.144C17.277 18.144 16.835 18.042 16.447 17.838C16.063 17.634 15.759 17.354 15.535 16.998C15.315 16.638 15.205 16.228 15.205 15.768H16.177C16.189 16.228 16.333 16.596 16.609 16.872C16.889 17.144 17.269 17.28 17.749 17.28C18.221 17.28 18.603 17.144 18.895 16.872C19.191 16.6 19.407 16.216 19.543 15.72C19.683 15.22 19.753 14.632 19.753 13.956C19.753 13.8 19.749 13.656 19.741 13.524C19.733 13.388 19.717 13.236 19.693 13.068C19.641 13.5 19.517 13.86 19.321 14.148C19.125 14.432 18.873 14.646 18.565 14.79C18.261 14.93 17.917 15 17.533 15C17.085 15 16.681 14.9 16.321 14.7C15.965 14.496 15.681 14.218 15.469 13.866C15.261 13.51 15.157 13.104 15.157 12.648C15.157 12.18 15.263 11.772 15.475 11.424C15.691 11.076 15.991 10.808 16.375 10.62C16.759 10.428 17.205 10.332 17.713 10.332C18.145 10.332 18.543 10.42 18.907 10.596C19.275 10.772 19.593 11.026 19.861 11.358C20.129 11.686 20.337 12.08 20.485 12.54C20.637 13 20.713 13.516 20.713 14.088C20.713 14.916 20.607 15.634 20.395 16.242C20.187 16.85 19.865 17.32 19.429 17.652C18.997 17.98 18.445 18.144 17.773 18.144ZM17.713 14.172C18.009 14.172 18.277 14.106 18.517 13.974C18.757 13.842 18.947 13.664 19.087 13.44C19.227 13.216 19.297 12.964 19.297 12.684C19.297 12.22 19.143 11.854 18.835 11.586C18.531 11.318 18.157 11.184 17.713 11.184C17.257 11.184 16.879 11.318 16.579 11.586C16.279 11.854 16.129 12.22 16.129 12.684C16.129 13.144 16.279 13.508 16.579 13.776C16.879 14.04 17.257 14.172 17.713 14.172Z" fill="white"/>
</svg>
