<svg width="29" height="29" viewBox="0 0 29 29" fill="none" xmlns="http://www.w3.org/2000/svg">
<rect width="20.3252" height="20.3252" rx="7" transform="matrix(-0.681998 -0.731354 -0.731354 0.681998 28.7266 14.8633)" fill="#333333"/>
<path d="M9.992 10.44H10.748V18H9.812V11.544C9.62 11.676 9.418 11.778 9.206 11.85C8.998 11.918 8.788 11.956 8.576 11.964V11.052C8.828 11.016 9.072 10.95 9.308 10.854C9.548 10.758 9.776 10.62 9.992 10.44ZM15.7649 18.144C15.1729 18.144 14.6549 18 14.2109 17.712C13.7709 17.424 13.4269 16.99 13.1789 16.41C12.9349 15.83 12.8129 15.104 12.8129 14.232C12.8129 13.36 12.9349 12.636 13.1789 12.06C13.4269 11.48 13.7709 11.048 14.2109 10.764C14.6549 10.476 15.1729 10.332 15.7649 10.332C16.3529 10.332 16.8689 10.476 17.3129 10.764C17.7569 11.048 18.1009 11.48 18.3449 12.06C18.5929 12.636 18.7169 13.36 18.7169 14.232C18.7169 15.104 18.5929 15.83 18.3449 16.41C18.1009 16.99 17.7569 17.424 17.3129 17.712C16.8689 18 16.3529 18.144 15.7649 18.144ZM15.7649 17.28C16.4129 17.28 16.9049 17.016 17.2409 16.488C17.5769 15.956 17.7449 15.204 17.7449 14.232C17.7449 13.26 17.5769 12.51 17.2409 11.982C16.9049 11.45 16.4129 11.184 15.7649 11.184C15.1249 11.184 14.6349 11.45 14.2949 11.982C13.9549 12.51 13.7849 13.26 13.7849 14.232C13.7849 15.204 13.9549 15.956 14.2949 16.488C14.6349 17.016 15.1249 17.28 15.7649 17.28Z" fill="white"/>
</svg>
