<svg width="29" height="29" viewBox="0 0 29 29" fill="none" xmlns="http://www.w3.org/2000/svg">
<rect width="20.3252" height="20.3252" rx="7" transform="matrix(-0.681998 -0.731354 -0.731354 0.681998 28.7266 14.8672)" fill="#333333"/>
<path d="M11.992 10.44H12.748V18H11.812V11.544C11.62 11.676 11.418 11.778 11.206 11.85C10.998 11.918 10.788 11.956 10.576 11.964V11.052C10.828 11.016 11.072 10.95 11.308 10.854C11.548 10.758 11.776 10.62 11.992 10.44ZM16.1929 10.44H16.9489V18H16.0129V11.544C15.8209 11.676 15.6189 11.778 15.4069 11.85C15.1989 11.918 14.9889 11.956 14.7769 11.964V11.052C15.0289 11.016 15.2729 10.95 15.5089 10.854C15.7489 10.758 15.9769 10.62 16.1929 10.44Z" fill="white"/>
</svg>
