<svg width="29" height="29" viewBox="0 0 29 29" fill="none" xmlns="http://www.w3.org/2000/svg">
<rect width="20.3252" height="20.3252" rx="7" transform="matrix(-0.681998 -0.731354 -0.731354 0.681998 28.7266 14.8672)" fill="#333333"/>
<path d="M9.992 10.44H10.748V18H9.812V11.544C9.62 11.676 9.418 11.778 9.206 11.85C8.998 11.918 8.788 11.956 8.576 11.964V11.052C8.828 11.016 9.072 10.95 9.308 10.854C9.548 10.758 9.776 10.62 9.992 10.44ZM12.9689 18V16.884C12.9689 16.448 13.0389 16.084 13.1789 15.792C13.3229 15.5 13.5229 15.258 13.7789 15.066C14.0389 14.874 14.3449 14.708 14.6969 14.568L16.1849 13.98C16.5689 13.824 16.8569 13.624 17.0489 13.38C17.2409 13.136 17.3369 12.832 17.3369 12.468C17.3369 12.084 17.2029 11.77 16.9349 11.526C16.6709 11.282 16.3009 11.16 15.8249 11.16C15.3529 11.16 14.9649 11.262 14.6609 11.466C14.3609 11.666 14.1889 11.968 14.1449 12.372H13.1009C13.1289 11.936 13.2569 11.566 13.4849 11.262C13.7169 10.958 14.0309 10.728 14.4269 10.572C14.8229 10.412 15.2849 10.332 15.8129 10.332C16.2969 10.332 16.7309 10.426 17.1149 10.614C17.4989 10.802 17.8009 11.062 18.0209 11.394C18.2449 11.722 18.3569 12.1 18.3569 12.528C18.3569 12.916 18.2849 13.254 18.1409 13.542C17.9969 13.83 17.7909 14.078 17.5229 14.286C17.2589 14.494 16.9449 14.672 16.5809 14.82L15.0569 15.432C14.6729 15.58 14.3849 15.758 14.1929 15.966C14.0009 16.174 13.9049 16.444 13.9049 16.776V17.136H18.2849V18H12.9689Z" fill="white"/>
</svg>
