<svg width="29" height="29" viewBox="0 0 29 29" fill="none" xmlns="http://www.w3.org/2000/svg">
<rect width="20.3252" height="20.3252" rx="7" transform="matrix(-0.681998 -0.731354 -0.731354 0.681998 28.7266 14.8672)" fill="#333333"/>
<path d="M9.992 10.44H10.748V18H9.812V11.544C9.62 11.676 9.418 11.778 9.206 11.85C8.998 11.918 8.788 11.956 8.576 11.964V11.052C8.828 11.016 9.072 10.95 9.308 10.854C9.548 10.758 9.776 10.62 9.992 10.44ZM15.7649 18.144C15.3889 18.144 15.0249 18.092 14.6729 17.988C14.3249 17.88 14.0109 17.724 13.7309 17.52C13.4549 17.312 13.2369 17.056 13.0769 16.752C12.9169 16.448 12.8369 16.096 12.8369 15.696H13.7969C13.8049 16.04 13.8969 16.33 14.0729 16.566C14.2489 16.802 14.4829 16.98 14.7749 17.1C15.0709 17.22 15.4009 17.28 15.7649 17.28C16.3249 17.28 16.7589 17.144 17.0669 16.872C17.3749 16.6 17.5289 16.26 17.5289 15.852C17.5289 15.592 17.4649 15.362 17.3369 15.162C17.2089 14.962 17.0049 14.806 16.7249 14.694C16.4489 14.578 16.0849 14.52 15.6329 14.52H14.7809V13.776H15.3569C15.9409 13.776 16.4009 13.66 16.7369 13.428C17.0729 13.196 17.2409 12.876 17.2409 12.468C17.2409 12.108 17.1049 11.804 16.8329 11.556C16.5609 11.308 16.1729 11.184 15.6689 11.184C15.2809 11.184 14.9349 11.264 14.6309 11.424C14.3269 11.58 14.1209 11.868 14.0129 12.288H13.0529C13.1169 11.82 13.2689 11.442 13.5089 11.154C13.7489 10.866 14.0529 10.658 14.4209 10.53C14.7889 10.398 15.1969 10.332 15.6449 10.332C16.1449 10.332 16.5909 10.42 16.9829 10.596C17.3749 10.772 17.6829 11.014 17.9069 11.322C18.1349 11.63 18.2489 11.984 18.2489 12.384C18.2489 12.78 18.1349 13.12 17.9069 13.404C17.6829 13.684 17.3569 13.9 16.9289 14.052C17.4049 14.188 17.7929 14.412 18.0929 14.724C18.3969 15.036 18.5489 15.436 18.5489 15.924C18.5489 16.356 18.4349 16.74 18.2069 17.076C17.9829 17.408 17.6629 17.67 17.2469 17.862C16.8309 18.05 16.3369 18.144 15.7649 18.144Z" fill="white"/>
</svg>
