<svg width="29" height="29" viewBox="0 0 29 29" fill="none" xmlns="http://www.w3.org/2000/svg">
<rect width="20.3252" height="20.3252" rx="7" transform="matrix(-0.681998 -0.731354 -0.731354 0.681998 28.7266 14.8672)" fill="#333333"/>
<path d="M9.992 10.44H10.748V18H9.812V11.544C9.62 11.676 9.418 11.778 9.206 11.85C8.998 11.918 8.788 11.956 8.576 11.964V11.052C8.828 11.016 9.072 10.95 9.308 10.854C9.548 10.758 9.776 10.62 9.992 10.44ZM16.4609 10.356H17.3369V15.372H18.6449V16.164H17.3369V18H16.4129V16.164H12.5129V15.444L16.4609 10.356ZM16.4489 11.832L13.6289 15.444H16.4489V11.832Z" fill="white"/>
</svg>
