<svg width="29" height="29" viewBox="0 0 29 29" fill="none" xmlns="http://www.w3.org/2000/svg">
<rect width="20.3252" height="20.3252" rx="7" transform="matrix(-0.681998 -0.731354 -0.731354 0.681998 28.7266 14.8672)" fill="#333333"/>
<path d="M10.992 10.44H11.748V18H10.812V11.544C10.62 11.676 10.418 11.778 10.206 11.85C9.998 11.918 9.788 11.956 9.576 11.964V11.052C9.828 11.016 10.072 10.95 10.308 10.854C10.548 10.758 10.776 10.62 10.992 10.44ZM16.5849 18.144C16.1089 18.144 15.6749 18.058 15.2829 17.886C14.8909 17.714 14.5769 17.462 14.3409 17.13C14.1049 16.794 13.9849 16.384 13.9809 15.9H14.9169C14.9169 16.356 15.0769 16.7 15.3969 16.932C15.7209 17.164 16.1169 17.28 16.5849 17.28C17.1249 17.28 17.5489 17.116 17.8569 16.788C18.1689 16.456 18.3249 16.048 18.3249 15.564C18.3249 14.596 17.7009 14.112 16.4529 14.112H14.4369L14.7609 10.464H18.9369V11.316H15.5169L15.7089 10.992L15.4569 13.62L15.3369 13.512C15.5289 13.468 15.7469 13.438 15.9909 13.422C16.2349 13.402 16.4529 13.392 16.6449 13.392C17.4609 13.392 18.1069 13.574 18.5829 13.938C19.0589 14.302 19.2969 14.844 19.2969 15.564C19.2969 16.052 19.1869 16.492 18.9669 16.884C18.7469 17.272 18.4329 17.58 18.0249 17.808C17.6209 18.032 17.1409 18.144 16.5849 18.144Z" fill="white"/>
</svg>
