<svg width="29" height="29" viewBox="0 0 29 29" fill="none" xmlns="http://www.w3.org/2000/svg">
<rect width="20.3252" height="20.3252" rx="7" transform="matrix(-0.681998 -0.731354 -0.731354 0.681998 28.7266 14.8672)" fill="#333333"/>
<path d="M10.992 10.44H11.748V18H10.812V11.544C10.62 11.676 10.418 11.778 10.206 11.85C9.998 11.918 9.788 11.956 9.576 11.964V11.052C9.828 11.016 10.072 10.95 10.308 10.854C10.548 10.758 10.776 10.62 10.992 10.44ZM16.8129 18.144C16.2089 18.144 15.6809 17.978 15.2289 17.646C14.7809 17.314 14.4329 16.864 14.1849 16.296C13.9369 15.724 13.8129 15.08 13.8129 14.364C13.8129 13.52 13.9389 12.798 14.1909 12.198C14.4429 11.594 14.8029 11.132 15.2709 10.812C15.7389 10.492 16.2969 10.332 16.9449 10.332C17.3929 10.332 17.7869 10.418 18.1269 10.59C18.4709 10.758 18.7449 10.994 18.9489 11.298C19.1569 11.602 19.2809 11.956 19.3209 12.36H18.3009C18.2409 12 18.1049 11.714 17.8929 11.502C17.6809 11.29 17.3729 11.184 16.9689 11.184C16.2809 11.184 15.7409 11.482 15.3489 12.078C14.9569 12.67 14.7609 13.48 14.7609 14.508C14.7609 14.656 14.7649 14.828 14.7729 15.024C14.7809 15.216 14.7969 15.396 14.8209 15.564C14.8569 15.032 14.9789 14.614 15.1869 14.31C15.3989 14.002 15.6629 13.784 15.9789 13.656C16.2949 13.528 16.6289 13.464 16.9809 13.464C17.4369 13.464 17.8449 13.564 18.2049 13.764C18.5689 13.964 18.8549 14.242 19.0629 14.598C19.2749 14.95 19.3809 15.356 19.3809 15.816C19.3809 16.28 19.2729 16.688 19.0569 17.04C18.8409 17.388 18.5389 17.66 18.1509 17.856C17.7669 18.048 17.3209 18.144 16.8129 18.144ZM16.8129 17.28C17.2689 17.28 17.6469 17.146 17.9469 16.878C18.2469 16.61 18.3969 16.248 18.3969 15.792C18.3969 15.324 18.2469 14.958 17.9469 14.694C17.6469 14.426 17.2689 14.292 16.8129 14.292C16.5129 14.292 16.2449 14.358 16.0089 14.49C15.7729 14.618 15.5849 14.796 15.4449 15.024C15.3089 15.248 15.2409 15.504 15.2409 15.792C15.2409 16.248 15.3909 16.61 15.6909 16.878C15.9909 17.146 16.3649 17.28 16.8129 17.28Z" fill="white"/>
</svg>
