<svg width="29" height="29" viewBox="0 0 29 29" fill="none" xmlns="http://www.w3.org/2000/svg">
<rect width="20.3252" height="20.3252" rx="7" transform="matrix(-0.681998 -0.731354 -0.731354 0.681998 28.7266 14.8672)" fill="#333333"/>
<path d="M10.992 10.44H11.748V18H10.812V11.544C10.62 11.676 10.418 11.778 10.206 11.85C9.998 11.918 9.788 11.956 9.576 11.964V11.052C9.828 11.016 10.072 10.95 10.308 10.854C10.548 10.758 10.776 10.62 10.992 10.44ZM16.8849 18.144C16.2929 18.144 15.7689 18.05 15.3129 17.862C14.8609 17.674 14.5049 17.416 14.2449 17.088C13.9889 16.76 13.8609 16.388 13.8609 15.972C13.8609 15.592 13.9589 15.266 14.1549 14.994C14.3549 14.722 14.6269 14.514 14.9709 14.37C15.3189 14.222 15.7129 14.148 16.1529 14.148C16.2689 14.148 16.3809 14.154 16.4889 14.166C16.5969 14.178 16.7129 14.2 16.8369 14.232V14.508C16.4369 14.508 16.0869 14.574 15.7869 14.706C15.4869 14.834 15.2529 15.004 15.0849 15.216C14.9169 15.428 14.8329 15.656 14.8329 15.9C14.8329 16.196 14.9229 16.448 15.1029 16.656C15.2829 16.86 15.5269 17.016 15.8349 17.124C16.1469 17.228 16.4969 17.28 16.8849 17.28C17.5329 17.28 18.0369 17.176 18.3969 16.968C18.7569 16.76 18.9369 16.488 18.9369 16.152C18.9369 15.88 18.8409 15.656 18.6489 15.48C18.4609 15.304 18.2009 15.156 17.8689 15.036L15.7929 14.244C15.5409 14.148 15.2849 14.016 15.0249 13.848C14.7689 13.68 14.5529 13.47 14.3769 13.218C14.2009 12.966 14.1129 12.668 14.1129 12.324C14.1129 11.936 14.2229 11.592 14.4429 11.292C14.6629 10.992 14.9789 10.758 15.3909 10.59C15.8069 10.418 16.3049 10.332 16.8849 10.332C17.4169 10.332 17.8889 10.424 18.3009 10.608C18.7169 10.788 19.0429 11.036 19.2789 11.352C19.5149 11.664 19.6329 12.02 19.6329 12.42C19.6329 12.732 19.5529 13.022 19.3929 13.29C19.2369 13.554 19.0049 13.768 18.6969 13.932C18.3929 14.092 18.0169 14.172 17.5689 14.172C17.4609 14.172 17.3569 14.166 17.2569 14.154C17.1609 14.138 17.0529 14.112 16.9329 14.076V13.776C17.2569 13.776 17.5489 13.722 17.8089 13.614C18.0689 13.502 18.2749 13.348 18.4269 13.152C18.5829 12.956 18.6609 12.728 18.6609 12.468C18.6609 12.22 18.5849 12 18.4329 11.808C18.2849 11.612 18.0769 11.46 17.8089 11.352C17.5449 11.24 17.2369 11.184 16.8849 11.184C16.5449 11.184 16.2389 11.238 15.9669 11.346C15.6989 11.45 15.4869 11.592 15.3309 11.772C15.1749 11.948 15.0969 12.144 15.0969 12.36C15.0969 12.628 15.1869 12.844 15.3669 13.008C15.5509 13.168 15.8049 13.308 16.1289 13.428L18.2049 14.22C18.7569 14.428 19.1809 14.674 19.4769 14.958C19.7729 15.242 19.9209 15.628 19.9209 16.116C19.9209 16.512 19.8009 16.864 19.5609 17.172C19.3209 17.476 18.9749 17.714 18.5229 17.886C18.0709 18.058 17.5249 18.144 16.8849 18.144Z" fill="white"/>
</svg>
