<svg width="29" height="29" viewBox="0 0 29 29" fill="none" xmlns="http://www.w3.org/2000/svg">
<rect width="20.3252" height="20.3252" rx="7" transform="matrix(-0.681998 -0.731354 -0.731354 0.681998 28.7266 14.8672)" fill="#333333"/>
<path d="M9.992 10.44H10.748V18H9.812V11.544C9.62 11.676 9.418 11.778 9.206 11.85C8.998 11.918 8.788 11.956 8.576 11.964V11.052C8.828 11.016 9.072 10.95 9.308 10.854C9.548 10.758 9.776 10.62 9.992 10.44ZM15.6089 18.144C15.1129 18.144 14.6709 18.042 14.2829 17.838C13.8989 17.634 13.5949 17.354 13.3709 16.998C13.1509 16.638 13.0409 16.228 13.0409 15.768H14.0129C14.0249 16.228 14.1689 16.596 14.4449 16.872C14.7249 17.144 15.1049 17.28 15.5849 17.28C16.0569 17.28 16.4389 17.144 16.7309 16.872C17.0269 16.6 17.2429 16.216 17.3789 15.72C17.5189 15.22 17.5889 14.632 17.5889 13.956C17.5889 13.8 17.5849 13.656 17.5769 13.524C17.5689 13.388 17.5529 13.236 17.5289 13.068C17.4769 13.5 17.3529 13.86 17.1569 14.148C16.9609 14.432 16.7089 14.646 16.4009 14.79C16.0969 14.93 15.7529 15 15.3689 15C14.9209 15 14.5169 14.9 14.1569 14.7C13.8009 14.496 13.5169 14.218 13.3049 13.866C13.0969 13.51 12.9929 13.104 12.9929 12.648C12.9929 12.18 13.0989 11.772 13.3109 11.424C13.5269 11.076 13.8269 10.808 14.2109 10.62C14.5949 10.428 15.0409 10.332 15.5489 10.332C15.9809 10.332 16.3789 10.42 16.7429 10.596C17.1109 10.772 17.4289 11.026 17.6969 11.358C17.9649 11.686 18.1729 12.08 18.3209 12.54C18.4729 13 18.5489 13.516 18.5489 14.088C18.5489 14.916 18.4429 15.634 18.2309 16.242C18.0229 16.85 17.7009 17.32 17.2649 17.652C16.8329 17.98 16.2809 18.144 15.6089 18.144ZM15.5489 14.172C15.8449 14.172 16.1129 14.106 16.3529 13.974C16.5929 13.842 16.7829 13.664 16.9229 13.44C17.0629 13.216 17.1329 12.964 17.1329 12.684C17.1329 12.22 16.9789 11.854 16.6709 11.586C16.3669 11.318 15.9929 11.184 15.5489 11.184C15.0929 11.184 14.7149 11.318 14.4149 11.586C14.1149 11.854 13.9649 12.22 13.9649 12.684C13.9649 13.144 14.1149 13.508 14.4149 13.776C14.7149 14.04 15.0929 14.172 15.5489 14.172Z" fill="white"/>
</svg>
