<svg width="29" height="29" viewBox="0 0 29 29" fill="none" xmlns="http://www.w3.org/2000/svg">
<rect width="20.3252" height="20.3252" rx="7" transform="matrix(-0.681998 -0.731354 -0.731354 0.681998 28.7266 14.8672)" fill="#333333"/>
<path d="M8.768 18V16.884C8.768 16.448 8.838 16.084 8.978 15.792C9.122 15.5 9.322 15.258 9.578 15.066C9.838 14.874 10.144 14.708 10.496 14.568L11.984 13.98C12.368 13.824 12.656 13.624 12.848 13.38C13.04 13.136 13.136 12.832 13.136 12.468C13.136 12.084 13.002 11.77 12.734 11.526C12.47 11.282 12.1 11.16 11.624 11.16C11.152 11.16 10.764 11.262 10.46 11.466C10.16 11.666 9.988 11.968 9.944 12.372H8.9C8.928 11.936 9.056 11.566 9.284 11.262C9.516 10.958 9.83 10.728 10.226 10.572C10.622 10.412 11.084 10.332 11.612 10.332C12.096 10.332 12.53 10.426 12.914 10.614C13.298 10.802 13.6 11.062 13.82 11.394C14.044 11.722 14.156 12.1 14.156 12.528C14.156 12.916 14.084 13.254 13.94 13.542C13.796 13.83 13.59 14.078 13.322 14.286C13.058 14.494 12.744 14.672 12.38 14.82L10.856 15.432C10.472 15.58 10.184 15.758 9.992 15.966C9.8 16.174 9.704 16.444 9.704 16.776V17.136H14.084V18H8.768ZM18.7532 18.144C18.1612 18.144 17.6432 18 17.1992 17.712C16.7592 17.424 16.4152 16.99 16.1672 16.41C15.9232 15.83 15.8012 15.104 15.8012 14.232C15.8012 13.36 15.9232 12.636 16.1672 12.06C16.4152 11.48 16.7592 11.048 17.1992 10.764C17.6432 10.476 18.1612 10.332 18.7532 10.332C19.3412 10.332 19.8572 10.476 20.3012 10.764C20.7452 11.048 21.0892 11.48 21.3332 12.06C21.5812 12.636 21.7052 13.36 21.7052 14.232C21.7052 15.104 21.5812 15.83 21.3332 16.41C21.0892 16.99 20.7452 17.424 20.3012 17.712C19.8572 18 19.3412 18.144 18.7532 18.144ZM18.7532 17.28C19.4012 17.28 19.8932 17.016 20.2292 16.488C20.5652 15.956 20.7332 15.204 20.7332 14.232C20.7332 13.26 20.5652 12.51 20.2292 11.982C19.8932 11.45 19.4012 11.184 18.7532 11.184C18.1132 11.184 17.6232 11.45 17.2832 11.982C16.9432 12.51 16.7732 13.26 16.7732 14.232C16.7732 15.204 16.9432 15.956 17.2832 16.488C17.6232 17.016 18.1132 17.28 18.7532 17.28Z" fill="white"/>
</svg>
