<svg width="29" height="29" viewBox="0 0 29 29" fill="none" xmlns="http://www.w3.org/2000/svg">
<rect width="20.3252" height="20.3252" rx="7" transform="matrix(-0.681998 -0.731354 -0.731354 0.681998 28.7266 14.8672)" fill="#333333"/>
<path d="M9.768 18V16.884C9.768 16.448 9.838 16.084 9.978 15.792C10.122 15.5 10.322 15.258 10.578 15.066C10.838 14.874 11.144 14.708 11.496 14.568L12.984 13.98C13.368 13.824 13.656 13.624 13.848 13.38C14.04 13.136 14.136 12.832 14.136 12.468C14.136 12.084 14.002 11.77 13.734 11.526C13.47 11.282 13.1 11.16 12.624 11.16C12.152 11.16 11.764 11.262 11.46 11.466C11.16 11.666 10.988 11.968 10.944 12.372H9.9C9.928 11.936 10.056 11.566 10.284 11.262C10.516 10.958 10.83 10.728 11.226 10.572C11.622 10.412 12.084 10.332 12.612 10.332C13.096 10.332 13.53 10.426 13.914 10.614C14.298 10.802 14.6 11.062 14.82 11.394C15.044 11.722 15.156 12.1 15.156 12.528C15.156 12.916 15.084 13.254 14.94 13.542C14.796 13.83 14.59 14.078 14.322 14.286C14.058 14.494 13.744 14.672 13.38 14.82L11.856 15.432C11.472 15.58 11.184 15.758 10.992 15.966C10.8 16.174 10.704 16.444 10.704 16.776V17.136H15.084V18H9.768ZM18.1812 10.44H18.9372V18H18.0012V11.544C17.8092 11.676 17.6072 11.778 17.3952 11.85C17.1872 11.918 16.9772 11.956 16.7652 11.964V11.052C17.0172 11.016 17.2612 10.95 17.4972 10.854C17.7372 10.758 17.9652 10.62 18.1812 10.44Z" fill="white"/>
</svg>
