<svg width="29" height="29" viewBox="0 0 29 29" fill="none" xmlns="http://www.w3.org/2000/svg">
<rect width="20.3252" height="20.3252" rx="7" transform="matrix(-0.681998 -0.731354 -0.731354 0.681998 28.7266 14.8672)" fill="#333333"/>
<path d="M7.768 18V16.884C7.768 16.448 7.838 16.084 7.978 15.792C8.122 15.5 8.322 15.258 8.578 15.066C8.838 14.874 9.144 14.708 9.496 14.568L10.984 13.98C11.368 13.824 11.656 13.624 11.848 13.38C12.04 13.136 12.136 12.832 12.136 12.468C12.136 12.084 12.002 11.77 11.734 11.526C11.47 11.282 11.1 11.16 10.624 11.16C10.152 11.16 9.764 11.262 9.46 11.466C9.16 11.666 8.988 11.968 8.944 12.372H7.9C7.928 11.936 8.056 11.566 8.284 11.262C8.516 10.958 8.83 10.728 9.226 10.572C9.622 10.412 10.084 10.332 10.612 10.332C11.096 10.332 11.53 10.426 11.914 10.614C12.298 10.802 12.6 11.062 12.82 11.394C13.044 11.722 13.156 12.1 13.156 12.528C13.156 12.916 13.084 13.254 12.94 13.542C12.796 13.83 12.59 14.078 12.322 14.286C12.058 14.494 11.744 14.672 11.38 14.82L9.856 15.432C9.472 15.58 9.184 15.758 8.992 15.966C8.8 16.174 8.704 16.444 8.704 16.776V17.136H13.084V18H7.768ZM14.9572 18V16.884C14.9572 16.448 15.0272 16.084 15.1672 15.792C15.3112 15.5 15.5112 15.258 15.7672 15.066C16.0272 14.874 16.3332 14.708 16.6852 14.568L18.1732 13.98C18.5572 13.824 18.8452 13.624 19.0372 13.38C19.2292 13.136 19.3252 12.832 19.3252 12.468C19.3252 12.084 19.1912 11.77 18.9232 11.526C18.6592 11.282 18.2892 11.16 17.8132 11.16C17.3412 11.16 16.9532 11.262 16.6492 11.466C16.3492 11.666 16.1772 11.968 16.1332 12.372H15.0892C15.1172 11.936 15.2452 11.566 15.4732 11.262C15.7052 10.958 16.0192 10.728 16.4152 10.572C16.8112 10.412 17.2732 10.332 17.8012 10.332C18.2852 10.332 18.7192 10.426 19.1032 10.614C19.4872 10.802 19.7892 11.062 20.0092 11.394C20.2332 11.722 20.3452 12.1 20.3452 12.528C20.3452 12.916 20.2732 13.254 20.1292 13.542C19.9852 13.83 19.7792 14.078 19.5112 14.286C19.2472 14.494 18.9332 14.672 18.5692 14.82L17.0452 15.432C16.6612 15.58 16.3732 15.758 16.1812 15.966C15.9892 16.174 15.8932 16.444 15.8932 16.776V17.136H20.2732V18H14.9572Z" fill="white"/>
</svg>
