<svg width="29" height="29" viewBox="0 0 29 29" fill="none" xmlns="http://www.w3.org/2000/svg">
<rect width="20.3252" height="20.3252" rx="7" transform="matrix(-0.681998 -0.731354 -0.731354 0.681998 28.7266 14.8672)" fill="#333333"/>
<path d="M7.768 18V16.884C7.768 16.448 7.838 16.084 7.978 15.792C8.122 15.5 8.322 15.258 8.578 15.066C8.838 14.874 9.144 14.708 9.496 14.568L10.984 13.98C11.368 13.824 11.656 13.624 11.848 13.38C12.04 13.136 12.136 12.832 12.136 12.468C12.136 12.084 12.002 11.77 11.734 11.526C11.47 11.282 11.1 11.16 10.624 11.16C10.152 11.16 9.764 11.262 9.46 11.466C9.16 11.666 8.988 11.968 8.944 12.372H7.9C7.928 11.936 8.056 11.566 8.284 11.262C8.516 10.958 8.83 10.728 9.226 10.572C9.622 10.412 10.084 10.332 10.612 10.332C11.096 10.332 11.53 10.426 11.914 10.614C12.298 10.802 12.6 11.062 12.82 11.394C13.044 11.722 13.156 12.1 13.156 12.528C13.156 12.916 13.084 13.254 12.94 13.542C12.796 13.83 12.59 14.078 12.322 14.286C12.058 14.494 11.744 14.672 11.38 14.82L9.856 15.432C9.472 15.58 9.184 15.758 8.992 15.966C8.8 16.174 8.704 16.444 8.704 16.776V17.136H13.084V18H7.768ZM17.7532 18.144C17.3772 18.144 17.0132 18.092 16.6612 17.988C16.3132 17.88 15.9992 17.724 15.7192 17.52C15.4432 17.312 15.2252 17.056 15.0652 16.752C14.9052 16.448 14.8252 16.096 14.8252 15.696H15.7852C15.7932 16.04 15.8852 16.33 16.0612 16.566C16.2372 16.802 16.4712 16.98 16.7632 17.1C17.0592 17.22 17.3892 17.28 17.7532 17.28C18.3132 17.28 18.7472 17.144 19.0552 16.872C19.3632 16.6 19.5172 16.26 19.5172 15.852C19.5172 15.592 19.4532 15.362 19.3252 15.162C19.1972 14.962 18.9932 14.806 18.7132 14.694C18.4372 14.578 18.0732 14.52 17.6212 14.52H16.7692V13.776H17.3452C17.9292 13.776 18.3892 13.66 18.7252 13.428C19.0612 13.196 19.2292 12.876 19.2292 12.468C19.2292 12.108 19.0932 11.804 18.8212 11.556C18.5492 11.308 18.1612 11.184 17.6572 11.184C17.2692 11.184 16.9232 11.264 16.6192 11.424C16.3152 11.58 16.1092 11.868 16.0012 12.288H15.0412C15.1052 11.82 15.2572 11.442 15.4972 11.154C15.7372 10.866 16.0412 10.658 16.4092 10.53C16.7772 10.398 17.1852 10.332 17.6332 10.332C18.1332 10.332 18.5792 10.42 18.9712 10.596C19.3632 10.772 19.6712 11.014 19.8952 11.322C20.1232 11.63 20.2372 11.984 20.2372 12.384C20.2372 12.78 20.1232 13.12 19.8952 13.404C19.6712 13.684 19.3452 13.9 18.9172 14.052C19.3932 14.188 19.7812 14.412 20.0812 14.724C20.3852 15.036 20.5372 15.436 20.5372 15.924C20.5372 16.356 20.4232 16.74 20.1952 17.076C19.9712 17.408 19.6512 17.67 19.2352 17.862C18.8192 18.05 18.3252 18.144 17.7532 18.144Z" fill="white"/>
</svg>
