<svg width="29" height="29" viewBox="0 0 29 29" fill="none" xmlns="http://www.w3.org/2000/svg">
<rect width="20.3252" height="20.3252" rx="7" transform="matrix(-0.681998 -0.731354 -0.731354 0.681998 28.7266 14.8672)" fill="#333333"/>
<path d="M7.768 18V16.884C7.768 16.448 7.838 16.084 7.978 15.792C8.122 15.5 8.322 15.258 8.578 15.066C8.838 14.874 9.144 14.708 9.496 14.568L10.984 13.98C11.368 13.824 11.656 13.624 11.848 13.38C12.04 13.136 12.136 12.832 12.136 12.468C12.136 12.084 12.002 11.77 11.734 11.526C11.47 11.282 11.1 11.16 10.624 11.16C10.152 11.16 9.764 11.262 9.46 11.466C9.16 11.666 8.988 11.968 8.944 12.372H7.9C7.928 11.936 8.056 11.566 8.284 11.262C8.516 10.958 8.83 10.728 9.226 10.572C9.622 10.412 10.084 10.332 10.612 10.332C11.096 10.332 11.53 10.426 11.914 10.614C12.298 10.802 12.6 11.062 12.82 11.394C13.044 11.722 13.156 12.1 13.156 12.528C13.156 12.916 13.084 13.254 12.94 13.542C12.796 13.83 12.59 14.078 12.322 14.286C12.058 14.494 11.744 14.672 11.38 14.82L9.856 15.432C9.472 15.58 9.184 15.758 8.992 15.966C8.8 16.174 8.704 16.444 8.704 16.776V17.136H13.084V18H7.768ZM17.5732 18.144C17.0972 18.144 16.6632 18.058 16.2712 17.886C15.8792 17.714 15.5652 17.462 15.3292 17.13C15.0932 16.794 14.9732 16.384 14.9692 15.9H15.9052C15.9052 16.356 16.0652 16.7 16.3852 16.932C16.7092 17.164 17.1052 17.28 17.5732 17.28C18.1132 17.28 18.5372 17.116 18.8452 16.788C19.1572 16.456 19.3132 16.048 19.3132 15.564C19.3132 14.596 18.6892 14.112 17.4412 14.112H15.4252L15.7492 10.464H19.9252V11.316H16.5052L16.6972 10.992L16.4452 13.62L16.3252 13.512C16.5172 13.468 16.7352 13.438 16.9792 13.422C17.2232 13.402 17.4412 13.392 17.6332 13.392C18.4492 13.392 19.0952 13.574 19.5712 13.938C20.0472 14.302 20.2852 14.844 20.2852 15.564C20.2852 16.052 20.1752 16.492 19.9552 16.884C19.7352 17.272 19.4212 17.58 19.0132 17.808C18.6092 18.032 18.1292 18.144 17.5732 18.144Z" fill="white"/>
</svg>
