<svg width="29" height="29" viewBox="0 0 29 29" fill="none" xmlns="http://www.w3.org/2000/svg">
<rect width="20.3252" height="20.3252" rx="7" transform="matrix(-0.681998 -0.731354 -0.731354 0.681998 28.7266 14.8672)" fill="#333333"/>
<path d="M7.768 18V16.884C7.768 16.448 7.838 16.084 7.978 15.792C8.122 15.5 8.322 15.258 8.578 15.066C8.838 14.874 9.144 14.708 9.496 14.568L10.984 13.98C11.368 13.824 11.656 13.624 11.848 13.38C12.04 13.136 12.136 12.832 12.136 12.468C12.136 12.084 12.002 11.77 11.734 11.526C11.47 11.282 11.1 11.16 10.624 11.16C10.152 11.16 9.764 11.262 9.46 11.466C9.16 11.666 8.988 11.968 8.944 12.372H7.9C7.928 11.936 8.056 11.566 8.284 11.262C8.516 10.958 8.83 10.728 9.226 10.572C9.622 10.412 10.084 10.332 10.612 10.332C11.096 10.332 11.53 10.426 11.914 10.614C12.298 10.802 12.6 11.062 12.82 11.394C13.044 11.722 13.156 12.1 13.156 12.528C13.156 12.916 13.084 13.254 12.94 13.542C12.796 13.83 12.59 14.078 12.322 14.286C12.058 14.494 11.744 14.672 11.38 14.82L9.856 15.432C9.472 15.58 9.184 15.758 8.992 15.966C8.8 16.174 8.704 16.444 8.704 16.776V17.136H13.084V18H7.768ZM17.8012 18.144C17.1972 18.144 16.6692 17.978 16.2172 17.646C15.7692 17.314 15.4212 16.864 15.1732 16.296C14.9252 15.724 14.8012 15.08 14.8012 14.364C14.8012 13.52 14.9272 12.798 15.1792 12.198C15.4312 11.594 15.7912 11.132 16.2592 10.812C16.7272 10.492 17.2852 10.332 17.9332 10.332C18.3812 10.332 18.7752 10.418 19.1152 10.59C19.4592 10.758 19.7332 10.994 19.9372 11.298C20.1452 11.602 20.2692 11.956 20.3092 12.36H19.2892C19.2292 12 19.0932 11.714 18.8812 11.502C18.6692 11.29 18.3612 11.184 17.9572 11.184C17.2692 11.184 16.7292 11.482 16.3372 12.078C15.9452 12.67 15.7492 13.48 15.7492 14.508C15.7492 14.656 15.7532 14.828 15.7612 15.024C15.7692 15.216 15.7852 15.396 15.8092 15.564C15.8452 15.032 15.9672 14.614 16.1752 14.31C16.3872 14.002 16.6512 13.784 16.9672 13.656C17.2832 13.528 17.6172 13.464 17.9692 13.464C18.4252 13.464 18.8332 13.564 19.1932 13.764C19.5572 13.964 19.8432 14.242 20.0512 14.598C20.2632 14.95 20.3692 15.356 20.3692 15.816C20.3692 16.28 20.2612 16.688 20.0452 17.04C19.8292 17.388 19.5272 17.66 19.1392 17.856C18.7552 18.048 18.3092 18.144 17.8012 18.144ZM17.8012 17.28C18.2572 17.28 18.6352 17.146 18.9352 16.878C19.2352 16.61 19.3852 16.248 19.3852 15.792C19.3852 15.324 19.2352 14.958 18.9352 14.694C18.6352 14.426 18.2572 14.292 17.8012 14.292C17.5012 14.292 17.2332 14.358 16.9972 14.49C16.7612 14.618 16.5732 14.796 16.4332 15.024C16.2972 15.248 16.2292 15.504 16.2292 15.792C16.2292 16.248 16.3792 16.61 16.6792 16.878C16.9792 17.146 17.3532 17.28 17.8012 17.28Z" fill="white"/>
</svg>
