<svg width="29" height="29" viewBox="0 0 29 29" fill="none" xmlns="http://www.w3.org/2000/svg">
<rect width="20.3252" height="20.3252" rx="7" transform="matrix(-0.681998 -0.731354 -0.731354 0.681998 28.7266 14.8672)" fill="#333333"/>
<path d="M8.768 18V16.884C8.768 16.448 8.838 16.084 8.978 15.792C9.122 15.5 9.322 15.258 9.578 15.066C9.838 14.874 10.144 14.708 10.496 14.568L11.984 13.98C12.368 13.824 12.656 13.624 12.848 13.38C13.04 13.136 13.136 12.832 13.136 12.468C13.136 12.084 13.002 11.77 12.734 11.526C12.47 11.282 12.1 11.16 11.624 11.16C11.152 11.16 10.764 11.262 10.46 11.466C10.16 11.666 9.988 11.968 9.944 12.372H8.9C8.928 11.936 9.056 11.566 9.284 11.262C9.516 10.958 9.83 10.728 10.226 10.572C10.622 10.412 11.084 10.332 11.612 10.332C12.096 10.332 12.53 10.426 12.914 10.614C13.298 10.802 13.6 11.062 13.82 11.394C14.044 11.722 14.156 12.1 14.156 12.528C14.156 12.916 14.084 13.254 13.94 13.542C13.796 13.83 13.59 14.078 13.322 14.286C13.058 14.494 12.744 14.672 12.38 14.82L10.856 15.432C10.472 15.58 10.184 15.758 9.992 15.966C9.8 16.174 9.704 16.444 9.704 16.776V17.136H14.084V18H8.768ZM15.8972 18L19.5092 11.352H15.4772V10.464H20.6132V11.328L17.1452 18H15.8972Z" fill="white"/>
</svg>
