<svg width="29" height="29" viewBox="0 0 29 29" fill="none" xmlns="http://www.w3.org/2000/svg">
<rect width="20.3252" height="20.3252" rx="7" transform="matrix(-0.681998 -0.731354 -0.731354 0.681998 28.7266 14.8672)" fill="#333333"/>
<path d="M7.768 18V16.884C7.768 16.448 7.838 16.084 7.978 15.792C8.122 15.5 8.322 15.258 8.578 15.066C8.838 14.874 9.144 14.708 9.496 14.568L10.984 13.98C11.368 13.824 11.656 13.624 11.848 13.38C12.04 13.136 12.136 12.832 12.136 12.468C12.136 12.084 12.002 11.77 11.734 11.526C11.47 11.282 11.1 11.16 10.624 11.16C10.152 11.16 9.764 11.262 9.46 11.466C9.16 11.666 8.988 11.968 8.944 12.372H7.9C7.928 11.936 8.056 11.566 8.284 11.262C8.516 10.958 8.83 10.728 9.226 10.572C9.622 10.412 10.084 10.332 10.612 10.332C11.096 10.332 11.53 10.426 11.914 10.614C12.298 10.802 12.6 11.062 12.82 11.394C13.044 11.722 13.156 12.1 13.156 12.528C13.156 12.916 13.084 13.254 12.94 13.542C12.796 13.83 12.59 14.078 12.322 14.286C12.058 14.494 11.744 14.672 11.38 14.82L9.856 15.432C9.472 15.58 9.184 15.758 8.992 15.966C8.8 16.174 8.704 16.444 8.704 16.776V17.136H13.084V18H7.768ZM17.8732 18.144C17.2812 18.144 16.7572 18.05 16.3012 17.862C15.8492 17.674 15.4932 17.416 15.2332 17.088C14.9772 16.76 14.8492 16.388 14.8492 15.972C14.8492 15.592 14.9472 15.266 15.1432 14.994C15.3432 14.722 15.6152 14.514 15.9592 14.37C16.3072 14.222 16.7012 14.148 17.1412 14.148C17.2572 14.148 17.3692 14.154 17.4772 14.166C17.5852 14.178 17.7012 14.2 17.8252 14.232V14.508C17.4252 14.508 17.0752 14.574 16.7752 14.706C16.4752 14.834 16.2412 15.004 16.0732 15.216C15.9052 15.428 15.8212 15.656 15.8212 15.9C15.8212 16.196 15.9112 16.448 16.0912 16.656C16.2712 16.86 16.5152 17.016 16.8232 17.124C17.1352 17.228 17.4852 17.28 17.8732 17.28C18.5212 17.28 19.0252 17.176 19.3852 16.968C19.7452 16.76 19.9252 16.488 19.9252 16.152C19.9252 15.88 19.8292 15.656 19.6372 15.48C19.4492 15.304 19.1892 15.156 18.8572 15.036L16.7812 14.244C16.5292 14.148 16.2732 14.016 16.0132 13.848C15.7572 13.68 15.5412 13.47 15.3652 13.218C15.1892 12.966 15.1012 12.668 15.1012 12.324C15.1012 11.936 15.2112 11.592 15.4312 11.292C15.6512 10.992 15.9672 10.758 16.3792 10.59C16.7952 10.418 17.2932 10.332 17.8732 10.332C18.4052 10.332 18.8772 10.424 19.2892 10.608C19.7052 10.788 20.0312 11.036 20.2672 11.352C20.5032 11.664 20.6212 12.02 20.6212 12.42C20.6212 12.732 20.5412 13.022 20.3812 13.29C20.2252 13.554 19.9932 13.768 19.6852 13.932C19.3812 14.092 19.0052 14.172 18.5572 14.172C18.4492 14.172 18.3452 14.166 18.2452 14.154C18.1492 14.138 18.0412 14.112 17.9212 14.076V13.776C18.2452 13.776 18.5372 13.722 18.7972 13.614C19.0572 13.502 19.2632 13.348 19.4152 13.152C19.5712 12.956 19.6492 12.728 19.6492 12.468C19.6492 12.22 19.5732 12 19.4212 11.808C19.2732 11.612 19.0652 11.46 18.7972 11.352C18.5332 11.24 18.2252 11.184 17.8732 11.184C17.5332 11.184 17.2272 11.238 16.9552 11.346C16.6872 11.45 16.4752 11.592 16.3192 11.772C16.1632 11.948 16.0852 12.144 16.0852 12.36C16.0852 12.628 16.1752 12.844 16.3552 13.008C16.5392 13.168 16.7932 13.308 17.1172 13.428L19.1932 14.22C19.7452 14.428 20.1692 14.674 20.4652 14.958C20.7612 15.242 20.9092 15.628 20.9092 16.116C20.9092 16.512 20.7892 16.864 20.5492 17.172C20.3092 17.476 19.9632 17.714 19.5112 17.886C19.0592 18.058 18.5132 18.144 17.8732 18.144Z" fill="white"/>
</svg>
