<svg width="29" height="29" viewBox="0 0 29 29" fill="none" xmlns="http://www.w3.org/2000/svg">
<rect width="20.3252" height="20.3252" rx="7" transform="matrix(-0.681998 -0.731354 -0.731354 0.681998 28.7266 14.8672)" fill="#333333"/>
<path d="M7.768 18V16.884C7.768 16.448 7.838 16.084 7.978 15.792C8.122 15.5 8.322 15.258 8.578 15.066C8.838 14.874 9.144 14.708 9.496 14.568L10.984 13.98C11.368 13.824 11.656 13.624 11.848 13.38C12.04 13.136 12.136 12.832 12.136 12.468C12.136 12.084 12.002 11.77 11.734 11.526C11.47 11.282 11.1 11.16 10.624 11.16C10.152 11.16 9.764 11.262 9.46 11.466C9.16 11.666 8.988 11.968 8.944 12.372H7.9C7.928 11.936 8.056 11.566 8.284 11.262C8.516 10.958 8.83 10.728 9.226 10.572C9.622 10.412 10.084 10.332 10.612 10.332C11.096 10.332 11.53 10.426 11.914 10.614C12.298 10.802 12.6 11.062 12.82 11.394C13.044 11.722 13.156 12.1 13.156 12.528C13.156 12.916 13.084 13.254 12.94 13.542C12.796 13.83 12.59 14.078 12.322 14.286C12.058 14.494 11.744 14.672 11.38 14.82L9.856 15.432C9.472 15.58 9.184 15.758 8.992 15.966C8.8 16.174 8.704 16.444 8.704 16.776V17.136H13.084V18H7.768ZM17.5972 18.144C17.1012 18.144 16.6592 18.042 16.2712 17.838C15.8872 17.634 15.5832 17.354 15.3592 16.998C15.1392 16.638 15.0292 16.228 15.0292 15.768H16.0012C16.0132 16.228 16.1572 16.596 16.4332 16.872C16.7132 17.144 17.0932 17.28 17.5732 17.28C18.0452 17.28 18.4272 17.144 18.7192 16.872C19.0152 16.6 19.2312 16.216 19.3672 15.72C19.5072 15.22 19.5772 14.632 19.5772 13.956C19.5772 13.8 19.5732 13.656 19.5652 13.524C19.5572 13.388 19.5412 13.236 19.5172 13.068C19.4652 13.5 19.3412 13.86 19.1452 14.148C18.9492 14.432 18.6972 14.646 18.3892 14.79C18.0852 14.93 17.7412 15 17.3572 15C16.9092 15 16.5052 14.9 16.1452 14.7C15.7892 14.496 15.5052 14.218 15.2932 13.866C15.0852 13.51 14.9812 13.104 14.9812 12.648C14.9812 12.18 15.0872 11.772 15.2992 11.424C15.5152 11.076 15.8152 10.808 16.1992 10.62C16.5832 10.428 17.0292 10.332 17.5372 10.332C17.9692 10.332 18.3672 10.42 18.7312 10.596C19.0992 10.772 19.4172 11.026 19.6852 11.358C19.9532 11.686 20.1612 12.08 20.3092 12.54C20.4612 13 20.5372 13.516 20.5372 14.088C20.5372 14.916 20.4312 15.634 20.2192 16.242C20.0112 16.85 19.6892 17.32 19.2532 17.652C18.8212 17.98 18.2692 18.144 17.5972 18.144ZM17.5372 14.172C17.8332 14.172 18.1012 14.106 18.3412 13.974C18.5812 13.842 18.7712 13.664 18.9112 13.44C19.0512 13.216 19.1212 12.964 19.1212 12.684C19.1212 12.22 18.9672 11.854 18.6592 11.586C18.3552 11.318 17.9812 11.184 17.5372 11.184C17.0812 11.184 16.7032 11.318 16.4032 11.586C16.1032 11.854 15.9532 12.22 15.9532 12.684C15.9532 13.144 16.1032 13.508 16.4032 13.776C16.7032 14.04 17.0812 14.172 17.5372 14.172Z" fill="white"/>
</svg>
