<svg width="29" height="29" viewBox="0 0 29 29" fill="none" xmlns="http://www.w3.org/2000/svg">
<rect width="20.3252" height="20.3252" rx="7" transform="matrix(-0.681998 -0.731354 -0.731354 0.681998 28.7266 14.8672)" fill="#333333"/>
<path d="M12.564 18.144C12.188 18.144 11.824 18.092 11.472 17.988C11.124 17.88 10.81 17.724 10.53 17.52C10.254 17.312 10.036 17.056 9.876 16.752C9.716 16.448 9.636 16.096 9.636 15.696H10.596C10.604 16.04 10.696 16.33 10.872 16.566C11.048 16.802 11.282 16.98 11.574 17.1C11.87 17.22 12.2 17.28 12.564 17.28C13.124 17.28 13.558 17.144 13.866 16.872C14.174 16.6 14.328 16.26 14.328 15.852C14.328 15.592 14.264 15.362 14.136 15.162C14.008 14.962 13.804 14.806 13.524 14.694C13.248 14.578 12.884 14.52 12.432 14.52H11.58V13.776H12.156C12.74 13.776 13.2 13.66 13.536 13.428C13.872 13.196 14.04 12.876 14.04 12.468C14.04 12.108 13.904 11.804 13.632 11.556C13.36 11.308 12.972 11.184 12.468 11.184C12.08 11.184 11.734 11.264 11.43 11.424C11.126 11.58 10.92 11.868 10.812 12.288H9.852C9.916 11.82 10.068 11.442 10.308 11.154C10.548 10.866 10.852 10.658 11.22 10.53C11.588 10.398 11.996 10.332 12.444 10.332C12.944 10.332 13.39 10.42 13.782 10.596C14.174 10.772 14.482 11.014 14.706 11.322C14.934 11.63 15.048 11.984 15.048 12.384C15.048 12.78 14.934 13.12 14.706 13.404C14.482 13.684 14.156 13.9 13.728 14.052C14.204 14.188 14.592 14.412 14.892 14.724C15.196 15.036 15.348 15.436 15.348 15.924C15.348 16.356 15.234 16.74 15.006 17.076C14.782 17.408 14.462 17.67 14.046 17.862C13.63 18.05 13.136 18.144 12.564 18.144ZM18.3218 10.44H19.0778V18H18.1418V11.544C17.9498 11.676 17.7478 11.778 17.5358 11.85C17.3278 11.918 17.1178 11.956 16.9058 11.964V11.052C17.1578 11.016 17.4018 10.95 17.6378 10.854C17.8778 10.758 18.1058 10.62 18.3218 10.44Z" fill="white"/>
</svg>
