<svg width="29" height="29" viewBox="0 0 29 29" fill="none" xmlns="http://www.w3.org/2000/svg">
<rect width="20.3252" height="20.3252" rx="7" transform="matrix(-0.681998 -0.731354 -0.731354 0.681998 28.7266 14.8672)" fill="#333333"/>
<path d="M11.564 18.144C11.188 18.144 10.824 18.092 10.472 17.988C10.124 17.88 9.81 17.724 9.53 17.52C9.254 17.312 9.036 17.056 8.876 16.752C8.716 16.448 8.636 16.096 8.636 15.696H9.596C9.604 16.04 9.696 16.33 9.872 16.566C10.048 16.802 10.282 16.98 10.574 17.1C10.87 17.22 11.2 17.28 11.564 17.28C12.124 17.28 12.558 17.144 12.866 16.872C13.174 16.6 13.328 16.26 13.328 15.852C13.328 15.592 13.264 15.362 13.136 15.162C13.008 14.962 12.804 14.806 12.524 14.694C12.248 14.578 11.884 14.52 11.432 14.52H10.58V13.776H11.156C11.74 13.776 12.2 13.66 12.536 13.428C12.872 13.196 13.04 12.876 13.04 12.468C13.04 12.108 12.904 11.804 12.632 11.556C12.36 11.308 11.972 11.184 11.468 11.184C11.08 11.184 10.734 11.264 10.43 11.424C10.126 11.58 9.92 11.868 9.812 12.288H8.852C8.916 11.82 9.068 11.442 9.308 11.154C9.548 10.866 9.852 10.658 10.22 10.53C10.588 10.398 10.996 10.332 11.444 10.332C11.944 10.332 12.39 10.42 12.782 10.596C13.174 10.772 13.482 11.014 13.706 11.322C13.934 11.63 14.048 11.984 14.048 12.384C14.048 12.78 13.934 13.12 13.706 13.404C13.482 13.684 13.156 13.9 12.728 14.052C13.204 14.188 13.592 14.412 13.892 14.724C14.196 15.036 14.348 15.436 14.348 15.924C14.348 16.356 14.234 16.74 14.006 17.076C13.782 17.408 13.462 17.67 13.046 17.862C12.63 18.05 12.136 18.144 11.564 18.144ZM16.0978 18V16.884C16.0978 16.448 16.1678 16.084 16.3078 15.792C16.4518 15.5 16.6518 15.258 16.9078 15.066C17.1678 14.874 17.4738 14.708 17.8258 14.568L19.3138 13.98C19.6978 13.824 19.9858 13.624 20.1778 13.38C20.3698 13.136 20.4658 12.832 20.4658 12.468C20.4658 12.084 20.3318 11.77 20.0638 11.526C19.7998 11.282 19.4298 11.16 18.9538 11.16C18.4818 11.16 18.0938 11.262 17.7898 11.466C17.4898 11.666 17.3178 11.968 17.2738 12.372H16.2298C16.2578 11.936 16.3858 11.566 16.6138 11.262C16.8458 10.958 17.1598 10.728 17.5558 10.572C17.9518 10.412 18.4138 10.332 18.9418 10.332C19.4258 10.332 19.8598 10.426 20.2438 10.614C20.6278 10.802 20.9298 11.062 21.1498 11.394C21.3738 11.722 21.4858 12.1 21.4858 12.528C21.4858 12.916 21.4138 13.254 21.2698 13.542C21.1258 13.83 20.9198 14.078 20.6518 14.286C20.3878 14.494 20.0738 14.672 19.7098 14.82L18.1858 15.432C17.8018 15.58 17.5138 15.758 17.3218 15.966C17.1298 16.174 17.0338 16.444 17.0338 16.776V17.136H21.4138V18H16.0978Z" fill="white"/>
</svg>
