<svg width="29" height="29" viewBox="0 0 29 29" fill="none" xmlns="http://www.w3.org/2000/svg">
<rect x="0.000152588" y="14.8672" width="20.3252" height="20.3252" rx="7" transform="rotate(-47 0.000152588 14.8672)" fill="#333333"/>
<path d="M11.2907 18.144C10.9147 18.144 10.5507 18.092 10.1987 17.988C9.85072 17.88 9.53672 17.724 9.25672 17.52C8.98072 17.312 8.76272 17.056 8.60272 16.752C8.44272 16.448 8.36272 16.096 8.36272 15.696H9.32272C9.33072 16.04 9.42272 16.33 9.59872 16.566C9.77472 16.802 10.0087 16.98 10.3007 17.1C10.5967 17.22 10.9267 17.28 11.2907 17.28C11.8507 17.28 12.2847 17.144 12.5927 16.872C12.9007 16.6 13.0547 16.26 13.0547 15.852C13.0547 15.592 12.9907 15.362 12.8627 15.162C12.7347 14.962 12.5307 14.806 12.2507 14.694C11.9747 14.578 11.6107 14.52 11.1587 14.52H10.3067L10.3067 13.776H10.8827C11.4667 13.776 11.9267 13.66 12.2627 13.428C12.5987 13.196 12.7667 12.876 12.7667 12.468C12.7667 12.108 12.6307 11.804 12.3587 11.556C12.0867 11.308 11.6987 11.184 11.1947 11.184C10.8067 11.184 10.4607 11.264 10.1567 11.424C9.85272 11.58 9.64672 11.868 9.53872 12.288H8.57872C8.64272 11.82 8.79472 11.442 9.03472 11.154C9.27472 10.866 9.57872 10.658 9.94672 10.53C10.3147 10.398 10.7227 10.332 11.1707 10.332C11.6707 10.332 12.1167 10.42 12.5087 10.596C12.9007 10.772 13.2087 11.014 13.4327 11.322C13.6607 11.63 13.7747 11.984 13.7747 12.384C13.7747 12.78 13.6607 13.12 13.4327 13.404C13.2087 13.684 12.8827 13.9 12.4547 14.052C12.9307 14.188 13.3187 14.412 13.6187 14.724C13.9227 15.036 14.0747 15.436 14.0747 15.924C14.0747 16.356 13.9607 16.74 13.7327 17.076C13.5087 17.408 13.1887 17.67 12.7727 17.862C12.3567 18.05 11.8627 18.144 11.2907 18.144ZM18.6206 18.144C18.2446 18.144 17.8806 18.092 17.5286 17.988C17.1806 17.88 16.8666 17.724 16.5866 17.52C16.3106 17.312 16.0926 17.056 15.9326 16.752C15.7726 16.448 15.6926 16.096 15.6926 15.696H16.6526C16.6606 16.04 16.7526 16.33 16.9286 16.566C17.1046 16.802 17.3386 16.98 17.6306 17.1C17.9266 17.22 18.2566 17.28 18.6206 17.28C19.1806 17.28 19.6146 17.144 19.9226 16.872C20.2306 16.6 20.3846 16.26 20.3846 15.852C20.3846 15.592 20.3206 15.362 20.1926 15.162C20.0646 14.962 19.8606 14.806 19.5806 14.694C19.3046 14.578 18.9406 14.52 18.4886 14.52H17.6366V13.776H18.2126C18.7966 13.776 19.2566 13.66 19.5926 13.428C19.9286 13.196 20.0966 12.876 20.0966 12.468C20.0966 12.108 19.9606 11.804 19.6886 11.556C19.4166 11.308 19.0286 11.184 18.5246 11.184C18.1366 11.184 17.7906 11.264 17.4866 11.424C17.1826 11.58 16.9766 11.868 16.8686 12.288H15.9086C15.9726 11.82 16.1246 11.442 16.3646 11.154C16.6046 10.866 16.9086 10.658 17.2766 10.53C17.6446 10.398 18.0526 10.332 18.5006 10.332C19.0006 10.332 19.4466 10.42 19.8386 10.596C20.2306 10.772 20.5386 11.014 20.7626 11.322C20.9906 11.63 21.1046 11.984 21.1046 12.384C21.1046 12.78 20.9906 13.12 20.7626 13.404C20.5386 13.684 20.2126 13.9 19.7846 14.052C20.2606 14.188 20.6486 14.412 20.9486 14.724C21.2526 15.036 21.4046 15.436 21.4046 15.924C21.4046 16.356 21.2906 16.74 21.0626 17.076C20.8386 17.408 20.5186 17.67 20.1026 17.862C19.6866 18.05 19.1926 18.144 18.6206 18.144Z" fill="white"/>
</svg>
