<svg width="29" height="29" viewBox="0 0 29 29" fill="none" xmlns="http://www.w3.org/2000/svg">
<rect width="20.3252" height="20.3252" rx="7" transform="matrix(-0.681998 -0.731354 -0.731354 0.681998 28.7266 14.8672)" fill="#333333"/>
<path d="M10.564 18.144C10.188 18.144 9.824 18.092 9.472 17.988C9.124 17.88 8.81 17.724 8.53 17.52C8.254 17.312 8.036 17.056 7.876 16.752C7.716 16.448 7.636 16.096 7.636 15.696H8.596C8.604 16.04 8.696 16.33 8.872 16.566C9.048 16.802 9.282 16.98 9.574 17.1C9.87 17.22 10.2 17.28 10.564 17.28C11.124 17.28 11.558 17.144 11.866 16.872C12.174 16.6 12.328 16.26 12.328 15.852C12.328 15.592 12.264 15.362 12.136 15.162C12.008 14.962 11.804 14.806 11.524 14.694C11.248 14.578 10.884 14.52 10.432 14.52H9.58V13.776H10.156C10.74 13.776 11.2 13.66 11.536 13.428C11.872 13.196 12.04 12.876 12.04 12.468C12.04 12.108 11.904 11.804 11.632 11.556C11.36 11.308 10.972 11.184 10.468 11.184C10.08 11.184 9.734 11.264 9.43 11.424C9.126 11.58 8.92 11.868 8.812 12.288H7.852C7.916 11.82 8.068 11.442 8.308 11.154C8.548 10.866 8.852 10.658 9.22 10.53C9.588 10.398 9.996 10.332 10.444 10.332C10.944 10.332 11.39 10.42 11.782 10.596C12.174 10.772 12.482 11.014 12.706 11.322C12.934 11.63 13.048 11.984 13.048 12.384C13.048 12.78 12.934 13.12 12.706 13.404C12.482 13.684 12.156 13.9 11.728 14.052C12.204 14.188 12.592 14.412 12.892 14.724C13.196 15.036 13.348 15.436 13.348 15.924C13.348 16.356 13.234 16.74 13.006 17.076C12.782 17.408 12.462 17.67 12.046 17.862C11.63 18.05 11.136 18.144 10.564 18.144ZM17.7138 18.144C17.2378 18.144 16.8038 18.058 16.4118 17.886C16.0198 17.714 15.7058 17.462 15.4698 17.13C15.2338 16.794 15.1138 16.384 15.1098 15.9H16.0458C16.0458 16.356 16.2058 16.7 16.5258 16.932C16.8498 17.164 17.2458 17.28 17.7138 17.28C18.2538 17.28 18.6778 17.116 18.9858 16.788C19.2978 16.456 19.4538 16.048 19.4538 15.564C19.4538 14.596 18.8298 14.112 17.5818 14.112H15.5658L15.8898 10.464H20.0658V11.316H16.6458L16.8378 10.992L16.5858 13.62L16.4658 13.512C16.6578 13.468 16.8758 13.438 17.1198 13.422C17.3638 13.402 17.5818 13.392 17.7738 13.392C18.5898 13.392 19.2358 13.574 19.7118 13.938C20.1878 14.302 20.4258 14.844 20.4258 15.564C20.4258 16.052 20.3158 16.492 20.0958 16.884C19.8758 17.272 19.5618 17.58 19.1538 17.808C18.7498 18.032 18.2698 18.144 17.7138 18.144Z" fill="white"/>
</svg>
