<svg width="29" height="29" viewBox="0 0 29 29" fill="none" xmlns="http://www.w3.org/2000/svg">
<rect width="20.3252" height="20.3252" rx="7" transform="matrix(-0.681998 -0.731354 -0.731354 0.681998 28.7266 14.8672)" fill="#333333"/>
<path d="M11.564 18.144C11.188 18.144 10.824 18.092 10.472 17.988C10.124 17.88 9.81 17.724 9.53 17.52C9.254 17.312 9.036 17.056 8.876 16.752C8.716 16.448 8.636 16.096 8.636 15.696H9.596C9.604 16.04 9.696 16.33 9.872 16.566C10.048 16.802 10.282 16.98 10.574 17.1C10.87 17.22 11.2 17.28 11.564 17.28C12.124 17.28 12.558 17.144 12.866 16.872C13.174 16.6 13.328 16.26 13.328 15.852C13.328 15.592 13.264 15.362 13.136 15.162C13.008 14.962 12.804 14.806 12.524 14.694C12.248 14.578 11.884 14.52 11.432 14.52H10.58V13.776H11.156C11.74 13.776 12.2 13.66 12.536 13.428C12.872 13.196 13.04 12.876 13.04 12.468C13.04 12.108 12.904 11.804 12.632 11.556C12.36 11.308 11.972 11.184 11.468 11.184C11.08 11.184 10.734 11.264 10.43 11.424C10.126 11.58 9.92 11.868 9.812 12.288H8.852C8.916 11.82 9.068 11.442 9.308 11.154C9.548 10.866 9.852 10.658 10.22 10.53C10.588 10.398 10.996 10.332 11.444 10.332C11.944 10.332 12.39 10.42 12.782 10.596C13.174 10.772 13.482 11.014 13.706 11.322C13.934 11.63 14.048 11.984 14.048 12.384C14.048 12.78 13.934 13.12 13.706 13.404C13.482 13.684 13.156 13.9 12.728 14.052C13.204 14.188 13.592 14.412 13.892 14.724C14.196 15.036 14.348 15.436 14.348 15.924C14.348 16.356 14.234 16.74 14.006 17.076C13.782 17.408 13.462 17.67 13.046 17.862C12.63 18.05 12.136 18.144 11.564 18.144ZM18.9418 18.144C18.3378 18.144 17.8098 17.978 17.3578 17.646C16.9098 17.314 16.5618 16.864 16.3138 16.296C16.0658 15.724 15.9418 15.08 15.9418 14.364C15.9418 13.52 16.0678 12.798 16.3198 12.198C16.5718 11.594 16.9318 11.132 17.3998 10.812C17.8678 10.492 18.4258 10.332 19.0738 10.332C19.5218 10.332 19.9158 10.418 20.2558 10.59C20.5998 10.758 20.8738 10.994 21.0778 11.298C21.2858 11.602 21.4098 11.956 21.4498 12.36H20.4298C20.3698 12 20.2338 11.714 20.0218 11.502C19.8098 11.29 19.5018 11.184 19.0978 11.184C18.4098 11.184 17.8698 11.482 17.4778 12.078C17.0858 12.67 16.8898 13.48 16.8898 14.508C16.8898 14.656 16.8938 14.828 16.9018 15.024C16.9098 15.216 16.9258 15.396 16.9498 15.564C16.9858 15.032 17.1078 14.614 17.3158 14.31C17.5278 14.002 17.7918 13.784 18.1078 13.656C18.4238 13.528 18.7578 13.464 19.1098 13.464C19.5658 13.464 19.9738 13.564 20.3338 13.764C20.6978 13.964 20.9838 14.242 21.1918 14.598C21.4038 14.95 21.5098 15.356 21.5098 15.816C21.5098 16.28 21.4018 16.688 21.1858 17.04C20.9698 17.388 20.6678 17.66 20.2798 17.856C19.8958 18.048 19.4498 18.144 18.9418 18.144ZM18.9418 17.28C19.3978 17.28 19.7758 17.146 20.0758 16.878C20.3758 16.61 20.5258 16.248 20.5258 15.792C20.5258 15.324 20.3758 14.958 20.0758 14.694C19.7758 14.426 19.3978 14.292 18.9418 14.292C18.6418 14.292 18.3738 14.358 18.1378 14.49C17.9018 14.618 17.7138 14.796 17.5738 15.024C17.4378 15.248 17.3698 15.504 17.3698 15.792C17.3698 16.248 17.5198 16.61 17.8198 16.878C18.1198 17.146 18.4938 17.28 18.9418 17.28Z" fill="white"/>
</svg>
