<svg width="29" height="29" viewBox="0 0 29 29" fill="none" xmlns="http://www.w3.org/2000/svg">
<rect width="20.3252" height="20.3252" rx="7" transform="matrix(-0.681998 -0.731354 -0.731354 0.681998 28.7266 14.8672)" fill="#333333"/>
<path d="M10.564 18.144C10.188 18.144 9.824 18.092 9.472 17.988C9.124 17.88 8.81 17.724 8.53 17.52C8.254 17.312 8.036 17.056 7.876 16.752C7.716 16.448 7.636 16.096 7.636 15.696H8.596C8.604 16.04 8.696 16.33 8.872 16.566C9.048 16.802 9.282 16.98 9.574 17.1C9.87 17.22 10.2 17.28 10.564 17.28C11.124 17.28 11.558 17.144 11.866 16.872C12.174 16.6 12.328 16.26 12.328 15.852C12.328 15.592 12.264 15.362 12.136 15.162C12.008 14.962 11.804 14.806 11.524 14.694C11.248 14.578 10.884 14.52 10.432 14.52H9.58V13.776H10.156C10.74 13.776 11.2 13.66 11.536 13.428C11.872 13.196 12.04 12.876 12.04 12.468C12.04 12.108 11.904 11.804 11.632 11.556C11.36 11.308 10.972 11.184 10.468 11.184C10.08 11.184 9.734 11.264 9.43 11.424C9.126 11.58 8.92 11.868 8.812 12.288H7.852C7.916 11.82 8.068 11.442 8.308 11.154C8.548 10.866 8.852 10.658 9.22 10.53C9.588 10.398 9.996 10.332 10.444 10.332C10.944 10.332 11.39 10.42 11.782 10.596C12.174 10.772 12.482 11.014 12.706 11.322C12.934 11.63 13.048 11.984 13.048 12.384C13.048 12.78 12.934 13.12 12.706 13.404C12.482 13.684 12.156 13.9 11.728 14.052C12.204 14.188 12.592 14.412 12.892 14.724C13.196 15.036 13.348 15.436 13.348 15.924C13.348 16.356 13.234 16.74 13.006 17.076C12.782 17.408 12.462 17.67 12.046 17.862C11.63 18.05 11.136 18.144 10.564 18.144ZM18.0138 18.144C17.4218 18.144 16.8978 18.05 16.4418 17.862C15.9898 17.674 15.6338 17.416 15.3738 17.088C15.1178 16.76 14.9898 16.388 14.9898 15.972C14.9898 15.592 15.0878 15.266 15.2838 14.994C15.4838 14.722 15.7558 14.514 16.0998 14.37C16.4478 14.222 16.8418 14.148 17.2818 14.148C17.3978 14.148 17.5098 14.154 17.6178 14.166C17.7258 14.178 17.8418 14.2 17.9658 14.232V14.508C17.5658 14.508 17.2158 14.574 16.9158 14.706C16.6158 14.834 16.3818 15.004 16.2138 15.216C16.0458 15.428 15.9618 15.656 15.9618 15.9C15.9618 16.196 16.0518 16.448 16.2318 16.656C16.4118 16.86 16.6558 17.016 16.9638 17.124C17.2758 17.228 17.6258 17.28 18.0138 17.28C18.6618 17.28 19.1658 17.176 19.5258 16.968C19.8858 16.76 20.0658 16.488 20.0658 16.152C20.0658 15.88 19.9698 15.656 19.7778 15.48C19.5898 15.304 19.3298 15.156 18.9978 15.036L16.9218 14.244C16.6698 14.148 16.4138 14.016 16.1538 13.848C15.8978 13.68 15.6818 13.47 15.5058 13.218C15.3298 12.966 15.2418 12.668 15.2418 12.324C15.2418 11.936 15.3518 11.592 15.5718 11.292C15.7918 10.992 16.1078 10.758 16.5198 10.59C16.9358 10.418 17.4338 10.332 18.0138 10.332C18.5458 10.332 19.0178 10.424 19.4298 10.608C19.8458 10.788 20.1718 11.036 20.4078 11.352C20.6438 11.664 20.7618 12.02 20.7618 12.42C20.7618 12.732 20.6818 13.022 20.5218 13.29C20.3658 13.554 20.1338 13.768 19.8258 13.932C19.5218 14.092 19.1458 14.172 18.6978 14.172C18.5898 14.172 18.4858 14.166 18.3858 14.154C18.2898 14.138 18.1818 14.112 18.0618 14.076V13.776C18.3858 13.776 18.6778 13.722 18.9378 13.614C19.1978 13.502 19.4038 13.348 19.5558 13.152C19.7118 12.956 19.7898 12.728 19.7898 12.468C19.7898 12.22 19.7138 12 19.5618 11.808C19.4138 11.612 19.2058 11.46 18.9378 11.352C18.6738 11.24 18.3658 11.184 18.0138 11.184C17.6738 11.184 17.3678 11.238 17.0958 11.346C16.8278 11.45 16.6158 11.592 16.4598 11.772C16.3038 11.948 16.2258 12.144 16.2258 12.36C16.2258 12.628 16.3158 12.844 16.4958 13.008C16.6798 13.168 16.9338 13.308 17.2578 13.428L19.3338 14.22C19.8858 14.428 20.3098 14.674 20.6058 14.958C20.9018 15.242 21.0498 15.628 21.0498 16.116C21.0498 16.512 20.9298 16.864 20.6898 17.172C20.4498 17.476 20.1038 17.714 19.6518 17.886C19.1998 18.058 18.6538 18.144 18.0138 18.144Z" fill="white"/>
</svg>
