<svg width="29" height="29" viewBox="0 0 29 29" fill="none" xmlns="http://www.w3.org/2000/svg">
<rect width="20.3252" height="20.3252" rx="7" transform="matrix(-0.681998 -0.731354 -0.731354 0.681998 28.7266 14.8672)" fill="#333333"/>
<path d="M10.564 18.144C10.188 18.144 9.824 18.092 9.472 17.988C9.124 17.88 8.81 17.724 8.53 17.52C8.254 17.312 8.036 17.056 7.876 16.752C7.716 16.448 7.636 16.096 7.636 15.696H8.596C8.604 16.04 8.696 16.33 8.872 16.566C9.048 16.802 9.282 16.98 9.574 17.1C9.87 17.22 10.2 17.28 10.564 17.28C11.124 17.28 11.558 17.144 11.866 16.872C12.174 16.6 12.328 16.26 12.328 15.852C12.328 15.592 12.264 15.362 12.136 15.162C12.008 14.962 11.804 14.806 11.524 14.694C11.248 14.578 10.884 14.52 10.432 14.52H9.58V13.776H10.156C10.74 13.776 11.2 13.66 11.536 13.428C11.872 13.196 12.04 12.876 12.04 12.468C12.04 12.108 11.904 11.804 11.632 11.556C11.36 11.308 10.972 11.184 10.468 11.184C10.08 11.184 9.734 11.264 9.43 11.424C9.126 11.58 8.92 11.868 8.812 12.288H7.852C7.916 11.82 8.068 11.442 8.308 11.154C8.548 10.866 8.852 10.658 9.22 10.53C9.588 10.398 9.996 10.332 10.444 10.332C10.944 10.332 11.39 10.42 11.782 10.596C12.174 10.772 12.482 11.014 12.706 11.322C12.934 11.63 13.048 11.984 13.048 12.384C13.048 12.78 12.934 13.12 12.706 13.404C12.482 13.684 12.156 13.9 11.728 14.052C12.204 14.188 12.592 14.412 12.892 14.724C13.196 15.036 13.348 15.436 13.348 15.924C13.348 16.356 13.234 16.74 13.006 17.076C12.782 17.408 12.462 17.67 12.046 17.862C11.63 18.05 11.136 18.144 10.564 18.144ZM17.7378 18.144C17.2418 18.144 16.7998 18.042 16.4118 17.838C16.0278 17.634 15.7238 17.354 15.4998 16.998C15.2798 16.638 15.1698 16.228 15.1698 15.768H16.1418C16.1538 16.228 16.2978 16.596 16.5738 16.872C16.8538 17.144 17.2338 17.28 17.7138 17.28C18.1858 17.28 18.5678 17.144 18.8598 16.872C19.1558 16.6 19.3718 16.216 19.5078 15.72C19.6478 15.22 19.7178 14.632 19.7178 13.956C19.7178 13.8 19.7138 13.656 19.7058 13.524C19.6978 13.388 19.6818 13.236 19.6578 13.068C19.6058 13.5 19.4818 13.86 19.2858 14.148C19.0898 14.432 18.8378 14.646 18.5298 14.79C18.2258 14.93 17.8818 15 17.4978 15C17.0498 15 16.6458 14.9 16.2858 14.7C15.9298 14.496 15.6458 14.218 15.4338 13.866C15.2258 13.51 15.1218 13.104 15.1218 12.648C15.1218 12.18 15.2278 11.772 15.4398 11.424C15.6558 11.076 15.9558 10.808 16.3398 10.62C16.7238 10.428 17.1698 10.332 17.6778 10.332C18.1098 10.332 18.5078 10.42 18.8718 10.596C19.2398 10.772 19.5578 11.026 19.8258 11.358C20.0938 11.686 20.3018 12.08 20.4498 12.54C20.6018 13 20.6778 13.516 20.6778 14.088C20.6778 14.916 20.5718 15.634 20.3598 16.242C20.1518 16.85 19.8298 17.32 19.3938 17.652C18.9618 17.98 18.4098 18.144 17.7378 18.144ZM17.6778 14.172C17.9738 14.172 18.2418 14.106 18.4818 13.974C18.7218 13.842 18.9118 13.664 19.0518 13.44C19.1918 13.216 19.2618 12.964 19.2618 12.684C19.2618 12.22 19.1078 11.854 18.7998 11.586C18.4958 11.318 18.1218 11.184 17.6778 11.184C17.2218 11.184 16.8438 11.318 16.5438 11.586C16.2438 11.854 16.0938 12.22 16.0938 12.684C16.0938 13.144 16.2438 13.508 16.5438 13.776C16.8438 14.04 17.2218 14.172 17.6778 14.172Z" fill="white"/>
</svg>
