<svg width="29" height="29" viewBox="0 0 29 29" fill="none" xmlns="http://www.w3.org/2000/svg">
<rect width="20.3252" height="20.3252" rx="7" transform="matrix(-0.681998 -0.731354 -0.731354 0.681998 28.7266 14.8672)" fill="#333333"/>
<path d="M12.26 10.356H13.136V15.372H14.444V16.164H13.136V18H12.212V16.164H8.312V15.444L12.26 10.356ZM12.248 11.832L9.428 15.444H12.248V11.832ZM18.5071 18.144C17.9151 18.144 17.3971 18 16.9531 17.712C16.5131 17.424 16.1691 16.99 15.9211 16.41C15.6771 15.83 15.5551 15.104 15.5551 14.232C15.5551 13.36 15.6771 12.636 15.9211 12.06C16.1691 11.48 16.5131 11.048 16.9531 10.764C17.3971 10.476 17.9151 10.332 18.5071 10.332C19.0951 10.332 19.6111 10.476 20.0551 10.764C20.4991 11.048 20.8431 11.48 21.0871 12.06C21.3351 12.636 21.4591 13.36 21.4591 14.232C21.4591 15.104 21.3351 15.83 21.0871 16.41C20.8431 16.99 20.4991 17.424 20.0551 17.712C19.6111 18 19.0951 18.144 18.5071 18.144ZM18.5071 17.28C19.1551 17.28 19.6471 17.016 19.9831 16.488C20.3191 15.956 20.4871 15.204 20.4871 14.232C20.4871 13.26 20.3191 12.51 19.9831 11.982C19.6471 11.45 19.1551 11.184 18.5071 11.184C17.8671 11.184 17.3771 11.45 17.0371 11.982C16.6971 12.51 16.5271 13.26 16.5271 14.232C16.5271 15.204 16.6971 15.956 17.0371 16.488C17.3771 17.016 17.8671 17.28 18.5071 17.28Z" fill="white"/>
</svg>
