<svg width="29" height="29" viewBox="0 0 29 29" fill="none" xmlns="http://www.w3.org/2000/svg">
<rect width="20.3252" height="20.3252" rx="7" transform="matrix(-0.681998 -0.731354 -0.731354 0.681998 28.7266 14.8672)" fill="#333333"/>
<path d="M12.26 10.356H13.136V15.372H14.444V16.164H13.136V18H12.212V16.164H8.312V15.444L12.26 10.356ZM12.248 11.832L9.428 15.444H12.248V11.832ZM16.9351 10.44H17.6911V18H16.7551V11.544C16.5631 11.676 16.3611 11.778 16.1491 11.85C15.9411 11.918 15.7311 11.956 15.5191 11.964V11.052C15.7711 11.016 16.0151 10.95 16.2511 10.854C16.4911 10.758 16.7191 10.62 16.9351 10.44Z" fill="white"/>
</svg>
