<svg width="29" height="29" viewBox="0 0 29 29" fill="none" xmlns="http://www.w3.org/2000/svg">
<rect width="20.3252" height="20.3252" rx="7" transform="matrix(-0.681998 -0.731354 -0.731354 0.681998 28.7266 14.8672)" fill="#333333"/>
<path d="M11.26 10.356H12.136V15.372H13.444V16.164H12.136V18H11.212V16.164H7.312V15.444L11.26 10.356ZM11.248 11.832L8.428 15.444H11.248V11.832ZM14.7111 18V16.884C14.7111 16.448 14.7811 16.084 14.9211 15.792C15.0651 15.5 15.2651 15.258 15.5211 15.066C15.7811 14.874 16.0871 14.708 16.4391 14.568L17.9271 13.98C18.3111 13.824 18.5991 13.624 18.7911 13.38C18.9831 13.136 19.0791 12.832 19.0791 12.468C19.0791 12.084 18.9451 11.77 18.6771 11.526C18.4131 11.282 18.0431 11.16 17.5671 11.16C17.0951 11.16 16.7071 11.262 16.4031 11.466C16.1031 11.666 15.9311 11.968 15.8871 12.372H14.8431C14.8711 11.936 14.9991 11.566 15.2271 11.262C15.4591 10.958 15.7731 10.728 16.1691 10.572C16.5651 10.412 17.0271 10.332 17.5551 10.332C18.0391 10.332 18.4731 10.426 18.8571 10.614C19.2411 10.802 19.5431 11.062 19.7631 11.394C19.9871 11.722 20.0991 12.1 20.0991 12.528C20.0991 12.916 20.0271 13.254 19.8831 13.542C19.7391 13.83 19.5331 14.078 19.2651 14.286C19.0011 14.494 18.6871 14.672 18.3231 14.82L16.7991 15.432C16.4151 15.58 16.1271 15.758 15.9351 15.966C15.7431 16.174 15.6471 16.444 15.6471 16.776V17.136H20.0271V18H14.7111Z" fill="white"/>
</svg>
