<svg width="29" height="29" viewBox="0 0 29 29" fill="none" xmlns="http://www.w3.org/2000/svg">
<rect width="20.3252" height="20.3252" rx="7" transform="matrix(-0.681998 -0.731354 -0.731354 0.681998 28.7266 14.8672)" fill="#333333"/>
<path d="M11.26 10.356H12.136V15.372H13.444V16.164H12.136V18H11.212V16.164H7.312V15.444L11.26 10.356ZM11.248 11.832L8.428 15.444H11.248V11.832ZM17.5071 18.144C17.1311 18.144 16.7671 18.092 16.4151 17.988C16.0671 17.88 15.7531 17.724 15.4731 17.52C15.1971 17.312 14.9791 17.056 14.8191 16.752C14.6591 16.448 14.5791 16.096 14.5791 15.696H15.5391C15.5471 16.04 15.6391 16.33 15.8151 16.566C15.9911 16.802 16.2251 16.98 16.5171 17.1C16.8131 17.22 17.1431 17.28 17.5071 17.28C18.0671 17.28 18.5011 17.144 18.8091 16.872C19.1171 16.6 19.2711 16.26 19.2711 15.852C19.2711 15.592 19.2071 15.362 19.0791 15.162C18.9511 14.962 18.7471 14.806 18.4671 14.694C18.1911 14.578 17.8271 14.52 17.3751 14.52H16.5231V13.776H17.0991C17.6831 13.776 18.1431 13.66 18.4791 13.428C18.8151 13.196 18.9831 12.876 18.9831 12.468C18.9831 12.108 18.8471 11.804 18.5751 11.556C18.3031 11.308 17.9151 11.184 17.4111 11.184C17.0231 11.184 16.6771 11.264 16.3731 11.424C16.0691 11.58 15.8631 11.868 15.7551 12.288H14.7951C14.8591 11.82 15.0111 11.442 15.2511 11.154C15.4911 10.866 15.7951 10.658 16.1631 10.53C16.5311 10.398 16.9391 10.332 17.3871 10.332C17.8871 10.332 18.3331 10.42 18.7251 10.596C19.1171 10.772 19.4251 11.014 19.6491 11.322C19.8771 11.63 19.9911 11.984 19.9911 12.384C19.9911 12.78 19.8771 13.12 19.6491 13.404C19.4251 13.684 19.0991 13.9 18.6711 14.052C19.1471 14.188 19.5351 14.412 19.8351 14.724C20.1391 15.036 20.2911 15.436 20.2911 15.924C20.2911 16.356 20.1771 16.74 19.9491 17.076C19.7251 17.408 19.4051 17.67 18.9891 17.862C18.5731 18.05 18.0791 18.144 17.5071 18.144Z" fill="white"/>
</svg>
