<svg width="29" height="29" viewBox="0 0 29 29" fill="none" xmlns="http://www.w3.org/2000/svg">
<rect width="20.3252" height="20.3252" rx="7" transform="matrix(-0.681998 -0.731354 -0.731354 0.681998 28.7266 14.8672)" fill="#333333"/>
<path d="M11.26 10.356H12.136V15.372H13.444V16.164H12.136V18H11.212V16.164H7.312V15.444L11.26 10.356ZM11.248 11.832L8.428 15.444H11.248V11.832ZM17.3271 18.144C16.8511 18.144 16.4171 18.058 16.0251 17.886C15.6331 17.714 15.3191 17.462 15.0831 17.13C14.8471 16.794 14.7271 16.384 14.7231 15.9H15.6591C15.6591 16.356 15.8191 16.7 16.1391 16.932C16.4631 17.164 16.8591 17.28 17.3271 17.28C17.8671 17.28 18.2911 17.116 18.5991 16.788C18.9111 16.456 19.0671 16.048 19.0671 15.564C19.0671 14.596 18.4431 14.112 17.1951 14.112H15.1791L15.5031 10.464H19.6791V11.316H16.2591L16.4511 10.992L16.1991 13.62L16.0791 13.512C16.2711 13.468 16.4891 13.438 16.7331 13.422C16.9771 13.402 17.1951 13.392 17.3871 13.392C18.2031 13.392 18.8491 13.574 19.3251 13.938C19.8011 14.302 20.0391 14.844 20.0391 15.564C20.0391 16.052 19.9291 16.492 19.7091 16.884C19.4891 17.272 19.1751 17.58 18.7671 17.808C18.3631 18.032 17.8831 18.144 17.3271 18.144Z" fill="white"/>
</svg>
