<svg width="29" height="29" viewBox="0 0 29 29" fill="none" xmlns="http://www.w3.org/2000/svg">
<rect width="20.3252" height="20.3252" rx="7" transform="matrix(-0.681998 -0.731354 -0.731354 0.681998 28.7266 14.8672)" fill="#333333"/>
<path d="M12.26 10.356H13.136V15.372H14.444V16.164H13.136V18H12.212V16.164H8.312V15.444L12.26 10.356ZM12.248 11.832L9.428 15.444H12.248V11.832ZM18.5551 18.144C17.9511 18.144 17.4231 17.978 16.9711 17.646C16.5231 17.314 16.1751 16.864 15.9271 16.296C15.6791 15.724 15.5551 15.08 15.5551 14.364C15.5551 13.52 15.6811 12.798 15.9331 12.198C16.1851 11.594 16.5451 11.132 17.0131 10.812C17.4811 10.492 18.0391 10.332 18.6871 10.332C19.1351 10.332 19.5291 10.418 19.8691 10.59C20.2131 10.758 20.4871 10.994 20.6911 11.298C20.8991 11.602 21.0231 11.956 21.0631 12.36H20.0431C19.9831 12 19.8471 11.714 19.6351 11.502C19.4231 11.29 19.1151 11.184 18.7111 11.184C18.0231 11.184 17.4831 11.482 17.0911 12.078C16.6991 12.67 16.5031 13.48 16.5031 14.508C16.5031 14.656 16.5071 14.828 16.5151 15.024C16.5231 15.216 16.5391 15.396 16.5631 15.564C16.5991 15.032 16.7211 14.614 16.9291 14.31C17.1411 14.002 17.4051 13.784 17.7211 13.656C18.0371 13.528 18.3711 13.464 18.7231 13.464C19.1791 13.464 19.5871 13.564 19.9471 13.764C20.3111 13.964 20.5971 14.242 20.8051 14.598C21.0171 14.95 21.1231 15.356 21.1231 15.816C21.1231 16.28 21.0151 16.688 20.7991 17.04C20.5831 17.388 20.2811 17.66 19.8931 17.856C19.5091 18.048 19.0631 18.144 18.5551 18.144ZM18.5551 17.28C19.0111 17.28 19.3891 17.146 19.6891 16.878C19.9891 16.61 20.1391 16.248 20.1391 15.792C20.1391 15.324 19.9891 14.958 19.6891 14.694C19.3891 14.426 19.0111 14.292 18.5551 14.292C18.2551 14.292 17.9871 14.358 17.7511 14.49C17.5151 14.618 17.3271 14.796 17.1871 15.024C17.0511 15.248 16.9831 15.504 16.9831 15.792C16.9831 16.248 17.1331 16.61 17.4331 16.878C17.7331 17.146 18.1071 17.28 18.5551 17.28Z" fill="white"/>
</svg>
