<svg width="29" height="29" viewBox="0 0 29 29" fill="none" xmlns="http://www.w3.org/2000/svg">
<rect width="20.3252" height="20.3252" rx="7" transform="matrix(-0.681998 -0.731354 -0.731354 0.681998 28.7268 14.8672)" fill="#333333"/>
<path d="M10.2602 10.356H11.1362V15.372H12.4442V16.164H11.1362V18H10.2122V16.164H6.31224V15.444L10.2602 10.356ZM10.2482 11.832L7.42824 15.444H10.2482V11.832ZM16.6274 18.144C16.0354 18.144 15.5114 18.05 15.0554 17.862C14.6034 17.674 14.2474 17.416 13.9874 17.088C13.7314 16.76 13.6034 16.388 13.6034 15.972C13.6034 15.592 13.7014 15.266 13.8974 14.994C14.0974 14.722 14.3694 14.514 14.7134 14.37C15.0614 14.222 15.4554 14.148 15.8954 14.148C16.0114 14.148 16.1234 14.154 16.2314 14.166C16.3394 14.178 16.4554 14.2 16.5794 14.232V14.508C16.1794 14.508 15.8294 14.574 15.5294 14.706C15.2294 14.834 14.9954 15.004 14.8274 15.216C14.6594 15.428 14.5754 15.656 14.5754 15.9C14.5754 16.196 14.6654 16.448 14.8454 16.656C15.0254 16.86 15.2694 17.016 15.5774 17.124C15.8894 17.228 16.2394 17.28 16.6274 17.28C17.2754 17.28 17.7794 17.176 18.1394 16.968C18.4994 16.76 18.6794 16.488 18.6794 16.152C18.6794 15.88 18.5834 15.656 18.3914 15.48C18.2034 15.304 17.9434 15.156 17.6114 15.036L15.5354 14.244C15.2834 14.148 15.0274 14.016 14.7674 13.848C14.5114 13.68 14.2954 13.47 14.1194 13.218C13.9434 12.966 13.8554 12.668 13.8554 12.324C13.8554 11.936 13.9654 11.592 14.1854 11.292C14.4054 10.992 14.7214 10.758 15.1334 10.59C15.5494 10.418 16.0474 10.332 16.6274 10.332C17.1594 10.332 17.6314 10.424 18.0434 10.608C18.4594 10.788 18.7854 11.036 19.0214 11.352C19.2574 11.664 19.3754 12.02 19.3754 12.42C19.3754 12.732 19.2954 13.022 19.1354 13.29C18.9794 13.554 18.7474 13.768 18.4394 13.932C18.1354 14.092 17.7594 14.172 17.3114 14.172C17.2034 14.172 17.0994 14.166 16.9994 14.154C16.9034 14.138 16.7954 14.112 16.6754 14.076V13.776C16.9994 13.776 17.2914 13.722 17.5514 13.614C17.8114 13.502 18.0174 13.348 18.1694 13.152C18.3254 12.956 18.4034 12.728 18.4034 12.468C18.4034 12.22 18.3274 12 18.1754 11.808C18.0274 11.612 17.8194 11.46 17.5514 11.352C17.2874 11.24 16.9794 11.184 16.6274 11.184C16.2874 11.184 15.9814 11.238 15.7094 11.346C15.4414 11.45 15.2294 11.592 15.0734 11.772C14.9174 11.948 14.8394 12.144 14.8394 12.36C14.8394 12.628 14.9294 12.844 15.1094 13.008C15.2934 13.168 15.5474 13.308 15.8714 13.428L17.9474 14.22C18.4994 14.428 18.9234 14.674 19.2194 14.958C19.5154 15.242 19.6634 15.628 19.6634 16.116C19.6634 16.512 19.5434 16.864 19.3034 17.172C19.0634 17.476 18.7174 17.714 18.2654 17.886C17.8134 18.058 17.2674 18.144 16.6274 18.144Z" fill="white"/>
</svg>
