<svg width="29" height="29" viewBox="0 0 29 29" fill="none" xmlns="http://www.w3.org/2000/svg">
<rect width="20.3252" height="20.3252" rx="7" transform="matrix(-0.681998 -0.731354 -0.731354 0.681998 28.7266 14.8672)" fill="#333333"/>
<path d="M11.26 10.356H12.136V15.372H13.444V16.164H12.136V18H11.212V16.164H7.312V15.444L11.26 10.356ZM11.248 11.832L8.428 15.444H11.248V11.832ZM17.3511 18.144C16.8551 18.144 16.4131 18.042 16.0251 17.838C15.6411 17.634 15.3371 17.354 15.1131 16.998C14.8931 16.638 14.7831 16.228 14.7831 15.768H15.7551C15.7671 16.228 15.9111 16.596 16.1871 16.872C16.4671 17.144 16.8471 17.28 17.3271 17.28C17.7991 17.28 18.1811 17.144 18.4731 16.872C18.7691 16.6 18.9851 16.216 19.1211 15.72C19.2611 15.22 19.3311 14.632 19.3311 13.956C19.3311 13.8 19.3271 13.656 19.3191 13.524C19.3111 13.388 19.2951 13.236 19.2711 13.068C19.2191 13.5 19.0951 13.86 18.8991 14.148C18.7031 14.432 18.4511 14.646 18.1431 14.79C17.8391 14.93 17.4951 15 17.1111 15C16.6631 15 16.2591 14.9 15.8991 14.7C15.5431 14.496 15.2591 14.218 15.0471 13.866C14.8391 13.51 14.7351 13.104 14.7351 12.648C14.7351 12.18 14.8411 11.772 15.0531 11.424C15.2691 11.076 15.5691 10.808 15.9531 10.62C16.3371 10.428 16.7831 10.332 17.2911 10.332C17.7231 10.332 18.1211 10.42 18.4851 10.596C18.8531 10.772 19.1711 11.026 19.4391 11.358C19.7071 11.686 19.9151 12.08 20.0631 12.54C20.2151 13 20.2911 13.516 20.2911 14.088C20.2911 14.916 20.1851 15.634 19.9731 16.242C19.7651 16.85 19.4431 17.32 19.0071 17.652C18.5751 17.98 18.0231 18.144 17.3511 18.144ZM17.2911 14.172C17.5871 14.172 17.8551 14.106 18.0951 13.974C18.3351 13.842 18.5251 13.664 18.6651 13.44C18.8051 13.216 18.8751 12.964 18.8751 12.684C18.8751 12.22 18.7211 11.854 18.4131 11.586C18.1091 11.318 17.7351 11.184 17.2911 11.184C16.8351 11.184 16.4571 11.318 16.1571 11.586C15.8571 11.854 15.7071 12.22 15.7071 12.684C15.7071 13.144 15.8571 13.508 16.1571 13.776C16.4571 14.04 16.8351 14.172 17.2911 14.172Z" fill="white"/>
</svg>
