<svg width="29" height="29" viewBox="0 0 29 29" fill="none" xmlns="http://www.w3.org/2000/svg">
<rect width="20.3252" height="20.3252" rx="7" transform="matrix(-0.681998 -0.731354 -0.731354 0.681998 28.7266 14.8672)" fill="#333333"/>
<path d="M10.384 18.144C9.908 18.144 9.474 18.058 9.082 17.886C8.69 17.714 8.376 17.462 8.14 17.13C7.904 16.794 7.784 16.384 7.78 15.9H8.716C8.716 16.356 8.876 16.7 9.196 16.932C9.52 17.164 9.916 17.28 10.384 17.28C10.924 17.28 11.348 17.116 11.656 16.788C11.968 16.456 12.124 16.048 12.124 15.564C12.124 14.596 11.5 14.112 10.252 14.112H8.236L8.56 10.464H12.736V11.316H9.316L9.508 10.992L9.256 13.62L9.136 13.512C9.328 13.468 9.546 13.438 9.79 13.422C10.034 13.402 10.252 13.392 10.444 13.392C11.26 13.392 11.906 13.574 12.382 13.938C12.858 14.302 13.096 14.844 13.096 15.564C13.096 16.052 12.986 16.492 12.766 16.884C12.546 17.272 12.232 17.58 11.824 17.808C11.42 18.032 10.94 18.144 10.384 18.144ZM17.5774 18.144C16.9854 18.144 16.4674 18 16.0234 17.712C15.5834 17.424 15.2394 16.99 14.9914 16.41C14.7474 15.83 14.6254 15.104 14.6254 14.232C14.6254 13.36 14.7474 12.636 14.9914 12.06C15.2394 11.48 15.5834 11.048 16.0234 10.764C16.4674 10.476 16.9854 10.332 17.5774 10.332C18.1654 10.332 18.6814 10.476 19.1254 10.764C19.5694 11.048 19.9134 11.48 20.1574 12.06C20.4054 12.636 20.5294 13.36 20.5294 14.232C20.5294 15.104 20.4054 15.83 20.1574 16.41C19.9134 16.99 19.5694 17.424 19.1254 17.712C18.6814 18 18.1654 18.144 17.5774 18.144ZM17.5774 17.28C18.2254 17.28 18.7174 17.016 19.0534 16.488C19.3894 15.956 19.5574 15.204 19.5574 14.232C19.5574 13.26 19.3894 12.51 19.0534 11.982C18.7174 11.45 18.2254 11.184 17.5774 11.184C16.9374 11.184 16.4474 11.45 16.1074 11.982C15.7674 12.51 15.5974 13.26 15.5974 14.232C15.5974 15.204 15.7674 15.956 16.1074 16.488C16.4474 17.016 16.9374 17.28 17.5774 17.28Z" fill="white"/>
</svg>
