<svg width="29" height="29" viewBox="0 0 29 29" fill="none" xmlns="http://www.w3.org/2000/svg">
<rect width="20.3252" height="20.3252" rx="7" transform="matrix(-0.681998 -0.731354 -0.731354 0.681998 28.7266 14.8672)" fill="#333333"/>
<path d="M12.384 18.144C11.908 18.144 11.474 18.058 11.082 17.886C10.69 17.714 10.376 17.462 10.14 17.13C9.904 16.794 9.784 16.384 9.78 15.9H10.716C10.716 16.356 10.876 16.7 11.196 16.932C11.52 17.164 11.916 17.28 12.384 17.28C12.924 17.28 13.348 17.116 13.656 16.788C13.968 16.456 14.124 16.048 14.124 15.564C14.124 14.596 13.5 14.112 12.252 14.112H10.236L10.56 10.464H14.736V11.316H11.316L11.508 10.992L11.256 13.62L11.136 13.512C11.328 13.468 11.546 13.438 11.79 13.422C12.034 13.402 12.252 13.392 12.444 13.392C13.26 13.392 13.906 13.574 14.382 13.938C14.858 14.302 15.096 14.844 15.096 15.564C15.096 16.052 14.986 16.492 14.766 16.884C14.546 17.272 14.232 17.58 13.824 17.808C13.42 18.032 12.94 18.144 12.384 18.144ZM18.0054 10.44H18.7614V18H17.8254V11.544C17.6334 11.676 17.4314 11.778 17.2194 11.85C17.0114 11.918 16.8014 11.956 16.5894 11.964V11.052C16.8414 11.016 17.0854 10.95 17.3214 10.854C17.5614 10.758 17.7894 10.62 18.0054 10.44Z" fill="white"/>
</svg>
