<svg width="29" height="29" viewBox="0 0 29 29" fill="none" xmlns="http://www.w3.org/2000/svg">
<rect width="20.3252" height="20.3252" rx="7" transform="matrix(-0.681998 -0.731354 -0.731354 0.681998 28.7266 14.8672)" fill="#333333"/>
<path d="M10.384 18.144C9.908 18.144 9.474 18.058 9.082 17.886C8.69 17.714 8.376 17.462 8.14 17.13C7.904 16.794 7.784 16.384 7.78 15.9H8.716C8.716 16.356 8.876 16.7 9.196 16.932C9.52 17.164 9.916 17.28 10.384 17.28C10.924 17.28 11.348 17.116 11.656 16.788C11.968 16.456 12.124 16.048 12.124 15.564C12.124 14.596 11.5 14.112 10.252 14.112H8.236L8.56 10.464H12.736V11.316H9.316L9.508 10.992L9.256 13.62L9.136 13.512C9.328 13.468 9.546 13.438 9.79 13.422C10.034 13.402 10.252 13.392 10.444 13.392C11.26 13.392 11.906 13.574 12.382 13.938C12.858 14.302 13.096 14.844 13.096 15.564C13.096 16.052 12.986 16.492 12.766 16.884C12.546 17.272 12.232 17.58 11.824 17.808C11.42 18.032 10.94 18.144 10.384 18.144ZM14.7814 18V16.884C14.7814 16.448 14.8514 16.084 14.9914 15.792C15.1354 15.5 15.3354 15.258 15.5914 15.066C15.8514 14.874 16.1574 14.708 16.5094 14.568L17.9974 13.98C18.3814 13.824 18.6694 13.624 18.8614 13.38C19.0534 13.136 19.1494 12.832 19.1494 12.468C19.1494 12.084 19.0154 11.77 18.7474 11.526C18.4834 11.282 18.1134 11.16 17.6374 11.16C17.1654 11.16 16.7774 11.262 16.4734 11.466C16.1734 11.666 16.0014 11.968 15.9574 12.372H14.9134C14.9414 11.936 15.0694 11.566 15.2974 11.262C15.5294 10.958 15.8434 10.728 16.2394 10.572C16.6354 10.412 17.0974 10.332 17.6254 10.332C18.1094 10.332 18.5434 10.426 18.9274 10.614C19.3114 10.802 19.6134 11.062 19.8334 11.394C20.0574 11.722 20.1694 12.1 20.1694 12.528C20.1694 12.916 20.0974 13.254 19.9534 13.542C19.8094 13.83 19.6034 14.078 19.3354 14.286C19.0714 14.494 18.7574 14.672 18.3934 14.82L16.8694 15.432C16.4854 15.58 16.1974 15.758 16.0054 15.966C15.8134 16.174 15.7174 16.444 15.7174 16.776V17.136H20.0974V18H14.7814Z" fill="white"/>
</svg>
