<svg width="29" height="29" viewBox="0 0 29 29" fill="none" xmlns="http://www.w3.org/2000/svg">
<rect width="20.3252" height="20.3252" rx="7" transform="matrix(-0.681998 -0.731354 -0.731354 0.681998 28.7266 14.8649)" fill="#333333"/>
<path d="M10.384 18.144C9.908 18.144 9.474 18.058 9.082 17.886C8.69 17.714 8.376 17.462 8.14 17.13C7.904 16.794 7.784 16.384 7.78 15.9H8.716C8.716 16.356 8.876 16.7 9.196 16.932C9.52 17.164 9.916 17.28 10.384 17.28C10.924 17.28 11.348 17.116 11.656 16.788C11.968 16.456 12.124 16.048 12.124 15.564C12.124 14.596 11.5 14.112 10.252 14.112H8.236L8.56 10.464H12.736V11.316H9.316L9.508 10.992L9.256 13.62L9.136 13.512C9.328 13.468 9.546 13.438 9.79 13.422C10.034 13.402 10.252 13.392 10.444 13.392C11.26 13.392 11.906 13.574 12.382 13.938C12.858 14.302 13.096 14.844 13.096 15.564C13.096 16.052 12.986 16.492 12.766 16.884C12.546 17.272 12.232 17.58 11.824 17.808C11.42 18.032 10.94 18.144 10.384 18.144ZM17.5774 18.144C17.2014 18.144 16.8374 18.092 16.4854 17.988C16.1374 17.88 15.8234 17.724 15.5434 17.52C15.2674 17.312 15.0494 17.056 14.8894 16.752C14.7294 16.448 14.6494 16.096 14.6494 15.696H15.6094C15.6174 16.04 15.7094 16.33 15.8854 16.566C16.0614 16.802 16.2954 16.98 16.5874 17.1C16.8834 17.22 17.2134 17.28 17.5774 17.28C18.1374 17.28 18.5714 17.144 18.8794 16.872C19.1874 16.6 19.3414 16.26 19.3414 15.852C19.3414 15.592 19.2774 15.362 19.1494 15.162C19.0214 14.962 18.8174 14.806 18.5374 14.694C18.2614 14.578 17.8974 14.52 17.4454 14.52L16.5934 14.52V13.776H17.1694C17.7534 13.776 18.2134 13.66 18.5494 13.428C18.8854 13.196 19.0534 12.876 19.0534 12.468C19.0534 12.108 18.9174 11.804 18.6454 11.556C18.3734 11.308 17.9854 11.184 17.4814 11.184C17.0934 11.184 16.7474 11.264 16.4434 11.424C16.1394 11.58 15.9334 11.868 15.8254 12.288H14.8654C14.9294 11.82 15.0814 11.442 15.3214 11.154C15.5614 10.866 15.8654 10.658 16.2334 10.53C16.6014 10.398 17.0094 10.332 17.4574 10.332C17.9574 10.332 18.4034 10.42 18.7954 10.596C19.1874 10.772 19.4954 11.014 19.7194 11.322C19.9474 11.63 20.0614 11.984 20.0614 12.384C20.0614 12.78 19.9474 13.12 19.7194 13.404C19.4954 13.684 19.1694 13.9 18.7414 14.052C19.2174 14.188 19.6054 14.412 19.9054 14.724C20.2094 15.036 20.3614 15.436 20.3614 15.924C20.3614 16.356 20.2474 16.74 20.0194 17.076C19.7954 17.408 19.4754 17.67 19.0594 17.862C18.6434 18.05 18.1494 18.144 17.5774 18.144Z" fill="white"/>
</svg>
