<svg width="29" height="29" viewBox="0 0 29 29" fill="none" xmlns="http://www.w3.org/2000/svg">
<rect width="20.3252" height="20.3252" rx="7" transform="matrix(-0.681998 -0.731354 -0.731354 0.681998 28.7266 14.8672)" fill="#333333"/>
<path d="M10.384 18.144C9.908 18.144 9.474 18.058 9.082 17.886C8.69 17.714 8.376 17.462 8.14 17.13C7.904 16.794 7.784 16.384 7.78 15.9H8.716C8.716 16.356 8.876 16.7 9.196 16.932C9.52 17.164 9.916 17.28 10.384 17.28C10.924 17.28 11.348 17.116 11.656 16.788C11.968 16.456 12.124 16.048 12.124 15.564C12.124 14.596 11.5 14.112 10.252 14.112H8.236L8.56 10.464H12.736V11.316H9.316L9.508 10.992L9.256 13.62L9.136 13.512C9.328 13.468 9.546 13.438 9.79 13.422C10.034 13.402 10.252 13.392 10.444 13.392C11.26 13.392 11.906 13.574 12.382 13.938C12.858 14.302 13.096 14.844 13.096 15.564C13.096 16.052 12.986 16.492 12.766 16.884C12.546 17.272 12.232 17.58 11.824 17.808C11.42 18.032 10.94 18.144 10.384 18.144ZM17.3974 18.144C16.9214 18.144 16.4874 18.058 16.0954 17.886C15.7034 17.714 15.3894 17.462 15.1534 17.13C14.9174 16.794 14.7974 16.384 14.7934 15.9H15.7294C15.7294 16.356 15.8894 16.7 16.2094 16.932C16.5334 17.164 16.9294 17.28 17.3974 17.28C17.9374 17.28 18.3614 17.116 18.6694 16.788C18.9814 16.456 19.1374 16.048 19.1374 15.564C19.1374 14.596 18.5134 14.112 17.2654 14.112H15.2494L15.5734 10.464H19.7494V11.316H16.3294L16.5214 10.992L16.2694 13.62L16.1494 13.512C16.3414 13.468 16.5594 13.438 16.8034 13.422C17.0474 13.402 17.2654 13.392 17.4574 13.392C18.2734 13.392 18.9194 13.574 19.3954 13.938C19.8714 14.302 20.1094 14.844 20.1094 15.564C20.1094 16.052 19.9994 16.492 19.7794 16.884C19.5594 17.272 19.2454 17.58 18.8374 17.808C18.4334 18.032 17.9534 18.144 17.3974 18.144Z" fill="white"/>
</svg>
