<svg width="29" height="29" viewBox="0 0 29 29" fill="none" xmlns="http://www.w3.org/2000/svg">
<rect width="20.3252" height="20.3252" rx="7" transform="matrix(-0.681998 -0.731354 -0.731354 0.681998 28.7266 14.8672)" fill="#333333"/>
<path d="M10.384 18.144C9.908 18.144 9.474 18.058 9.082 17.886C8.69 17.714 8.376 17.462 8.14 17.13C7.904 16.794 7.784 16.384 7.78 15.9H8.716C8.716 16.356 8.876 16.7 9.196 16.932C9.52 17.164 9.916 17.28 10.384 17.28C10.924 17.28 11.348 17.116 11.656 16.788C11.968 16.456 12.124 16.048 12.124 15.564C12.124 14.596 11.5 14.112 10.252 14.112H8.236L8.56 10.464H12.736V11.316H9.316L9.508 10.992L9.256 13.62L9.136 13.512C9.328 13.468 9.546 13.438 9.79 13.422C10.034 13.402 10.252 13.392 10.444 13.392C11.26 13.392 11.906 13.574 12.382 13.938C12.858 14.302 13.096 14.844 13.096 15.564C13.096 16.052 12.986 16.492 12.766 16.884C12.546 17.272 12.232 17.58 11.824 17.808C11.42 18.032 10.94 18.144 10.384 18.144ZM17.6254 18.144C17.0214 18.144 16.4934 17.978 16.0414 17.646C15.5934 17.314 15.2454 16.864 14.9974 16.296C14.7494 15.724 14.6254 15.08 14.6254 14.364C14.6254 13.52 14.7514 12.798 15.0034 12.198C15.2554 11.594 15.6154 11.132 16.0834 10.812C16.5514 10.492 17.1094 10.332 17.7574 10.332C18.2054 10.332 18.5994 10.418 18.9394 10.59C19.2834 10.758 19.5574 10.994 19.7614 11.298C19.9694 11.602 20.0934 11.956 20.1334 12.36H19.1134C19.0534 12 18.9174 11.714 18.7054 11.502C18.4934 11.29 18.1854 11.184 17.7814 11.184C17.0934 11.184 16.5534 11.482 16.1614 12.078C15.7694 12.67 15.5734 13.48 15.5734 14.508C15.5734 14.656 15.5774 14.828 15.5854 15.024C15.5934 15.216 15.6094 15.396 15.6334 15.564C15.6694 15.032 15.7914 14.614 15.9994 14.31C16.2114 14.002 16.4754 13.784 16.7914 13.656C17.1074 13.528 17.4414 13.464 17.7934 13.464C18.2494 13.464 18.6574 13.564 19.0174 13.764C19.3814 13.964 19.6674 14.242 19.8754 14.598C20.0874 14.95 20.1934 15.356 20.1934 15.816C20.1934 16.28 20.0854 16.688 19.8694 17.04C19.6534 17.388 19.3514 17.66 18.9634 17.856C18.5794 18.048 18.1334 18.144 17.6254 18.144ZM17.6254 17.28C18.0814 17.28 18.4594 17.146 18.7594 16.878C19.0594 16.61 19.2094 16.248 19.2094 15.792C19.2094 15.324 19.0594 14.958 18.7594 14.694C18.4594 14.426 18.0814 14.292 17.6254 14.292C17.3254 14.292 17.0574 14.358 16.8214 14.49C16.5854 14.618 16.3974 14.796 16.2574 15.024C16.1214 15.248 16.0534 15.504 16.0534 15.792C16.0534 16.248 16.2034 16.61 16.5034 16.878C16.8034 17.146 17.1774 17.28 17.6254 17.28Z" fill="white"/>
</svg>
