<svg width="29" height="29" viewBox="0 0 29 29" fill="none" xmlns="http://www.w3.org/2000/svg">
<rect width="20.3252" height="20.3252" rx="7" transform="matrix(-0.681998 -0.731354 -0.731354 0.681998 28.7266 14.8672)" fill="#333333"/>
<path d="M10.384 18.144C9.908 18.144 9.474 18.058 9.082 17.886C8.69 17.714 8.376 17.462 8.14 17.13C7.904 16.794 7.784 16.384 7.78 15.9H8.716C8.716 16.356 8.876 16.7 9.196 16.932C9.52 17.164 9.916 17.28 10.384 17.28C10.924 17.28 11.348 17.116 11.656 16.788C11.968 16.456 12.124 16.048 12.124 15.564C12.124 14.596 11.5 14.112 10.252 14.112H8.236L8.56 10.464H12.736V11.316H9.316L9.508 10.992L9.256 13.62L9.136 13.512C9.328 13.468 9.546 13.438 9.79 13.422C10.034 13.402 10.252 13.392 10.444 13.392C11.26 13.392 11.906 13.574 12.382 13.938C12.858 14.302 13.096 14.844 13.096 15.564C13.096 16.052 12.986 16.492 12.766 16.884C12.546 17.272 12.232 17.58 11.824 17.808C11.42 18.032 10.94 18.144 10.384 18.144ZM17.6974 18.144C17.1054 18.144 16.5814 18.05 16.1254 17.862C15.6734 17.674 15.3174 17.416 15.0574 17.088C14.8014 16.76 14.6734 16.388 14.6734 15.972C14.6734 15.592 14.7714 15.266 14.9674 14.994C15.1674 14.722 15.4394 14.514 15.7834 14.37C16.1314 14.222 16.5254 14.148 16.9654 14.148C17.0814 14.148 17.1934 14.154 17.3014 14.166C17.4094 14.178 17.5254 14.2 17.6494 14.232V14.508C17.2494 14.508 16.8994 14.574 16.5994 14.706C16.2994 14.834 16.0654 15.004 15.8974 15.216C15.7294 15.428 15.6454 15.656 15.6454 15.9C15.6454 16.196 15.7354 16.448 15.9154 16.656C16.0954 16.86 16.3394 17.016 16.6474 17.124C16.9594 17.228 17.3094 17.28 17.6974 17.28C18.3454 17.28 18.8494 17.176 19.2094 16.968C19.5694 16.76 19.7494 16.488 19.7494 16.152C19.7494 15.88 19.6534 15.656 19.4614 15.48C19.2734 15.304 19.0134 15.156 18.6814 15.036L16.6054 14.244C16.3534 14.148 16.0974 14.016 15.8374 13.848C15.5814 13.68 15.3654 13.47 15.1894 13.218C15.0134 12.966 14.9254 12.668 14.9254 12.324C14.9254 11.936 15.0354 11.592 15.2554 11.292C15.4754 10.992 15.7914 10.758 16.2034 10.59C16.6194 10.418 17.1174 10.332 17.6974 10.332C18.2294 10.332 18.7014 10.424 19.1134 10.608C19.5294 10.788 19.8554 11.036 20.0914 11.352C20.3274 11.664 20.4454 12.02 20.4454 12.42C20.4454 12.732 20.3654 13.022 20.2054 13.29C20.0494 13.554 19.8174 13.768 19.5094 13.932C19.2054 14.092 18.8294 14.172 18.3814 14.172C18.2734 14.172 18.1694 14.166 18.0694 14.154C17.9734 14.138 17.8654 14.112 17.7454 14.076V13.776C18.0694 13.776 18.3614 13.722 18.6214 13.614C18.8814 13.502 19.0874 13.348 19.2394 13.152C19.3954 12.956 19.4734 12.728 19.4734 12.468C19.4734 12.22 19.3974 12 19.2454 11.808C19.0974 11.612 18.8894 11.46 18.6214 11.352C18.3574 11.24 18.0494 11.184 17.6974 11.184C17.3574 11.184 17.0514 11.238 16.7794 11.346C16.5114 11.45 16.2994 11.592 16.1434 11.772C15.9874 11.948 15.9094 12.144 15.9094 12.36C15.9094 12.628 15.9994 12.844 16.1794 13.008C16.3634 13.168 16.6174 13.308 16.9414 13.428L19.0174 14.22C19.5694 14.428 19.9934 14.674 20.2894 14.958C20.5854 15.242 20.7334 15.628 20.7334 16.116C20.7334 16.512 20.6134 16.864 20.3734 17.172C20.1334 17.476 19.7874 17.714 19.3354 17.886C18.8834 18.058 18.3374 18.144 17.6974 18.144Z" fill="white"/>
</svg>
