<svg width="29" height="29" viewBox="0 0 29 29" fill="none" xmlns="http://www.w3.org/2000/svg">
<rect width="20.3252" height="20.3252" rx="7" transform="matrix(-0.681998 -0.731354 -0.731354 0.681998 28.7266 14.8672)" fill="#333333"/>
<path d="M10.384 18.144C9.908 18.144 9.474 18.058 9.082 17.886C8.69 17.714 8.376 17.462 8.14 17.13C7.904 16.794 7.784 16.384 7.78 15.9H8.716C8.716 16.356 8.876 16.7 9.196 16.932C9.52 17.164 9.916 17.28 10.384 17.28C10.924 17.28 11.348 17.116 11.656 16.788C11.968 16.456 12.124 16.048 12.124 15.564C12.124 14.596 11.5 14.112 10.252 14.112H8.236L8.56 10.464H12.736V11.316H9.316L9.508 10.992L9.256 13.62L9.136 13.512C9.328 13.468 9.546 13.438 9.79 13.422C10.034 13.402 10.252 13.392 10.444 13.392C11.26 13.392 11.906 13.574 12.382 13.938C12.858 14.302 13.096 14.844 13.096 15.564C13.096 16.052 12.986 16.492 12.766 16.884C12.546 17.272 12.232 17.58 11.824 17.808C11.42 18.032 10.94 18.144 10.384 18.144ZM17.4214 18.144C16.9254 18.144 16.4834 18.042 16.0954 17.838C15.7114 17.634 15.4074 17.354 15.1834 16.998C14.9634 16.638 14.8534 16.228 14.8534 15.768H15.8254C15.8374 16.228 15.9814 16.596 16.2574 16.872C16.5374 17.144 16.9174 17.28 17.3974 17.28C17.8694 17.28 18.2514 17.144 18.5434 16.872C18.8394 16.6 19.0554 16.216 19.1914 15.72C19.3314 15.22 19.4014 14.632 19.4014 13.956C19.4014 13.8 19.3974 13.656 19.3894 13.524C19.3814 13.388 19.3654 13.236 19.3414 13.068C19.2894 13.5 19.1654 13.86 18.9694 14.148C18.7734 14.432 18.5214 14.646 18.2134 14.79C17.9094 14.93 17.5654 15 17.1814 15C16.7334 15 16.3294 14.9 15.9694 14.7C15.6134 14.496 15.3294 14.218 15.1174 13.866C14.9094 13.51 14.8054 13.104 14.8054 12.648C14.8054 12.18 14.9114 11.772 15.1234 11.424C15.3394 11.076 15.6394 10.808 16.0234 10.62C16.4074 10.428 16.8534 10.332 17.3614 10.332C17.7934 10.332 18.1914 10.42 18.5554 10.596C18.9234 10.772 19.2414 11.026 19.5094 11.358C19.7774 11.686 19.9854 12.08 20.1334 12.54C20.2854 13 20.3614 13.516 20.3614 14.088C20.3614 14.916 20.2554 15.634 20.0434 16.242C19.8354 16.85 19.5134 17.32 19.0774 17.652C18.6454 17.98 18.0934 18.144 17.4214 18.144ZM17.3614 14.172C17.6574 14.172 17.9254 14.106 18.1654 13.974C18.4054 13.842 18.5954 13.664 18.7354 13.44C18.8754 13.216 18.9454 12.964 18.9454 12.684C18.9454 12.22 18.7914 11.854 18.4834 11.586C18.1794 11.318 17.8054 11.184 17.3614 11.184C16.9054 11.184 16.5274 11.318 16.2274 11.586C15.9274 11.854 15.7774 12.22 15.7774 12.684C15.7774 13.144 15.9274 13.508 16.2274 13.776C16.5274 14.04 16.9054 14.172 17.3614 14.172Z" fill="white"/>
</svg>
