<svg width="29" height="29" viewBox="0 0 29 29" fill="none" xmlns="http://www.w3.org/2000/svg">
<rect width="20.3252" height="20.3252" rx="7" transform="matrix(-0.681998 -0.731354 -0.731354 0.681998 28.7266 14.8672)" fill="#333333"/>
<path d="M10.612 18.144C10.008 18.144 9.48 17.978 9.028 17.646C8.58 17.314 8.232 16.864 7.984 16.296C7.736 15.724 7.612 15.08 7.612 14.364C7.612 13.52 7.738 12.798 7.99 12.198C8.242 11.594 8.602 11.132 9.07 10.812C9.538 10.492 10.096 10.332 10.744 10.332C11.192 10.332 11.586 10.418 11.926 10.59C12.27 10.758 12.544 10.994 12.748 11.298C12.956 11.602 13.08 11.956 13.12 12.36H12.1C12.04 12 11.904 11.714 11.692 11.502C11.48 11.29 11.172 11.184 10.768 11.184C10.08 11.184 9.54 11.482 9.148 12.078C8.756 12.67 8.56 13.48 8.56 14.508C8.56 14.656 8.564 14.828 8.572 15.024C8.58 15.216 8.596 15.396 8.62 15.564C8.656 15.032 8.778 14.614 8.986 14.31C9.198 14.002 9.462 13.784 9.778 13.656C10.094 13.528 10.428 13.464 10.78 13.464C11.236 13.464 11.644 13.564 12.004 13.764C12.368 13.964 12.654 14.242 12.862 14.598C13.074 14.95 13.18 15.356 13.18 15.816C13.18 16.28 13.072 16.688 12.856 17.04C12.64 17.388 12.338 17.66 11.95 17.856C11.566 18.048 11.12 18.144 10.612 18.144ZM10.612 17.28C11.068 17.28 11.446 17.146 11.746 16.878C12.046 16.61 12.196 16.248 12.196 15.792C12.196 15.324 12.046 14.958 11.746 14.694C11.446 14.426 11.068 14.292 10.612 14.292C10.312 14.292 10.044 14.358 9.808 14.49C9.572 14.618 9.384 14.796 9.244 15.024C9.108 15.248 9.04 15.504 9.04 15.792C9.04 16.248 9.19 16.61 9.49 16.878C9.79 17.146 10.164 17.28 10.612 17.28ZM17.6712 18.144C17.0792 18.144 16.5612 18 16.1172 17.712C15.6772 17.424 15.3332 16.99 15.0852 16.41C14.8412 15.83 14.7192 15.104 14.7192 14.232C14.7192 13.36 14.8412 12.636 15.0852 12.06C15.3332 11.48 15.6772 11.048 16.1172 10.764C16.5612 10.476 17.0792 10.332 17.6712 10.332C18.2592 10.332 18.7752 10.476 19.2192 10.764C19.6632 11.048 20.0072 11.48 20.2512 12.06C20.4992 12.636 20.6232 13.36 20.6232 14.232C20.6232 15.104 20.4992 15.83 20.2512 16.41C20.0072 16.99 19.6632 17.424 19.2192 17.712C18.7752 18 18.2592 18.144 17.6712 18.144ZM17.6712 17.28C18.3192 17.28 18.8112 17.016 19.1472 16.488C19.4832 15.956 19.6512 15.204 19.6512 14.232C19.6512 13.26 19.4832 12.51 19.1472 11.982C18.8112 11.45 18.3192 11.184 17.6712 11.184C17.0312 11.184 16.5412 11.45 16.2012 11.982C15.8612 12.51 15.6912 13.26 15.6912 14.232C15.6912 15.204 15.8612 15.956 16.2012 16.488C16.5412 17.016 17.0312 17.28 17.6712 17.28Z" fill="white"/>
</svg>
