<svg width="324" height="143" viewBox="0 0 324 143" fill="none" xmlns="http://www.w3.org/2000/svg">
<path d="M8.125 18.9922L5.69531 15.875H3.24219V19H1.13281V8.39062H6.05469C8.19531 8.39062 9.92969 9.75 9.92969 12.1406C9.92969 13.6797 9.07031 14.8906 7.85938 15.4766L10.6719 18.9922H8.125ZM5.8125 10.2188H3.24219V14.0547H5.8125C6.9375 14.0547 7.75781 13.2812 7.75781 12.1484C7.75781 10.9141 6.92188 10.2188 5.8125 10.2188ZM15.2262 19.1562C13.1637 19.1562 11.6091 17.5078 11.6091 15.2344C11.6091 12.9609 13.1637 11.3438 15.2262 11.3438C16.3903 11.3438 17.1794 11.7891 17.6716 12.4062L17.7106 11.5H19.6716V19H17.7106L17.6716 18.0938C17.1794 18.7188 16.3903 19.1562 15.2262 19.1562ZM17.6637 15.2344C17.6637 14.0391 16.8122 13.1328 15.6169 13.1328C14.4137 13.1328 13.6012 14.0391 13.6012 15.2344C13.6012 16.4375 14.4137 17.375 15.6169 17.375C16.8122 17.375 17.6637 16.4375 17.6637 15.2344ZM26.14 11.3438C27.8744 11.3438 29.1009 12.4844 29.1009 14.2891V19H27.0931V14.8047C27.0931 13.7656 26.4212 13.2031 25.5462 13.2031C24.6634 13.2031 23.8822 13.7656 23.8822 14.8047V19H21.8822V11.5H23.7884L23.8275 12.3672C24.2181 11.8438 25.0228 11.3438 26.14 11.3438ZM34.4756 19.1562C32.3506 19.1562 30.8428 17.5078 30.8428 15.2422C30.8428 12.9609 32.3506 11.3438 34.4756 11.3438C35.6787 11.3438 36.4522 11.7812 36.9522 12.4062L36.9912 11.5H38.9131V18.7344C38.9131 21.1094 36.8897 22.2812 34.5537 22.2812C33.3272 22.2812 32.2178 21.9922 31.5616 21.6562L31.7959 19.9375C32.3662 20.2422 33.46 20.5 34.4209 20.5C35.6787 20.5 36.9131 19.9375 36.9131 18.6875V18.1562C36.46 18.7578 35.5772 19.1562 34.4756 19.1562ZM36.9287 15.2344C36.9287 14.0391 36.0694 13.1406 34.8897 13.1406C33.6944 13.1406 32.8584 14.0234 32.8584 15.2344C32.8584 16.4219 33.6944 17.3594 34.8897 17.3594C36.0694 17.3594 36.9287 16.4219 36.9287 15.2344ZM47.6237 16.8281L47.905 18.4531C47.1784 18.8672 46.1706 19.1562 45.0769 19.1562C42.4206 19.1562 40.7175 17.5859 40.7175 15.25C40.7175 12.9531 42.3425 11.3438 44.5691 11.3438C46.8737 11.3438 48.6237 13.0781 48.1316 15.8516H42.7097C42.9128 16.8984 43.8503 17.3984 45.0847 17.3984C46.0144 17.3984 46.8816 17.1797 47.6237 16.8281ZM42.7409 14.5078H46.3347C46.28 13.6719 45.6472 13.0312 44.6159 13.0312C43.5456 13.0312 42.8269 13.6562 42.7409 14.5078Z" fill="black"/>
<path d="M3 35.125H156.875V82.875H0.125V38C0.125 36.4122 1.41218 35.125 3 35.125Z" fill="#0E3E76"/>
<path d="M3 35.125H156.875V82.875H0.125V38C0.125 36.4122 1.41218 35.125 3 35.125Z" stroke="black" stroke-opacity="0.1" stroke-width="0.25"/>
<path d="M3 35.125H156.875V82.875H0.125V38C0.125 36.4122 1.41218 35.125 3 35.125Z" stroke="white" stroke-width="0.25"/>
<path d="M19.6501 49.268V48.464H25.5181V49.268H22.8361L23.0461 49.052V56H22.1101V49.052L22.3201 49.268H19.6501ZM27.3298 48.908C27.1378 48.908 26.9858 48.854 26.8738 48.746C26.7618 48.634 26.7058 48.488 26.7058 48.308C26.7058 48.132 26.7618 47.992 26.8738 47.888C26.9858 47.784 27.1378 47.732 27.3298 47.732C27.5218 47.732 27.6738 47.784 27.7858 47.888C27.8978 47.992 27.9538 48.132 27.9538 48.308C27.9538 48.488 27.8978 48.634 27.7858 48.746C27.6738 48.854 27.5218 48.908 27.3298 48.908ZM26.8618 56V50.252H27.7978V56H26.8618ZM38.4401 56V52.628C38.4401 52.08 38.3081 51.664 38.0441 51.38C37.7841 51.092 37.4321 50.948 36.9881 50.948C36.4681 50.948 36.0701 51.15 35.7941 51.554C35.5181 51.954 35.3801 52.508 35.3801 53.216H34.9481C34.9481 52.7 34.9981 52.248 35.0981 51.86C35.2021 51.472 35.3521 51.15 35.5481 50.894C35.7441 50.634 35.9821 50.44 36.2621 50.312C36.5421 50.184 36.8601 50.12 37.2161 50.12C37.6681 50.12 38.0541 50.222 38.3741 50.426C38.6981 50.626 38.9461 50.914 39.1181 51.29C39.2901 51.666 39.3761 52.112 39.3761 52.628V56H38.4401ZM30.3761 56V50.264H31.1801L31.2881 51.416C31.4681 51 31.7201 50.68 32.0441 50.456C32.3721 50.232 32.7641 50.12 33.2201 50.12C33.6721 50.12 34.0581 50.222 34.3781 50.426C34.7021 50.626 34.9501 50.914 35.1221 51.29C35.2941 51.666 35.3801 52.112 35.3801 52.628V56H34.4561V52.628C34.4561 52.08 34.3241 51.664 34.0601 51.38C33.8001 51.092 33.4441 50.948 32.9921 50.948C32.6481 50.948 32.3501 51.042 32.0981 51.23C31.8461 51.418 31.6521 51.688 31.5161 52.04C31.3801 52.388 31.3121 52.804 31.3121 53.288V56H30.3761ZM42.1306 48.908C41.9386 48.908 41.7866 48.854 41.6746 48.746C41.5626 48.634 41.5066 48.488 41.5066 48.308C41.5066 48.132 41.5626 47.992 41.6746 47.888C41.7866 47.784 41.9386 47.732 42.1306 47.732C42.3226 47.732 42.4746 47.784 42.5866 47.888C42.6986 47.992 42.7546 48.132 42.7546 48.308C42.7546 48.488 42.6986 48.634 42.5866 48.746C42.4746 48.854 42.3226 48.908 42.1306 48.908ZM41.6626 56V50.252H42.5986V56H41.6626ZM49.2568 56V52.628C49.2568 52.08 49.1248 51.664 48.8608 51.38C48.6008 51.092 48.2448 50.948 47.7928 50.948C47.4488 50.948 47.1508 51.042 46.8988 51.23C46.6468 51.418 46.4528 51.688 46.3168 52.04C46.1808 52.388 46.1128 52.804 46.1128 53.288H45.7528C45.7528 52.62 45.8408 52.05 46.0168 51.578C46.1928 51.106 46.4488 50.746 46.7848 50.498C47.1248 50.246 47.5368 50.12 48.0208 50.12C48.4728 50.12 48.8588 50.222 49.1788 50.426C49.5028 50.626 49.7508 50.914 49.9228 51.29C50.0948 51.666 50.1808 52.112 50.1808 52.628V56H49.2568ZM45.1768 56V50.264H45.9808L46.1128 51.584V56H45.1768ZM54.447 58.952C53.859 58.952 53.349 58.868 52.917 58.7C52.485 58.536 52.149 58.314 51.909 58.034C51.673 57.758 51.555 57.452 51.555 57.116C51.555 56.672 51.717 56.332 52.041 56.096C52.369 55.864 52.791 55.748 53.307 55.748L53.823 56.072C53.391 56.072 53.057 56.162 52.821 56.342C52.585 56.522 52.467 56.768 52.467 57.08C52.467 57.392 52.635 57.656 52.971 57.872C53.307 58.088 53.799 58.196 54.447 58.196C54.927 58.196 55.347 58.126 55.707 57.986C56.071 57.85 56.353 57.67 56.553 57.446C56.757 57.226 56.859 56.988 56.859 56.732C56.859 56.552 56.793 56.396 56.661 56.264C56.529 56.136 56.327 56.072 56.055 56.072H53.823C53.435 56.072 53.099 56.014 52.815 55.898C52.535 55.778 52.319 55.622 52.167 55.43C52.015 55.238 51.939 55.028 51.939 54.8C51.939 54.56 52.007 54.356 52.143 54.188C52.279 54.02 52.455 53.892 52.671 53.804C52.891 53.716 53.127 53.672 53.379 53.672L53.559 54.02C53.439 54.02 53.317 54.048 53.193 54.104C53.073 54.156 52.971 54.236 52.887 54.344C52.807 54.448 52.767 54.58 52.767 54.74C52.767 54.924 52.843 55.078 52.995 55.202C53.147 55.326 53.423 55.388 53.823 55.388H56.055C56.595 55.388 57.019 55.502 57.327 55.73C57.639 55.958 57.795 56.276 57.795 56.684C57.795 57.06 57.661 57.42 57.393 57.764C57.125 58.112 56.741 58.396 56.241 58.616C55.741 58.84 55.143 58.952 54.447 58.952ZM54.615 54.32C54.175 54.32 53.777 54.232 53.421 54.056C53.069 53.88 52.789 53.634 52.581 53.318C52.377 53.002 52.275 52.636 52.275 52.22C52.275 51.8 52.377 51.432 52.581 51.116C52.789 50.8 53.069 50.556 53.421 50.384C53.777 50.208 54.175 50.12 54.615 50.12C55.043 50.12 55.431 50.208 55.779 50.384C56.131 50.556 56.411 50.8 56.619 51.116C56.827 51.432 56.931 51.8 56.931 52.22C56.931 52.636 56.827 53.002 56.619 53.318C56.411 53.634 56.131 53.88 55.779 54.056C55.431 54.232 55.043 54.32 54.615 54.32ZM54.615 53.648C55.055 53.648 55.397 53.512 55.641 53.24C55.885 52.968 56.007 52.628 56.007 52.22C56.007 51.8 55.885 51.46 55.641 51.2C55.397 50.936 55.055 50.804 54.615 50.804C54.179 50.804 53.835 50.936 53.583 51.2C53.335 51.46 53.211 51.8 53.211 52.22C53.211 52.628 53.335 52.968 53.583 53.24C53.835 53.512 54.179 53.648 54.615 53.648ZM56.499 51.032L56.055 50.852C56.055 50.516 56.121 50.222 56.253 49.97C56.385 49.714 56.573 49.516 56.817 49.376C57.061 49.232 57.351 49.16 57.687 49.16L57.615 50.084C57.255 50.084 56.979 50.162 56.787 50.318C56.595 50.47 56.499 50.708 56.499 51.032ZM62.0161 56V48.464H64.4401C65.2681 48.464 65.9001 48.674 66.3361 49.094C66.7761 49.51 66.9961 50.076 66.9961 50.792C66.9961 51.5 66.7761 52.062 66.3361 52.478C65.9001 52.89 65.2681 53.096 64.4401 53.096H62.9641V56H62.0161ZM62.9641 52.28H64.4401C64.9641 52.28 65.3601 52.146 65.6281 51.878C65.9001 51.61 66.0361 51.248 66.0361 50.792C66.0361 50.328 65.9001 49.958 65.6281 49.682C65.3601 49.406 64.9641 49.268 64.4401 49.268H62.9641V52.28ZM72.5847 50.252H73.5207V56H72.5847V50.252ZM68.5167 50.252H69.4527V53.828C69.4527 54.308 69.5687 54.672 69.8007 54.92C70.0367 55.168 70.3727 55.292 70.8087 55.292C71.1687 55.292 71.4807 55.196 71.7447 55.004C72.0127 54.812 72.2187 54.548 72.3627 54.212C72.5107 53.872 72.5847 53.484 72.5847 53.048H72.9327C72.9327 53.692 72.8387 54.242 72.6507 54.698C72.4667 55.154 72.2047 55.504 71.8647 55.748C71.5287 55.988 71.1327 56.108 70.6767 56.108C70.2447 56.108 69.8667 56.028 69.5427 55.868C69.2187 55.708 68.9667 55.466 68.7867 55.142C68.6067 54.814 68.5167 54.4 68.5167 53.9V50.252ZM75.9503 56V47.816H76.8863V56H75.9503ZM79.3136 56V47.816H80.2496V56H79.3136ZM84.6688 56.144C84.1728 56.144 83.7288 56.018 83.3368 55.766C82.9488 55.51 82.6408 55.156 82.4128 54.704C82.1888 54.252 82.0768 53.732 82.0768 53.144C82.0768 52.516 82.1888 51.976 82.4128 51.524C82.6368 51.072 82.9428 50.726 83.3308 50.486C83.7228 50.242 84.1688 50.12 84.6688 50.12C85.1048 50.12 85.4768 50.208 85.7848 50.384C86.0928 50.56 86.3408 50.798 86.5288 51.098C86.7168 51.398 86.8468 51.738 86.9188 52.118C86.9948 52.494 87.0168 52.884 86.9848 53.288H82.8328V52.712H86.3668L86.0908 52.892C86.1028 52.656 86.0888 52.42 86.0488 52.184C86.0128 51.948 85.9428 51.732 85.8388 51.536C85.7348 51.336 85.5888 51.176 85.4008 51.056C85.2128 50.936 84.9728 50.876 84.6808 50.876C84.3128 50.876 84.0048 50.97 83.7568 51.158C83.5088 51.346 83.3228 51.594 83.1988 51.902C83.0748 52.206 83.0128 52.536 83.0128 52.892V53.276C83.0128 53.676 83.0728 54.034 83.1928 54.35C83.3168 54.666 83.5008 54.916 83.7448 55.1C83.9888 55.284 84.2968 55.376 84.6688 55.376C85.0408 55.376 85.3468 55.286 85.5868 55.106C85.8268 54.926 85.9728 54.66 86.0248 54.308H86.9968C86.9368 54.688 86.8008 55.016 86.5888 55.292C86.3768 55.564 86.1068 55.774 85.7788 55.922C85.4508 56.07 85.0808 56.144 84.6688 56.144ZM87.8929 50.264H88.9369L90.8089 55.184H90.5929L92.0449 50.264H93.0049L90.8449 57.152C90.6649 57.728 90.4249 58.172 90.1249 58.484C89.8249 58.796 89.4409 58.952 88.9729 58.952C88.7209 58.952 88.4809 58.916 88.2529 58.844C88.0289 58.772 87.7969 58.668 87.5569 58.532V57.668C87.7689 57.836 87.9729 57.956 88.1689 58.028C88.3689 58.1 88.5769 58.136 88.7929 58.136C89.0329 58.136 89.2329 58.06 89.3929 57.908C89.5569 57.756 89.6929 57.56 89.8009 57.32C89.9089 57.084 90.0009 56.836 90.0769 56.576L90.2449 56L87.8929 50.264ZM96.4948 56.144C95.9388 56.144 95.4748 56.066 95.1028 55.91C94.7308 55.75 94.4488 55.532 94.2568 55.256C94.0648 54.976 93.9628 54.656 93.9508 54.296H94.8508C94.8708 54.66 95.0168 54.934 95.2888 55.118C95.5648 55.298 95.9388 55.388 96.4108 55.388C96.6588 55.388 96.8868 55.348 97.0948 55.268C97.3028 55.188 97.4688 55.078 97.5928 54.938C97.7168 54.798 97.7788 54.64 97.7788 54.464C97.7788 54.24 97.6968 54.064 97.5328 53.936C97.3688 53.808 97.1068 53.696 96.7467 53.6L95.6308 53.24C95.1468 53.088 94.7748 52.88 94.5148 52.616C94.2588 52.348 94.1308 52.028 94.1308 51.656C94.1308 51.192 94.3348 50.82 94.7428 50.54C95.1508 50.26 95.6868 50.12 96.3508 50.12C97.0548 50.12 97.6008 50.264 97.9888 50.552C98.3768 50.84 98.5788 51.2 98.5948 51.632H97.6708C97.6348 51.38 97.5068 51.19 97.2868 51.062C97.0668 50.93 96.7548 50.864 96.3508 50.864C95.9628 50.864 95.6588 50.952 95.4388 51.128C95.2228 51.3 95.1148 51.492 95.1148 51.704C95.1148 52.1 95.4548 52.392 96.1348 52.58L97.2748 52.964C97.7668 53.112 98.1428 53.306 98.4028 53.546C98.6668 53.786 98.7988 54.092 98.7988 54.464C98.7988 54.752 98.7048 55.024 98.5168 55.28C98.3288 55.536 98.0628 55.744 97.7188 55.904C97.3748 56.064 96.9668 56.144 96.4948 56.144ZM102.539 48.464H103.595L105.551 55.172H105.275L107.279 49.244H107.915L109.895 55.124H109.631L111.875 48.464H112.919L110.255 56H109.271L107.531 50.888H107.711L105.911 56H104.927L102.539 48.464ZM114.834 48.908C114.642 48.908 114.49 48.854 114.378 48.746C114.266 48.634 114.21 48.488 114.21 48.308C114.21 48.132 114.266 47.992 114.378 47.888C114.49 47.784 114.642 47.732 114.834 47.732C115.026 47.732 115.178 47.784 115.29 47.888C115.402 47.992 115.458 48.132 115.458 48.308C115.458 48.488 115.402 48.634 115.29 48.746C115.178 48.854 115.026 48.908 114.834 48.908ZM114.366 56V50.252H115.302V56H114.366ZM119.644 56.144C119.332 56.144 119.052 56.084 118.804 55.964C118.556 55.844 118.36 55.664 118.216 55.424C118.072 55.184 118 54.884 118 54.524V48.668H118.924V54.5C118.924 55.092 119.2 55.388 119.752 55.388C119.916 55.388 120.074 55.37 120.226 55.334C120.382 55.298 120.556 55.244 120.748 55.172L120.88 55.844C120.676 55.932 120.472 56.004 120.268 56.06C120.068 56.116 119.86 56.144 119.644 56.144ZM117.076 50.912V50.264H120.736V50.912H117.076ZM126.472 56V52.628C126.472 52.08 126.34 51.664 126.076 51.38C125.816 51.092 125.46 50.948 125.008 50.948C124.664 50.948 124.366 51.042 124.114 51.23C123.862 51.418 123.668 51.688 123.532 52.04C123.396 52.388 123.328 52.804 123.328 53.288H122.968C122.968 52.62 123.056 52.05 123.232 51.578C123.408 51.106 123.664 50.746 124 50.498C124.34 50.246 124.752 50.12 125.236 50.12C125.688 50.12 126.074 50.222 126.394 50.426C126.718 50.626 126.966 50.914 127.138 51.29C127.31 51.666 127.396 52.112 127.396 52.628V56H126.472ZM122.392 56V47.816H123.328V56H122.392ZM16.9581 65.464H17.8941V68.788H21.6261V65.464H22.5501V73H21.6261V69.592H17.8941V73H16.9581V65.464ZM25.5134 65.908C25.3214 65.908 25.1694 65.854 25.0574 65.746C24.9454 65.634 24.8894 65.488 24.8894 65.308C24.8894 65.132 24.9454 64.992 25.0574 64.888C25.1694 64.784 25.3214 64.732 25.5134 64.732C25.7054 64.732 25.8574 64.784 25.9694 64.888C26.0814 64.992 26.1374 65.132 26.1374 65.308C26.1374 65.488 26.0814 65.634 25.9694 65.746C25.8574 65.854 25.7054 65.908 25.5134 65.908ZM25.0454 73V67.252H25.9814V73H25.0454ZM30.5877 75.952C29.9997 75.952 29.4897 75.868 29.0577 75.7C28.6257 75.536 28.2897 75.314 28.0497 75.034C27.8137 74.758 27.6957 74.452 27.6957 74.116C27.6957 73.672 27.8577 73.332 28.1817 73.096C28.5097 72.864 28.9317 72.748 29.4477 72.748L29.9637 73.072C29.5317 73.072 29.1977 73.162 28.9617 73.342C28.7257 73.522 28.6077 73.768 28.6077 74.08C28.6077 74.392 28.7757 74.656 29.1117 74.872C29.4477 75.088 29.9397 75.196 30.5877 75.196C31.0677 75.196 31.4877 75.126 31.8477 74.986C32.2117 74.85 32.4937 74.67 32.6937 74.446C32.8977 74.226 32.9997 73.988 32.9997 73.732C32.9997 73.552 32.9337 73.396 32.8017 73.264C32.6697 73.136 32.4677 73.072 32.1957 73.072H29.9637C29.5757 73.072 29.2397 73.014 28.9557 72.898C28.6757 72.778 28.4597 72.622 28.3077 72.43C28.1557 72.238 28.0797 72.028 28.0797 71.8C28.0797 71.56 28.1477 71.356 28.2837 71.188C28.4197 71.02 28.5957 70.892 28.8117 70.804C29.0317 70.716 29.2677 70.672 29.5197 70.672L29.6997 71.02C29.5797 71.02 29.4577 71.048 29.3337 71.104C29.2137 71.156 29.1117 71.236 29.0277 71.344C28.9477 71.448 28.9077 71.58 28.9077 71.74C28.9077 71.924 28.9837 72.078 29.1357 72.202C29.2877 72.326 29.5637 72.388 29.9637 72.388H32.1957C32.7357 72.388 33.1597 72.502 33.4677 72.73C33.7797 72.958 33.9357 73.276 33.9357 73.684C33.9357 74.06 33.8017 74.42 33.5337 74.764C33.2657 75.112 32.8817 75.396 32.3817 75.616C31.8817 75.84 31.2837 75.952 30.5877 75.952ZM30.7557 71.32C30.3157 71.32 29.9177 71.232 29.5617 71.056C29.2097 70.88 28.9297 70.634 28.7217 70.318C28.5177 70.002 28.4157 69.636 28.4157 69.22C28.4157 68.8 28.5177 68.432 28.7217 68.116C28.9297 67.8 29.2097 67.556 29.5617 67.384C29.9177 67.208 30.3157 67.12 30.7557 67.12C31.1837 67.12 31.5717 67.208 31.9197 67.384C32.2717 67.556 32.5517 67.8 32.7597 68.116C32.9677 68.432 33.0717 68.8 33.0717 69.22C33.0717 69.636 32.9677 70.002 32.7597 70.318C32.5517 70.634 32.2717 70.88 31.9197 71.056C31.5717 71.232 31.1837 71.32 30.7557 71.32ZM30.7557 70.648C31.1957 70.648 31.5377 70.512 31.7817 70.24C32.0257 69.968 32.1477 69.628 32.1477 69.22C32.1477 68.8 32.0257 68.46 31.7817 68.2C31.5377 67.936 31.1957 67.804 30.7557 67.804C30.3197 67.804 29.9757 67.936 29.7237 68.2C29.4757 68.46 29.3517 68.8 29.3517 69.22C29.3517 69.628 29.4757 69.968 29.7237 70.24C29.9757 70.512 30.3197 70.648 30.7557 70.648ZM32.6397 68.032L32.1957 67.852C32.1957 67.516 32.2617 67.222 32.3937 66.97C32.5257 66.714 32.7137 66.516 32.9577 66.376C33.2017 66.232 33.4917 66.16 33.8277 66.16L33.7557 67.084C33.3957 67.084 33.1197 67.162 32.9277 67.318C32.7357 67.47 32.6397 67.708 32.6397 68.032ZM39.4131 73V69.628C39.4131 69.08 39.2811 68.664 39.0171 68.38C38.7571 68.092 38.4011 67.948 37.9491 67.948C37.6051 67.948 37.3071 68.042 37.0551 68.23C36.8031 68.418 36.6091 68.688 36.4731 69.04C36.3371 69.388 36.2691 69.804 36.2691 70.288H35.9091C35.9091 69.62 35.9971 69.05 36.1731 68.578C36.3491 68.106 36.6051 67.746 36.9411 67.498C37.2811 67.246 37.6931 67.12 38.1771 67.12C38.6291 67.12 39.0151 67.222 39.3351 67.426C39.6591 67.626 39.9071 67.914 40.0791 68.29C40.2511 68.666 40.3371 69.112 40.3371 69.628V73H39.4131ZM35.3331 73V64.816H36.2691V73H35.3331ZM41.8193 69.916V69.1H45.0833V69.916H41.8193ZM45.6072 66.268V65.464H51.4752V66.268H48.7932L49.0032 66.052V73H48.0672V66.052L48.2772 66.268H45.6072ZM53.8857 73.144C53.3697 73.144 52.9097 73.03 52.5057 72.802C52.1057 72.574 51.7897 72.236 51.5577 71.788C51.3257 71.34 51.2097 70.788 51.2097 70.132C51.2097 69.472 51.3257 68.92 51.5577 68.476C51.7897 68.028 52.1057 67.69 52.5057 67.462C52.9097 67.234 53.3697 67.12 53.8857 67.12C54.3977 67.12 54.8537 67.234 55.2537 67.462C55.6577 67.69 55.9737 68.028 56.2017 68.476C56.4337 68.92 56.5497 69.472 56.5497 70.132C56.5497 70.788 56.4337 71.34 56.2017 71.788C55.9737 72.236 55.6577 72.574 55.2537 72.802C54.8537 73.03 54.3977 73.144 53.8857 73.144ZM53.8617 72.328C54.2337 72.328 54.5497 72.24 54.8097 72.064C55.0697 71.884 55.2657 71.63 55.3977 71.302C55.5337 70.974 55.6017 70.584 55.6017 70.132C55.6017 69.448 55.4597 68.91 55.1757 68.518C54.8917 68.122 54.4697 67.924 53.9097 67.924C53.5337 67.924 53.2157 68.014 52.9557 68.194C52.6997 68.37 52.5037 68.624 52.3677 68.956C52.2357 69.284 52.1697 69.676 52.1697 70.132C52.1697 70.808 52.3117 71.344 52.5957 71.74C52.8837 72.132 53.3057 72.328 53.8617 72.328ZM58.3722 73V67.252H59.3082V73H58.3722ZM59.0202 70.408C59.0202 69.68 59.0902 69.076 59.2302 68.596C59.3702 68.112 59.5742 67.752 59.8422 67.516C60.1142 67.276 60.4442 67.156 60.8322 67.156C60.9602 67.156 61.0762 67.166 61.1802 67.186C61.2882 67.202 61.3962 67.228 61.5042 67.264L61.4442 68.188C61.3322 68.152 61.2102 68.122 61.0782 68.098C60.9462 68.07 60.8282 68.056 60.7242 68.056C60.3842 68.056 60.1102 68.154 59.9022 68.35C59.6942 68.542 59.5422 68.814 59.4462 69.166C59.3542 69.518 59.3082 69.932 59.3082 70.408H59.0202ZM64.7001 73.144C64.2441 73.144 63.8181 73.024 63.4221 72.784C63.0301 72.544 62.7121 72.198 62.4681 71.746C62.2281 71.294 62.1081 70.752 62.1081 70.12C62.1081 69.496 62.2281 68.96 62.4681 68.512C62.7081 68.064 63.0221 67.72 63.4101 67.48C63.8021 67.24 64.2201 67.12 64.6641 67.12C65.0561 67.12 65.4101 67.216 65.7261 67.408C66.0461 67.6 66.2981 67.886 66.4821 68.266C66.6701 68.642 66.7641 69.108 66.7641 69.664H66.3561C66.3561 69.292 66.2821 68.98 66.1341 68.728C65.9861 68.472 65.7921 68.278 65.5521 68.146C65.3121 68.014 65.0561 67.948 64.7841 67.948C64.4721 67.948 64.1861 68.034 63.9261 68.206C63.6661 68.378 63.4581 68.626 63.3021 68.95C63.1461 69.274 63.0681 69.664 63.0681 70.12C63.0681 70.596 63.1501 70.996 63.3141 71.32C63.4821 71.644 63.6981 71.89 63.9621 72.058C64.2261 72.222 64.5041 72.304 64.7961 72.304C65.0601 72.304 65.3101 72.242 65.5461 72.118C65.7861 71.994 65.9801 71.81 66.1281 71.566C66.2801 71.322 66.3561 71.02 66.3561 70.66H66.6321C66.6321 71.156 66.5581 71.59 66.4101 71.962C66.2621 72.334 66.0441 72.624 65.7561 72.832C65.4681 73.04 65.1161 73.144 64.7001 73.144ZM67.8441 75.952C67.3001 75.8 66.9161 75.566 66.6921 75.25C66.4681 74.934 66.3561 74.488 66.3561 73.912V68.608L66.6441 67.264H67.2801V73.972C67.2801 74.244 67.3061 74.458 67.3581 74.614C67.4101 74.77 67.5001 74.892 67.6281 74.98C67.7561 75.072 67.9321 75.156 68.1561 75.232L67.8441 75.952ZM73.6276 67.252H74.5636V73H73.6276V67.252ZM69.5596 67.252H70.4956V70.828C70.4956 71.308 70.6116 71.672 70.8436 71.92C71.0796 72.168 71.4156 72.292 71.8516 72.292C72.2116 72.292 72.5236 72.196 72.7876 72.004C73.0556 71.812 73.2616 71.548 73.4056 71.212C73.5536 70.872 73.6276 70.484 73.6276 70.048H73.9756C73.9756 70.692 73.8816 71.242 73.6936 71.698C73.5096 72.154 73.2476 72.504 72.9076 72.748C72.5716 72.988 72.1756 73.108 71.7196 73.108C71.2876 73.108 70.9096 73.028 70.5856 72.868C70.2616 72.708 70.0096 72.466 69.8296 72.142C69.6496 71.814 69.5596 71.4 69.5596 70.9V67.252ZM78.9853 73.144C78.4893 73.144 78.0453 73.018 77.6533 72.766C77.2653 72.51 76.9573 72.156 76.7293 71.704C76.5053 71.252 76.3933 70.732 76.3933 70.144C76.3933 69.516 76.5053 68.976 76.7293 68.524C76.9533 68.072 77.2593 67.726 77.6473 67.486C78.0393 67.242 78.4853 67.12 78.9853 67.12C79.4213 67.12 79.7933 67.208 80.1013 67.384C80.4093 67.56 80.6573 67.798 80.8453 68.098C81.0333 68.398 81.1633 68.738 81.2353 69.118C81.3113 69.494 81.3333 69.884 81.3013 70.288H77.1493V69.712H80.6833L80.4073 69.892C80.4193 69.656 80.4053 69.42 80.3653 69.184C80.3293 68.948 80.2593 68.732 80.1553 68.536C80.0513 68.336 79.9053 68.176 79.7173 68.056C79.5293 67.936 79.2893 67.876 78.9973 67.876C78.6293 67.876 78.3213 67.97 78.0733 68.158C77.8253 68.346 77.6393 68.594 77.5153 68.902C77.3913 69.206 77.3293 69.536 77.3293 69.892V70.276C77.3293 70.676 77.3893 71.034 77.5093 71.35C77.6333 71.666 77.8173 71.916 78.0613 72.1C78.3053 72.284 78.6133 72.376 78.9853 72.376C79.3573 72.376 79.6633 72.286 79.9033 72.106C80.1433 71.926 80.2893 71.66 80.3413 71.308H81.3133C81.2533 71.688 81.1173 72.016 80.9053 72.292C80.6933 72.564 80.4233 72.774 80.0953 72.922C79.7673 73.07 79.3973 73.144 78.9853 73.144ZM88.621 73.144C87.957 73.144 87.385 72.978 86.905 72.646C86.425 72.31 86.055 71.846 85.795 71.254C85.535 70.658 85.405 69.968 85.405 69.184C85.405 68.348 85.545 67.644 85.825 67.072C86.109 66.5 86.493 66.068 86.977 65.776C87.465 65.48 88.013 65.332 88.621 65.332C89.425 65.332 90.071 65.534 90.559 65.938C91.051 66.338 91.389 66.86 91.573 67.504L90.565 67.708C90.409 67.24 90.159 66.868 89.815 66.592C89.475 66.312 89.077 66.172 88.621 66.172C88.225 66.172 87.859 66.286 87.523 66.514C87.191 66.738 86.923 67.074 86.719 67.522C86.515 67.97 86.413 68.524 86.413 69.184C86.413 69.784 86.493 70.318 86.653 70.786C86.817 71.254 87.061 71.622 87.385 71.89C87.713 72.158 88.125 72.292 88.621 72.292C89.217 72.292 89.689 72.132 90.037 71.812C90.389 71.492 90.565 71.072 90.565 70.552H91.585C91.585 71.092 91.461 71.556 91.213 71.944C90.965 72.328 90.617 72.624 90.169 72.832C89.725 73.04 89.209 73.144 88.621 73.144ZM96.9163 73L96.7963 71.74V69.28C96.7963 68.764 96.6863 68.394 96.4663 68.17C96.2463 67.942 95.9163 67.828 95.4763 67.828C95.2283 67.828 95.0023 67.864 94.7983 67.936C94.5983 68.008 94.4383 68.12 94.3183 68.272C94.2023 68.42 94.1443 68.612 94.1443 68.848H93.1003C93.1003 68.432 93.2023 68.098 93.4063 67.846C93.6103 67.59 93.8903 67.406 94.2463 67.294C94.6063 67.178 95.0163 67.12 95.4763 67.12C95.9163 67.12 96.3063 67.194 96.6463 67.342C96.9863 67.49 97.2523 67.726 97.4443 68.05C97.6363 68.37 97.7323 68.788 97.7323 69.304V73H96.9163ZM94.9603 73.144C94.4883 73.144 94.0983 73.06 93.7903 72.892C93.4823 72.724 93.2523 72.506 93.1003 72.238C92.9483 71.97 92.8723 71.688 92.8723 71.392C92.8723 71.004 92.9683 70.688 93.1603 70.444C93.3563 70.2 93.6223 70.022 93.9583 69.91C94.2943 69.794 94.6723 69.736 95.0923 69.736C95.3923 69.736 95.6923 69.766 95.9923 69.826C96.2963 69.886 96.5923 69.968 96.8803 70.072V70.66C96.6403 70.564 96.3683 70.488 96.0643 70.432C95.7643 70.376 95.4883 70.348 95.2363 70.348C94.8523 70.348 94.5283 70.428 94.2643 70.588C94.0003 70.744 93.8683 71.012 93.8683 71.392C93.8683 71.672 93.9683 71.912 94.1683 72.112C94.3723 72.312 94.6963 72.412 95.1403 72.412C95.4523 72.412 95.7323 72.34 95.9803 72.196C96.2323 72.048 96.4303 71.864 96.5743 71.644C96.7223 71.424 96.7963 71.204 96.7963 70.984H97.0243C97.0243 71.368 96.9403 71.724 96.7723 72.052C96.6083 72.38 96.3723 72.644 96.0643 72.844C95.7563 73.044 95.3883 73.144 94.9603 73.144ZM102.578 73.144C102.158 73.144 101.792 73.048 101.48 72.856C101.172 72.664 100.934 72.384 100.766 72.016C100.598 71.644 100.514 71.192 100.514 70.66H100.91C100.91 71.016 100.984 71.316 101.132 71.56C101.28 71.804 101.472 71.99 101.708 72.118C101.948 72.242 102.202 72.304 102.47 72.304C102.758 72.304 103.034 72.222 103.298 72.058C103.562 71.89 103.778 71.644 103.946 71.32C104.114 70.996 104.198 70.596 104.198 70.12C104.198 69.664 104.12 69.274 103.964 68.95C103.812 68.626 103.606 68.378 103.346 68.206C103.086 68.034 102.798 67.948 102.482 67.948C102.21 67.948 101.954 68.014 101.714 68.146C101.474 68.278 101.28 68.472 101.132 68.728C100.984 68.98 100.91 69.292 100.91 69.664H100.514C100.514 69.108 100.606 68.642 100.79 68.266C100.974 67.886 101.224 67.6 101.54 67.408C101.856 67.216 102.21 67.12 102.602 67.12C103.05 67.12 103.468 67.24 103.856 67.48C104.244 67.72 104.558 68.064 104.798 68.512C105.038 68.96 105.158 69.496 105.158 70.12C105.158 70.752 105.036 71.294 104.792 71.746C104.552 72.198 104.236 72.544 103.844 72.784C103.452 73.024 103.03 73.144 102.578 73.144ZM99.9737 75.82V67.264H100.754L100.91 68.608V75.82H99.9737ZM110.545 73L110.425 71.74V69.28C110.425 68.764 110.315 68.394 110.095 68.17C109.875 67.942 109.545 67.828 109.105 67.828C108.857 67.828 108.631 67.864 108.427 67.936C108.227 68.008 108.067 68.12 107.947 68.272C107.831 68.42 107.773 68.612 107.773 68.848H106.729C106.729 68.432 106.831 68.098 107.035 67.846C107.239 67.59 107.519 67.406 107.875 67.294C108.235 67.178 108.645 67.12 109.105 67.12C109.545 67.12 109.935 67.194 110.275 67.342C110.615 67.49 110.881 67.726 111.073 68.05C111.265 68.37 111.361 68.788 111.361 69.304V73H110.545ZM108.589 73.144C108.117 73.144 107.727 73.06 107.419 72.892C107.111 72.724 106.881 72.506 106.729 72.238C106.577 71.97 106.501 71.688 106.501 71.392C106.501 71.004 106.597 70.688 106.789 70.444C106.985 70.2 107.251 70.022 107.587 69.91C107.923 69.794 108.301 69.736 108.721 69.736C109.021 69.736 109.321 69.766 109.621 69.826C109.925 69.886 110.221 69.968 110.509 70.072V70.66C110.269 70.564 109.997 70.488 109.693 70.432C109.393 70.376 109.117 70.348 108.865 70.348C108.481 70.348 108.157 70.428 107.893 70.588C107.629 70.744 107.497 71.012 107.497 71.392C107.497 71.672 107.597 71.912 107.797 72.112C108.001 72.312 108.325 72.412 108.769 72.412C109.081 72.412 109.361 72.34 109.609 72.196C109.861 72.048 110.059 71.864 110.203 71.644C110.351 71.424 110.425 71.204 110.425 70.984H110.653C110.653 71.368 110.569 71.724 110.401 72.052C110.237 72.38 110.001 72.644 109.693 72.844C109.385 73.044 109.017 73.144 108.589 73.144ZM115.619 73.144C115.159 73.144 114.729 73.02 114.329 72.772C113.933 72.524 113.613 72.174 113.369 71.722C113.125 71.27 113.003 70.736 113.003 70.12C113.003 69.488 113.125 68.948 113.369 68.5C113.613 68.052 113.933 67.71 114.329 67.474C114.729 67.238 115.159 67.12 115.619 67.12C115.943 67.12 116.233 67.17 116.489 67.27C116.749 67.366 116.975 67.5 117.167 67.672C117.359 67.844 117.517 68.04 117.641 68.26C117.769 68.476 117.863 68.704 117.923 68.944L116.963 69.028C116.863 68.696 116.695 68.434 116.459 68.242C116.227 68.046 115.943 67.948 115.607 67.948C115.323 67.948 115.055 68.03 114.803 68.194C114.555 68.354 114.353 68.596 114.197 68.92C114.041 69.24 113.963 69.64 113.963 70.12C113.963 70.564 114.033 70.95 114.173 71.278C114.317 71.602 114.513 71.854 114.761 72.034C115.009 72.214 115.291 72.304 115.607 72.304C116.051 72.304 116.387 72.196 116.615 71.98C116.847 71.76 116.963 71.456 116.963 71.068H117.923C117.923 71.468 117.829 71.824 117.641 72.136C117.453 72.448 117.185 72.694 116.837 72.874C116.493 73.054 116.087 73.144 115.619 73.144ZM120.318 65.908C120.126 65.908 119.974 65.854 119.862 65.746C119.75 65.634 119.694 65.488 119.694 65.308C119.694 65.132 119.75 64.992 119.862 64.888C119.974 64.784 120.126 64.732 120.318 64.732C120.51 64.732 120.662 64.784 120.774 64.888C120.886 64.992 120.942 65.132 120.942 65.308C120.942 65.488 120.886 65.634 120.774 65.746C120.662 65.854 120.51 65.908 120.318 65.908ZM119.85 73V67.252H120.786V73H119.85ZM125.128 73.144C124.816 73.144 124.536 73.084 124.288 72.964C124.04 72.844 123.844 72.664 123.7 72.424C123.556 72.184 123.484 71.884 123.484 71.524V65.668H124.408V71.5C124.408 72.092 124.684 72.388 125.236 72.388C125.4 72.388 125.558 72.37 125.71 72.334C125.866 72.298 126.04 72.244 126.232 72.172L126.364 72.844C126.16 72.932 125.956 73.004 125.752 73.06C125.552 73.116 125.344 73.144 125.128 73.144ZM122.56 67.912V67.264H126.22V67.912H122.56ZM126.928 67.264H127.972L129.844 72.184H129.628L131.08 67.264H132.04L129.88 74.152C129.7 74.728 129.46 75.172 129.16 75.484C128.86 75.796 128.476 75.952 128.008 75.952C127.756 75.952 127.516 75.916 127.288 75.844C127.064 75.772 126.832 75.668 126.592 75.532V74.668C126.804 74.836 127.008 74.956 127.204 75.028C127.404 75.1 127.612 75.136 127.828 75.136C128.068 75.136 128.268 75.06 128.428 74.908C128.592 74.756 128.728 74.56 128.836 74.32C128.944 74.084 129.036 73.836 129.112 73.576L129.28 73L126.928 67.264Z" fill="white"/>
<path d="M157 35H321C322.657 35 324 36.3431 324 38V83H157V35Z" fill="#0E3E76"/>
<path d="M321 35.125C322.588 35.125 323.875 36.4122 323.875 38V82.875H157.125V35.125H321Z" stroke="black" stroke-opacity="0.1" stroke-width="0.25"/>
<path d="M321 35.125C322.588 35.125 323.875 36.4122 323.875 38V82.875H157.125V35.125H321Z" stroke="black" stroke-opacity="0.2" stroke-width="0.25"/>
<path d="M195.8 57.268V56.464H201.668V57.268H198.986L199.196 57.052V64H198.26V57.052L198.47 57.268H195.8ZM205.701 64L205.581 62.74V60.28C205.581 59.764 205.471 59.394 205.251 59.17C205.031 58.942 204.701 58.828 204.261 58.828C204.013 58.828 203.787 58.864 203.583 58.936C203.383 59.008 203.223 59.12 203.103 59.272C202.987 59.42 202.929 59.612 202.929 59.848H201.885C201.885 59.432 201.987 59.098 202.191 58.846C202.395 58.59 202.675 58.406 203.031 58.294C203.391 58.178 203.801 58.12 204.261 58.12C204.701 58.12 205.091 58.194 205.431 58.342C205.771 58.49 206.037 58.726 206.229 59.05C206.421 59.37 206.517 59.788 206.517 60.304V64H205.701ZM203.745 64.144C203.273 64.144 202.883 64.06 202.575 63.892C202.267 63.724 202.037 63.506 201.885 63.238C201.733 62.97 201.657 62.688 201.657 62.392C201.657 62.004 201.753 61.688 201.945 61.444C202.141 61.2 202.407 61.022 202.743 60.91C203.079 60.794 203.457 60.736 203.877 60.736C204.177 60.736 204.477 60.766 204.777 60.826C205.081 60.886 205.377 60.968 205.665 61.072V61.66C205.425 61.564 205.153 61.488 204.849 61.432C204.549 61.376 204.273 61.348 204.021 61.348C203.637 61.348 203.313 61.428 203.049 61.588C202.785 61.744 202.653 62.012 202.653 62.392C202.653 62.672 202.753 62.912 202.953 63.112C203.157 63.312 203.481 63.412 203.925 63.412C204.237 63.412 204.517 63.34 204.765 63.196C205.017 63.048 205.215 62.864 205.359 62.644C205.507 62.424 205.581 62.204 205.581 61.984H205.809C205.809 62.368 205.725 62.724 205.557 63.052C205.393 63.38 205.157 63.644 204.849 63.844C204.541 64.044 204.173 64.144 203.745 64.144ZM211.602 64.144C211.182 64.144 210.816 64.048 210.504 63.856C210.196 63.664 209.958 63.384 209.79 63.016C209.622 62.644 209.538 62.192 209.538 61.66H209.934C209.934 62.016 210.008 62.316 210.156 62.56C210.304 62.804 210.496 62.99 210.732 63.118C210.972 63.242 211.226 63.304 211.494 63.304C211.782 63.304 212.058 63.222 212.322 63.058C212.586 62.89 212.802 62.644 212.97 62.32C213.138 61.996 213.222 61.596 213.222 61.12C213.222 60.664 213.144 60.274 212.988 59.95C212.836 59.626 212.63 59.378 212.37 59.206C212.11 59.034 211.822 58.948 211.506 58.948C211.234 58.948 210.978 59.014 210.738 59.146C210.498 59.278 210.304 59.472 210.156 59.728C210.008 59.98 209.934 60.292 209.934 60.664H209.538C209.538 60.108 209.63 59.642 209.814 59.266C209.998 58.886 210.248 58.6 210.564 58.408C210.88 58.216 211.234 58.12 211.626 58.12C212.074 58.12 212.492 58.24 212.88 58.48C213.268 58.72 213.582 59.064 213.822 59.512C214.062 59.96 214.182 60.496 214.182 61.12C214.182 61.752 214.06 62.294 213.816 62.746C213.576 63.198 213.26 63.544 212.868 63.784C212.476 64.024 212.054 64.144 211.602 64.144ZM208.998 66.82V58.264H209.778L209.934 59.608V66.82H208.998ZM218.25 64.144C217.754 64.144 217.31 64.018 216.918 63.766C216.53 63.51 216.222 63.156 215.994 62.704C215.77 62.252 215.658 61.732 215.658 61.144C215.658 60.516 215.77 59.976 215.994 59.524C216.218 59.072 216.524 58.726 216.912 58.486C217.304 58.242 217.75 58.12 218.25 58.12C218.686 58.12 219.058 58.208 219.366 58.384C219.674 58.56 219.922 58.798 220.11 59.098C220.298 59.398 220.428 59.738 220.5 60.118C220.576 60.494 220.598 60.884 220.566 61.288H216.414V60.712H219.948L219.672 60.892C219.684 60.656 219.67 60.42 219.63 60.184C219.594 59.948 219.524 59.732 219.42 59.536C219.316 59.336 219.17 59.176 218.982 59.056C218.794 58.936 218.554 58.876 218.262 58.876C217.894 58.876 217.586 58.97 217.338 59.158C217.09 59.346 216.904 59.594 216.78 59.902C216.656 60.206 216.594 60.536 216.594 60.892V61.276C216.594 61.676 216.654 62.034 216.774 62.35C216.898 62.666 217.082 62.916 217.326 63.1C217.57 63.284 217.878 63.376 218.25 63.376C218.622 63.376 218.928 63.286 219.168 63.106C219.408 62.926 219.554 62.66 219.606 62.308H220.578C220.518 62.688 220.382 63.016 220.17 63.292C219.958 63.564 219.688 63.774 219.36 63.922C219.032 64.07 218.662 64.144 218.25 64.144ZM222.662 64V58.252H223.598V64H222.662ZM223.31 61.408C223.31 60.68 223.38 60.076 223.52 59.596C223.66 59.112 223.864 58.752 224.132 58.516C224.404 58.276 224.734 58.156 225.122 58.156C225.25 58.156 225.366 58.166 225.47 58.186C225.578 58.202 225.686 58.228 225.794 58.264L225.734 59.188C225.622 59.152 225.5 59.122 225.368 59.098C225.236 59.07 225.118 59.056 225.014 59.056C224.674 59.056 224.4 59.154 224.192 59.35C223.984 59.542 223.832 59.814 223.736 60.166C223.644 60.518 223.598 60.932 223.598 61.408H223.31ZM231.262 56.464V63.184H234.622V64H230.326V56.464H231.262ZM238.255 64.144C237.739 64.144 237.279 64.03 236.875 63.802C236.475 63.574 236.159 63.236 235.927 62.788C235.695 62.34 235.579 61.788 235.579 61.132C235.579 60.472 235.695 59.92 235.927 59.476C236.159 59.028 236.475 58.69 236.875 58.462C237.279 58.234 237.739 58.12 238.255 58.12C238.767 58.12 239.223 58.234 239.623 58.462C240.027 58.69 240.343 59.028 240.571 59.476C240.803 59.92 240.919 60.472 240.919 61.132C240.919 61.788 240.803 62.34 240.571 62.788C240.343 63.236 240.027 63.574 239.623 63.802C239.223 64.03 238.767 64.144 238.255 64.144ZM238.231 63.328C238.603 63.328 238.919 63.24 239.179 63.064C239.439 62.884 239.635 62.63 239.767 62.302C239.903 61.974 239.971 61.584 239.971 61.132C239.971 60.448 239.829 59.91 239.545 59.518C239.261 59.122 238.839 58.924 238.279 58.924C237.903 58.924 237.585 59.014 237.325 59.194C237.069 59.37 236.873 59.624 236.737 59.956C236.605 60.284 236.539 60.676 236.539 61.132C236.539 61.808 236.681 62.344 236.965 62.74C237.253 63.132 237.675 63.328 238.231 63.328ZM244.997 64.144C244.537 64.144 244.107 64.02 243.707 63.772C243.311 63.524 242.991 63.174 242.747 62.722C242.503 62.27 242.381 61.736 242.381 61.12C242.381 60.488 242.503 59.948 242.747 59.5C242.991 59.052 243.311 58.71 243.707 58.474C244.107 58.238 244.537 58.12 244.997 58.12C245.321 58.12 245.611 58.17 245.867 58.27C246.127 58.366 246.353 58.5 246.545 58.672C246.737 58.844 246.895 59.04 247.019 59.26C247.147 59.476 247.241 59.704 247.301 59.944L246.341 60.028C246.241 59.696 246.073 59.434 245.837 59.242C245.605 59.046 245.321 58.948 244.985 58.948C244.701 58.948 244.433 59.03 244.181 59.194C243.933 59.354 243.731 59.596 243.575 59.92C243.419 60.24 243.341 60.64 243.341 61.12C243.341 61.564 243.411 61.95 243.551 62.278C243.695 62.602 243.891 62.854 244.139 63.034C244.387 63.214 244.669 63.304 244.985 63.304C245.429 63.304 245.765 63.196 245.993 62.98C246.225 62.76 246.341 62.456 246.341 62.068H247.301C247.301 62.468 247.207 62.824 247.019 63.136C246.831 63.448 246.563 63.694 246.215 63.874C245.871 64.054 245.465 64.144 244.997 64.144ZM249.409 64V55.816H250.345V64H249.409ZM250.201 60.712L253.129 58.264H254.437L250.201 61.708V60.712ZM253.417 64L250.693 60.376L251.641 60.208L254.569 64H253.417ZM259.498 64V56.464H262.318C262.87 56.464 263.328 56.556 263.692 56.74C264.056 56.92 264.328 57.16 264.508 57.46C264.688 57.756 264.778 58.08 264.778 58.432C264.778 58.864 264.658 59.24 264.418 59.56C264.182 59.876 263.826 60.092 263.35 60.208C263.658 60.256 263.928 60.366 264.16 60.538C264.396 60.706 264.58 60.914 264.712 61.162C264.844 61.406 264.91 61.668 264.91 61.948C264.91 62.204 264.866 62.454 264.778 62.698C264.694 62.942 264.552 63.162 264.352 63.358C264.152 63.554 263.886 63.71 263.554 63.826C263.222 63.942 262.81 64 262.318 64H259.498ZM260.434 63.184H262.306C262.878 63.184 263.288 63.064 263.536 62.824C263.788 62.584 263.914 62.276 263.914 61.9C263.914 61.52 263.778 61.216 263.506 60.988C263.234 60.756 262.834 60.64 262.306 60.64H260.434V63.184ZM260.434 57.268V59.836H262.282C262.75 59.836 263.122 59.722 263.398 59.494C263.678 59.262 263.818 58.936 263.818 58.516C263.818 58.124 263.682 57.818 263.41 57.598C263.142 57.378 262.77 57.268 262.294 57.268H260.434ZM271.091 58.252H272.027V64H271.091V58.252ZM267.023 58.252H267.959V61.828C267.959 62.308 268.075 62.672 268.307 62.92C268.543 63.168 268.879 63.292 269.315 63.292C269.675 63.292 269.987 63.196 270.251 63.004C270.519 62.812 270.725 62.548 270.869 62.212C271.017 61.872 271.091 61.484 271.091 61.048H271.439C271.439 61.692 271.345 62.242 271.157 62.698C270.973 63.154 270.711 63.504 270.371 63.748C270.035 63.988 269.639 64.108 269.183 64.108C268.751 64.108 268.373 64.028 268.049 63.868C267.725 63.708 267.473 63.466 267.293 63.142C267.113 62.814 267.023 62.4 267.023 61.9V58.252ZM276.761 64.144C276.205 64.144 275.741 64.066 275.369 63.91C274.997 63.75 274.715 63.532 274.523 63.256C274.331 62.976 274.229 62.656 274.217 62.296H275.117C275.137 62.66 275.283 62.934 275.555 63.118C275.831 63.298 276.205 63.388 276.677 63.388C276.925 63.388 277.153 63.348 277.361 63.268C277.569 63.188 277.735 63.078 277.859 62.938C277.983 62.798 278.045 62.64 278.045 62.464C278.045 62.24 277.963 62.064 277.799 61.936C277.635 61.808 277.373 61.696 277.013 61.6L275.897 61.24C275.413 61.088 275.041 60.88 274.781 60.616C274.525 60.348 274.397 60.028 274.397 59.656C274.397 59.192 274.601 58.82 275.009 58.54C275.417 58.26 275.953 58.12 276.617 58.12C277.321 58.12 277.867 58.264 278.255 58.552C278.643 58.84 278.845 59.2 278.861 59.632H277.937C277.901 59.38 277.773 59.19 277.553 59.062C277.333 58.93 277.021 58.864 276.617 58.864C276.229 58.864 275.925 58.952 275.705 59.128C275.489 59.3 275.381 59.492 275.381 59.704C275.381 60.1 275.721 60.392 276.401 60.58L277.541 60.964C278.033 61.112 278.409 61.306 278.669 61.546C278.933 61.786 279.065 62.092 279.065 62.464C279.065 62.752 278.971 63.024 278.783 63.28C278.595 63.536 278.329 63.744 277.985 63.904C277.641 64.064 277.233 64.144 276.761 64.144ZM285.322 64V60.628C285.322 60.08 285.19 59.664 284.926 59.38C284.666 59.092 284.31 58.948 283.858 58.948C283.514 58.948 283.216 59.042 282.964 59.23C282.712 59.418 282.518 59.688 282.382 60.04C282.246 60.388 282.178 60.804 282.178 61.288H281.818C281.818 60.62 281.906 60.05 282.082 59.578C282.258 59.106 282.514 58.746 282.85 58.498C283.19 58.246 283.602 58.12 284.086 58.12C284.538 58.12 284.924 58.222 285.244 58.426C285.568 58.626 285.816 58.914 285.988 59.29C286.16 59.666 286.246 60.112 286.246 60.628V64H285.322ZM281.242 64V55.816H282.178V64H281.242Z" fill="white"/>
<rect width="324" height="30" transform="translate(0 83)" fill="white"/>
<rect x="0.125" y="83.125" width="156.75" height="29.75" stroke="black" stroke-opacity="0.1" stroke-width="0.25"/>
<rect x="0.125" y="83.125" width="156.75" height="29.75" stroke="black" stroke-opacity="0.6" stroke-width="0.25"/>
<path d="M52.8836 103.144C52.3796 103.144 51.9176 103.054 51.4976 102.874C51.0776 102.69 50.7396 102.42 50.4836 102.064C50.2276 101.708 50.0956 101.268 50.0876 100.744H50.9996C50.9996 101.096 51.0856 101.386 51.2576 101.614C51.4296 101.838 51.6576 102.006 51.9416 102.118C52.2256 102.226 52.5356 102.28 52.8716 102.28C53.2356 102.28 53.5516 102.222 53.8196 102.106C54.0876 101.99 54.2936 101.838 54.4376 101.65C54.5856 101.458 54.6596 101.248 54.6596 101.02C54.6596 100.7 54.5616 100.442 54.3656 100.246C54.1696 100.046 53.8796 99.884 53.4956 99.76L52.1636 99.292C51.5396 99.068 51.0676 98.812 50.7476 98.524C50.4276 98.236 50.2676 97.832 50.2676 97.312C50.2676 96.728 50.4916 96.252 50.9396 95.884C51.3916 95.516 52.0316 95.332 52.8596 95.332C53.6276 95.332 54.2276 95.51 54.6596 95.866C55.0916 96.218 55.3396 96.692 55.4036 97.288H54.4796C54.4196 96.94 54.2556 96.67 53.9876 96.478C53.7236 96.282 53.3476 96.184 52.8596 96.184C52.3636 96.184 51.9776 96.294 51.7016 96.514C51.4256 96.734 51.2876 97.012 51.2876 97.348C51.2876 97.624 51.3736 97.844 51.5456 98.008C51.7216 98.168 51.9956 98.312 52.3676 98.44L53.9276 98.98C54.4676 99.16 54.8936 99.412 55.2056 99.736C55.5216 100.06 55.6796 100.48 55.6796 100.996C55.6796 101.396 55.5716 101.758 55.3556 102.082C55.1436 102.406 54.8296 102.664 54.4136 102.856C53.9976 103.048 53.4876 103.144 52.8836 103.144ZM59.9575 103.144C59.4615 103.144 59.0175 103.018 58.6255 102.766C58.2375 102.51 57.9295 102.156 57.7015 101.704C57.4775 101.252 57.3655 100.732 57.3655 100.144C57.3655 99.516 57.4775 98.976 57.7015 98.524C57.9255 98.072 58.2315 97.726 58.6195 97.486C59.0115 97.242 59.4575 97.12 59.9575 97.12C60.3935 97.12 60.7655 97.208 61.0735 97.384C61.3815 97.56 61.6295 97.798 61.8175 98.098C62.0055 98.398 62.1355 98.738 62.2075 99.118C62.2835 99.494 62.3055 99.884 62.2735 100.288H58.1215V99.712H61.6555L61.3795 99.892C61.3915 99.656 61.3775 99.42 61.3375 99.184C61.3015 98.948 61.2315 98.732 61.1275 98.536C61.0235 98.336 60.8775 98.176 60.6895 98.056C60.5015 97.936 60.2615 97.876 59.9695 97.876C59.6015 97.876 59.2935 97.97 59.0455 98.158C58.7975 98.346 58.6115 98.594 58.4875 98.902C58.3635 99.206 58.3015 99.536 58.3015 99.892V100.276C58.3015 100.676 58.3615 101.034 58.4815 101.35C58.6055 101.666 58.7895 101.916 59.0335 102.1C59.2775 102.284 59.5855 102.376 59.9575 102.376C60.3295 102.376 60.6355 102.286 60.8755 102.106C61.1155 101.926 61.2615 101.66 61.3135 101.308H62.2855C62.2255 101.688 62.0895 102.016 61.8775 102.292C61.6655 102.564 61.3955 102.774 61.0675 102.922C60.7395 103.07 60.3695 103.144 59.9575 103.144ZM66.3856 103.144C65.9256 103.144 65.4956 103.02 65.0956 102.772C64.6996 102.524 64.3796 102.174 64.1356 101.722C63.8916 101.27 63.7696 100.736 63.7696 100.12C63.7696 99.488 63.8916 98.948 64.1356 98.5C64.3796 98.052 64.6996 97.71 65.0956 97.474C65.4956 97.238 65.9256 97.12 66.3856 97.12C66.7096 97.12 66.9996 97.17 67.2556 97.27C67.5156 97.366 67.7416 97.5 67.9336 97.672C68.1256 97.844 68.2836 98.04 68.4076 98.26C68.5356 98.476 68.6296 98.704 68.6896 98.944L67.7296 99.028C67.6296 98.696 67.4616 98.434 67.2256 98.242C66.9936 98.046 66.7096 97.948 66.3736 97.948C66.0896 97.948 65.8216 98.03 65.5696 98.194C65.3216 98.354 65.1196 98.596 64.9636 98.92C64.8076 99.24 64.7296 99.64 64.7296 100.12C64.7296 100.564 64.7996 100.95 64.9396 101.278C65.0836 101.602 65.2796 101.854 65.5276 102.034C65.7756 102.214 66.0576 102.304 66.3736 102.304C66.8176 102.304 67.1536 102.196 67.3816 101.98C67.6136 101.76 67.7296 101.456 67.7296 101.068H68.6896C68.6896 101.468 68.5956 101.824 68.4076 102.136C68.2196 102.448 67.9516 102.694 67.6036 102.874C67.2596 103.054 66.8536 103.144 66.3856 103.144ZM72.5611 103.144C72.2491 103.144 71.9691 103.084 71.7211 102.964C71.4731 102.844 71.2771 102.664 71.1331 102.424C70.9891 102.184 70.9171 101.884 70.9171 101.524V95.668H71.8411V101.5C71.8411 102.092 72.1171 102.388 72.6691 102.388C72.8331 102.388 72.9911 102.37 73.1431 102.334C73.2991 102.298 73.4731 102.244 73.6651 102.172L73.7971 102.844C73.5931 102.932 73.3891 103.004 73.1851 103.06C72.9851 103.116 72.7771 103.144 72.5611 103.144ZM69.9931 97.912V97.264H73.6531V97.912H69.9931ZM76.0768 95.908C75.8848 95.908 75.7328 95.854 75.6208 95.746C75.5088 95.634 75.4528 95.488 75.4528 95.308C75.4528 95.132 75.5088 94.992 75.6208 94.888C75.7328 94.784 75.8848 94.732 76.0768 94.732C76.2688 94.732 76.4208 94.784 76.5328 94.888C76.6448 94.992 76.7008 95.132 76.7008 95.308C76.7008 95.488 76.6448 95.634 76.5328 95.746C76.4208 95.854 76.2688 95.908 76.0768 95.908ZM75.6088 103V97.252H76.5448V103H75.6088ZM81.439 103.144C80.923 103.144 80.463 103.03 80.059 102.802C79.659 102.574 79.343 102.236 79.111 101.788C78.879 101.34 78.763 100.788 78.763 100.132C78.763 99.472 78.879 98.92 79.111 98.476C79.343 98.028 79.659 97.69 80.059 97.462C80.463 97.234 80.923 97.12 81.439 97.12C81.951 97.12 82.407 97.234 82.807 97.462C83.211 97.69 83.527 98.028 83.755 98.476C83.987 98.92 84.103 99.472 84.103 100.132C84.103 100.788 83.987 101.34 83.755 101.788C83.527 102.236 83.211 102.574 82.807 102.802C82.407 103.03 81.951 103.144 81.439 103.144ZM81.415 102.328C81.787 102.328 82.103 102.24 82.363 102.064C82.623 101.884 82.819 101.63 82.951 101.302C83.087 100.974 83.155 100.584 83.155 100.132C83.155 99.448 83.013 98.91 82.729 98.518C82.445 98.122 82.023 97.924 81.463 97.924C81.087 97.924 80.769 98.014 80.509 98.194C80.253 98.37 80.057 98.624 79.921 98.956C79.789 99.284 79.723 99.676 79.723 100.132C79.723 100.808 79.865 101.344 80.149 101.74C80.437 102.132 80.859 102.328 81.415 102.328ZM90.2455 103V99.628C90.2455 99.08 90.1135 98.664 89.8495 98.38C89.5895 98.092 89.2335 97.948 88.7815 97.948C88.4375 97.948 88.1395 98.042 87.8875 98.23C87.6355 98.418 87.4415 98.688 87.3055 99.04C87.1695 99.388 87.1015 99.804 87.1015 100.288H86.7415C86.7415 99.62 86.8295 99.05 87.0055 98.578C87.1815 98.106 87.4375 97.746 87.7735 97.498C88.1135 97.246 88.5255 97.12 89.0095 97.12C89.4615 97.12 89.8475 97.222 90.1675 97.426C90.4915 97.626 90.7395 97.914 90.9115 98.29C91.0835 98.666 91.1695 99.112 91.1695 99.628V103H90.2455ZM86.1655 103V97.264H86.9695L87.1015 98.584V103H86.1655ZM95.7117 103.144C95.1557 103.144 94.6917 103.066 94.3197 102.91C93.9477 102.75 93.6657 102.532 93.4737 102.256C93.2817 101.976 93.1797 101.656 93.1677 101.296H94.0677C94.0877 101.66 94.2337 101.934 94.5057 102.118C94.7817 102.298 95.1557 102.388 95.6277 102.388C95.8757 102.388 96.1037 102.348 96.3117 102.268C96.5197 102.188 96.6857 102.078 96.8097 101.938C96.9337 101.798 96.9957 101.64 96.9957 101.464C96.9957 101.24 96.9137 101.064 96.7497 100.936C96.5857 100.808 96.3237 100.696 95.9637 100.6L94.8477 100.24C94.3637 100.088 93.9917 99.88 93.7317 99.616C93.4757 99.348 93.3477 99.028 93.3477 98.656C93.3477 98.192 93.5517 97.82 93.9597 97.54C94.3677 97.26 94.9037 97.12 95.5677 97.12C96.2717 97.12 96.8177 97.264 97.2057 97.552C97.5937 97.84 97.7957 98.2 97.8117 98.632H96.8877C96.8517 98.38 96.7237 98.19 96.5037 98.062C96.2837 97.93 95.9717 97.864 95.5677 97.864C95.1797 97.864 94.8757 97.952 94.6557 98.128C94.4397 98.3 94.3317 98.492 94.3317 98.704C94.3317 99.1 94.6717 99.392 95.3517 99.58L96.4917 99.964C96.9837 100.112 97.3597 100.306 97.6197 100.546C97.8837 100.786 98.0157 101.092 98.0157 101.464C98.0157 101.752 97.9217 102.024 97.7337 102.28C97.5457 102.536 97.2797 102.744 96.9357 102.904C96.5917 103.064 96.1837 103.144 95.7117 103.144Z" fill="black"/>
<rect x="157" y="83" width="167" height="30" fill="white"/>
<rect x="157.125" y="83.125" width="166.75" height="29.75" stroke="black" stroke-opacity="0.1" stroke-width="0.25"/>
<rect x="157.125" y="83.125" width="166.75" height="29.75" stroke="black" stroke-opacity="0.6" stroke-width="0.25"/>
<path d="M226.516 95.464V102.184H229.876V103H225.58V95.464H226.516ZM242.105 103.144C241.801 103.144 241.515 103.08 241.247 102.952C240.983 102.82 240.697 102.616 240.389 102.34L236.453 98.872C236.165 98.62 235.939 98.344 235.775 98.044C235.611 97.744 235.529 97.432 235.529 97.108C235.529 96.768 235.623 96.466 235.811 96.202C235.999 95.934 236.267 95.724 236.615 95.572C236.963 95.42 237.377 95.344 237.857 95.344C238.305 95.344 238.695 95.422 239.027 95.578C239.363 95.73 239.623 95.938 239.807 96.202C239.995 96.462 240.089 96.756 240.089 97.084C240.089 97.396 240.015 97.684 239.867 97.948C239.719 98.212 239.485 98.458 239.165 98.686C238.845 98.914 238.425 99.132 237.905 99.34L237.389 98.848C237.837 98.652 238.181 98.464 238.421 98.284C238.661 98.1 238.827 97.916 238.919 97.732C239.011 97.544 239.057 97.348 239.057 97.144C239.057 96.856 238.947 96.616 238.727 96.424C238.507 96.232 238.217 96.136 237.857 96.136C237.425 96.136 237.099 96.246 236.879 96.466C236.659 96.686 236.549 96.944 236.549 97.24C236.549 97.456 236.601 97.664 236.705 97.864C236.809 98.06 236.981 98.264 237.221 98.476L241.133 101.92C241.297 102.056 241.441 102.156 241.565 102.22C241.693 102.284 241.849 102.316 242.033 102.316C242.237 102.316 242.415 102.24 242.567 102.088C242.723 101.936 242.813 101.684 242.837 101.332H243.725C243.697 101.9 243.547 102.344 243.275 102.664C243.007 102.984 242.617 103.144 242.105 103.144ZM237.329 103.144C236.905 103.144 236.513 103.088 236.153 102.976C235.797 102.86 235.485 102.7 235.217 102.496C234.953 102.292 234.747 102.056 234.599 101.788C234.451 101.516 234.377 101.224 234.377 100.912C234.377 100.3 234.619 99.84 235.103 99.532C235.591 99.224 236.297 99.032 237.221 98.956L237.449 99.508C236.749 99.58 236.231 99.728 235.895 99.952C235.563 100.172 235.397 100.48 235.397 100.876C235.397 101.136 235.471 101.374 235.619 101.59C235.771 101.806 235.991 101.98 236.279 102.112C236.567 102.24 236.921 102.304 237.341 102.304C237.829 102.304 238.275 102.204 238.679 102.004C239.087 101.8 239.457 101.522 239.789 101.17C240.121 100.814 240.415 100.404 240.671 99.94C240.931 99.472 241.153 98.972 241.337 98.44L241.997 98.8C241.801 99.408 241.557 99.976 241.265 100.504C240.977 101.028 240.639 101.488 240.251 101.884C239.867 102.28 239.431 102.59 238.943 102.814C238.459 103.034 237.921 103.144 237.329 103.144ZM248.817 95.464H249.753V98.788H253.485V95.464H254.409V103H253.485V99.592H249.753V103H248.817V95.464Z" fill="black"/>
<path d="M156.875 113.125V142.875H3C1.41218 142.875 0.125 141.588 0.125 140V113.125H156.875Z" fill="white"/>
<path d="M156.875 113.125V142.875H3C1.41218 142.875 0.125 141.588 0.125 140V113.125H156.875Z" stroke="black" stroke-opacity="0.1" stroke-width="0.25"/>
<path d="M156.875 113.125V142.875H3C1.41218 142.875 0.125 141.588 0.125 140V113.125H156.875Z" stroke="black" stroke-width="0.25"/>
<path d="M17.4973 125.464H18.4333V128.788H22.1653V125.464H23.0893V133H22.1653V129.592H18.4333V133H17.4973V125.464ZM26.2927 125.908C26.1007 125.908 25.9487 125.854 25.8367 125.746C25.7247 125.634 25.6687 125.488 25.6687 125.308C25.6687 125.132 25.7247 124.992 25.8367 124.888C25.9487 124.784 26.1007 124.732 26.2927 124.732C26.4847 124.732 26.6367 124.784 26.7487 124.888C26.8607 124.992 26.9167 125.132 26.9167 125.308C26.9167 125.488 26.8607 125.634 26.7487 125.746C26.6367 125.854 26.4847 125.908 26.2927 125.908ZM25.8247 133V127.252H26.7607V133H25.8247ZM31.6069 135.952C31.0189 135.952 30.5089 135.868 30.0769 135.7C29.6449 135.536 29.3089 135.314 29.0689 135.034C28.8329 134.758 28.7149 134.452 28.7149 134.116C28.7149 133.672 28.8769 133.332 29.2009 133.096C29.5289 132.864 29.9509 132.748 30.4669 132.748L30.9829 133.072C30.5509 133.072 30.2169 133.162 29.9809 133.342C29.7449 133.522 29.6269 133.768 29.6269 134.08C29.6269 134.392 29.7949 134.656 30.1309 134.872C30.4669 135.088 30.9589 135.196 31.6069 135.196C32.0869 135.196 32.5069 135.126 32.8669 134.986C33.2309 134.85 33.5129 134.67 33.7129 134.446C33.9169 134.226 34.0189 133.988 34.0189 133.732C34.0189 133.552 33.9529 133.396 33.8209 133.264C33.6889 133.136 33.4869 133.072 33.2149 133.072H30.9829C30.5949 133.072 30.2589 133.014 29.9749 132.898C29.6949 132.778 29.4789 132.622 29.3269 132.43C29.1749 132.238 29.0989 132.028 29.0989 131.8C29.0989 131.56 29.1669 131.356 29.3029 131.188C29.4389 131.02 29.6149 130.892 29.8309 130.804C30.0509 130.716 30.2869 130.672 30.5389 130.672L30.7189 131.02C30.5989 131.02 30.4769 131.048 30.3529 131.104C30.2329 131.156 30.1309 131.236 30.0469 131.344C29.9669 131.448 29.9269 131.58 29.9269 131.74C29.9269 131.924 30.0029 132.078 30.1549 132.202C30.3069 132.326 30.5829 132.388 30.9829 132.388H33.2149C33.7549 132.388 34.1789 132.502 34.4869 132.73C34.7989 132.958 34.9549 133.276 34.9549 133.684C34.9549 134.06 34.8209 134.42 34.5529 134.764C34.2849 135.112 33.9009 135.396 33.4009 135.616C32.9009 135.84 32.3029 135.952 31.6069 135.952ZM31.7749 131.32C31.3349 131.32 30.9369 131.232 30.5809 131.056C30.2289 130.88 29.9489 130.634 29.7409 130.318C29.5369 130.002 29.4349 129.636 29.4349 129.22C29.4349 128.8 29.5369 128.432 29.7409 128.116C29.9489 127.8 30.2289 127.556 30.5809 127.384C30.9369 127.208 31.3349 127.12 31.7749 127.12C32.2029 127.12 32.5909 127.208 32.9389 127.384C33.2909 127.556 33.5709 127.8 33.7789 128.116C33.9869 128.432 34.0909 128.8 34.0909 129.22C34.0909 129.636 33.9869 130.002 33.7789 130.318C33.5709 130.634 33.2909 130.88 32.9389 131.056C32.5909 131.232 32.2029 131.32 31.7749 131.32ZM31.7749 130.648C32.2149 130.648 32.5569 130.512 32.8009 130.24C33.0449 129.968 33.1669 129.628 33.1669 129.22C33.1669 128.8 33.0449 128.46 32.8009 128.2C32.5569 127.936 32.2149 127.804 31.7749 127.804C31.3389 127.804 30.9949 127.936 30.7429 128.2C30.4949 128.46 30.3709 128.8 30.3709 129.22C30.3709 129.628 30.4949 129.968 30.7429 130.24C30.9949 130.512 31.3389 130.648 31.7749 130.648ZM33.6589 128.032L33.2149 127.852C33.2149 127.516 33.2809 127.222 33.4129 126.97C33.5449 126.714 33.7329 126.516 33.9769 126.376C34.2209 126.232 34.5109 126.16 34.8469 126.16L34.7749 127.084C34.4149 127.084 34.1389 127.162 33.9469 127.318C33.7549 127.47 33.6589 127.708 33.6589 128.032ZM40.6723 133V129.628C40.6723 129.08 40.5403 128.664 40.2763 128.38C40.0163 128.092 39.6603 127.948 39.2083 127.948C38.8643 127.948 38.5663 128.042 38.3143 128.23C38.0623 128.418 37.8683 128.688 37.7323 129.04C37.5963 129.388 37.5283 129.804 37.5283 130.288H37.1683C37.1683 129.62 37.2563 129.05 37.4323 128.578C37.6083 128.106 37.8643 127.746 38.2003 127.498C38.5403 127.246 38.9523 127.12 39.4363 127.12C39.8883 127.12 40.2743 127.222 40.5943 127.426C40.9183 127.626 41.1663 127.914 41.3383 128.29C41.5103 128.666 41.5963 129.112 41.5963 129.628V133H40.6723ZM36.5923 133V124.816H37.5283V133H36.5923ZM43.3185 129.916V129.1H46.5825V129.916H43.3185ZM47.3464 126.268V125.464H53.2144V126.268H50.5324L50.7424 126.052V133H49.8064V126.052L50.0164 126.268H47.3464ZM55.8649 133.144C55.3489 133.144 54.8889 133.03 54.4849 132.802C54.0849 132.574 53.7689 132.236 53.5369 131.788C53.3049 131.34 53.1889 130.788 53.1889 130.132C53.1889 129.472 53.3049 128.92 53.5369 128.476C53.7689 128.028 54.0849 127.69 54.4849 127.462C54.8889 127.234 55.3489 127.12 55.8649 127.12C56.3769 127.12 56.8329 127.234 57.2329 127.462C57.6369 127.69 57.9529 128.028 58.1809 128.476C58.4129 128.92 58.5289 129.472 58.5289 130.132C58.5289 130.788 58.4129 131.34 58.1809 131.788C57.9529 132.236 57.6369 132.574 57.2329 132.802C56.8329 133.03 56.3769 133.144 55.8649 133.144ZM55.8409 132.328C56.2129 132.328 56.5289 132.24 56.7889 132.064C57.0489 131.884 57.2449 131.63 57.3769 131.302C57.5129 130.974 57.5809 130.584 57.5809 130.132C57.5809 129.448 57.4389 128.91 57.1549 128.518C56.8709 128.122 56.4489 127.924 55.8889 127.924C55.5129 127.924 55.1949 128.014 54.9349 128.194C54.6789 128.37 54.4829 128.624 54.3469 128.956C54.2149 129.284 54.1489 129.676 54.1489 130.132C54.1489 130.808 54.2909 131.344 54.5749 131.74C54.8629 132.132 55.2849 132.328 55.8409 132.328ZM60.5914 133V127.252H61.5274V133H60.5914ZM61.2394 130.408C61.2394 129.68 61.3094 129.076 61.4494 128.596C61.5894 128.112 61.7934 127.752 62.0614 127.516C62.3334 127.276 62.6634 127.156 63.0514 127.156C63.1794 127.156 63.2954 127.166 63.3994 127.186C63.5074 127.202 63.6154 127.228 63.7234 127.264L63.6634 128.188C63.5514 128.152 63.4294 128.122 63.2974 128.098C63.1654 128.07 63.0474 128.056 62.9434 128.056C62.6034 128.056 62.3294 128.154 62.1214 128.35C61.9134 128.542 61.7614 128.814 61.6654 129.166C61.5734 129.518 61.5274 129.932 61.5274 130.408H61.2394ZM67.1593 133.144C66.7033 133.144 66.2773 133.024 65.8813 132.784C65.4893 132.544 65.1713 132.198 64.9273 131.746C64.6873 131.294 64.5673 130.752 64.5673 130.12C64.5673 129.496 64.6873 128.96 64.9273 128.512C65.1673 128.064 65.4813 127.72 65.8693 127.48C66.2613 127.24 66.6793 127.12 67.1233 127.12C67.5153 127.12 67.8693 127.216 68.1853 127.408C68.5053 127.6 68.7573 127.886 68.9413 128.266C69.1293 128.642 69.2233 129.108 69.2233 129.664H68.8153C68.8153 129.292 68.7413 128.98 68.5933 128.728C68.4453 128.472 68.2513 128.278 68.0113 128.146C67.7713 128.014 67.5153 127.948 67.2433 127.948C66.9313 127.948 66.6453 128.034 66.3853 128.206C66.1253 128.378 65.9173 128.626 65.7613 128.95C65.6053 129.274 65.5273 129.664 65.5273 130.12C65.5273 130.596 65.6093 130.996 65.7733 131.32C65.9413 131.644 66.1573 131.89 66.4213 132.058C66.6853 132.222 66.9633 132.304 67.2553 132.304C67.5193 132.304 67.7693 132.242 68.0053 132.118C68.2453 131.994 68.4393 131.81 68.5873 131.566C68.7393 131.322 68.8153 131.02 68.8153 130.66H69.0913C69.0913 131.156 69.0173 131.59 68.8693 131.962C68.7213 132.334 68.5033 132.624 68.2153 132.832C67.9273 133.04 67.5753 133.144 67.1593 133.144ZM70.3033 135.952C69.7593 135.8 69.3753 135.566 69.1513 135.25C68.9273 134.934 68.8153 134.488 68.8153 133.912V128.608L69.1033 127.264H69.7393V133.972C69.7393 134.244 69.7653 134.458 69.8173 134.614C69.8693 134.77 69.9593 134.892 70.0873 134.98C70.2153 135.072 70.3913 135.156 70.6153 135.232L70.3033 135.952ZM76.3268 127.252H77.2628V133H76.3268V127.252ZM72.2588 127.252H73.1948V130.828C73.1948 131.308 73.3108 131.672 73.5428 131.92C73.7788 132.168 74.1148 132.292 74.5508 132.292C74.9108 132.292 75.2228 132.196 75.4868 132.004C75.7548 131.812 75.9608 131.548 76.1048 131.212C76.2528 130.872 76.3268 130.484 76.3268 130.048H76.6748C76.6748 130.692 76.5808 131.242 76.3928 131.698C76.2088 132.154 75.9468 132.504 75.6068 132.748C75.2708 132.988 74.8748 133.108 74.4188 133.108C73.9868 133.108 73.6088 133.028 73.2848 132.868C72.9608 132.708 72.7088 132.466 72.5288 132.142C72.3488 131.814 72.2588 131.4 72.2588 130.9V127.252ZM81.9245 133.144C81.4285 133.144 80.9845 133.018 80.5925 132.766C80.2045 132.51 79.8965 132.156 79.6685 131.704C79.4445 131.252 79.3325 130.732 79.3325 130.144C79.3325 129.516 79.4445 128.976 79.6685 128.524C79.8925 128.072 80.1985 127.726 80.5865 127.486C80.9785 127.242 81.4245 127.12 81.9245 127.12C82.3605 127.12 82.7325 127.208 83.0405 127.384C83.3485 127.56 83.5965 127.798 83.7845 128.098C83.9725 128.398 84.1025 128.738 84.1745 129.118C84.2505 129.494 84.2725 129.884 84.2405 130.288H80.0885V129.712H83.6225L83.3465 129.892C83.3585 129.656 83.3445 129.42 83.3045 129.184C83.2685 128.948 83.1985 128.732 83.0945 128.536C82.9905 128.336 82.8445 128.176 82.6565 128.056C82.4685 127.936 82.2285 127.876 81.9365 127.876C81.5685 127.876 81.2605 127.97 81.0125 128.158C80.7645 128.346 80.5785 128.594 80.4545 128.902C80.3305 129.206 80.2685 129.536 80.2685 129.892V130.276C80.2685 130.676 80.3285 131.034 80.4485 131.35C80.5725 131.666 80.7565 131.916 81.0005 132.1C81.2445 132.284 81.5525 132.376 81.9245 132.376C82.2965 132.376 82.6025 132.286 82.8425 132.106C83.0825 131.926 83.2285 131.66 83.2805 131.308H84.2525C84.1925 131.688 84.0565 132.016 83.8445 132.292C83.6325 132.564 83.3625 132.774 83.0345 132.922C82.7065 133.07 82.3365 133.144 81.9245 133.144ZM89.4002 133V125.464H91.8242C92.6522 125.464 93.2842 125.674 93.7202 126.094C94.1602 126.51 94.3802 127.076 94.3802 127.792C94.3802 128.5 94.1602 129.062 93.7202 129.478C93.2842 129.89 92.6522 130.096 91.8242 130.096H90.3482V133H89.4002ZM90.3482 129.28H91.8242C92.3482 129.28 92.7442 129.146 93.0122 128.878C93.2842 128.61 93.4202 128.248 93.4202 127.792C93.4202 127.328 93.2842 126.958 93.0122 126.682C92.7442 126.406 92.3482 126.268 91.8242 126.268H90.3482V129.28ZM96.3087 133V127.252H97.2447V133H96.3087ZM96.9567 130.408C96.9567 129.68 97.0267 129.076 97.1667 128.596C97.3067 128.112 97.5107 127.752 97.7787 127.516C98.0507 127.276 98.3807 127.156 98.7687 127.156C98.8967 127.156 99.0127 127.166 99.1167 127.186C99.2247 127.202 99.3327 127.228 99.4407 127.264L99.3807 128.188C99.2687 128.152 99.1467 128.122 99.0147 128.098C98.8827 128.07 98.7647 128.056 98.6607 128.056C98.3207 128.056 98.0467 128.154 97.8387 128.35C97.6307 128.542 97.4787 128.814 97.3827 129.166C97.2907 129.518 97.2447 129.932 97.2447 130.408H96.9567ZM102.961 133.144C102.445 133.144 101.985 133.03 101.581 132.802C101.181 132.574 100.865 132.236 100.633 131.788C100.401 131.34 100.285 130.788 100.285 130.132C100.285 129.472 100.401 128.92 100.633 128.476C100.865 128.028 101.181 127.69 101.581 127.462C101.985 127.234 102.445 127.12 102.961 127.12C103.473 127.12 103.929 127.234 104.329 127.462C104.733 127.69 105.049 128.028 105.277 128.476C105.509 128.92 105.625 129.472 105.625 130.132C105.625 130.788 105.509 131.34 105.277 131.788C105.049 132.236 104.733 132.574 104.329 132.802C103.929 133.03 103.473 133.144 102.961 133.144ZM102.937 132.328C103.309 132.328 103.625 132.24 103.885 132.064C104.145 131.884 104.341 131.63 104.473 131.302C104.609 130.974 104.677 130.584 104.677 130.132C104.677 129.448 104.535 128.91 104.251 128.518C103.967 128.122 103.545 127.924 102.985 127.924C102.609 127.924 102.291 128.014 102.031 128.194C101.775 128.37 101.579 128.624 101.443 128.956C101.311 129.284 101.245 129.676 101.245 130.132C101.245 130.808 101.387 131.344 101.671 131.74C101.959 132.132 102.381 132.328 102.937 132.328ZM107.999 133V126.376C107.999 125.996 108.071 125.686 108.215 125.446C108.363 125.202 108.559 125.022 108.803 124.906C109.051 124.79 109.327 124.732 109.631 124.732C109.795 124.732 109.961 124.744 110.129 124.768C110.301 124.792 110.471 124.828 110.639 124.876L110.459 125.62C110.339 125.572 110.219 125.536 110.099 125.512C109.983 125.488 109.871 125.476 109.763 125.476C109.635 125.476 109.507 125.5 109.379 125.548C109.251 125.596 109.145 125.686 109.061 125.818C108.977 125.95 108.935 126.14 108.935 126.388V133H107.999ZM107.063 127.912V127.264H110.123V127.912H107.063ZM112.325 125.908C112.133 125.908 111.981 125.854 111.869 125.746C111.757 125.634 111.701 125.488 111.701 125.308C111.701 125.132 111.757 124.992 111.869 124.888C111.981 124.784 112.133 124.732 112.325 124.732C112.517 124.732 112.669 124.784 112.781 124.888C112.893 124.992 112.949 125.132 112.949 125.308C112.949 125.488 112.893 125.634 112.781 125.746C112.669 125.854 112.517 125.908 112.325 125.908ZM111.857 133V127.252H112.793V133H111.857ZM115.615 133V124.816H116.551V133H115.615ZM121.21 133.144C120.714 133.144 120.27 133.018 119.878 132.766C119.49 132.51 119.182 132.156 118.954 131.704C118.73 131.252 118.618 130.732 118.618 130.144C118.618 129.516 118.73 128.976 118.954 128.524C119.178 128.072 119.484 127.726 119.872 127.486C120.264 127.242 120.71 127.12 121.21 127.12C121.646 127.12 122.018 127.208 122.326 127.384C122.634 127.56 122.882 127.798 123.07 128.098C123.258 128.398 123.388 128.738 123.46 129.118C123.536 129.494 123.558 129.884 123.526 130.288H119.374V129.712H122.908L122.632 129.892C122.644 129.656 122.63 129.42 122.59 129.184C122.554 128.948 122.484 128.732 122.38 128.536C122.276 128.336 122.13 128.176 121.942 128.056C121.754 127.936 121.514 127.876 121.222 127.876C120.854 127.876 120.546 127.97 120.298 128.158C120.05 128.346 119.864 128.594 119.74 128.902C119.616 129.206 119.554 129.536 119.554 129.892V130.276C119.554 130.676 119.614 131.034 119.734 131.35C119.858 131.666 120.042 131.916 120.286 132.1C120.53 132.284 120.838 132.376 121.21 132.376C121.582 132.376 121.888 132.286 122.128 132.106C122.368 131.926 122.514 131.66 122.566 131.308H123.538C123.478 131.688 123.342 132.016 123.13 132.292C122.918 132.564 122.648 132.774 122.32 132.922C121.992 133.07 121.622 133.144 121.21 133.144ZM127.686 133.144C127.13 133.144 126.666 133.066 126.294 132.91C125.922 132.75 125.64 132.532 125.448 132.256C125.256 131.976 125.154 131.656 125.142 131.296H126.042C126.062 131.66 126.208 131.934 126.48 132.118C126.756 132.298 127.13 132.388 127.602 132.388C127.85 132.388 128.078 132.348 128.286 132.268C128.494 132.188 128.66 132.078 128.784 131.938C128.908 131.798 128.97 131.64 128.97 131.464C128.97 131.24 128.888 131.064 128.724 130.936C128.56 130.808 128.298 130.696 127.938 130.6L126.822 130.24C126.338 130.088 125.966 129.88 125.706 129.616C125.45 129.348 125.322 129.028 125.322 128.656C125.322 128.192 125.526 127.82 125.934 127.54C126.342 127.26 126.878 127.12 127.542 127.12C128.246 127.12 128.792 127.264 129.18 127.552C129.568 127.84 129.77 128.2 129.786 128.632H128.862C128.826 128.38 128.698 128.19 128.478 128.062C128.258 127.93 127.946 127.864 127.542 127.864C127.154 127.864 126.85 127.952 126.63 128.128C126.414 128.3 126.306 128.492 126.306 128.704C126.306 129.1 126.646 129.392 127.326 129.58L128.466 129.964C128.958 130.112 129.334 130.306 129.594 130.546C129.858 130.786 129.99 131.092 129.99 131.464C129.99 131.752 129.896 132.024 129.708 132.28C129.52 132.536 129.254 132.744 128.91 132.904C128.566 133.064 128.158 133.144 127.686 133.144Z" fill="black"/>
<path d="M323.875 113.125V140C323.875 141.588 322.588 142.875 321 142.875H157.125V113.125H323.875Z" fill="white"/>
<path d="M323.875 113.125V140C323.875 141.588 322.588 142.875 321 142.875H157.125V113.125H323.875Z" stroke="black" stroke-opacity="0.1" stroke-width="0.25"/>
<path d="M323.875 113.125V140C323.875 141.588 322.588 142.875 321 142.875H157.125V113.125H323.875Z" stroke="black" stroke-width="0.25"/>
<path d="M209.684 133.144C209.208 133.144 208.774 133.058 208.382 132.886C207.99 132.714 207.676 132.462 207.44 132.13C207.204 131.794 207.084 131.384 207.08 130.9H208.016C208.016 131.356 208.176 131.7 208.496 131.932C208.82 132.164 209.216 132.28 209.684 132.28C210.224 132.28 210.648 132.116 210.956 131.788C211.268 131.456 211.424 131.048 211.424 130.564C211.424 129.596 210.8 129.112 209.552 129.112H207.536L207.86 125.464H212.036V126.316H208.616L208.808 125.992L208.556 128.62L208.436 128.512C208.628 128.468 208.846 128.438 209.09 128.422C209.334 128.402 209.552 128.392 209.744 128.392C210.56 128.392 211.206 128.574 211.682 128.938C212.158 129.302 212.396 129.844 212.396 130.564C212.396 131.052 212.286 131.492 212.066 131.884C211.846 132.272 211.532 132.58 211.124 132.808C210.72 133.032 210.24 133.144 209.684 133.144ZM214.525 125.464H215.869L218.461 130.672H218.365L220.957 125.464H222.265V133H221.317V126.436H221.485L218.725 132.052H218.101L215.353 126.472H215.461V133H214.525V125.464ZM224.782 134.308L224.074 133.96C224.302 133.844 224.494 133.716 224.65 133.576C224.81 133.436 224.914 133.264 224.962 133.06C224.79 133.04 224.642 132.978 224.518 132.874C224.398 132.77 224.338 132.632 224.338 132.46C224.338 132.292 224.4 132.148 224.524 132.028C224.652 131.908 224.814 131.848 225.01 131.848C225.258 131.848 225.458 131.938 225.61 132.118C225.762 132.298 225.838 132.512 225.838 132.76C225.838 133.052 225.748 133.338 225.568 133.618C225.392 133.902 225.13 134.132 224.782 134.308ZM233.233 133.144C232.641 133.144 232.117 133.05 231.661 132.862C231.209 132.674 230.853 132.416 230.593 132.088C230.337 131.76 230.209 131.388 230.209 130.972C230.209 130.592 230.307 130.266 230.503 129.994C230.703 129.722 230.975 129.514 231.319 129.37C231.667 129.222 232.061 129.148 232.501 129.148C232.617 129.148 232.729 129.154 232.837 129.166C232.945 129.178 233.061 129.2 233.185 129.232V129.508C232.785 129.508 232.435 129.574 232.135 129.706C231.835 129.834 231.601 130.004 231.433 130.216C231.265 130.428 231.181 130.656 231.181 130.9C231.181 131.196 231.271 131.448 231.451 131.656C231.631 131.86 231.875 132.016 232.183 132.124C232.495 132.228 232.845 132.28 233.233 132.28C233.881 132.28 234.385 132.176 234.745 131.968C235.105 131.76 235.285 131.488 235.285 131.152C235.285 130.88 235.189 130.656 234.997 130.48C234.809 130.304 234.549 130.156 234.217 130.036L232.141 129.244C231.889 129.148 231.633 129.016 231.373 128.848C231.117 128.68 230.901 128.47 230.725 128.218C230.549 127.966 230.461 127.668 230.461 127.324C230.461 126.936 230.571 126.592 230.791 126.292C231.011 125.992 231.327 125.758 231.739 125.59C232.155 125.418 232.653 125.332 233.233 125.332C233.765 125.332 234.237 125.424 234.649 125.608C235.065 125.788 235.391 126.036 235.627 126.352C235.863 126.664 235.981 127.02 235.981 127.42C235.981 127.732 235.901 128.022 235.741 128.29C235.585 128.554 235.353 128.768 235.045 128.932C234.741 129.092 234.365 129.172 233.917 129.172C233.809 129.172 233.705 129.166 233.605 129.154C233.509 129.138 233.401 129.112 233.281 129.076V128.776C233.605 128.776 233.897 128.722 234.157 128.614C234.417 128.502 234.623 128.348 234.775 128.152C234.931 127.956 235.009 127.728 235.009 127.468C235.009 127.22 234.933 127 234.781 126.808C234.633 126.612 234.425 126.46 234.157 126.352C233.893 126.24 233.585 126.184 233.233 126.184C232.893 126.184 232.587 126.238 232.315 126.346C232.047 126.45 231.835 126.592 231.679 126.772C231.523 126.948 231.445 127.144 231.445 127.36C231.445 127.628 231.535 127.844 231.715 128.008C231.899 128.168 232.153 128.308 232.477 128.428L234.553 129.22C235.105 129.428 235.529 129.674 235.825 129.958C236.121 130.242 236.269 130.628 236.269 131.116C236.269 131.512 236.149 131.864 235.909 132.172C235.669 132.476 235.323 132.714 234.871 132.886C234.419 133.058 233.873 133.144 233.233 133.144ZM238.372 125.464H239.716L242.308 130.672H242.212L244.804 125.464H246.112V133H245.164V126.436H245.332L242.572 132.052H241.948L239.2 126.472H239.308V133H238.372V125.464ZM248.628 134.308L247.92 133.96C248.148 133.844 248.34 133.716 248.496 133.576C248.656 133.436 248.76 133.264 248.808 133.06C248.636 133.04 248.488 132.978 248.364 132.874C248.244 132.77 248.184 132.632 248.184 132.46C248.184 132.292 248.246 132.148 248.37 132.028C248.498 131.908 248.66 131.848 248.856 131.848C249.104 131.848 249.304 131.938 249.456 132.118C249.608 132.298 249.684 132.512 249.684 132.76C249.684 133.052 249.594 133.338 249.414 133.618C249.238 133.902 248.976 134.132 248.628 134.308ZM255.388 125.44H256.144V133H255.208V126.544C255.016 126.676 254.814 126.778 254.602 126.85C254.394 126.918 254.184 126.956 253.972 126.964V126.052C254.224 126.016 254.468 125.95 254.704 125.854C254.944 125.758 255.172 125.62 255.388 125.44ZM261.857 125.356H262.733V130.372H264.041V131.164H262.733V133H261.809V131.164H257.909V130.444L261.857 125.356ZM261.845 126.832L259.025 130.444H261.845V126.832ZM265.752 125.464H267.096L269.688 130.672H269.592L272.184 125.464H273.492V133H272.544V126.436H272.712L269.952 132.052H269.328L266.58 126.472H266.688V133H265.752V125.464Z" fill="black"/>
</svg>
