<svg width="234" height="113" viewBox="0 0 234 113" fill="none" xmlns="http://www.w3.org/2000/svg">
<path d="M5.91016 49.6641L5.91016 65.5781L1.23438 65.5781L1.23438 49.6641L5.91016 49.6641ZM12.3672 57.1758L12.3672 65.5781L7.82031 65.5781L7.82031 49.6641L11.6289 49.6641L18.8828 58.1602L18.8828 49.6641L23.4297 49.6641L23.4297 65.5781L19.7852 65.5781L12.3672 57.1758ZM25.3281 49.6641L32.6055 49.6641C37.7852 49.6641 40.9023 52.3477 40.9023 57.5625C40.9023 62.8008 37.8086 65.5781 32.6055 65.5781L25.3281 65.5781L25.3281 49.6641ZM32.3359 61.7812C34.8086 61.7812 36.1563 60.1758 36.1563 57.5625C36.1563 54.7852 34.7031 53.4844 32.3359 53.4844L29.9336 53.4844L29.9336 61.7812L32.3359 61.7812ZM42.3203 59.6484L42.3203 49.6641L46.8555 49.6641L46.8555 59.3203C46.8555 60.9961 48.3203 61.8398 49.7383 61.8398C51.25 61.8398 52.6328 60.9258 52.6328 59.3203L52.6328 49.6641L57.168 49.6641L57.168 59.6484C57.168 63.9141 53.4414 65.8125 49.7383 65.8125C45.7305 65.8125 42.3203 63.7617 42.3203 59.6484ZM65.3711 49.418C67.7617 49.418 69.6016 49.8867 70.8672 50.4844L70.4805 54.457C69.4961 53.8828 67.5742 53.2734 65.6055 53.2734C64.375 53.2734 63.3555 53.4727 63.3555 54.4219C63.3555 55.0781 64.0938 55.2305 64.8906 55.4648L67.4219 56.2031C70.1758 57 71.8047 58.3008 71.8047 60.7852C71.8047 63.7852 69.2383 65.8359 65.125 65.8359C62.1016 65.8359 59.7461 65.0508 58.6328 64.5117L59.1016 60.5273C60.0273 61.0312 62.2422 61.9102 64.7852 61.9102C65.957 61.9102 66.8477 61.6406 66.8477 60.8789C66.8477 60.3984 66.4961 60.0703 65.5352 59.8125L63.0859 59.1562C60.9648 58.5937 58.5859 57.4219 58.5859 54.3633C58.5859 51.3281 61.3164 49.418 65.3711 49.418ZM76.7969 65.5781L76.7969 53.4844L72.2617 53.4844L72.2617 49.6641L86.125 49.6641L86.125 53.4844L81.4727 53.4844L81.4727 65.5781L76.7969 65.5781ZM102.566 65.5781L97.0234 65.5781L93.9297 61.2539L91.8906 61.2539L91.8906 65.5781L87.25 65.5781L87.25 49.6641L95.3125 49.6641C99.2852 49.6641 101.512 52.1836 101.512 55.3945C101.512 57.7031 100.176 59.5547 98.6289 60.2578L102.566 65.5781ZM94.5156 53.543L91.8906 53.543L91.8906 57.457L94.5156 57.457C95.8867 57.457 96.7656 56.7773 96.7656 55.4883C96.7656 54.1523 95.9336 53.543 94.5156 53.543ZM108.473 49.6641L108.473 65.5781L103.797 65.5781L103.797 49.6641L108.473 49.6641ZM122.793 61.8516L122.793 65.5781L110.383 65.5781L110.383 49.6641L122.734 49.6641L122.734 53.4141L115.059 53.4141L115.059 55.6523L121.961 55.6523L121.961 59.3789L115.059 59.3789L115.059 61.8516L122.793 61.8516ZM130.598 49.418C132.988 49.418 134.828 49.8867 136.094 50.4844L135.707 54.457C134.723 53.8828 132.801 53.2734 130.832 53.2734C129.602 53.2734 128.582 53.4727 128.582 54.4219C128.582 55.0781 129.32 55.2305 130.117 55.4648L132.648 56.2031C135.402 57 137.031 58.3008 137.031 60.7852C137.031 63.7852 134.465 65.8359 130.352 65.8359C127.328 65.8359 124.973 65.0508 123.859 64.5117L124.328 60.5273C125.254 61.0312 127.469 61.9102 130.012 61.9102C131.184 61.9102 132.074 61.6406 132.074 60.8789C132.074 60.3984 131.723 60.0703 130.762 59.8125L128.313 59.1562C126.191 58.5937 123.813 57.4219 123.813 54.3633C123.813 51.3281 126.543 49.418 130.598 49.418Z" fill="#080808"/>
<path d="M1.24672 91.5937L1.24672 83.8777L3.90472 83.8777C4.76872 83.8777 5.43872 84.0917 5.91472 84.5197C6.39072 84.9477 6.62872 85.5457 6.62872 86.3137C6.62872 87.0777 6.39072 87.6737 5.91472 88.1017C5.43872 88.5297 4.76872 88.7437 3.90472 88.7437L2.54272 88.7437L2.54272 91.5937L1.24672 91.5937ZM2.54272 87.6217L3.90472 87.6217C4.36872 87.6217 4.71872 87.5017 4.95472 87.2617C5.19072 87.0177 5.30872 86.7017 5.30872 86.3137C5.30872 85.9217 5.19072 85.6017 4.95472 85.3537C4.71872 85.1057 4.36872 84.9818 3.90472 84.9818L2.54272 84.9818L2.54272 87.6217ZM7.91563 91.5937L7.91563 85.7737L9.19963 85.7737L9.19963 91.5937L7.91563 91.5937ZM8.86963 89.0257C8.86963 88.2737 8.95163 87.6517 9.11563 87.1597C9.27963 86.6637 9.50363 86.2957 9.78763 86.0557C10.0716 85.8117 10.3956 85.6897 10.7596 85.6897C10.8676 85.6897 10.9656 85.6977 11.0536 85.7137C11.1456 85.7257 11.2376 85.7457 11.3296 85.7737L11.2936 87.0517C11.1856 87.0237 11.0696 87.0017 10.9456 86.9857C10.8256 86.9657 10.7156 86.9557 10.6156 86.9557C10.2996 86.9557 10.0356 87.0377 9.82363 87.2017C9.61563 87.3617 9.45963 87.5957 9.35563 87.9037C9.25163 88.2117 9.19963 88.5857 9.19963 89.0257L8.86963 89.0257ZM14.4051 91.7558C13.9091 91.7558 13.4571 91.6277 13.0491 91.3717C12.6451 91.1157 12.3211 90.7577 12.0771 90.2977C11.8371 89.8377 11.7171 89.3037 11.7171 88.6957C11.7171 88.0557 11.8371 87.5077 12.0771 87.0517C12.3171 86.5957 12.6391 86.2457 13.0431 86.0017C13.4511 85.7577 13.9051 85.6357 14.4051 85.6357C14.8651 85.6357 15.2591 85.7277 15.5871 85.9117C15.9151 86.0957 16.1791 86.3437 16.3791 86.6557C16.5831 86.9677 16.7211 87.3217 16.7931 87.7177C16.8651 88.1097 16.8731 88.5157 16.8171 88.9357L12.7431 88.9357L12.7431 88.2217L15.9231 88.2217L15.6471 88.4017C15.6591 88.1977 15.6491 87.9937 15.6171 87.7897C15.5851 87.5857 15.5231 87.3997 15.4311 87.2317C15.3431 87.0597 15.2171 86.9217 15.0531 86.8177C14.8891 86.7137 14.6811 86.6617 14.4291 86.6617C14.1171 86.6617 13.8531 86.7397 13.6371 86.8957C13.4251 87.0517 13.2651 87.2617 13.1571 87.5257C13.0491 87.7897 12.9951 88.0837 12.9951 88.4077L12.9951 88.9237C12.9951 89.2717 13.0471 89.5797 13.1511 89.8477C13.2551 90.1157 13.4111 90.3277 13.6191 90.4837C13.8271 90.6397 14.0891 90.7177 14.4051 90.7177C14.7091 90.7177 14.9611 90.6477 15.1611 90.5077C15.3651 90.3637 15.4931 90.1497 15.5451 89.8657L16.8471 89.8657C16.7871 90.2417 16.6471 90.5717 16.4271 90.8557C16.2071 91.1397 15.9251 91.3617 15.5811 91.5217C15.2371 91.6777 14.8451 91.7558 14.4051 91.7558ZM20.5058 91.7557C20.0258 91.7557 19.5778 91.6297 19.1618 91.3777C18.7498 91.1257 18.4158 90.7697 18.1598 90.3097C17.9078 89.8497 17.7818 89.3097 17.7818 88.6897C17.7818 88.0337 17.9078 87.4797 18.1598 87.0277C18.4158 86.5717 18.7498 86.2257 19.1618 85.9897C19.5778 85.7537 20.0258 85.6357 20.5058 85.6357C20.8698 85.6357 21.1918 85.6937 21.4718 85.8097C21.7558 85.9257 21.9978 86.0817 22.1978 86.2777C22.3978 86.4737 22.5558 86.6937 22.6718 86.9377C22.7918 87.1777 22.8718 87.4237 22.9118 87.6757L21.6098 87.7237C21.5378 87.4477 21.4058 87.2237 21.2138 87.0517C21.0258 86.8757 20.7858 86.7877 20.4938 86.7877C20.2498 86.7877 20.0198 86.8557 19.8038 86.9917C19.5918 87.1237 19.4178 87.3297 19.2818 87.6097C19.1498 87.8897 19.0838 88.2497 19.0838 88.6897C19.0838 89.1017 19.1458 89.4497 19.2698 89.7337C19.3938 90.0137 19.5618 90.2277 19.7738 90.3757C19.9898 90.5197 20.2298 90.5917 20.4938 90.5917C20.8738 90.5917 21.1538 90.4997 21.3338 90.3157C21.5178 90.1277 21.6098 89.8757 21.6098 89.5597L22.9118 89.5597C22.9118 89.9677 22.8178 90.3377 22.6298 90.6697C22.4418 91.0017 22.1678 91.2657 21.8078 91.4617C21.4518 91.6577 21.0178 91.7557 20.5058 91.7557ZM25.1605 84.6517C24.9085 84.6517 24.7105 84.5837 24.5665 84.4477C24.4225 84.3077 24.3505 84.1197 24.3505 83.8837C24.3505 83.6517 24.4225 83.4677 24.5665 83.3317C24.7105 83.1957 24.9085 83.1277 25.1605 83.1277C25.4085 83.1277 25.6045 83.1957 25.7485 83.3317C25.8925 83.4677 25.9645 83.6517 25.9645 83.8837C25.9645 84.1197 25.8925 84.3077 25.7485 84.4477C25.6045 84.5837 25.4085 84.6517 25.1605 84.6517ZM24.5185 91.5937L24.5185 85.7737L25.8025 85.7737L25.8025 91.5937L24.5185 91.5937ZM30.1445 91.7557C29.5885 91.7557 29.1125 91.6777 28.7165 91.5217C28.3245 91.3657 28.0225 91.1457 27.8105 90.8617C27.6025 90.5737 27.4965 90.2317 27.4925 89.8357L28.6865 89.8357C28.7025 90.1437 28.8265 90.3717 29.0585 90.5197C29.2905 90.6637 29.6045 90.7357 30.0005 90.7357C30.2165 90.7357 30.4105 90.7037 30.5825 90.6397C30.7545 90.5717 30.8885 90.4817 30.9845 90.3697C31.0845 90.2537 31.1345 90.1257 31.1345 89.9857C31.1345 89.8057 31.0685 89.6637 30.9365 89.5597C30.8085 89.4557 30.6005 89.3617 30.3125 89.2777L29.0825 88.8517C28.6185 88.6917 28.2625 88.4777 28.0145 88.2097C27.7665 87.9417 27.6425 87.6217 27.6425 87.2497C27.6425 86.7657 27.8605 86.3757 28.2965 86.0797C28.7325 85.7837 29.3125 85.6357 30.0365 85.6357C30.7725 85.6357 31.3405 85.7937 31.7405 86.1097C32.1405 86.4257 32.3465 86.8237 32.3585 87.3037L31.1405 87.3037C31.1165 87.0957 31.0145 86.9337 30.8345 86.8177C30.6545 86.6977 30.3885 86.6377 30.0365 86.6377C29.7125 86.6377 29.4585 86.7077 29.2745 86.8477C29.0945 86.9837 29.0045 87.1397 29.0045 87.3157C29.0045 87.6237 29.2685 87.8537 29.7965 88.0057L31.1105 88.4857C31.5705 88.6377 31.9265 88.8337 32.1785 89.0737C32.4305 89.3137 32.5565 89.6177 32.5565 89.9857C32.5565 90.2897 32.4545 90.5777 32.2505 90.8497C32.0505 91.1177 31.7705 91.3357 31.4105 91.5037C31.0505 91.6717 30.6285 91.7557 30.1445 91.7557ZM34.8406 84.6517C34.5886 84.6517 34.3906 84.5837 34.2466 84.4477C34.1026 84.3077 34.0306 84.1197 34.0306 83.8837C34.0306 83.6517 34.1026 83.4677 34.2466 83.3317C34.3906 83.1957 34.5886 83.1277 34.8406 83.1277C35.0886 83.1277 35.2846 83.1957 35.4286 83.3317C35.5726 83.4677 35.6446 83.6517 35.6446 83.8837C35.6446 84.1197 35.5726 84.3077 35.4286 84.4477C35.2846 84.5837 35.0886 84.6517 34.8406 84.6517ZM34.1986 91.5937L34.1986 85.7737L35.4826 85.7737L35.4826 91.5937L34.1986 91.5937ZM39.9147 91.7557C39.3907 91.7557 38.9167 91.6417 38.4927 91.4137C38.0727 91.1857 37.7387 90.8457 37.4907 90.3937C37.2427 89.9417 37.1187 89.3777 37.1187 88.7017C37.1187 88.0137 37.2427 87.4437 37.4907 86.9917C37.7387 86.5397 38.0727 86.2017 38.4927 85.9777C38.9167 85.7497 39.3907 85.6357 39.9147 85.6357C40.4387 85.6357 40.9087 85.7497 41.3247 85.9777C41.7447 86.2017 42.0767 86.5397 42.3207 86.9917C42.5687 87.4437 42.6927 88.0137 42.6927 88.7017C42.6927 89.3777 42.5687 89.9417 42.3207 90.3937C42.0767 90.8457 41.7447 91.1857 41.3247 91.4137C40.9087 91.6417 40.4387 91.7557 39.9147 91.7557ZM39.8787 90.6337C40.1827 90.6337 40.4487 90.5597 40.6767 90.4117C40.9087 90.2637 41.0887 90.0457 41.2167 89.7577C41.3447 89.4697 41.4087 89.1177 41.4087 88.7017C41.4087 88.0657 41.2807 87.5817 41.0247 87.2497C40.7727 86.9137 40.4167 86.7457 39.9567 86.7457C39.6487 86.7457 39.3787 86.8197 39.1467 86.9677C38.9187 87.1157 38.7407 87.3357 38.6127 87.6277C38.4847 87.9197 38.4207 88.2777 38.4207 88.7017C38.4207 89.3257 38.5487 89.8037 38.8047 90.1357C39.0607 90.4677 39.4187 90.6337 39.8787 90.6337ZM48.1892 91.5937L48.1892 88.1977C48.1892 87.7337 48.0772 87.3837 47.8532 87.1477C47.6332 86.9077 47.3392 86.7877 46.9712 86.7877C46.6712 86.7877 46.4072 86.8697 46.1792 87.0337C45.9512 87.1977 45.7732 87.4417 45.6452 87.7657C45.5172 88.0897 45.4532 88.4877 45.4532 88.9597L45.0152 88.9597C45.0152 88.2277 45.1072 87.6157 45.2912 87.1237C45.4792 86.6317 45.7432 86.2617 46.0832 86.0137C46.4272 85.7617 46.8332 85.6357 47.3012 85.6357C47.7732 85.6357 48.1692 85.7417 48.4892 85.9537C48.8132 86.1657 49.0572 86.4637 49.2212 86.8477C49.3892 87.2317 49.4732 87.6817 49.4732 88.1977L49.4732 91.5937L48.1892 91.5937ZM44.1692 91.5937L44.1692 85.7977L45.2912 85.7977L45.4532 86.9977L45.4532 91.5937L44.1692 91.5937ZM54.0837 91.5937L54.0837 83.8777L55.3677 83.8777L55.3677 91.5937L54.0837 91.5937ZM61.438 91.5937L61.438 88.1977C61.438 87.7337 61.326 87.3837 61.102 87.1477C60.882 86.9077 60.588 86.7877 60.22 86.7877C59.92 86.7877 59.656 86.8697 59.428 87.0337C59.2 87.1977 59.022 87.4417 58.894 87.7657C58.766 88.0897 58.702 88.4877 58.702 88.9597L58.264 88.9597C58.264 88.2277 58.356 87.6157 58.54 87.1237C58.728 86.6317 58.992 86.2617 59.332 86.0137C59.676 85.7617 60.082 85.6357 60.55 85.6357C61.022 85.6357 61.418 85.7417 61.738 85.9537C62.062 86.1657 62.306 86.4637 62.47 86.8477C62.638 87.2317 62.722 87.6817 62.722 88.1977L62.722 91.5937L61.438 91.5937ZM57.418 91.5937L57.418 85.7977L58.54 85.7977L58.702 86.9977L58.702 91.5937L57.418 91.5937ZM67.3205 91.5937L67.3205 83.8777L72.2285 83.8777L72.2285 84.9817L68.6045 84.9817L68.6045 87.1657L72.0125 87.1657L72.0125 88.2757L68.6045 88.2757L68.6045 90.4717L72.2285 90.4717L72.2285 91.5937L67.3205 91.5937ZM73.0637 85.7977L74.5397 85.7977L76.0457 90.4957L75.9317 90.4957L77.4377 85.7977L78.9137 85.7977L76.7057 91.5937L75.2717 91.5937L73.0637 85.7977ZM82.1015 91.7557C81.6055 91.7557 81.1535 91.6277 80.7455 91.3717C80.3415 91.1157 80.0175 90.7577 79.7735 90.2977C79.5335 89.8377 79.4135 89.3037 79.4135 88.6957C79.4135 88.0557 79.5335 87.5077 79.7735 87.0517C80.0135 86.5957 80.3355 86.2457 80.7395 86.0017C81.1475 85.7577 81.6015 85.6357 82.1015 85.6357C82.5615 85.6357 82.9555 85.7277 83.2835 85.9117C83.6115 86.0957 83.8755 86.3437 84.0755 86.6557C84.2795 86.9677 84.4175 87.3217 84.4895 87.7177C84.5615 88.1097 84.5695 88.5157 84.5135 88.9357L80.4395 88.9357L80.4395 88.2217L83.6195 88.2217L83.3435 88.4017C83.3555 88.1977 83.3455 87.9937 83.3135 87.7897C83.2815 87.5857 83.2195 87.3997 83.1275 87.2317C83.0395 87.0597 82.9135 86.9217 82.7495 86.8177C82.5855 86.7137 82.3775 86.6617 82.1255 86.6617C81.8135 86.6617 81.5495 86.7397 81.3335 86.8957C81.1215 87.0517 80.9615 87.2617 80.8535 87.5257C80.7455 87.7897 80.6915 88.0837 80.6915 88.4077L80.6915 88.9237C80.6915 89.2717 80.7435 89.5797 80.8475 89.8477C80.9515 90.1157 81.1075 90.3277 81.3155 90.4837C81.5235 90.6397 81.7855 90.7177 82.1015 90.7177C82.4055 90.7177 82.6575 90.6477 82.8575 90.5077C83.0615 90.3637 83.1895 90.1497 83.2415 89.8657L84.5435 89.8657C84.4835 90.2417 84.3435 90.5717 84.1235 90.8557C83.9035 91.1397 83.6215 91.3617 83.2775 91.5217C82.9335 91.6777 82.5415 91.7557 82.1015 91.7557ZM86.0422 91.5937L86.0422 85.7737L87.3262 85.7737L87.3262 91.5937L86.0422 91.5937ZM86.9962 89.0257C86.9962 88.2737 87.0782 87.6517 87.2422 87.1597C87.4062 86.6637 87.6302 86.2957 87.9142 86.0557C88.1982 85.8117 88.5222 85.6897 88.8862 85.6897C88.9942 85.6897 89.0922 85.6977 89.1802 85.7137C89.2722 85.7257 89.3642 85.7457 89.4562 85.7737L89.4202 87.0517C89.3122 87.0237 89.1962 87.0017 89.0722 86.9857C88.9522 86.9657 88.8422 86.9557 88.7422 86.9557C88.4262 86.9557 88.1622 87.0377 87.9502 87.2017C87.7422 87.3617 87.5862 87.5957 87.4822 87.9037C87.3782 88.2117 87.3262 88.5857 87.3262 89.0257L86.9962 89.0257ZM89.5077 85.7977L90.9597 85.7977L92.5977 90.4717L92.3517 90.4717L93.7197 85.7977L95.0277 85.7977L92.8137 92.6738C92.5977 93.3338 92.3277 93.8178 92.0037 94.1258C91.6797 94.4338 91.2797 94.5878 90.8037 94.5878C90.5357 94.5878 90.2737 94.5558 90.0177 94.4918C89.7657 94.4278 89.5097 94.3298 89.2497 94.1978L89.2497 93.0518C89.4657 93.1998 89.6757 93.3057 89.8797 93.3698C90.0837 93.4378 90.2917 93.4718 90.5037 93.4718C90.7037 93.4718 90.8777 93.4138 91.0257 93.2978C91.1737 93.1818 91.2997 93.0238 91.4037 92.8238C91.5117 92.6278 91.6017 92.4078 91.6737 92.1638L91.8477 91.5937L89.5077 85.7977ZM98.8039 91.5937L98.8039 83.8777L101.462 83.8777C102.326 83.8777 102.996 84.0917 103.472 84.5197C103.948 84.9477 104.186 85.5457 104.186 86.3137C104.186 87.0777 103.948 87.6737 103.472 88.1017C102.996 88.5297 102.326 88.7437 101.462 88.7437L100.1 88.7437L100.1 91.5937L98.8039 91.5937ZM100.1 87.6217L101.462 87.6217C101.926 87.6217 102.276 87.5017 102.512 87.2617C102.748 87.0177 102.866 86.7017 102.866 86.3137C102.866 85.9217 102.748 85.6017 102.512 85.3537C102.276 85.1057 101.926 84.9817 101.462 84.9817L100.1 84.9817L100.1 87.6217ZM105.473 91.5937L105.473 85.7737L106.757 85.7737L106.757 91.5937L105.473 91.5937ZM106.427 89.0257C106.427 88.2737 106.509 87.6517 106.673 87.1597C106.837 86.6637 107.061 86.2957 107.345 86.0557C107.629 85.8117 107.953 85.6897 108.317 85.6897C108.425 85.6897 108.523 85.6977 108.611 85.7137C108.703 85.7257 108.795 85.7457 108.887 85.7737L108.851 87.0517C108.743 87.0237 108.627 87.0017 108.503 86.9857C108.383 86.9657 108.273 86.9557 108.173 86.9557C107.857 86.9557 107.593 87.0377 107.381 87.2017C107.173 87.3617 107.017 87.5957 106.913 87.9037C106.809 88.2117 106.757 88.5857 106.757 89.0257L106.427 89.0257ZM112.07 91.7557C111.546 91.7557 111.072 91.6417 110.648 91.4137C110.228 91.1857 109.894 90.8457 109.646 90.3937C109.398 89.9417 109.274 89.3777 109.274 88.7017C109.274 88.0137 109.398 87.4437 109.646 86.9917C109.894 86.5397 110.228 86.2017 110.648 85.9777C111.072 85.7497 111.546 85.6357 112.07 85.6357C112.594 85.6357 113.064 85.7497 113.48 85.9777C113.9 86.2017 114.232 86.5397 114.476 86.9917C114.724 87.4437 114.848 88.0137 114.848 88.7017C114.848 89.3777 114.724 89.9417 114.476 90.3937C114.232 90.8457 113.9 91.1857 113.48 91.4137C113.064 91.6417 112.594 91.7557 112.07 91.7557ZM112.034 90.6337C112.338 90.6337 112.604 90.5597 112.832 90.4117C113.064 90.2637 113.244 90.0457 113.372 89.7577C113.5 89.4697 113.564 89.1177 113.564 88.7017C113.564 88.0657 113.436 87.5817 113.18 87.2497C112.928 86.9137 112.572 86.7457 112.112 86.7457C111.804 86.7457 111.534 86.8197 111.302 86.9677C111.074 87.1157 110.896 87.3357 110.768 87.6277C110.64 87.9197 110.576 88.2777 110.576 88.7017C110.576 89.3257 110.704 89.8037 110.96 90.1357C111.216 90.4677 111.574 90.6337 112.034 90.6337ZM118.485 91.7557C118.005 91.7557 117.557 91.6297 117.141 91.3777C116.729 91.1257 116.395 90.7697 116.139 90.3097C115.887 89.8497 115.761 89.3097 115.761 88.6897C115.761 88.0337 115.887 87.4797 116.139 87.0277C116.395 86.5717 116.729 86.2257 117.141 85.9897C117.557 85.7537 118.005 85.6357 118.485 85.6357C118.849 85.6357 119.171 85.6937 119.451 85.8097C119.735 85.9257 119.977 86.0817 120.177 86.2777C120.377 86.4737 120.535 86.6937 120.651 86.9377C120.771 87.1777 120.851 87.4237 120.891 87.6757L119.589 87.7237C119.517 87.4477 119.385 87.2237 119.193 87.0517C119.005 86.8757 118.765 86.7877 118.473 86.7877C118.229 86.7877 117.999 86.8557 117.783 86.9917C117.571 87.1237 117.397 87.3297 117.261 87.6097C117.129 87.8897 117.063 88.2497 117.063 88.6897C117.063 89.1017 117.125 89.4497 117.249 89.7337C117.373 90.0137 117.541 90.2277 117.753 90.3757C117.969 90.5197 118.209 90.5917 118.473 90.5917C118.853 90.5917 119.133 90.4997 119.313 90.3157C119.497 90.1277 119.589 89.8757 119.589 89.5597L120.891 89.5597C120.891 89.9677 120.797 90.3377 120.609 90.6697C120.421 91.0017 120.147 91.2657 119.787 91.4617C119.431 91.6577 118.997 91.7557 118.485 91.7557ZM124.514 91.7557C124.018 91.7557 123.566 91.6277 123.158 91.3717C122.754 91.1157 122.43 90.7577 122.186 90.2977C121.946 89.8377 121.826 89.3037 121.826 88.6957C121.826 88.0557 121.946 87.5077 122.186 87.0517C122.426 86.5957 122.748 86.2457 123.152 86.0017C123.56 85.7577 124.014 85.6357 124.514 85.6357C124.974 85.6357 125.368 85.7277 125.696 85.9117C126.024 86.0957 126.288 86.3437 126.488 86.6557C126.692 86.9677 126.83 87.3217 126.902 87.7177C126.974 88.1097 126.982 88.5157 126.926 88.9357L122.852 88.9357L122.852 88.2217L126.032 88.2217L125.756 88.4017C125.768 88.1977 125.758 87.9937 125.726 87.7897C125.694 87.5857 125.632 87.3997 125.54 87.2317C125.452 87.0597 125.326 86.9217 125.162 86.8177C124.998 86.7137 124.79 86.6617 124.538 86.6617C124.226 86.6617 123.962 86.7397 123.746 86.8957C123.534 87.0517 123.374 87.2617 123.266 87.5257C123.158 87.7897 123.104 88.0837 123.104 88.4077L123.104 88.9237C123.104 89.2717 123.156 89.5797 123.26 89.8477C123.364 90.1157 123.52 90.3277 123.728 90.4837C123.936 90.6397 124.198 90.7177 124.514 90.7177C124.818 90.7177 125.07 90.6477 125.27 90.5077C125.474 90.3637 125.602 90.1497 125.654 89.8657L126.956 89.8657C126.896 90.2417 126.756 90.5717 126.536 90.8557C126.316 91.1397 126.034 91.3617 125.69 91.5217C125.346 91.6777 124.954 91.7557 124.514 91.7557ZM130.596 91.7557C130.04 91.7557 129.564 91.6777 129.168 91.5217C128.776 91.3657 128.474 91.1457 128.262 90.8617C128.054 90.5737 127.948 90.2317 127.944 89.8357L129.138 89.8357C129.154 90.1437 129.278 90.3717 129.51 90.5197C129.742 90.6637 130.056 90.7357 130.452 90.7357C130.668 90.7357 130.862 90.7037 131.034 90.6397C131.206 90.5717 131.34 90.4817 131.436 90.3697C131.536 90.2537 131.586 90.1257 131.586 89.9857C131.586 89.8057 131.52 89.6637 131.388 89.5597C131.26 89.4557 131.052 89.3617 130.764 89.2777L129.534 88.8517C129.07 88.6917 128.714 88.4777 128.466 88.2097C128.218 87.9417 128.094 87.6217 128.094 87.2497C128.094 86.7657 128.312 86.3757 128.748 86.0797C129.184 85.7837 129.764 85.6357 130.488 85.6357C131.224 85.6357 131.792 85.7937 132.192 86.1097C132.592 86.4257 132.798 86.8237 132.81 87.3037L131.592 87.3037C131.568 87.0957 131.466 86.9337 131.286 86.8177C131.106 86.6977 130.84 86.6377 130.488 86.6377C130.164 86.6377 129.91 86.7077 129.726 86.8477C129.546 86.9837 129.456 87.1397 129.456 87.3157C129.456 87.6237 129.72 87.8537 130.248 88.0057L131.562 88.4857C132.022 88.6377 132.378 88.8337 132.63 89.0737C132.882 89.3137 133.008 89.6177 133.008 89.9857C133.008 90.2897 132.906 90.5777 132.702 90.8497C132.502 91.1177 132.222 91.3357 131.862 91.5037C131.502 91.6717 131.08 91.7557 130.596 91.7557ZM136.684 91.7557C136.128 91.7557 135.652 91.6777 135.256 91.5217C134.864 91.3657 134.562 91.1457 134.35 90.8617C134.142 90.5737 134.036 90.2317 134.032 89.8357L135.226 89.8357C135.242 90.1437 135.366 90.3717 135.598 90.5197C135.83 90.6637 136.144 90.7357 136.54 90.7357C136.756 90.7357 136.95 90.7037 137.122 90.6397C137.294 90.5717 137.428 90.4817 137.524 90.3697C137.624 90.2537 137.674 90.1257 137.674 89.9857C137.674 89.8057 137.608 89.6637 137.476 89.5597C137.348 89.4557 137.14 89.3617 136.852 89.2777L135.622 88.8517C135.158 88.6917 134.802 88.4777 134.554 88.2097C134.306 87.9417 134.182 87.6217 134.182 87.2497C134.182 86.7657 134.4 86.3757 134.836 86.0797C135.272 85.7837 135.852 85.6357 136.576 85.6357C137.312 85.6357 137.88 85.7937 138.28 86.1097C138.68 86.4257 138.886 86.8237 138.898 87.3037L137.68 87.3037C137.656 87.0957 137.554 86.9337 137.374 86.8177C137.194 86.6977 136.928 86.6377 136.576 86.6377C136.252 86.6377 135.998 86.7077 135.814 86.8477C135.634 86.9837 135.544 87.1397 135.544 87.3157C135.544 87.6237 135.808 87.8537 136.336 88.0057L137.65 88.4857C138.11 88.6377 138.466 88.8337 138.718 89.0737C138.97 89.3137 139.096 89.6177 139.096 89.9857C139.096 90.2897 138.994 90.5777 138.79 90.8497C138.59 91.1177 138.31 91.3357 137.95 91.5037C137.59 91.6717 137.168 91.7557 136.684 91.7557ZM139.796 90.8377C139.796 90.5897 139.88 90.3817 140.048 90.2137C140.22 90.0417 140.438 89.9557 140.702 89.9557C140.966 89.9557 141.186 90.0417 141.362 90.2137C141.542 90.3817 141.632 90.5897 141.632 90.8377C141.632 91.0857 141.542 91.2917 141.362 91.4557C141.186 91.6197 140.966 91.7017 140.702 91.7017C140.438 91.7017 140.22 91.6197 140.048 91.4557C139.88 91.2877 139.796 91.0817 139.796 90.8377ZM145.588 91.5937L145.588 83.8777L150.496 83.8777L150.496 84.9817L146.872 84.9817L146.872 87.1657L150.28 87.1657L150.28 88.2757L146.872 88.2757L146.872 90.4717L150.496 90.4717L150.496 91.5937L145.588 91.5937ZM151.397 91.5937L153.635 88.7017L151.397 85.7737L152.969 85.7737L154.457 87.7297L155.873 85.7737L157.439 85.7737L155.207 88.7017L157.439 91.5937L155.873 91.5937L154.367 89.6377L152.969 91.5937L151.397 91.5937ZM160.733 91.7557C160.253 91.7557 159.805 91.6297 159.389 91.3777C158.977 91.1257 158.643 90.7697 158.387 90.3097C158.135 89.8497 158.009 89.3097 158.009 88.6897C158.009 88.0337 158.135 87.4797 158.387 87.0277C158.643 86.5717 158.977 86.2257 159.389 85.9897C159.805 85.7537 160.253 85.6357 160.733 85.6357C161.097 85.6357 161.419 85.6937 161.699 85.8097C161.983 85.9257 162.225 86.0817 162.425 86.2777C162.625 86.4737 162.783 86.6937 162.899 86.9377C163.019 87.1777 163.099 87.4237 163.139 87.6757L161.837 87.7237C161.765 87.4477 161.633 87.2237 161.441 87.0517C161.253 86.8757 161.013 86.7877 160.721 86.7877C160.477 86.7877 160.247 86.8557 160.031 86.9917C159.819 87.1237 159.645 87.3297 159.509 87.6097C159.377 87.8897 159.311 88.2497 159.311 88.6897C159.311 89.1017 159.373 89.4497 159.497 89.7337C159.621 90.0137 159.789 90.2277 160.001 90.3757C160.217 90.5197 160.457 90.5917 160.721 90.5917C161.101 90.5917 161.381 90.4997 161.561 90.3157C161.745 90.1277 161.837 89.8757 161.837 89.5597L163.139 89.5597C163.139 89.9677 163.045 90.3377 162.857 90.6697C162.669 91.0017 162.395 91.2657 162.035 91.4617C161.679 91.6577 161.245 91.7557 160.733 91.7557ZM166.761 91.7557C166.265 91.7557 165.813 91.6277 165.405 91.3717C165.001 91.1157 164.677 90.7577 164.433 90.2977C164.193 89.8377 164.073 89.3037 164.073 88.6957C164.073 88.0557 164.193 87.5077 164.433 87.0517C164.673 86.5957 164.995 86.2457 165.399 86.0017C165.807 85.7577 166.261 85.6357 166.761 85.6357C167.221 85.6357 167.615 85.7277 167.943 85.9117C168.271 86.0957 168.535 86.3437 168.735 86.6557C168.939 86.9677 169.077 87.3217 169.149 87.7177C169.221 88.1097 169.229 88.5157 169.173 88.9357L165.099 88.9357L165.099 88.2217L168.279 88.2217L168.003 88.4017C168.015 88.1977 168.005 87.9937 167.973 87.7897C167.941 87.5857 167.879 87.3997 167.787 87.2317C167.699 87.0597 167.573 86.9217 167.409 86.8177C167.245 86.7137 167.037 86.6617 166.785 86.6617C166.473 86.6617 166.209 86.7397 165.993 86.8957C165.781 87.0517 165.621 87.2617 165.513 87.5257C165.405 87.7897 165.351 88.0837 165.351 88.4077L165.351 88.9237C165.351 89.2717 165.403 89.5797 165.507 89.8477C165.611 90.1157 165.767 90.3277 165.975 90.4837C166.183 90.6397 166.445 90.7177 166.761 90.7177C167.065 90.7177 167.317 90.6477 167.517 90.5077C167.721 90.3637 167.849 90.1497 167.901 89.8657L169.203 89.8657C169.143 90.2417 169.003 90.5717 168.783 90.8557C168.563 91.1397 168.281 91.3617 167.937 91.5217C167.593 91.6777 167.201 91.7557 166.761 91.7557ZM170.702 91.5937L170.702 83.3737L171.986 83.3737L171.986 91.5937L170.702 91.5937ZM174.036 91.5937L174.036 83.3737L175.32 83.3737L175.32 91.5937L174.036 91.5937ZM179.495 91.7557C178.999 91.7557 178.547 91.6277 178.139 91.3717C177.735 91.1157 177.411 90.7577 177.167 90.2977C176.927 89.8377 176.807 89.3037 176.807 88.6957C176.807 88.0557 176.927 87.5077 177.167 87.0517C177.407 86.5957 177.729 86.2457 178.133 86.0017C178.541 85.7577 178.995 85.6357 179.495 85.6357C179.955 85.6357 180.349 85.7277 180.677 85.9117C181.005 86.0957 181.269 86.3437 181.469 86.6557C181.673 86.9677 181.811 87.3217 181.883 87.7177C181.955 88.1097 181.963 88.5157 181.907 88.9357L177.833 88.9357L177.833 88.2217L181.013 88.2217L180.737 88.4017C180.749 88.1977 180.739 87.9937 180.707 87.7897C180.675 87.5857 180.613 87.3997 180.521 87.2317C180.433 87.0597 180.307 86.9217 180.143 86.8177C179.979 86.7137 179.771 86.6617 179.519 86.6617C179.207 86.6617 178.943 86.7397 178.727 86.8957C178.515 87.0517 178.355 87.2617 178.247 87.5257C178.139 87.7897 178.085 88.0837 178.085 88.4077L178.085 88.9237C178.085 89.2717 178.137 89.5797 178.241 89.8477C178.345 90.1157 178.501 90.3277 178.709 90.4837C178.917 90.6397 179.179 90.7177 179.495 90.7177C179.799 90.7177 180.051 90.6477 180.251 90.5077C180.455 90.3637 180.583 90.1497 180.635 89.8657L181.937 89.8657C181.877 90.2417 181.737 90.5717 181.517 90.8557C181.297 91.1397 181.015 91.3617 180.671 91.5217C180.327 91.6777 179.935 91.7557 179.495 91.7557ZM187.455 91.5937L187.455 88.1977C187.455 87.7337 187.343 87.3837 187.119 87.1477C186.899 86.9077 186.605 86.7877 186.237 86.7877C185.937 86.7877 185.673 86.8697 185.445 87.0337C185.217 87.1977 185.039 87.4417 184.911 87.7657C184.783 88.0897 184.719 88.4877 184.719 88.9597L184.281 88.9597C184.281 88.2277 184.373 87.6157 184.557 87.1237C184.745 86.6317 185.009 86.2617 185.349 86.0137C185.693 85.7617 186.099 85.6357 186.567 85.6357C187.039 85.6357 187.435 85.7417 187.755 85.9537C188.079 86.1657 188.323 86.4637 188.487 86.8477C188.655 87.2317 188.739 87.6817 188.739 88.1977L188.739 91.5937L187.455 91.5937ZM183.435 91.5937L183.435 85.7977L184.557 85.7977L184.719 86.9977L184.719 91.5937L183.435 91.5937ZM192.762 91.7557C192.282 91.7557 191.834 91.6297 191.418 91.3777C191.006 91.1257 190.672 90.7697 190.416 90.3097C190.164 89.8497 190.038 89.3097 190.038 88.6897C190.038 88.0337 190.164 87.4797 190.416 87.0277C190.672 86.5717 191.006 86.2257 191.418 85.9897C191.834 85.7537 192.282 85.6357 192.762 85.6357C193.126 85.6357 193.448 85.6937 193.728 85.8097C194.012 85.9257 194.254 86.0817 194.454 86.2777C194.654 86.4737 194.812 86.6937 194.928 86.9377C195.048 87.1777 195.128 87.4237 195.168 87.6757L193.866 87.7237C193.794 87.4477 193.662 87.2237 193.47 87.0517C193.282 86.8757 193.042 86.7877 192.75 86.7877C192.506 86.7877 192.276 86.8557 192.06 86.9917C191.848 87.1237 191.674 87.3297 191.538 87.6097C191.406 87.8897 191.34 88.2497 191.34 88.6897C191.34 89.1017 191.402 89.4497 191.526 89.7337C191.65 90.0137 191.818 90.2277 192.03 90.3757C192.246 90.5197 192.486 90.5917 192.75 90.5917C193.13 90.5917 193.41 90.4997 193.59 90.3157C193.774 90.1277 193.866 89.8757 193.866 89.5597L195.168 89.5597C195.168 89.9677 195.074 90.3377 194.886 90.6697C194.698 91.0017 194.424 91.2657 194.064 91.4617C193.708 91.6577 193.274 91.7557 192.762 91.7557ZM198.79 91.7557C198.294 91.7557 197.842 91.6277 197.434 91.3717C197.03 91.1157 196.706 90.7577 196.462 90.2977C196.222 89.8377 196.102 89.3037 196.102 88.6957C196.102 88.0557 196.222 87.5077 196.462 87.0517C196.702 86.5957 197.024 86.2457 197.428 86.0017C197.836 85.7577 198.29 85.6357 198.79 85.6357C199.25 85.6357 199.644 85.7277 199.972 85.9117C200.3 86.0957 200.564 86.3437 200.764 86.6557C200.968 86.9677 201.106 87.3217 201.178 87.7177C201.25 88.1097 201.258 88.5157 201.202 88.9357L197.128 88.9357L197.128 88.2217L200.308 88.2217L200.032 88.4017C200.044 88.1977 200.034 87.9937 200.002 87.7897C199.97 87.5857 199.908 87.3997 199.816 87.2317C199.728 87.0597 199.602 86.9217 199.438 86.8177C199.274 86.7137 199.066 86.6617 198.814 86.6617C198.502 86.6617 198.238 86.7397 198.022 86.8957C197.81 87.0517 197.65 87.2617 197.542 87.5257C197.434 87.7897 197.38 88.0837 197.38 88.4077L197.38 88.9237C197.38 89.2717 197.432 89.5797 197.536 89.8477C197.64 90.1157 197.796 90.3277 198.004 90.4837C198.212 90.6397 198.474 90.7177 198.79 90.7177C199.094 90.7177 199.346 90.6477 199.546 90.5077C199.75 90.3637 199.878 90.1497 199.93 89.8657L201.232 89.8657C201.172 90.2417 201.032 90.5717 200.812 90.8557C200.592 91.1397 200.31 91.3617 199.966 91.5217C199.622 91.6777 199.23 91.7557 198.79 91.7557ZM205.479 91.5937L205.479 83.8777L206.763 83.8777L206.763 91.5937L205.479 91.5937ZM212.833 91.5937L212.833 88.1977C212.833 87.7337 212.721 87.3837 212.497 87.1477C212.277 86.9077 211.983 86.7877 211.615 86.7877C211.315 86.7877 211.051 86.8697 210.823 87.0337C210.595 87.1977 210.417 87.4417 210.289 87.7657C210.161 88.0897 210.097 88.4877 210.097 88.9597L209.659 88.9597C209.659 88.2277 209.751 87.6157 209.935 87.1237C210.123 86.6317 210.387 86.2617 210.727 86.0137C211.071 85.7617 211.477 85.6357 211.945 85.6357C212.417 85.6357 212.813 85.7417 213.133 85.9537C213.457 86.1657 213.701 86.4637 213.865 86.8477C214.033 87.2317 214.117 87.6817 214.117 88.1977L214.117 91.5937L212.833 91.5937ZM208.813 91.5937L208.813 85.7977L209.935 85.7977L210.097 86.9977L210.097 91.5937L208.813 91.5937ZM1.26472 107.594L1.26472 99.8777L6.17272 99.8777L6.17272 100.982L2.54872 100.982L2.54872 103.166L5.95672 103.166L5.95672 104.276L2.54872 104.276L2.54872 106.472L6.17272 106.472L6.17272 107.594L1.26472 107.594ZM7.00794 101.798L8.48394 101.798L9.98994 106.496L9.87594 106.496L11.3819 101.798L12.8579 101.798L10.6499 107.594L9.21594 107.594L7.00794 101.798ZM16.0457 107.756C15.5497 107.756 15.0977 107.628 14.6897 107.372C14.2857 107.116 13.9617 106.758 13.7177 106.298C13.4777 105.838 13.3577 105.304 13.3577 104.696C13.3577 104.056 13.4777 103.508 13.7177 103.052C13.9577 102.596 14.2797 102.246 14.6837 102.002C15.0917 101.758 15.5457 101.636 16.0457 101.636C16.5057 101.636 16.8997 101.728 17.2277 101.912C17.5557 102.096 17.8197 102.344 18.0197 102.656C18.2237 102.968 18.3617 103.322 18.4337 103.718C18.5057 104.11 18.5137 104.516 18.4577 104.936L14.3837 104.936L14.3837 104.222L17.5637 104.222L17.2877 104.402C17.2997 104.198 17.2897 103.994 17.2577 103.79C17.2257 103.586 17.1637 103.4 17.0717 103.232C16.9837 103.06 16.8577 102.922 16.6937 102.818C16.5297 102.714 16.3217 102.662 16.0697 102.662C15.7577 102.662 15.4937 102.74 15.2777 102.896C15.0657 103.052 14.9057 103.262 14.7977 103.526C14.6897 103.79 14.6357 104.084 14.6357 104.408L14.6357 104.924C14.6357 105.272 14.6877 105.58 14.7917 105.848C14.8957 106.116 15.0517 106.328 15.2597 106.484C15.4677 106.64 15.7297 106.718 16.0457 106.718C16.3497 106.718 16.6017 106.648 16.8017 106.508C17.0057 106.364 17.1337 106.15 17.1857 105.866L18.4877 105.866C18.4277 106.242 18.2877 106.572 18.0677 106.856C17.8477 107.14 17.5657 107.362 17.2217 107.522C16.8777 107.678 16.4857 107.756 16.0457 107.756ZM19.9864 107.594L19.9864 101.774L21.2704 101.774L21.2704 107.594L19.9864 107.594ZM20.9404 105.026C20.9404 104.274 21.0224 103.652 21.1864 103.16C21.3504 102.664 21.5744 102.296 21.8584 102.056C22.1424 101.812 22.4664 101.69 22.8304 101.69C22.9384 101.69 23.0364 101.698 23.1244 101.714C23.2164 101.726 23.3084 101.746 23.4004 101.774L23.3644 103.052C23.2564 103.024 23.1404 103.002 23.0164 102.986C22.8964 102.966 22.7864 102.956 22.6864 102.956C22.3704 102.956 22.1064 103.038 21.8944 103.202C21.6864 103.362 21.5304 103.596 21.4264 103.904C21.3224 104.212 21.2704 104.586 21.2704 105.026L20.9404 105.026ZM23.4519 101.798L24.9039 101.798L26.5419 106.472L26.2959 106.472L27.6639 101.798L28.9719 101.798L26.7579 108.674C26.5419 109.334 26.2719 109.818 25.9479 110.126C25.6239 110.434 25.2239 110.588 24.7479 110.588C24.4799 110.588 24.2179 110.556 23.9619 110.492C23.7099 110.428 23.4539 110.33 23.1939 110.198L23.1939 109.052C23.4099 109.2 23.6199 109.306 23.8239 109.37C24.0279 109.438 24.2359 109.472 24.4479 109.472C24.6479 109.472 24.8219 109.414 24.9699 109.298C25.1179 109.182 25.2439 109.024 25.3479 108.824C25.4559 108.628 25.5459 108.408 25.6179 108.164L25.7919 107.594L23.4519 101.798ZM32.7481 107.594L32.7481 99.8777L35.4061 99.8777C36.2701 99.8777 36.9401 100.092 37.4161 100.52C37.8921 100.948 38.1301 101.546 38.1301 102.314C38.1301 103.078 37.8921 103.674 37.4161 104.102C36.9401 104.53 36.2701 104.744 35.4061 104.744L34.0441 104.744L34.0441 107.594L32.7481 107.594ZM34.0441 103.622L35.4061 103.622C35.8701 103.622 36.2201 103.502 36.4561 103.262C36.6921 103.018 36.8101 102.702 36.8101 102.314C36.8101 101.922 36.6921 101.602 36.4561 101.354C36.2201 101.106 35.8701 100.982 35.4061 100.982L34.0441 100.982L34.0441 103.622ZM43.083 107.594L42.921 106.22L42.921 103.85C42.921 103.41 42.831 103.088 42.651 102.884C42.471 102.68 42.177 102.578 41.769 102.578C41.533 102.578 41.327 102.612 41.151 102.68C40.975 102.748 40.837 102.85 40.737 102.986C40.641 103.118 40.593 103.282 40.593 103.478L39.183 103.478C39.183 103.042 39.287 102.69 39.495 102.422C39.707 102.15 40.005 101.952 40.389 101.828C40.777 101.7 41.237 101.636 41.769 101.636C42.253 101.636 42.677 101.716 43.041 101.876C43.409 102.032 43.695 102.276 43.899 102.608C44.103 102.94 44.205 103.368 44.205 103.892L44.205 107.594L43.083 107.594ZM41.163 107.756C40.671 107.756 40.261 107.67 39.933 107.498C39.609 107.326 39.365 107.1 39.201 106.82C39.037 106.54 38.955 106.238 38.955 105.914C38.955 105.542 39.051 105.232 39.243 104.984C39.439 104.736 39.711 104.552 40.059 104.432C40.411 104.308 40.821 104.246 41.289 104.246C41.601 104.246 41.899 104.272 42.183 104.324C42.471 104.372 42.757 104.44 43.041 104.528L43.041 105.29C42.813 105.21 42.563 105.148 42.291 105.104C42.023 105.06 41.771 105.038 41.535 105.038C41.187 105.038 40.897 105.106 40.665 105.242C40.437 105.374 40.323 105.598 40.323 105.914C40.323 106.15 40.415 106.352 40.599 106.52C40.783 106.688 41.075 106.772 41.475 106.772C41.771 106.772 42.027 106.706 42.243 106.574C42.459 106.438 42.625 106.27 42.741 106.07C42.861 105.87 42.921 105.672 42.921 105.476L43.227 105.476C43.227 105.884 43.147 106.262 42.987 106.61C42.831 106.954 42.599 107.232 42.291 107.444C41.987 107.652 41.611 107.756 41.163 107.756ZM46.0794 107.594L46.0794 101.774L47.3634 101.774L47.3634 107.594L46.0794 107.594ZM47.0334 105.026C47.0334 104.274 47.1154 103.652 47.2794 103.16C47.4434 102.664 47.6674 102.296 47.9514 102.056C48.2354 101.812 48.5594 101.69 48.9234 101.69C49.0314 101.69 49.1294 101.698 49.2174 101.714C49.3094 101.726 49.4014 101.746 49.4934 101.774L49.4574 103.052C49.3494 103.024 49.2334 103.002 49.1094 102.986C48.9894 102.966 48.8794 102.956 48.7794 102.956C48.4634 102.956 48.1994 103.038 47.9874 103.202C47.7794 103.362 47.6234 103.596 47.5194 103.904C47.4154 104.212 47.3634 104.586 47.3634 105.026L47.0334 105.026ZM52.3588 107.756C52.0228 107.756 51.7168 107.694 51.4408 107.57C51.1688 107.442 50.9508 107.25 50.7868 106.994C50.6228 106.734 50.5408 106.408 50.5408 106.016L50.5408 100.238L51.8188 100.238L51.8188 105.974C51.8188 106.482 52.0608 106.736 52.5448 106.736C52.6928 106.736 52.8388 106.72 52.9828 106.688C53.1268 106.656 53.2888 106.606 53.4688 106.538L53.6548 107.444C53.4388 107.532 53.2248 107.606 53.0128 107.666C52.8048 107.726 52.5868 107.756 52.3588 107.756ZM49.6948 102.656L49.6948 101.798L53.4688 101.798L53.4688 102.656L49.6948 102.656ZM54.0466 106.838C54.0466 106.59 54.1306 106.382 54.2986 106.214C54.4706 106.042 54.6886 105.956 54.9526 105.956C55.2166 105.956 55.4366 106.042 55.6126 106.214C55.7926 106.382 55.8826 106.59 55.8826 106.838C55.8826 107.086 55.7926 107.292 55.6126 107.456C55.4366 107.62 55.2166 107.702 54.9526 107.702C54.6886 107.702 54.4706 107.62 54.2986 107.456C54.1306 107.288 54.0466 107.082 54.0466 106.838Z" fill="black"/>
<path d="M15.9014 34L2.09668 34L2.09668 8.80273L14.6953 8.80273C18.7588 8.80273 22.3213 11.1963 22.3213 15.3711C22.3213 17.8945 21.1895 19.8057 18.9443 21.0859C22.043 22.125 23.583 24.4258 23.583 27.1162C23.583 31.4395 20.1689 34 15.9014 34ZM14.3057 23.7393L8.20117 23.7393L8.20117 28.916L14.3057 28.916C15.9385 28.916 16.959 27.7842 16.959 26.3555C16.959 24.7969 15.957 23.7393 14.3057 23.7393ZM13.3223 13.9053L8.20117 13.9053L8.20117 19.0635L13.5078 19.0635C15.0664 19.0635 15.9756 17.9873 15.9756 16.4844C15.9756 15.0186 14.9736 13.9053 13.3223 13.9053ZM45.9785 28.8789L45.9785 34L26.7744 34L26.7744 8.80273L45.793 8.80273L45.793 13.9424L32.8789 13.9424L32.8789 18.6182L44.3271 18.6182L44.3271 23.7393L32.8789 23.7393L32.8789 28.8789L45.9785 28.8789ZM58.1133 8.43164C61.7686 8.43164 64.5703 9.19238 66.5928 10.1943L66.0918 15.4082C65.1826 14.8145 61.3789 13.7012 58.373 13.7012C56.2207 13.7012 54.4766 14.2578 54.4766 15.9648C54.4766 17.5234 55.9609 17.9131 57.4082 18.3213L61.0078 19.3604C65.6465 20.6963 67.9473 22.6074 67.9473 26.5781C67.9473 31.1982 64.0508 34.3711 57.9092 34.3711C54.1982 34.3711 50.042 33.332 48.3906 32.4043L48.873 27.042C49.5039 27.7285 54.0127 29.0273 57.4824 29.0273C59.7646 29.0273 61.6758 28.4707 61.6758 26.7822C61.6758 25.6133 60.8779 25.0195 59.041 24.5371L55.1074 23.5352C51.749 22.4404 48.2236 20.7891 48.2236 16.2617C48.2236 11.5674 52.1572 8.43164 58.1133 8.43164ZM76.4824 34L76.4824 14.0537L69.0234 14.0537L69.0234 8.80273L90.0088 8.80273L90.0088 14.0537L82.5684 14.0537L82.5684 34L76.4824 34ZM90.1943 21.3643C90.1943 13.7383 95.668 8.43164 103.628 8.43164C111.551 8.43164 116.987 13.7568 116.987 21.3828C116.987 29.0459 111.551 34.3711 103.628 34.3711C95.668 34.3711 90.1943 29.0273 90.1943 21.3643ZM96.4102 21.3828C96.4102 25.7432 99.3604 28.749 103.684 28.749C107.933 28.749 110.771 25.7432 110.771 21.3828C110.771 17.0596 107.933 14.0908 103.684 14.0908C99.3604 14.0908 96.4102 17.0596 96.4102 21.3828ZM120.179 8.80273L125.337 8.80273L134.243 19.3604L143.112 8.80273L148.271 8.80273L148.271 34L142.166 34L142.166 18.2842L134.633 26.9121L133.891 26.9121L126.283 18.2842L126.283 34L120.179 34L120.179 8.80273ZM171.668 28.8789L171.668 34L152.464 34L152.464 8.80273L171.482 8.80273L171.482 13.9424L158.568 13.9424L158.568 18.6182L170.017 18.6182L170.017 23.7393L158.568 23.7393L158.568 28.8789L171.668 28.8789ZM173.134 21.4199C173.134 12.792 180.222 8.43164 187.755 8.43164C190.445 8.43164 193.191 9.00684 195.696 10.1387L195.307 15.4453C193.433 14.5176 191.021 13.9795 188.646 13.9795C183.933 13.9795 179.387 16.0391 179.387 21.3457C179.387 26.0586 183.042 29.0088 187.978 29.0088C190.668 29.0088 193.173 28.415 195.325 27.0605L196.16 32.2373C193.284 33.666 190.315 34.3711 187.031 34.3711C179.461 34.3711 173.134 29.3242 173.134 21.4199ZM205.141 23.7021L205.141 34L199.036 34L199.036 8.80273L205.141 8.80273L205.141 18.5811L216.051 18.5811L216.051 8.80273L222.155 8.80273L222.155 34L216.051 34L216.051 23.7021L205.141 23.7021Z" fill="#10314E"/>
</svg>
