<svg width="258" height="91" viewBox="0 0 258 91" fill="none" xmlns="http://www.w3.org/2000/svg">
<path d="M111.422 22.7656L111.422 26L99.293 26L99.293 10.0859L111.305 10.0859L111.305 13.332L103.148 13.332L103.148 16.2852L110.379 16.2852L110.379 19.5195L103.148 19.5195L103.148 22.7656L111.422 22.7656ZM117.281 16.3906L117.281 26L113.426 26L113.426 10.0859L116.707 10.0859L124.852 19.7891L124.852 10.0859L128.707 10.0859L128.707 26L125.367 26L117.281 16.3906ZM142.43 22.4141L142.43 19.9883L138.727 19.9883L138.727 16.8594L146.285 16.8594L146.285 24.6172C144.445 25.5898 142.031 26.2227 139.957 26.2227C138.105 26.2227 136.477 25.8828 135.07 25.1797C132.27 23.7734 130.723 21.1953 130.723 18.0195C130.723 12.5352 135.281 9.85156 140.168 9.85156C141.973 9.85156 143.824 10.2148 145.512 10.9414L145.254 14.2695C143.848 13.6484 142.137 13.2734 140.508 13.2734C137.449 13.2734 134.672 14.5859 134.672 18.0195C134.672 20.9961 136.852 22.8008 139.77 22.8008C140.508 22.8008 141.738 22.6836 142.43 22.4141ZM152.344 10.0859L152.344 26L148.488 26L148.488 10.0859L152.344 10.0859ZM158.859 16.3906L158.859 26L155.004 26L155.004 10.0859L158.285 10.0859L166.43 19.7891L166.43 10.0859L170.285 10.0859L170.285 26L166.945 26L158.859 16.3906ZM185.063 22.7656L185.063 26L172.934 26L172.934 10.0859L184.945 10.0859L184.945 13.332L176.789 13.332L176.789 16.2852L184.02 16.2852L184.02 19.5195L176.789 19.5195L176.789 22.7656L185.063 22.7656ZM199.195 22.7656L199.195 26L187.066 26L187.066 10.0859L199.078 10.0859L199.078 13.332L190.922 13.332L190.922 16.2852L198.152 16.2852L198.152 19.5195L190.922 19.5195L190.922 22.7656L199.195 22.7656ZM205.055 21.4883L205.055 26L201.199 26L201.199 10.0859L208.758 10.0859C212.191 10.0859 214.816 12.418 214.816 15.7812C214.816 17.8437 213.656 19.6953 211.969 20.6914L216.047 25.9883L211.418 25.9883L208.031 21.4883L205.055 21.4883ZM208.488 13.332L205.055 13.332L205.055 18.2422L208.488 18.2422C209.953 18.2422 210.867 17.1523 210.867 15.7812C210.867 14.3047 209.906 13.332 208.488 13.332ZM221.602 10.0859L221.602 26L217.746 26L217.746 10.0859L221.602 10.0859ZM228.117 16.3906L228.117 26L224.262 26L224.262 10.0859L227.543 10.0859L235.688 19.7891L235.688 10.0859L239.543 10.0859L239.543 26L236.203 26L228.117 16.3906ZM253.266 22.4141L253.266 19.9883L249.563 19.9883L249.563 16.8594L257.121 16.8594L257.121 24.6172C255.281 25.5898 252.867 26.2227 250.793 26.2227C248.941 26.2227 247.313 25.8828 245.906 25.1797C243.105 23.7734 241.559 21.1953 241.559 18.0195C241.559 12.5352 246.117 9.85156 251.004 9.85156C252.809 9.85156 254.66 10.2148 256.348 10.9414L256.09 14.2695C254.684 13.6484 252.973 13.2734 251.344 13.2734C248.285 13.2734 245.508 14.5859 245.508 18.0195C245.508 20.9961 247.688 22.8008 250.605 22.8008C251.344 22.8008 252.574 22.6836 253.266 22.4141ZM40.2656 41.8516C42.5742 41.8516 44.3438 42.332 45.6211 42.9648L45.3047 46.2578C44.7305 45.8828 42.3281 45.1797 40.4297 45.1797C39.0703 45.1797 37.9688 45.5312 37.9688 46.6094C37.9688 47.5937 38.9063 47.8398 39.8203 48.0977L42.0938 48.7539C45.0234 49.5977 46.4766 50.8047 46.4766 53.3125C46.4766 56.2305 44.0156 58.2344 40.1367 58.2344C37.793 58.2344 35.168 57.5781 34.125 56.9922L34.4297 53.6055C34.8281 54.0391 37.6758 54.8594 39.8672 54.8594C41.3086 54.8594 42.5156 54.5078 42.5156 53.4414C42.5156 52.7031 42.0117 52.3281 40.8516 52.0234L38.3672 51.3906C36.2461 50.6992 34.0195 49.6562 34.0195 46.7969C34.0195 43.832 36.5039 41.8516 40.2656 41.8516ZM48.293 52.2695L48.293 42.0859L52.1484 42.0859L52.1484 52.0586C52.1484 54.0391 53.5195 54.8945 55.3008 54.8945C57.1992 54.8945 58.4648 53.957 58.4648 52.0586L58.4648 42.0859L62.3203 42.0859L62.3203 52.2695C62.3203 56.4766 58.9688 58.2344 55.3008 58.2344C51.3281 58.2344 48.293 56.3242 48.293 52.2695ZM64.2539 50.0547C64.2539 44.6055 68.7305 41.8516 73.4883 41.8516C75.1875 41.8516 76.9219 42.2148 78.5039 42.9297L78.2578 46.2812C77.0742 45.6953 75.5508 45.3555 74.0508 45.3555C71.0742 45.3555 68.2031 46.6562 68.2031 50.0078C68.2031 52.9844 70.5117 54.8477 73.6289 54.8477C75.3281 54.8477 76.9102 54.4727 78.2695 53.6172L78.7969 56.8867C76.9805 57.7891 75.1055 58.2344 73.0313 58.2344C68.25 58.2344 64.2539 55.0469 64.2539 50.0547ZM79.6523 50.0547C79.6523 44.6055 84.1289 41.8516 88.8867 41.8516C90.5859 41.8516 92.3203 42.2148 93.9023 42.9297L93.6563 46.2812C92.4727 45.6953 90.9492 45.3555 89.4492 45.3555C86.4727 45.3555 83.6016 46.6562 83.6016 50.0078C83.6016 52.9844 85.9102 54.8477 89.0273 54.8477C90.7266 54.8477 92.3086 54.4727 93.668 53.6172L94.1953 56.8867C92.3789 57.7891 90.5039 58.2344 88.4297 58.2344C83.6484 58.2344 79.6523 55.0469 79.6523 50.0547ZM108.141 54.7656L108.141 58L96.0117 58L96.0117 42.0859L108.023 42.0859L108.023 45.332L99.8672 45.332L99.8672 48.2852L107.098 48.2852L107.098 51.5195L99.8672 51.5195L99.8672 54.7656L108.141 54.7656ZM115.805 41.8516C118.113 41.8516 119.883 42.332 121.16 42.9648L120.844 46.2578C120.27 45.8828 117.867 45.1797 115.969 45.1797C114.609 45.1797 113.508 45.5312 113.508 46.6094C113.508 47.5937 114.445 47.8398 115.359 48.0977L117.633 48.7539C120.563 49.5977 122.016 50.8047 122.016 53.3125C122.016 56.2305 119.555 58.2344 115.676 58.2344C113.332 58.2344 110.707 57.5781 109.664 56.9922L109.969 53.6055C110.367 54.0391 113.215 54.8594 115.406 54.8594C116.848 54.8594 118.055 54.5078 118.055 53.4414C118.055 52.7031 117.551 52.3281 116.391 52.0234L113.906 51.3906C111.785 50.6992 109.559 49.6562 109.559 46.7969C109.559 43.832 112.043 41.8516 115.805 41.8516ZM129.586 41.8516C131.895 41.8516 133.664 42.332 134.941 42.9648L134.625 46.2578C134.051 45.8828 131.648 45.1797 129.75 45.1797C128.391 45.1797 127.289 45.5312 127.289 46.6094C127.289 47.5937 128.227 47.8398 129.141 48.0977L131.414 48.7539C134.344 49.5977 135.797 50.8047 135.797 53.3125C135.797 56.2305 133.336 58.2344 129.457 58.2344C127.113 58.2344 124.488 57.5781 123.445 56.9922L123.75 53.6055C124.148 54.0391 126.996 54.8594 129.188 54.8594C130.629 54.8594 131.836 54.5078 131.836 53.4414C131.836 52.7031 131.332 52.3281 130.172 52.0234L127.688 51.3906C125.566 50.6992 123.34 49.6562 123.34 46.7969C123.34 43.832 125.824 41.8516 129.586 41.8516ZM146.391 58L146.391 45.4023L141.68 45.4023L141.68 42.0859L154.934 42.0859L154.934 45.4023L150.234 45.4023L150.234 58L146.391 58ZM160.359 51.4961L160.359 58L156.504 58L156.504 42.0859L160.359 42.0859L160.359 48.2617L167.25 48.2617L167.25 42.0859L171.105 42.0859L171.105 58L167.25 58L167.25 51.4961L160.359 51.4961ZM177.609 53.4883L177.609 58L173.754 58L173.754 42.0859L181.313 42.0859C184.746 42.0859 187.371 44.418 187.371 47.7812C187.371 49.8437 186.211 51.6953 184.523 52.6914L188.602 57.9883L183.973 57.9883L180.586 53.4883L177.609 53.4883ZM181.043 45.332L177.609 45.332L177.609 50.2422L181.043 50.2422C182.508 50.2422 183.422 49.1523 183.422 47.7812C183.422 46.3047 182.461 45.332 181.043 45.332ZM189.504 50.0195C189.504 45.2031 192.961 41.8516 197.988 41.8516C202.992 41.8516 206.426 45.2148 206.426 50.0312C206.426 54.8711 202.992 58.2344 197.988 58.2344C192.961 58.2344 189.504 54.8594 189.504 50.0195ZM193.43 50.0312C193.43 52.7852 195.293 54.6836 198.023 54.6836C200.707 54.6836 202.5 52.7852 202.5 50.0312C202.5 47.3008 200.707 45.4258 198.023 45.4258C195.293 45.4258 193.43 47.3008 193.43 50.0312ZM208.348 52.2695L208.348 42.0859L212.203 42.0859L212.203 52.0586C212.203 54.0391 213.574 54.8945 215.355 54.8945C217.254 54.8945 218.52 53.957 218.52 52.0586L218.52 42.0859L222.375 42.0859L222.375 52.2695C222.375 56.4766 219.023 58.2344 215.355 58.2344C211.383 58.2344 208.348 56.3242 208.348 52.2695ZM236.016 54.4141L236.016 51.9883L232.313 51.9883L232.313 48.8594L239.871 48.8594L239.871 56.6172C238.031 57.5898 235.617 58.2227 233.543 58.2227C231.691 58.2227 230.063 57.8828 228.656 57.1797C225.855 55.7734 224.309 53.1953 224.309 50.0195C224.309 44.5352 228.867 41.8516 233.754 41.8516C235.559 41.8516 237.41 42.2148 239.098 42.9414L238.84 46.2695C237.434 45.6484 235.723 45.2734 234.094 45.2734C231.035 45.2734 228.258 46.5859 228.258 50.0195C228.258 52.9961 230.438 54.8008 233.355 54.8008C234.094 54.8008 235.324 54.6836 236.016 54.4141ZM245.93 51.4961L245.93 58L242.074 58L242.074 42.0859L245.93 42.0859L245.93 48.2617L252.82 48.2617L252.82 42.0859L256.676 42.0859L256.676 58L252.82 58L252.82 51.4961L245.93 51.4961Z" fill="white"/>
<path d="M81.1359 83.2559L77.3127 83.2559L77.3127 87L75.8625 87L75.8625 75.0645L81.1359 75.0645C83.3772 75.0645 85.302 76.3652 85.302 79.1865C85.302 81.7354 83.3772 83.2559 81.1359 83.2559ZM77.3127 76.3916L77.3127 81.9463L80.9689 81.9463C82.5158 81.9463 83.8166 80.9092 83.8166 79.1953C83.8166 77.2969 82.5158 76.3916 80.9689 76.3916L77.3127 76.3916ZM87.9 78.5625L87.9 79.8105C88.3746 78.835 89.2096 78.3867 90.1764 78.3867C90.774 78.3867 91.2135 78.5361 91.3717 78.6064L91.2311 79.8984C90.9938 79.8105 90.6686 79.6875 90.1236 79.6875C88.9986 79.6875 87.9 80.4258 87.9 82.3154L87.9 87L86.4938 87L86.4938 78.5625L87.9 78.5625ZM99.1113 85.084L99.3574 86.3496C98.373 86.9209 97.3096 87.1758 96.1758 87.1758C93.3369 87.1758 91.377 85.3828 91.377 82.7812C91.377 80.2676 93.1875 78.3867 95.7188 78.3867C98.5752 78.3867 100.192 80.6982 99.7354 83.291L92.8359 83.291C93.0732 84.9521 94.4795 85.8662 96.1143 85.8662C97.0986 85.8662 97.9775 85.6992 99.1113 85.084ZM92.8711 82.1484L98.4609 82.1484C98.3643 80.707 97.3711 79.6875 95.7627 79.6875C94.1719 79.6875 93.0029 80.707 92.8711 82.1484ZM100.532 82.7549C100.532 80.1621 102.456 78.3867 105.278 78.3867C106.42 78.3867 107.396 78.7207 107.809 78.9492L107.66 80.2061C107.097 79.9336 106.253 79.6963 105.278 79.6963C103.3 79.6963 101.947 80.9355 101.947 82.7549C101.947 84.5918 103.309 85.8662 105.295 85.8662C106.148 85.8662 107.106 85.6465 107.73 85.3301L107.958 86.6045C107.211 86.9385 106.227 87.1758 105.295 87.1758C102.465 87.1758 100.532 85.3828 100.532 82.7549ZM109.177 87L109.177 78.5625L110.574 78.5625L110.574 87L109.177 87ZM109.871 76.6025C109.361 76.6025 109.01 76.2422 109.01 75.7324C109.01 75.2227 109.361 74.8711 109.871 74.8711C110.381 74.8711 110.75 75.2227 110.75 75.7324C110.75 76.2422 110.381 76.6025 109.871 76.6025ZM115.114 82.0693L115.993 82.2451C117.672 82.5791 118.56 83.335 118.56 84.6533C118.56 86.2969 117.25 87.1758 115.202 87.1758C114.007 87.1758 112.829 86.9385 112.038 86.543L112.232 85.2949C113.005 85.6904 114.086 85.9277 115.106 85.9277C116.459 85.9277 117.189 85.5059 117.189 84.7236C117.189 83.9678 116.538 83.6514 115.352 83.4229L114.253 83.2031C112.856 82.9307 111.959 82.1924 111.959 80.8916C111.959 79.3887 113.286 78.3867 115.387 78.3867C116.406 78.3867 117.435 78.5801 118.094 78.8525L117.918 80.0742C117.233 79.8018 116.301 79.626 115.475 79.626C114.104 79.626 113.348 80.083 113.348 80.8564C113.348 81.5859 113.928 81.8408 115.114 82.0693ZM119.857 87L119.857 78.5625L121.254 78.5625L121.254 87L119.857 87ZM120.551 76.6025C120.042 76.6025 119.69 76.2422 119.69 75.7324C119.69 75.2227 120.042 74.8711 120.551 74.8711C121.061 74.8711 121.43 75.2227 121.43 75.7324C121.43 76.2422 121.061 76.6025 120.551 76.6025ZM122.622 82.7812C122.622 80.3115 124.538 78.3867 127.104 78.3867C129.671 78.3867 131.587 80.3115 131.587 82.7812C131.587 85.251 129.671 87.1758 127.104 87.1758C124.538 87.1758 122.622 85.251 122.622 82.7812ZM124.02 82.7812C124.02 84.5215 125.329 85.875 127.104 85.875C128.88 85.875 130.189 84.5215 130.189 82.7812C130.189 81.041 128.88 79.6875 127.104 79.6875C125.329 79.6875 124.02 81.041 124.02 82.7812ZM137.173 78.3867C139.397 78.3867 140.733 79.6963 140.733 81.8672L140.733 87L139.344 87L139.344 82.21C139.344 80.5664 138.483 79.7051 136.954 79.7051C135.512 79.7051 134.343 80.6982 134.343 82.2363L134.343 87L132.946 87L132.946 78.5625L134.352 78.5625L134.352 79.8281C134.827 79.0459 135.829 78.3867 137.173 78.3867ZM152.855 82.8955L152.503 82.8955L147.722 77.3408L147.722 87L146.28 87L146.28 75.0645L147.704 75.0645L152.67 81.0146L157.618 75.0645L159.025 75.0645L159.025 87L157.583 87L157.583 77.3232L152.855 82.8955ZM169.445 78.5625L169.445 87L168.047 87L168.047 85.6113C167.415 86.5166 166.307 87.1758 164.796 87.1758C162.379 87.1758 160.542 85.2949 160.542 82.7549C160.542 80.2236 162.379 78.3867 164.796 78.3867C166.307 78.3867 167.415 79.0371 168.047 79.9424L168.047 78.5625L169.445 78.5625ZM164.936 79.6523C163.178 79.6523 161.93 81.0146 161.93 82.7549C161.93 84.5039 163.178 85.9102 164.936 85.9102C166.738 85.9102 168.065 84.5039 168.065 82.7549C168.065 81.0146 166.738 79.6523 164.936 79.6523ZM175.69 78.3867C177.914 78.3867 179.25 79.6963 179.25 81.8672L179.25 87L177.861 87L177.861 82.21C177.861 80.5664 177 79.7051 175.471 79.7051C174.029 79.7051 172.86 80.6982 172.86 82.2363L172.86 87L171.463 87L171.463 78.5625L172.869 78.5625L172.869 79.8281C173.344 79.0459 174.346 78.3867 175.69 78.3867ZM187.306 83.3701L187.306 78.5625L188.686 78.5625L188.686 83.5723C188.686 85.6904 187.192 87.1758 184.863 87.1758C182.534 87.1758 181.039 85.708 181.039 83.625L181.039 78.5625L182.428 78.5625L182.428 83.3701C182.428 84.9521 183.404 85.8662 184.863 85.8662C186.33 85.8662 187.306 84.9521 187.306 83.3701ZM195.16 79.7666L192.558 79.7666L192.558 87L191.161 87L191.161 79.7666L189.57 79.7666L189.57 78.5625L191.17 78.5625L191.17 77.5166C191.17 75.6006 192.391 74.4492 194.325 74.4492C195.081 74.4492 195.564 74.6602 195.714 74.7217L195.547 75.8555C195.309 75.75 194.87 75.6445 194.387 75.6445C193.314 75.6445 192.541 76.1719 192.541 77.6133L192.541 78.5625L195.16 78.5625L195.16 79.7666ZM204.113 78.5625L204.113 87L202.715 87L202.715 85.6113C202.082 86.5166 200.975 87.1758 199.463 87.1758C197.046 87.1758 195.209 85.2949 195.209 82.7549C195.209 80.2236 197.046 78.3867 199.463 78.3867C200.975 78.3867 202.082 79.0371 202.715 79.9424L202.715 78.5625L204.113 78.5625ZM199.604 79.6523C197.846 79.6523 196.598 81.0146 196.598 82.7549C196.598 84.5039 197.846 85.9102 199.604 85.9102C201.405 85.9102 202.733 84.5039 202.733 82.7549C202.733 81.0146 201.405 79.6523 199.604 79.6523ZM205.48 82.7549C205.48 80.1621 207.405 78.3867 210.226 78.3867C211.369 78.3867 212.344 78.7207 212.757 78.9492L212.608 80.2061C212.046 79.9336 211.202 79.6963 210.226 79.6963C208.249 79.6963 206.895 80.9355 206.895 82.7549C206.895 84.5918 208.257 85.8662 210.244 85.8662C211.096 85.8662 212.054 85.6465 212.678 85.3301L212.907 86.6045C212.16 86.9385 211.175 87.1758 210.244 87.1758C207.414 87.1758 205.48 85.3828 205.48 82.7549ZM218.704 79.7666L216.015 79.7666L216.015 84.3281C216.015 85.4355 216.612 85.9189 217.474 85.9189C217.931 85.9189 218.511 85.8311 218.915 85.6816L219.1 86.8857C218.739 87.0439 218.01 87.1758 217.324 87.1758C215.698 87.1758 214.617 86.2793 214.617 84.5566L214.617 79.7666L213.062 79.7666L213.062 78.5625L214.626 78.5625L214.626 75.8555L216.006 75.8555L216.006 78.5625L218.704 78.5625L218.704 79.7666ZM226.083 83.3701L226.083 78.5625L227.463 78.5625L227.463 83.5723C227.463 85.6904 225.969 87.1758 223.64 87.1758C221.311 87.1758 219.817 85.708 219.817 83.625L219.817 78.5625L221.205 78.5625L221.205 83.3701C221.205 84.9521 222.181 85.8662 223.64 85.8662C225.108 85.8662 226.083 84.9521 226.083 83.3701ZM230.764 78.5625L230.764 79.8105C231.239 78.835 232.074 78.3867 233.041 78.3867C233.638 78.3867 234.078 78.5361 234.236 78.6064L234.096 79.8984C233.858 79.8105 233.533 79.6875 232.988 79.6875C231.863 79.6875 230.764 80.4258 230.764 82.3154L230.764 87L229.358 87L229.358 78.5625L230.764 78.5625ZM235.155 87L235.155 78.5625L236.553 78.5625L236.553 87L235.155 87ZM235.85 76.6025C235.34 76.6025 234.988 76.2422 234.988 75.7324C234.988 75.2227 235.34 74.8711 235.85 74.8711C236.36 74.8711 236.729 75.2227 236.729 75.7324C236.729 76.2422 236.36 76.6025 235.85 76.6025ZM242.807 78.3867C245.031 78.3867 246.367 79.6963 246.367 81.8672L246.367 87L244.978 87L244.978 82.21C244.978 80.5664 244.117 79.7051 242.588 79.7051C241.146 79.7051 239.977 80.6982 239.977 82.2363L239.977 87L238.58 87L238.58 78.5625L239.986 78.5625L239.986 79.8281C240.461 79.0459 241.463 78.3867 242.807 78.3867ZM255.144 85.6113C254.528 86.499 253.403 87.1758 251.892 87.1758C249.475 87.1758 247.638 85.2949 247.638 82.7549C247.638 80.2236 249.475 78.3867 251.892 78.3867C253.403 78.3867 254.511 79.0371 255.144 79.9424L255.144 78.5625L256.541 78.5625L256.541 86.4375C256.541 88.8896 254.862 90.6914 251.769 90.6914C250.723 90.6914 249.334 90.4541 248.446 89.9883L248.666 88.7139C249.606 89.1797 250.723 89.4258 251.76 89.4258C253.72 89.4258 255.144 88.4326 255.144 86.543L255.144 85.6113ZM252.032 79.6523C250.274 79.6523 249.026 81.0146 249.026 82.7549C249.026 84.5039 250.274 85.9102 252.032 85.9102C253.834 85.9102 255.161 84.5039 255.161 82.7549C255.161 81.0146 253.834 79.6523 252.032 79.6523Z" fill="white"/>
</svg>
