<svg width="75" height="8" viewBox="0 0 75 8" fill="none" xmlns="http://www.w3.org/2000/svg">
<path d="M0.135511 6.09375L0.135511 1.73011L0.805966 1.73011L0.805966 6.09375L0.135511 6.09375ZM0.476421 1.00284C0.345739 1.00284 0.233049 0.958333 0.138352 0.869318C0.0455493 0.780303 -0.000852226 0.673295 -0.000852226 0.548295C-0.000852226 0.423295 0.0455493 0.316288 0.138352 0.227273C0.233049 0.138258 0.345739 0.09375 0.476421 0.09375C0.607102 0.09375 0.718845 0.138258 0.811648 0.227273C0.906345 0.316288 0.953693 0.423295 0.953693 0.548295C0.953693 0.673295 0.906345 0.780303 0.811648 0.869318C0.718845 0.958333 0.607102 1.00284 0.476421 1.00284ZM2.3044 3.46875L2.3044 6.09375L1.63395 6.09375L1.63395 1.73011L2.28168 1.73011L2.28168 2.41193L2.33849 2.41193C2.44077 2.19034 2.59607 2.01231 2.8044 1.87784C3.01274 1.74148 3.28168 1.6733 3.61122 1.6733C3.90668 1.6733 4.1652 1.7339 4.38679 1.85511C4.60838 1.97443 4.78073 2.15625 4.90384 2.40057C5.02694 2.64299 5.08849 2.94981 5.08849 3.32102L5.08849 6.09375L4.41804 6.09375L4.41804 3.36648C4.41804 3.02367 4.32902 2.75663 4.15099 2.56534C3.97296 2.37216 3.72865 2.27557 3.41804 2.27557C3.20402 2.27557 3.01274 2.32197 2.84418 2.41477C2.67751 2.50758 2.54588 2.64299 2.44929 2.82102C2.3527 2.99905 2.3044 3.21496 2.3044 3.46875ZM7.85682 1.73011L7.85682 2.2983L5.50455 2.2983L5.50455 1.73011L7.85682 1.73011ZM6.20909 6.09375L6.20909 1.12784C6.20909 0.877841 6.2678 0.669507 6.38523 0.502841C6.50265 0.336174 6.65511 0.211174 6.84261 0.127841C7.03011 0.0445072 7.22803 0.00284052 7.43636 0.00284052C7.60114 0.00284052 7.73561 0.0160982 7.83977 0.0426135C7.94394 0.0691285 8.02159 0.0937497 8.07273 0.116477L7.87955 0.696023C7.84545 0.684659 7.79811 0.670454 7.7375 0.653409C7.67879 0.636363 7.60114 0.627841 7.50455 0.627841C7.28295 0.627841 7.12292 0.683712 7.02443 0.795454C6.92784 0.907197 6.87955 1.07102 6.87955 1.28693L6.87955 6.09375L6.20909 6.09375ZM9.98949 6.18466C9.59555 6.18466 9.2499 6.09091 8.95256 5.90341C8.6571 5.71591 8.42604 5.4536 8.25937 5.11648C8.0946 4.77936 8.01222 4.38542 8.01222 3.93466C8.01222 3.48011 8.0946 3.08333 8.25937 2.74432C8.42604 2.4053 8.6571 2.14205 8.95256 1.95455C9.2499 1.76705 9.59555 1.6733 9.98949 1.6733C10.3834 1.6733 10.7281 1.76705 11.0236 1.95455C11.3209 2.14205 11.552 2.4053 11.7168 2.74432C11.8834 3.08333 11.9668 3.48011 11.9668 3.93466C11.9668 4.38542 11.8834 4.77936 11.7168 5.11648C11.552 5.4536 11.3209 5.71591 11.0236 5.90341C10.7281 6.09091 10.3834 6.18466 9.98949 6.18466ZM9.98949 5.58239C10.2887 5.58239 10.5349 5.50568 10.7281 5.35227C10.9213 5.19886 11.0643 4.99716 11.1571 4.74716C11.2499 4.49716 11.2963 4.22633 11.2963 3.93466C11.2963 3.64299 11.2499 3.37121 11.1571 3.11932C11.0643 2.86742 10.9213 2.66383 10.7281 2.50852C10.5349 2.35322 10.2887 2.27557 9.98949 2.27557C9.69025 2.27557 9.44403 2.35322 9.25085 2.50852C9.05767 2.66383 8.91468 2.86742 8.82187 3.11932C8.72907 3.37121 8.68267 3.64299 8.68267 3.93466C8.68267 4.22633 8.72907 4.49716 8.82187 4.74716C8.91468 4.99716 9.05767 5.19886 9.25085 5.35227C9.44403 5.50568 9.69025 5.58239 9.98949 5.58239ZM15.9425 7.62784C15.3629 7.62784 14.8506 7.5483 14.4055 7.3892C13.9605 7.23201 13.5864 7 13.2834 6.69318C12.9804 6.38636 12.7512 6.01042 12.5959 5.56534C12.4406 5.12027 12.3629 4.6108 12.3629 4.03693C12.3629 3.48201 12.4415 2.9858 12.5987 2.5483C12.7578 2.1108 12.9879 1.73958 13.2891 1.43466C13.5921 1.12784 13.9595 0.893939 14.3913 0.732954C14.825 0.57197 15.3156 0.491477 15.8629 0.491477C16.3951 0.491477 16.861 0.578598 17.2607 0.752841C17.6622 0.925189 17.9974 1.15909 18.2663 1.45455C18.5372 1.74811 18.7398 2.0786 18.8743 2.44602C19.0107 2.81345 19.0788 3.19223 19.0788 3.58239C19.0788 3.85701 19.0656 4.13542 19.0391 4.41761C19.0125 4.69981 18.9567 4.95928 18.8714 5.19602C18.7862 5.43087 18.6546 5.62027 18.4766 5.7642C18.3004 5.90814 18.0618 5.98011 17.7607 5.98011C17.6281 5.98011 17.4822 5.95928 17.3232 5.91761C17.1641 5.87595 17.023 5.80682 16.8999 5.71023C16.7768 5.61364 16.7038 5.4839 16.6811 5.32102L16.647 5.32102C16.6016 5.43087 16.5315 5.53504 16.4368 5.63352C16.344 5.73201 16.2218 5.81061 16.0703 5.86932C15.9207 5.92803 15.7379 5.9536 15.522 5.94602C15.2758 5.93655 15.0589 5.88163 14.8714 5.78125C14.6839 5.67898 14.5268 5.54072 14.3999 5.36648C14.2749 5.19034 14.1802 4.98674 14.1158 4.75568C14.0533 4.52273 14.022 4.27178 14.022 4.00284C14.022 3.74716 14.0599 3.51326 14.1357 3.30114C14.2114 3.08902 14.3165 2.90341 14.451 2.74432C14.5874 2.58523 14.7464 2.45833 14.9283 2.36364C15.112 2.26705 15.3099 2.20739 15.522 2.18466C15.7114 2.16572 15.8838 2.17424 16.0391 2.21023C16.1944 2.24432 16.3222 2.2964 16.4226 2.36648C16.523 2.43466 16.5864 2.51042 16.6129 2.59375L16.647 2.59375L16.647 2.27557L17.2493 2.27557L17.2493 4.84375C17.2493 5.00284 17.2938 5.14299 17.3828 5.2642C17.4718 5.38542 17.6016 5.44602 17.772 5.44602C17.9652 5.44602 18.1129 5.37973 18.2152 5.24716C18.3194 5.11458 18.3904 4.91004 18.4283 4.63352C18.468 4.35701 18.4879 4.00284 18.4879 3.57102C18.4879 3.31723 18.4529 3.06723 18.3828 2.82102C18.3146 2.57292 18.2105 2.34091 18.0703 2.125C17.9321 1.90909 17.7569 1.71875 17.5447 1.55398C17.3326 1.3892 17.0836 1.26042 16.7976 1.16761C16.5135 1.07292 16.1906 1.02557 15.8288 1.02557C15.3838 1.02557 14.9851 1.0947 14.6328 1.23295C14.2824 1.36932 13.9841 1.56913 13.7379 1.83239C13.4936 2.09375 13.3071 2.41193 13.1783 2.78693C13.0514 3.16004 12.9879 3.58428 12.9879 4.05966C12.9879 4.54261 13.0514 4.97159 13.1783 5.34659C13.3071 5.72159 13.4964 6.03788 13.7464 6.29545C13.9983 6.55303 14.3099 6.74811 14.6811 6.88068C15.0523 7.01515 15.4804 7.08239 15.9652 7.08239C16.1735 7.08239 16.379 7.0625 16.5817 7.02273C16.7843 6.98295 16.9633 6.93939 17.1186 6.89205C17.2739 6.8447 17.3857 6.80966 17.4538 6.78693L17.6129 7.30966C17.4955 7.3589 17.3421 7.40814 17.1527 7.45739C16.9652 7.50663 16.7644 7.54735 16.5504 7.57955C16.3383 7.61174 16.1357 7.62784 15.9425 7.62784ZM15.6129 5.36648C15.8667 5.36648 16.0722 5.31534 16.2294 5.21307C16.3866 5.1108 16.5012 4.95644 16.5732 4.75C16.6451 4.54356 16.6811 4.28314 16.6811 3.96875C16.6811 3.65057 16.6413 3.40246 16.5618 3.22443C16.4822 3.0464 16.3648 2.9214 16.2095 2.84943C16.0542 2.77746 15.8629 2.74148 15.6357 2.74148C15.4197 2.74148 15.2351 2.7983 15.0817 2.91193C14.9302 3.02367 14.8137 3.1733 14.7322 3.3608C14.6527 3.5464 14.6129 3.74905 14.6129 3.96875C14.6129 4.21117 14.6451 4.43939 14.7095 4.65341C14.7739 4.86553 14.879 5.03788 15.0249 5.17045C15.1707 5.30114 15.3667 5.36648 15.6129 5.36648ZM19.7733 6.09375L19.7733 0.275568L20.4438 0.275568L20.4438 2.4233L20.5006 2.4233C20.5498 2.34754 20.618 2.25095 20.7051 2.13352C20.7941 2.0142 20.921 1.90814 21.0858 1.81534C21.2525 1.72064 21.4778 1.6733 21.7619 1.6733C22.1294 1.6733 22.4532 1.76515 22.7335 1.94886C23.0138 2.13258 23.2326 2.39299 23.3898 2.73011C23.547 3.06723 23.6256 3.46496 23.6256 3.9233C23.6256 4.38542 23.547 4.78598 23.3898 5.125C23.2326 5.46212 23.0148 5.72348 22.7364 5.90909C22.458 6.0928 22.1369 6.18466 21.7733 6.18466C21.493 6.18466 21.2686 6.13826 21.1 6.04545C20.9314 5.95076 20.8017 5.84375 20.7108 5.72443C20.6199 5.60322 20.5498 5.50284 20.5006 5.4233L20.421 5.4233L20.421 6.09375L19.7733 6.09375ZM20.4324 3.91193C20.4324 4.24148 20.4807 4.5322 20.5773 4.78409C20.6739 5.03409 20.815 5.23011 21.0006 5.37216C21.1862 5.51231 21.4134 5.58239 21.6824 5.58239C21.9627 5.58239 22.1966 5.50852 22.3841 5.3608C22.5735 5.21117 22.7155 5.01042 22.8102 4.75852C22.9068 4.50473 22.9551 4.22254 22.9551 3.91193C22.9551 3.60511 22.9078 3.3286 22.8131 3.08239C22.7203 2.83428 22.5792 2.63826 22.3898 2.49432C22.2023 2.34848 21.9665 2.27557 21.6824 2.27557C21.4097 2.27557 21.1805 2.3447 20.9949 2.48295C20.8093 2.61932 20.6691 2.81061 20.5744 3.05682C20.4797 3.30114 20.4324 3.58617 20.4324 3.91193ZM26.0807 6.18466C25.6602 6.18466 25.2975 6.09186 24.9926 5.90625C24.6896 5.71875 24.4557 5.45739 24.2909 5.12216C24.128 4.78504 24.0466 4.39299 24.0466 3.94602C24.0466 3.49905 24.128 3.10511 24.2909 2.7642C24.4557 2.4214 24.6848 2.15436 24.9784 1.96307C25.2739 1.76989 25.6186 1.6733 26.0125 1.6733C26.2398 1.6733 26.4642 1.71117 26.6858 1.78693C26.9074 1.86269 27.1091 1.9858 27.2909 2.15625C27.4727 2.32481 27.6176 2.5483 27.7256 2.8267C27.8335 3.10511 27.8875 3.44792 27.8875 3.85511L27.8875 4.1392L24.5239 4.1392L24.5239 3.55966L27.2057 3.55966C27.2057 3.31345 27.1564 3.09375 27.058 2.90057C26.9614 2.70739 26.8231 2.55492 26.6432 2.44318C26.4652 2.33144 26.2549 2.27557 26.0125 2.27557C25.7455 2.27557 25.5144 2.34186 25.3193 2.47443C25.1261 2.60511 24.9775 2.77557 24.8733 2.9858C24.7691 3.19602 24.717 3.4214 24.717 3.66193L24.717 4.0483C24.717 4.37784 24.7739 4.6572 24.8875 4.88636C25.003 5.11364 25.1631 5.28693 25.3676 5.40625C25.5722 5.52367 25.8098 5.58239 26.0807 5.58239C26.2568 5.58239 26.4159 5.55777 26.558 5.50852C26.7019 5.45739 26.8259 5.38163 26.9301 5.28125C27.0343 5.17898 27.1148 5.05208 27.1716 4.90057L27.8193 5.08239C27.7511 5.30208 27.6366 5.49527 27.4756 5.66193C27.3146 5.8267 27.1157 5.95549 26.879 6.0483C26.6422 6.1392 26.3761 6.18466 26.0807 6.18466ZM31.5983 2.70739L30.996 2.87784C30.9581 2.77746 30.9023 2.67992 30.8284 2.58523C30.7564 2.48864 30.658 2.40909 30.533 2.34659C30.408 2.28409 30.2479 2.25284 30.0528 2.25284C29.7858 2.25284 29.5633 2.31439 29.3852 2.4375C29.2091 2.55871 29.121 2.71307 29.121 2.90057C29.121 3.06723 29.1816 3.19886 29.3028 3.29545C29.4241 3.39205 29.6134 3.47254 29.871 3.53693L30.5187 3.69602C30.9089 3.79072 31.1996 3.93561 31.3909 4.13068C31.5822 4.32386 31.6778 4.57292 31.6778 4.87784C31.6778 5.12784 31.6059 5.35133 31.4619 5.5483C31.3199 5.74527 31.121 5.90057 30.8653 6.0142C30.6097 6.12784 30.3123 6.18466 29.9733 6.18466C29.5282 6.18466 29.1598 6.08807 28.8682 5.89489C28.5765 5.7017 28.3919 5.41951 28.3142 5.0483L28.9506 4.8892C29.0112 5.12405 29.1258 5.30019 29.2943 5.41761C29.4648 5.53504 29.6873 5.59375 29.9619 5.59375C30.2744 5.59375 30.5225 5.52746 30.7062 5.39489C30.8919 5.26042 30.9847 5.09943 30.9847 4.91193C30.9847 4.76042 30.9316 4.63352 30.8256 4.53125C30.7195 4.42708 30.5566 4.34943 30.3369 4.2983L29.6097 4.12784C29.21 4.03314 28.9165 3.88636 28.729 3.6875C28.5434 3.48674 28.4506 3.2358 28.4506 2.93466C28.4506 2.68845 28.5197 2.47064 28.658 2.28125C28.7981 2.09186 28.9884 1.94318 29.229 1.83523C29.4714 1.72727 29.746 1.6733 30.0528 1.6733C30.4847 1.6733 30.8237 1.76799 31.0699 1.95739C31.318 2.14678 31.4941 2.39678 31.5983 2.70739ZM34.1848 1.73011L34.1848 2.2983L31.9234 2.2983L31.9234 1.73011L34.1848 1.73011ZM32.5825 0.684659L33.253 0.684659L33.253 4.84375C33.253 5.03314 33.2804 5.17519 33.3354 5.26989C33.3922 5.36269 33.4642 5.42519 33.5513 5.45739C33.6403 5.48769 33.734 5.50284 33.8325 5.50284C33.9064 5.50284 33.967 5.49905 34.0143 5.49148C34.0617 5.48201 34.0996 5.47443 34.128 5.46875L34.2643 6.07102C34.2189 6.08807 34.1554 6.10511 34.074 6.12216C33.9926 6.1411 33.8893 6.15057 33.7643 6.15057C33.575 6.15057 33.3893 6.10985 33.2075 6.02841C33.0276 5.94697 32.878 5.82292 32.7587 5.65625C32.6412 5.48958 32.5825 5.27936 32.5825 5.02557L32.5825 0.684659ZM36.5192 6.18466C36.1252 6.18466 35.7796 6.09091 35.4822 5.90341C35.1868 5.71591 34.9557 5.4536 34.7891 5.11648C34.6243 4.77936 34.5419 4.38542 34.5419 3.93466C34.5419 3.48011 34.6243 3.08333 34.7891 2.74432C34.9557 2.4053 35.1868 2.14205 35.4822 1.95455C35.7796 1.76705 36.1252 1.6733 36.5192 1.6733C36.9131 1.6733 37.2578 1.76705 37.5533 1.95455C37.8506 2.14205 38.0817 2.4053 38.2464 2.74432C38.4131 3.08333 38.4964 3.48011 38.4964 3.93466C38.4964 4.38542 38.4131 4.77936 38.2464 5.11648C38.0817 5.4536 37.8506 5.71591 37.5533 5.90341C37.2578 6.09091 36.9131 6.18466 36.5192 6.18466ZM36.5192 5.58239C36.8184 5.58239 37.0646 5.50568 37.2578 5.35227C37.451 5.19886 37.594 4.99716 37.6868 4.74716C37.7796 4.49716 37.826 4.22633 37.826 3.93466C37.826 3.64299 37.7796 3.37121 37.6868 3.11932C37.594 2.86742 37.451 2.66383 37.2578 2.50852C37.0646 2.35322 36.8184 2.27557 36.5192 2.27557C36.2199 2.27557 35.9737 2.35322 35.7805 2.50852C35.5874 2.66383 35.4444 2.86742 35.3516 3.11932C35.2588 3.37121 35.2124 3.64299 35.2124 3.93466C35.2124 4.22633 35.2588 4.49716 35.3516 4.74716C35.4444 4.99716 35.5874 5.19886 35.7805 5.35227C35.9737 5.50568 36.2199 5.58239 36.5192 5.58239ZM39.1199 6.09375L39.1199 1.73011L39.7676 1.73011L39.7676 2.41193L39.8244 2.41193C39.9153 2.17898 40.0621 1.99811 40.2648 1.86932C40.4674 1.73864 40.7108 1.6733 40.9949 1.6733C41.2828 1.6733 41.5223 1.73864 41.7136 1.86932C41.9068 1.99811 42.0574 2.17898 42.1653 2.41193L42.2108 2.41193C42.3225 2.18655 42.4902 2.00758 42.7136 1.875C42.9371 1.74053 43.2051 1.6733 43.5176 1.6733C43.9078 1.6733 44.2269 1.79545 44.475 2.03977C44.7231 2.2822 44.8472 2.66004 44.8472 3.1733L44.8472 6.09375L44.1767 6.09375L44.1767 3.1733C44.1767 2.85133 44.0886 2.62121 43.9125 2.48295C43.7364 2.3447 43.529 2.27557 43.2903 2.27557C42.9835 2.27557 42.7458 2.36837 42.5773 2.55398C42.4087 2.73769 42.3244 2.97064 42.3244 3.25284L42.3244 6.09375L41.6426 6.09375L41.6426 3.10511C41.6426 2.85701 41.5621 2.6572 41.4011 2.50568C41.2402 2.35227 41.0328 2.27557 40.779 2.27557C40.6047 2.27557 40.4419 2.32197 40.2903 2.41477C40.1407 2.50758 40.0195 2.63636 39.9267 2.80114C39.8358 2.96402 39.7903 3.15246 39.7903 3.36648L39.7903 6.09375L39.1199 6.09375ZM47.5026 6.18466C47.0821 6.18466 46.7194 6.09186 46.4145 5.90625C46.1115 5.71875 45.8776 5.45739 45.7128 5.12216C45.5499 4.78504 45.4685 4.39299 45.4685 3.94602C45.4685 3.49905 45.5499 3.10511 45.7128 2.7642C45.8776 2.4214 46.1067 2.15436 46.4003 1.96307C46.6957 1.76989 47.0404 1.6733 47.4344 1.6733C47.6616 1.6733 47.8861 1.71117 48.1077 1.78693C48.3293 1.86269 48.531 1.9858 48.7128 2.15625C48.8946 2.32481 49.0395 2.5483 49.1474 2.8267C49.2554 3.10511 49.3094 3.44792 49.3094 3.85511L49.3094 4.1392L45.9457 4.1392L45.9457 3.55966L48.6276 3.55966C48.6276 3.31345 48.5783 3.09375 48.4798 2.90057C48.3832 2.70739 48.245 2.55492 48.0651 2.44318C47.887 2.33144 47.6768 2.27557 47.4344 2.27557C47.1673 2.27557 46.9363 2.34186 46.7412 2.47443C46.548 2.60511 46.3993 2.77557 46.2952 2.9858C46.191 3.19602 46.1389 3.4214 46.1389 3.66193L46.1389 4.0483C46.1389 4.37784 46.1957 4.6572 46.3094 4.88636C46.4249 5.11364 46.5849 5.28693 46.7895 5.40625C46.994 5.52367 47.2317 5.58239 47.5026 5.58239C47.6787 5.58239 47.8378 5.55777 47.9798 5.50852C48.1238 5.45739 48.2478 5.38163 48.352 5.28125C48.4562 5.17898 48.5366 5.05208 48.5935 4.90057L49.2412 5.08239C49.173 5.30208 49.0584 5.49527 48.8974 5.66193C48.7365 5.8267 48.5376 5.95549 48.3009 6.0483C48.0641 6.1392 47.798 6.18466 47.5026 6.18466ZM51.702 6.18466C51.2929 6.18466 50.9406 6.08807 50.6452 5.89489C50.3497 5.7017 50.1224 5.43561 49.9634 5.09659C49.8043 4.75758 49.7247 4.37027 49.7247 3.93466C49.7247 3.49148 49.8062 3.10038 49.969 2.76136C50.1338 2.42045 50.363 2.15436 50.6565 1.96307C50.952 1.76989 51.2967 1.6733 51.6906 1.6733C51.9974 1.6733 52.274 1.73011 52.5202 1.84375C52.7664 1.95739 52.9681 2.11648 53.1253 2.32102C53.2825 2.52557 53.38 2.7642 53.4179 3.03693L52.7474 3.03693C52.6963 2.83807 52.5827 2.66193 52.4065 2.50852C52.2323 2.35322 51.9974 2.27557 51.702 2.27557C51.4406 2.27557 51.2115 2.34375 51.0145 2.48011C50.8194 2.61458 50.6669 2.80492 50.5571 3.05114C50.4491 3.29545 50.3952 3.58239 50.3952 3.91193C50.3952 4.24905 50.4482 4.54261 50.5543 4.79261C50.6622 5.04261 50.8137 5.23674 51.0088 5.375C51.2058 5.51326 51.4368 5.58239 51.702 5.58239C51.8762 5.58239 52.0344 5.55208 52.1764 5.49148C52.3185 5.43087 52.4387 5.34375 52.5372 5.23011C52.6357 5.11648 52.7058 4.98011 52.7474 4.82102L53.4179 4.82102C53.38 5.0786 53.2863 5.31061 53.1366 5.51705C52.9889 5.72159 52.7929 5.88447 52.5486 6.00568C52.3062 6.125 52.024 6.18466 51.702 6.18466ZM54.6685 3.46875L54.6685 6.09375L53.998 6.09375L53.998 0.275568L54.6685 0.275568L54.6685 2.41193L54.7253 2.41193C54.8276 2.18655 54.981 2.00758 55.1855 1.875C55.392 1.74053 55.6666 1.6733 56.0094 1.6733C56.3067 1.6733 56.5671 1.73295 56.7906 1.85227C57.0141 1.9697 57.1874 2.15057 57.3105 2.39489C57.4355 2.63731 57.498 2.94602 57.498 3.32102L57.498 6.09375L56.8276 6.09375L56.8276 3.36648C56.8276 3.01989 56.7376 2.75189 56.5577 2.5625C56.3796 2.37121 56.1325 2.27557 55.8162 2.27557C55.5965 2.27557 55.3995 2.32197 55.2253 2.41477C55.0529 2.50758 54.9166 2.64299 54.8162 2.82102C54.7177 2.99905 54.6685 3.21496 54.6685 3.46875ZM58.8132 6.1392C58.6731 6.1392 58.5528 6.08902 58.4524 5.98864C58.352 5.88826 58.3018 5.76799 58.3018 5.62784C58.3018 5.48769 58.352 5.36742 58.4524 5.26705C58.5528 5.16667 58.6731 5.11648 58.8132 5.11648C58.9534 5.11648 59.0736 5.16667 59.174 5.26705C59.2744 5.36742 59.3246 5.48769 59.3246 5.62784C59.3246 5.72064 59.3009 5.80587 59.2536 5.88352C59.2081 5.96117 59.1465 6.02367 59.0689 6.07102C58.9931 6.11648 58.9079 6.1392 58.8132 6.1392ZM61.9004 6.18466C61.4913 6.18466 61.1391 6.08807 60.8436 5.89489C60.5482 5.7017 60.3209 5.43561 60.1618 5.09659C60.0027 4.75758 59.9232 4.37027 59.9232 3.93466C59.9232 3.49148 60.0046 3.10038 60.1675 2.76136C60.3322 2.42045 60.5614 2.15436 60.855 1.96307C61.1504 1.76989 61.4951 1.6733 61.8891 1.6733C62.1959 1.6733 62.4724 1.73011 62.7186 1.84375C62.9648 1.95739 63.1665 2.11648 63.3237 2.32102C63.4809 2.52557 63.5785 2.7642 63.6163 3.03693L62.9459 3.03693C62.8947 2.83807 62.7811 2.66193 62.605 2.50852C62.4307 2.35322 62.1959 2.27557 61.9004 2.27557C61.6391 2.27557 61.4099 2.34375 61.2129 2.48011C61.0178 2.61458 60.8654 2.80492 60.7555 3.05114C60.6476 3.29545 60.5936 3.58239 60.5936 3.91193C60.5936 4.24905 60.6466 4.54261 60.7527 4.79261C60.8607 5.04261 61.0122 5.23674 61.2072 5.375C61.4042 5.51326 61.6353 5.58239 61.9004 5.58239C62.0747 5.58239 62.2328 5.55208 62.3749 5.49148C62.5169 5.43087 62.6372 5.34375 62.7357 5.23011C62.8341 5.11648 62.9042 4.98011 62.9459 4.82102L63.6163 4.82102C63.5785 5.0786 63.4847 5.31061 63.3351 5.51705C63.1874 5.72159 62.9913 5.88447 62.747 6.00568C62.5046 6.125 62.2224 6.18466 61.9004 6.18466ZM65.9692 6.18466C65.5752 6.18466 65.2296 6.09091 64.9322 5.90341C64.6368 5.71591 64.4057 5.4536 64.2391 5.11648C64.0743 4.77936 63.9919 4.38542 63.9919 3.93466C63.9919 3.48011 64.0743 3.08333 64.2391 2.74432C64.4057 2.4053 64.6368 2.14205 64.9322 1.95455C65.2296 1.76705 65.5752 1.6733 65.9692 1.6733C66.3631 1.6733 66.7078 1.76705 67.0033 1.95455C67.3006 2.14205 67.5317 2.4053 67.6964 2.74432C67.8631 3.08333 67.9464 3.48011 67.9464 3.93466C67.9464 4.38542 67.8631 4.77936 67.6964 5.11648C67.5317 5.4536 67.3006 5.71591 67.0033 5.90341C66.7078 6.09091 66.3631 6.18466 65.9692 6.18466ZM65.9692 5.58239C66.2684 5.58239 66.5146 5.50568 66.7078 5.35227C66.901 5.19886 67.044 4.99716 67.1368 4.74716C67.2296 4.49716 67.276 4.22633 67.276 3.93466C67.276 3.64299 67.2296 3.37121 67.1368 3.11932C67.044 2.86742 66.901 2.66383 66.7078 2.50852C66.5146 2.35322 66.2684 2.27557 65.9692 2.27557C65.6699 2.27557 65.4237 2.35322 65.2305 2.50852C65.0374 2.66383 64.8944 2.86742 64.8016 3.11932C64.7088 3.37121 64.6624 3.64299 64.6624 3.93466C64.6624 4.22633 64.7088 4.49716 64.8016 4.74716C64.8944 4.99716 65.0374 5.19886 65.2305 5.35227C65.4237 5.50568 65.6699 5.58239 65.9692 5.58239ZM68.5699 6.09375L68.5699 1.73011L69.2176 1.73011L69.2176 2.41193L69.2744 2.41193C69.3653 2.17898 69.5121 1.99811 69.7148 1.86932C69.9174 1.73864 70.1608 1.6733 70.4449 1.6733C70.7328 1.6733 70.9724 1.73864 71.1636 1.86932C71.3568 1.99811 71.5074 2.17898 71.6153 2.41193L71.6608 2.41193C71.7725 2.18655 71.9402 2.00758 72.1636 1.875C72.3871 1.74053 72.6551 1.6733 72.9676 1.6733C73.3578 1.6733 73.6769 1.79545 73.925 2.03977C74.1731 2.2822 74.2972 2.66004 74.2972 3.1733L74.2972 6.09375L73.6267 6.09375L73.6267 3.1733C73.6267 2.85133 73.5386 2.62121 73.3625 2.48295C73.1864 2.3447 72.979 2.27557 72.7403 2.27557C72.4335 2.27557 72.1958 2.36837 72.0273 2.55398C71.8587 2.73769 71.7744 2.97064 71.7744 3.25284L71.7744 6.09375L71.0926 6.09375L71.0926 3.10511C71.0926 2.85701 71.0121 2.6572 70.8511 2.50568C70.6902 2.35227 70.4828 2.27557 70.229 2.27557C70.0547 2.27557 69.8919 2.32197 69.7403 2.41477C69.5907 2.50758 69.4695 2.63636 69.3767 2.80114C69.2858 2.96402 69.2403 3.15246 69.2403 3.36648L69.2403 6.09375L68.5699 6.09375Z" fill="#0E3E76"/>
</svg>
