<svg width="81" height="13" viewBox="0 0 81 13" fill="none" xmlns="http://www.w3.org/2000/svg">
<path d="M1.60227 9L0.272727 4.63636L0.977273 4.63636L1.92045 7.97727L1.96591 7.97727L2.89773 4.63636L3.61364 4.63636L4.53409 7.96591L4.57955 7.96591L5.52273 4.63636L6.22727 4.63636L4.89773 9L4.23864 9L3.28409 5.64773L3.21591 5.64773L2.26136 9L1.60227 9ZM7.70227 9L6.37273 4.63636L7.07727 4.63636L8.02045 7.97727L8.06591 7.97727L8.99773 4.63636L9.71364 4.63636L10.6341 7.96591L10.6795 7.96591L11.6227 4.63636L12.3273 4.63636L10.9977 9L10.3386 9L9.38409 5.64773L9.31591 5.64773L8.36136 9L7.70227 9ZM13.8023 9L12.4727 4.63636L13.1773 4.63636L14.1205 7.97727L14.1659 7.97727L15.0977 4.63636L15.8136 4.63636L16.7341 7.96591L16.7795 7.96591L17.7227 4.63636L18.4273 4.63636L17.0977 9L16.4386 9L15.4841 5.64773L15.4159 5.64773L14.4614 9L13.8023 9ZM18.8085 9.04545C18.6684 9.04545 18.5481 8.99527 18.4477 8.89489C18.3473 8.79451 18.2972 8.67424 18.2972 8.53409C18.2972 8.39394 18.3473 8.27367 18.4477 8.1733C18.5481 8.07292 18.6684 8.02273 18.8085 8.02273C18.9487 8.02273 19.0689 8.07292 19.1693 8.1733C19.2697 8.27367 19.3199 8.39394 19.3199 8.53409C19.3199 8.62689 19.2962 8.71212 19.2489 8.78977C19.2034 8.86742 19.1419 8.92992 19.0642 8.97727C18.9884 9.02273 18.9032 9.04545 18.8085 9.04545ZM20.2139 9L20.2139 3.18182L20.8844 3.18182L20.8844 5.32955L20.9412 5.32955C20.9904 5.25379 21.0586 5.1572 21.1457 5.03977C21.2348 4.92045 21.3616 4.81439 21.5264 4.72159C21.6931 4.62689 21.9185 4.57955 22.2026 4.57955C22.57 4.57955 22.8938 4.6714 23.1741 4.85511C23.4545 5.03883 23.6732 5.29924 23.8304 5.63636C23.9876 5.97348 24.0662 6.37121 24.0662 6.82955C24.0662 7.29167 23.9876 7.69223 23.8304 8.03125C23.6732 8.36837 23.4554 8.62973 23.177 8.81534C22.8986 8.99905 22.5776 9.09091 22.2139 9.09091C21.9336 9.09091 21.7092 9.04451 21.5406 8.9517C21.3721 8.85701 21.2423 8.75 21.1514 8.63068C21.0605 8.50947 20.9904 8.40909 20.9412 8.32955L20.8616 8.32955L20.8616 9L20.2139 9ZM20.873 6.81818C20.873 7.14773 20.9213 7.43845 21.0179 7.69034C21.1145 7.94034 21.2556 8.13636 21.4412 8.27841C21.6268 8.41856 21.8541 8.48864 22.123 8.48864C22.4033 8.48864 22.6372 8.41477 22.8247 8.26705C23.0141 8.11742 23.1562 7.91667 23.2509 7.66477C23.3474 7.41098 23.3957 7.12879 23.3957 6.81818C23.3957 6.51136 23.3484 6.23485 23.2537 5.98864C23.1609 5.74053 23.0198 5.54451 22.8304 5.40057C22.6429 5.25473 22.4071 5.18182 22.123 5.18182C21.8503 5.18182 21.6211 5.25095 21.4355 5.3892C21.2499 5.52557 21.1098 5.71686 21.0151 5.96307C20.9204 6.20739 20.873 6.49242 20.873 6.81818ZM26.5213 9.09091C26.1009 9.09091 25.7382 8.99811 25.4332 8.8125C25.1302 8.625 24.8963 8.36364 24.7315 8.02841C24.5687 7.69129 24.4872 7.29924 24.4872 6.85227C24.4872 6.4053 24.5687 6.01136 24.7315 5.67045C24.8963 5.32765 25.1255 5.06061 25.419 4.86932C25.7145 4.67614 26.0592 4.57955 26.4531 4.57955C26.6804 4.57955 26.9048 4.61742 27.1264 4.69318C27.348 4.76894 27.5497 4.89205 27.7315 5.0625C27.9134 5.23106 28.0582 5.45455 28.1662 5.73295C28.2741 6.01136 28.3281 6.35417 28.3281 6.76136L28.3281 7.04545L24.9645 7.04545L24.9645 6.46591L27.6463 6.46591C27.6463 6.2197 27.5971 6 27.4986 5.80682C27.402 5.61364 27.2637 5.46117 27.0838 5.34943C26.9058 5.23769 26.6955 5.18182 26.4531 5.18182C26.1861 5.18182 25.955 5.24811 25.7599 5.38068C25.5668 5.51136 25.4181 5.68182 25.3139 5.89205C25.2098 6.10227 25.1577 6.32765 25.1577 6.56818L25.1577 6.95455C25.1577 7.28409 25.2145 7.56345 25.3281 7.79261C25.4437 8.01989 25.6037 8.19318 25.8082 8.3125C26.0128 8.42992 26.2505 8.48864 26.5213 8.48864C26.6974 8.48864 26.8565 8.46402 26.9986 8.41477C27.1425 8.36364 27.2666 8.28788 27.3707 8.1875C27.4749 8.08523 27.5554 7.95833 27.6122 7.80682L28.2599 7.98864C28.1918 8.20833 28.0772 8.40152 27.9162 8.56818C27.7552 8.73295 27.5563 8.86174 27.3196 8.95455C27.0829 9.04545 26.8168 9.09091 26.5213 9.09091ZM32.0389 5.61364L31.4366 5.78409C31.3988 5.68371 31.3429 5.58617 31.269 5.49148C31.1971 5.39489 31.0986 5.31534 30.9736 5.25284C30.8486 5.19034 30.6885 5.15909 30.4935 5.15909C30.2264 5.15909 30.0039 5.22064 29.8259 5.34375C29.6497 5.46496 29.5616 5.61932 29.5616 5.80682C29.5616 5.97348 29.6223 6.10511 29.7435 6.2017C29.8647 6.2983 30.0541 6.37879 30.3116 6.44318L30.9594 6.60227C31.3495 6.69697 31.6402 6.84186 31.8315 7.03693C32.0228 7.23011 32.1185 7.47917 32.1185 7.78409C32.1185 8.03409 32.0465 8.25758 31.9026 8.45455C31.7605 8.65152 31.5616 8.80682 31.306 8.92045C31.0503 9.03409 30.7529 9.09091 30.4139 9.09091C29.9688 9.09091 29.6005 8.99432 29.3088 8.80114C29.0171 8.60795 28.8325 8.32576 28.7548 7.95455L29.3912 7.79545C29.4518 8.0303 29.5664 8.20644 29.7349 8.32386C29.9054 8.44129 30.1279 8.5 30.4026 8.5C30.7151 8.5 30.9632 8.43371 31.1469 8.30114C31.3325 8.16667 31.4253 8.00568 31.4253 7.81818C31.4253 7.66667 31.3723 7.53977 31.2662 7.4375C31.1601 7.33333 30.9973 7.25568 30.7776 7.20455L30.0503 7.03409C29.6507 6.93939 29.3571 6.79261 29.1696 6.59375C28.984 6.39299 28.8912 6.14205 28.8912 5.84091C28.8912 5.5947 28.9603 5.37689 29.0986 5.1875C29.2387 4.99811 29.4291 4.84943 29.6696 4.74148C29.912 4.63352 30.1866 4.57955 30.4935 4.57955C30.9253 4.57955 31.2643 4.67424 31.5105 4.86364C31.7586 5.05303 31.9348 5.30303 32.0389 5.61364ZM34.6254 4.63636L34.6254 5.20455L32.3641 5.20455L32.3641 4.63636L34.6254 4.63636ZM33.0232 3.59091L33.6936 3.59091L33.6936 7.75C33.6936 7.93939 33.7211 8.08144 33.776 8.17614C33.8328 8.26894 33.9048 8.33144 33.9919 8.36364C34.0809 8.39394 34.1747 8.40909 34.2732 8.40909C34.347 8.40909 34.4076 8.4053 34.455 8.39773C34.5023 8.38826 34.5402 8.38068 34.5686 8.375L34.705 8.97727C34.6595 8.99432 34.5961 9.01136 34.5146 9.02841C34.4332 9.04735 34.33 9.05682 34.205 9.05682C34.0156 9.05682 33.83 9.0161 33.6482 8.93466C33.4682 8.85322 33.3186 8.72917 33.1993 8.5625C33.0819 8.39583 33.0232 8.18561 33.0232 7.93182L33.0232 3.59091ZM36.9598 9.09091C36.5659 9.09091 36.2202 8.99716 35.9229 8.80966C35.6274 8.62216 35.3964 8.35985 35.2297 8.02273C35.0649 7.68561 34.9825 7.29167 34.9825 6.84091C34.9825 6.38636 35.0649 5.98958 35.2297 5.65057C35.3964 5.31155 35.6274 5.0483 35.9229 4.8608C36.2202 4.6733 36.5659 4.57955 36.9598 4.57955C37.3537 4.57955 37.6984 4.6733 37.9939 4.8608C38.2912 5.0483 38.5223 5.31155 38.6871 5.65057C38.8537 5.98958 38.9371 6.38636 38.9371 6.84091C38.9371 7.29167 38.8537 7.68561 38.6871 8.02273C38.5223 8.35985 38.2912 8.62216 37.9939 8.80966C37.6984 8.99716 37.3537 9.09091 36.9598 9.09091ZM36.9598 8.48864C37.259 8.48864 37.5053 8.41193 37.6984 8.25852C37.8916 8.10511 38.0346 7.90341 38.1274 7.65341C38.2202 7.40341 38.2666 7.13258 38.2666 6.84091C38.2666 6.54924 38.2202 6.27746 38.1274 6.02557C38.0346 5.77367 37.8916 5.57008 37.6984 5.41477C37.5053 5.25947 37.259 5.18182 36.9598 5.18182C36.6606 5.18182 36.4143 5.25947 36.2212 5.41477C36.028 5.57008 35.885 5.77367 35.7922 6.02557C35.6994 6.27746 35.653 6.54924 35.653 6.84091C35.653 7.13258 35.6994 7.40341 35.7922 7.65341C35.885 7.90341 36.028 8.10511 36.2212 8.25852C36.4143 8.41193 36.6606 8.48864 36.9598 8.48864ZM39.5605 9L39.5605 4.63636L40.2082 4.63636L40.2082 5.31818L40.2651 5.31818C40.356 5.08523 40.5027 4.90436 40.7054 4.77557C40.9081 4.64489 41.1514 4.57955 41.4355 4.57955C41.7234 4.57955 41.963 4.64489 42.1543 4.77557C42.3474 4.90436 42.498 5.08523 42.606 5.31818L42.6514 5.31818C42.7632 5.0928 42.9308 4.91383 43.1543 4.78125C43.3777 4.64678 43.6457 4.57955 43.9582 4.57955C44.3484 4.57955 44.6675 4.7017 44.9156 4.94602C45.1637 5.18845 45.2878 5.56629 45.2878 6.07955L45.2878 9L44.6173 9L44.6173 6.07955C44.6173 5.75758 44.5293 5.52746 44.3531 5.3892C44.177 5.25095 43.9696 5.18182 43.731 5.18182C43.4241 5.18182 43.1865 5.27462 43.0179 5.46023C42.8493 5.64394 42.7651 5.87689 42.7651 6.15909L42.7651 9L42.0832 9L42.0832 6.01136C42.0832 5.76326 42.0027 5.56345 41.8418 5.41193C41.6808 5.25852 41.4734 5.18182 41.2196 5.18182C41.0454 5.18182 40.8825 5.22822 40.731 5.32102C40.5813 5.41383 40.4601 5.54261 40.3673 5.70739C40.2764 5.87027 40.231 6.05871 40.231 6.27273L40.231 9L39.5605 9ZM47.9432 9.09091C47.5227 9.09091 47.16 8.99811 46.8551 8.8125C46.5521 8.625 46.3182 8.36364 46.1534 8.02841C45.9905 7.69129 45.9091 7.29924 45.9091 6.85227C45.9091 6.4053 45.9905 6.01136 46.1534 5.67045C46.3182 5.32765 46.5473 5.06061 46.8409 4.86932C47.1364 4.67614 47.4811 4.57955 47.875 4.57955C48.1023 4.57955 48.3267 4.61742 48.5483 4.69318C48.7699 4.76894 48.9716 4.89205 49.1534 5.0625C49.3352 5.23106 49.4801 5.45455 49.5881 5.73295C49.696 6.01136 49.75 6.35417 49.75 6.76136L49.75 7.04545L46.3864 7.04545L46.3864 6.46591L49.0682 6.46591C49.0682 6.2197 49.0189 6 48.9205 5.80682C48.8239 5.61364 48.6856 5.46117 48.5057 5.34943C48.3277 5.23769 48.1174 5.18182 47.875 5.18182C47.608 5.18182 47.3769 5.24811 47.1818 5.38068C46.9886 5.51136 46.84 5.68182 46.7358 5.89205C46.6316 6.10227 46.5795 6.32765 46.5795 6.56818L46.5795 6.95455C46.5795 7.28409 46.6364 7.56345 46.75 7.79261C46.8655 8.01989 47.0256 8.19318 47.2301 8.3125C47.4347 8.42992 47.6723 8.48864 47.9432 8.48864C48.1193 8.48864 48.2784 8.46402 48.4205 8.41477C48.5644 8.36364 48.6884 8.28788 48.7926 8.1875C48.8968 8.08523 48.9773 7.95833 49.0341 7.80682L49.6818 7.98864C49.6136 8.20833 49.4991 8.40152 49.3381 8.56818C49.1771 8.73295 48.9782 8.86174 48.7415 8.95455C48.5047 9.04545 48.2386 9.09091 47.9432 9.09091ZM52.1426 9.09091C51.7335 9.09091 51.3812 8.99432 51.0858 8.80114C50.7903 8.60795 50.5631 8.34186 50.404 8.00284C50.2449 7.66383 50.1653 7.27652 50.1653 6.84091C50.1653 6.39773 50.2468 6.00663 50.4097 5.66761C50.5744 5.3267 50.8036 5.06061 51.0972 4.86932C51.3926 4.67614 51.7373 4.57955 52.1312 4.57955C52.4381 4.57955 52.7146 4.63636 52.9608 4.75C53.207 4.86364 53.4087 5.02273 53.5659 5.22727C53.7231 5.43182 53.8206 5.67045 53.8585 5.94318L53.1881 5.94318C53.1369 5.74432 53.0233 5.56818 52.8472 5.41477C52.6729 5.25947 52.4381 5.18182 52.1426 5.18182C51.8812 5.18182 51.6521 5.25 51.4551 5.38636C51.26 5.52083 51.1076 5.71117 50.9977 5.95739C50.8898 6.2017 50.8358 6.48864 50.8358 6.81818C50.8358 7.1553 50.8888 7.44886 50.9949 7.69886C51.1028 7.94886 51.2544 8.14299 51.4494 8.28125C51.6464 8.41951 51.8775 8.48864 52.1426 8.48864C52.3169 8.48864 52.475 8.45833 52.617 8.39773C52.7591 8.33712 52.8794 8.25 52.9778 8.13636C53.0763 8.02273 53.1464 7.88636 53.1881 7.72727L53.8585 7.72727C53.8206 7.98485 53.7269 8.21686 53.5773 8.4233C53.4295 8.62784 53.2335 8.79072 52.9892 8.91193C52.7468 9.03125 52.4646 9.09091 52.1426 9.09091ZM55.1091 6.375L55.1091 9L54.4386 9L54.4386 3.18182L55.1091 3.18182L55.1091 5.31818L55.1659 5.31818C55.2682 5.0928 55.4216 4.91383 55.6261 4.78125C55.8326 4.64678 56.1072 4.57955 56.45 4.57955C56.7473 4.57955 57.0078 4.6392 57.2313 4.75852C57.4547 4.87595 57.628 5.05682 57.7511 5.30114C57.8761 5.54356 57.9386 5.85227 57.9386 6.22727L57.9386 9L57.2682 9L57.2682 6.27273C57.2682 5.92614 57.1782 5.65814 56.9983 5.46875C56.8203 5.27746 56.5731 5.18182 56.2568 5.18182C56.0371 5.18182 55.8402 5.22822 55.6659 5.32102C55.4936 5.41383 55.3572 5.54924 55.2568 5.72727C55.1583 5.9053 55.1091 6.12121 55.1091 6.375ZM59.2538 9.04545C59.1137 9.04545 58.9934 8.99527 58.893 8.89489C58.7927 8.79451 58.7425 8.67424 58.7425 8.53409C58.7425 8.39394 58.7927 8.27367 58.893 8.1733C58.9934 8.07292 59.1137 8.02273 59.2538 8.02273C59.394 8.02273 59.5143 8.07292 59.6146 8.1733C59.715 8.27367 59.7652 8.39394 59.7652 8.53409C59.7652 8.62689 59.7415 8.71212 59.6942 8.78977C59.6487 8.86742 59.5872 8.92992 59.5095 8.97727C59.4338 9.02273 59.3485 9.04545 59.2538 9.04545ZM62.3411 9.09091C61.932 9.09091 61.5797 8.99432 61.2842 8.80114C60.9888 8.60795 60.7615 8.34186 60.6024 8.00284C60.4433 7.66383 60.3638 7.27652 60.3638 6.84091C60.3638 6.39773 60.4452 6.00663 60.6081 5.66761C60.7729 5.3267 61.002 5.06061 61.2956 4.86932C61.5911 4.67614 61.9357 4.57955 62.3297 4.57955C62.6365 4.57955 62.913 4.63636 63.1592 4.75C63.4054 4.86364 63.6072 5.02273 63.7643 5.22727C63.9215 5.43182 64.0191 5.67045 64.057 5.94318L63.3865 5.94318C63.3354 5.74432 63.2217 5.56818 63.0456 5.41477C62.8714 5.25947 62.6365 5.18182 62.3411 5.18182C62.0797 5.18182 61.8505 5.25 61.6536 5.38636C61.4585 5.52083 61.306 5.71117 61.1962 5.95739C61.0882 6.2017 61.0342 6.48864 61.0342 6.81818C61.0342 7.1553 61.0873 7.44886 61.1933 7.69886C61.3013 7.94886 61.4528 8.14299 61.6479 8.28125C61.8448 8.41951 62.0759 8.48864 62.3411 8.48864C62.5153 8.48864 62.6734 8.45833 62.8155 8.39773C62.9575 8.33712 63.0778 8.25 63.1763 8.13636C63.2748 8.02273 63.3448 7.88636 63.3865 7.72727L64.057 7.72727C64.0191 7.98485 63.9253 8.21686 63.7757 8.4233C63.628 8.62784 63.432 8.79072 63.1876 8.91193C62.9452 9.03125 62.663 9.09091 62.3411 9.09091ZM66.4098 9.09091C66.0159 9.09091 65.6702 8.99716 65.3729 8.80966C65.0774 8.62216 64.8464 8.35985 64.6797 8.02273C64.5149 7.68561 64.4325 7.29167 64.4325 6.84091C64.4325 6.38636 64.5149 5.98958 64.6797 5.65057C64.8464 5.31155 65.0774 5.0483 65.3729 4.8608C65.6702 4.6733 66.0159 4.57955 66.4098 4.57955C66.8037 4.57955 67.1484 4.6733 67.4439 4.8608C67.7412 5.0483 67.9723 5.31155 68.1371 5.65057C68.3037 5.98958 68.3871 6.38636 68.3871 6.84091C68.3871 7.29167 68.3037 7.68561 68.1371 8.02273C67.9723 8.35985 67.7412 8.62216 67.4439 8.80966C67.1484 8.99716 66.8037 9.09091 66.4098 9.09091ZM66.4098 8.48864C66.709 8.48864 66.9553 8.41193 67.1484 8.25852C67.3416 8.10511 67.4846 7.90341 67.5774 7.65341C67.6702 7.40341 67.7166 7.13258 67.7166 6.84091C67.7166 6.54924 67.6702 6.27746 67.5774 6.02557C67.4846 5.77367 67.3416 5.57008 67.1484 5.41477C66.9553 5.25947 66.709 5.18182 66.4098 5.18182C66.1106 5.18182 65.8643 5.25947 65.6712 5.41477C65.478 5.57008 65.335 5.77367 65.2422 6.02557C65.1494 6.27746 65.103 6.54924 65.103 6.84091C65.103 7.13258 65.1494 7.40341 65.2422 7.65341C65.335 7.90341 65.478 8.10511 65.6712 8.25852C65.8643 8.41193 66.1106 8.48864 66.4098 8.48864ZM69.0105 9L69.0105 4.63636L69.6582 4.63636L69.6582 5.31818L69.7151 5.31818C69.806 5.08523 69.9527 4.90436 70.1554 4.77557C70.358 4.64489 70.6014 4.57955 70.8855 4.57955C71.1734 4.57955 71.413 4.64489 71.6043 4.77557C71.7974 4.90436 71.948 5.08523 72.056 5.31818L72.1014 5.31818C72.2132 5.0928 72.3808 4.91383 72.6043 4.78125C72.8277 4.64678 73.0957 4.57955 73.4082 4.57955C73.7984 4.57955 74.1175 4.7017 74.3656 4.94602C74.6137 5.18845 74.7378 5.56629 74.7378 6.07955L74.7378 9L74.0673 9L74.0673 6.07955C74.0673 5.75758 73.9793 5.52746 73.8031 5.3892C73.627 5.25095 73.4196 5.18182 73.181 5.18182C72.8741 5.18182 72.6365 5.27462 72.4679 5.46023C72.2993 5.64394 72.2151 5.87689 72.2151 6.15909L72.2151 9L71.5332 9L71.5332 6.01136C71.5332 5.76326 71.4527 5.56345 71.2918 5.41193C71.1308 5.25852 70.9234 5.18182 70.6696 5.18182C70.4954 5.18182 70.3325 5.22822 70.181 5.32102C70.0313 5.41383 69.9101 5.54261 69.8173 5.70739C69.7264 5.87027 69.681 6.05871 69.681 6.27273L69.681 9L69.0105 9Z" fill="#0E3E76"/>
<path d="M79.4409 1.30682L79.4409 10.875L78.8727 10.875L78.8727 1.30682L79.4409 1.30682Z" fill="#0E3E76"/>
</svg>
